%TF.GenerationSoftware,KiCad,Pcbnew,9.0.3*%
%TF.CreationDate,2025-09-07T14:34:17+02:00*%
%TF.ProjectId,LoTiBloxy,4c6f5469-426c-46f7-9879-2e6b69636164,rev?*%
%TF.SameCoordinates,Original*%
%TF.FileFunction,AssemblyDrawing,Top*%
%FSLAX46Y46*%
G04 Gerber Fmt 4.6, Leading zero omitted, Abs format (unit mm)*
G04 Created by KiCad (PCBNEW 9.0.3) date 2025-09-07 14:34:17*
%MOMM*%
%LPD*%
G01*
G04 APERTURE LIST*
%ADD10C,0.150000*%
%ADD11C,0.040000*%
%ADD12C,0.060000*%
%ADD13C,0.075000*%
%ADD14C,0.050000*%
%ADD15C,0.508000*%
%ADD16C,0.025400*%
%ADD17C,0.100000*%
%ADD18C,0.127000*%
%ADD19C,0.203078*%
%ADD20C,0.751247*%
%ADD21C,0.070000*%
%ADD22C,0.100000*%
%TD*%
G04 APERTURE END LIST*
D10*
X87900480Y-87666666D02*
X87186195Y-87666666D01*
X87186195Y-87666666D02*
X87043338Y-87619047D01*
X87043338Y-87619047D02*
X86948100Y-87523809D01*
X86948100Y-87523809D02*
X86900480Y-87380952D01*
X86900480Y-87380952D02*
X86900480Y-87285714D01*
X87805242Y-88095238D02*
X87852861Y-88142857D01*
X87852861Y-88142857D02*
X87900480Y-88238095D01*
X87900480Y-88238095D02*
X87900480Y-88476190D01*
X87900480Y-88476190D02*
X87852861Y-88571428D01*
X87852861Y-88571428D02*
X87805242Y-88619047D01*
X87805242Y-88619047D02*
X87710004Y-88666666D01*
X87710004Y-88666666D02*
X87614766Y-88666666D01*
X87614766Y-88666666D02*
X87471909Y-88619047D01*
X87471909Y-88619047D02*
X86900480Y-88047619D01*
X86900480Y-88047619D02*
X86900480Y-88666666D01*
X131559104Y-103320577D02*
X131559104Y-102844387D01*
X131844819Y-103415815D02*
X130844819Y-103082482D01*
X130844819Y-103082482D02*
X131844819Y-102749149D01*
X131178152Y-102415815D02*
X131844819Y-102415815D01*
X131273390Y-102415815D02*
X131225771Y-102368196D01*
X131225771Y-102368196D02*
X131178152Y-102272958D01*
X131178152Y-102272958D02*
X131178152Y-102130101D01*
X131178152Y-102130101D02*
X131225771Y-102034863D01*
X131225771Y-102034863D02*
X131321009Y-101987244D01*
X131321009Y-101987244D02*
X131844819Y-101987244D01*
X131178152Y-101653910D02*
X131178152Y-101272958D01*
X130844819Y-101511053D02*
X131701961Y-101511053D01*
X131701961Y-101511053D02*
X131797200Y-101463434D01*
X131797200Y-101463434D02*
X131844819Y-101368196D01*
X131844819Y-101368196D02*
X131844819Y-101272958D01*
X131797200Y-100558672D02*
X131844819Y-100653910D01*
X131844819Y-100653910D02*
X131844819Y-100844386D01*
X131844819Y-100844386D02*
X131797200Y-100939624D01*
X131797200Y-100939624D02*
X131701961Y-100987243D01*
X131701961Y-100987243D02*
X131321009Y-100987243D01*
X131321009Y-100987243D02*
X131225771Y-100939624D01*
X131225771Y-100939624D02*
X131178152Y-100844386D01*
X131178152Y-100844386D02*
X131178152Y-100653910D01*
X131178152Y-100653910D02*
X131225771Y-100558672D01*
X131225771Y-100558672D02*
X131321009Y-100511053D01*
X131321009Y-100511053D02*
X131416247Y-100511053D01*
X131416247Y-100511053D02*
X131511485Y-100987243D01*
X131178152Y-100082481D02*
X131844819Y-100082481D01*
X131273390Y-100082481D02*
X131225771Y-100034862D01*
X131225771Y-100034862D02*
X131178152Y-99939624D01*
X131178152Y-99939624D02*
X131178152Y-99796767D01*
X131178152Y-99796767D02*
X131225771Y-99701529D01*
X131225771Y-99701529D02*
X131321009Y-99653910D01*
X131321009Y-99653910D02*
X131844819Y-99653910D01*
X131178152Y-99177719D02*
X131844819Y-99177719D01*
X131273390Y-99177719D02*
X131225771Y-99130100D01*
X131225771Y-99130100D02*
X131178152Y-99034862D01*
X131178152Y-99034862D02*
X131178152Y-98892005D01*
X131178152Y-98892005D02*
X131225771Y-98796767D01*
X131225771Y-98796767D02*
X131321009Y-98749148D01*
X131321009Y-98749148D02*
X131844819Y-98749148D01*
X131844819Y-97844386D02*
X131321009Y-97844386D01*
X131321009Y-97844386D02*
X131225771Y-97892005D01*
X131225771Y-97892005D02*
X131178152Y-97987243D01*
X131178152Y-97987243D02*
X131178152Y-98177719D01*
X131178152Y-98177719D02*
X131225771Y-98272957D01*
X131797200Y-97844386D02*
X131844819Y-97939624D01*
X131844819Y-97939624D02*
X131844819Y-98177719D01*
X131844819Y-98177719D02*
X131797200Y-98272957D01*
X131797200Y-98272957D02*
X131701961Y-98320576D01*
X131701961Y-98320576D02*
X131606723Y-98320576D01*
X131606723Y-98320576D02*
X131511485Y-98272957D01*
X131511485Y-98272957D02*
X131463866Y-98177719D01*
X131463866Y-98177719D02*
X131463866Y-97939624D01*
X131463866Y-97939624D02*
X131416247Y-97844386D01*
X131940057Y-97606291D02*
X131940057Y-96844386D01*
X131797200Y-96653909D02*
X131844819Y-96511052D01*
X131844819Y-96511052D02*
X131844819Y-96272957D01*
X131844819Y-96272957D02*
X131797200Y-96177719D01*
X131797200Y-96177719D02*
X131749580Y-96130100D01*
X131749580Y-96130100D02*
X131654342Y-96082481D01*
X131654342Y-96082481D02*
X131559104Y-96082481D01*
X131559104Y-96082481D02*
X131463866Y-96130100D01*
X131463866Y-96130100D02*
X131416247Y-96177719D01*
X131416247Y-96177719D02*
X131368628Y-96272957D01*
X131368628Y-96272957D02*
X131321009Y-96463433D01*
X131321009Y-96463433D02*
X131273390Y-96558671D01*
X131273390Y-96558671D02*
X131225771Y-96606290D01*
X131225771Y-96606290D02*
X131130533Y-96653909D01*
X131130533Y-96653909D02*
X131035295Y-96653909D01*
X131035295Y-96653909D02*
X130940057Y-96606290D01*
X130940057Y-96606290D02*
X130892438Y-96558671D01*
X130892438Y-96558671D02*
X130844819Y-96463433D01*
X130844819Y-96463433D02*
X130844819Y-96225338D01*
X130844819Y-96225338D02*
X130892438Y-96082481D01*
X131844819Y-95653909D02*
X130844819Y-95653909D01*
X131844819Y-95225338D02*
X131321009Y-95225338D01*
X131321009Y-95225338D02*
X131225771Y-95272957D01*
X131225771Y-95272957D02*
X131178152Y-95368195D01*
X131178152Y-95368195D02*
X131178152Y-95511052D01*
X131178152Y-95511052D02*
X131225771Y-95606290D01*
X131225771Y-95606290D02*
X131273390Y-95653909D01*
X131844819Y-94749147D02*
X131178152Y-94749147D01*
X130844819Y-94749147D02*
X130892438Y-94796766D01*
X130892438Y-94796766D02*
X130940057Y-94749147D01*
X130940057Y-94749147D02*
X130892438Y-94701528D01*
X130892438Y-94701528D02*
X130844819Y-94749147D01*
X130844819Y-94749147D02*
X130940057Y-94749147D01*
X131797200Y-93892005D02*
X131844819Y-93987243D01*
X131844819Y-93987243D02*
X131844819Y-94177719D01*
X131844819Y-94177719D02*
X131797200Y-94272957D01*
X131797200Y-94272957D02*
X131701961Y-94320576D01*
X131701961Y-94320576D02*
X131321009Y-94320576D01*
X131321009Y-94320576D02*
X131225771Y-94272957D01*
X131225771Y-94272957D02*
X131178152Y-94177719D01*
X131178152Y-94177719D02*
X131178152Y-93987243D01*
X131178152Y-93987243D02*
X131225771Y-93892005D01*
X131225771Y-93892005D02*
X131321009Y-93844386D01*
X131321009Y-93844386D02*
X131416247Y-93844386D01*
X131416247Y-93844386D02*
X131511485Y-94320576D01*
X131844819Y-93272957D02*
X131797200Y-93368195D01*
X131797200Y-93368195D02*
X131701961Y-93415814D01*
X131701961Y-93415814D02*
X130844819Y-93415814D01*
X131844819Y-92463433D02*
X130844819Y-92463433D01*
X131797200Y-92463433D02*
X131844819Y-92558671D01*
X131844819Y-92558671D02*
X131844819Y-92749147D01*
X131844819Y-92749147D02*
X131797200Y-92844385D01*
X131797200Y-92844385D02*
X131749580Y-92892004D01*
X131749580Y-92892004D02*
X131654342Y-92939623D01*
X131654342Y-92939623D02*
X131368628Y-92939623D01*
X131368628Y-92939623D02*
X131273390Y-92892004D01*
X131273390Y-92892004D02*
X131225771Y-92844385D01*
X131225771Y-92844385D02*
X131178152Y-92749147D01*
X131178152Y-92749147D02*
X131178152Y-92558671D01*
X131178152Y-92558671D02*
X131225771Y-92463433D01*
X139169104Y-98434862D02*
X139169104Y-97958672D01*
X139454819Y-98530100D02*
X138454819Y-98196767D01*
X138454819Y-98196767D02*
X139454819Y-97863434D01*
X138931009Y-97530100D02*
X138931009Y-97196767D01*
X139454819Y-97053910D02*
X139454819Y-97530100D01*
X139454819Y-97530100D02*
X138454819Y-97530100D01*
X138454819Y-97530100D02*
X138454819Y-97053910D01*
X138550057Y-96672957D02*
X138502438Y-96625338D01*
X138502438Y-96625338D02*
X138454819Y-96530100D01*
X138454819Y-96530100D02*
X138454819Y-96292005D01*
X138454819Y-96292005D02*
X138502438Y-96196767D01*
X138502438Y-96196767D02*
X138550057Y-96149148D01*
X138550057Y-96149148D02*
X138645295Y-96101529D01*
X138645295Y-96101529D02*
X138740533Y-96101529D01*
X138740533Y-96101529D02*
X138883390Y-96149148D01*
X138883390Y-96149148D02*
X139454819Y-96720576D01*
X139454819Y-96720576D02*
X139454819Y-96101529D01*
D11*
X107271667Y-95418200D02*
X107185000Y-95294391D01*
X107123095Y-95418200D02*
X107123095Y-95158200D01*
X107123095Y-95158200D02*
X107222143Y-95158200D01*
X107222143Y-95158200D02*
X107246905Y-95170581D01*
X107246905Y-95170581D02*
X107259286Y-95182962D01*
X107259286Y-95182962D02*
X107271667Y-95207724D01*
X107271667Y-95207724D02*
X107271667Y-95244867D01*
X107271667Y-95244867D02*
X107259286Y-95269629D01*
X107259286Y-95269629D02*
X107246905Y-95282010D01*
X107246905Y-95282010D02*
X107222143Y-95294391D01*
X107222143Y-95294391D02*
X107123095Y-95294391D01*
X107519286Y-95418200D02*
X107370714Y-95418200D01*
X107445000Y-95418200D02*
X107445000Y-95158200D01*
X107445000Y-95158200D02*
X107420238Y-95195343D01*
X107420238Y-95195343D02*
X107395476Y-95220105D01*
X107395476Y-95220105D02*
X107370714Y-95232486D01*
D10*
X96978990Y-92491666D02*
X96978990Y-92158333D01*
X96455180Y-92158333D02*
X97455180Y-92158333D01*
X97455180Y-92158333D02*
X97455180Y-92634523D01*
X96978990Y-93348809D02*
X96931371Y-93491666D01*
X96931371Y-93491666D02*
X96883752Y-93539285D01*
X96883752Y-93539285D02*
X96788514Y-93586904D01*
X96788514Y-93586904D02*
X96645657Y-93586904D01*
X96645657Y-93586904D02*
X96550419Y-93539285D01*
X96550419Y-93539285D02*
X96502800Y-93491666D01*
X96502800Y-93491666D02*
X96455180Y-93396428D01*
X96455180Y-93396428D02*
X96455180Y-93015476D01*
X96455180Y-93015476D02*
X97455180Y-93015476D01*
X97455180Y-93015476D02*
X97455180Y-93348809D01*
X97455180Y-93348809D02*
X97407561Y-93444047D01*
X97407561Y-93444047D02*
X97359942Y-93491666D01*
X97359942Y-93491666D02*
X97264704Y-93539285D01*
X97264704Y-93539285D02*
X97169466Y-93539285D01*
X97169466Y-93539285D02*
X97074228Y-93491666D01*
X97074228Y-93491666D02*
X97026609Y-93444047D01*
X97026609Y-93444047D02*
X96978990Y-93348809D01*
X96978990Y-93348809D02*
X96978990Y-93015476D01*
X96455180Y-94539285D02*
X96455180Y-93967857D01*
X96455180Y-94253571D02*
X97455180Y-94253571D01*
X97455180Y-94253571D02*
X97312323Y-94158333D01*
X97312323Y-94158333D02*
X97217085Y-94063095D01*
X97217085Y-94063095D02*
X97169466Y-93967857D01*
D11*
X110477957Y-102760714D02*
X110489862Y-102772618D01*
X110489862Y-102772618D02*
X110501766Y-102808333D01*
X110501766Y-102808333D02*
X110501766Y-102832142D01*
X110501766Y-102832142D02*
X110489862Y-102867856D01*
X110489862Y-102867856D02*
X110466052Y-102891666D01*
X110466052Y-102891666D02*
X110442242Y-102903571D01*
X110442242Y-102903571D02*
X110394623Y-102915475D01*
X110394623Y-102915475D02*
X110358909Y-102915475D01*
X110358909Y-102915475D02*
X110311290Y-102903571D01*
X110311290Y-102903571D02*
X110287481Y-102891666D01*
X110287481Y-102891666D02*
X110263671Y-102867856D01*
X110263671Y-102867856D02*
X110251766Y-102832142D01*
X110251766Y-102832142D02*
X110251766Y-102808333D01*
X110251766Y-102808333D02*
X110263671Y-102772618D01*
X110263671Y-102772618D02*
X110275576Y-102760714D01*
X110275576Y-102665475D02*
X110263671Y-102653571D01*
X110263671Y-102653571D02*
X110251766Y-102629761D01*
X110251766Y-102629761D02*
X110251766Y-102570237D01*
X110251766Y-102570237D02*
X110263671Y-102546428D01*
X110263671Y-102546428D02*
X110275576Y-102534523D01*
X110275576Y-102534523D02*
X110299385Y-102522618D01*
X110299385Y-102522618D02*
X110323195Y-102522618D01*
X110323195Y-102522618D02*
X110358909Y-102534523D01*
X110358909Y-102534523D02*
X110501766Y-102677380D01*
X110501766Y-102677380D02*
X110501766Y-102522618D01*
X110501766Y-102284523D02*
X110501766Y-102427380D01*
X110501766Y-102355952D02*
X110251766Y-102355952D01*
X110251766Y-102355952D02*
X110287481Y-102379761D01*
X110287481Y-102379761D02*
X110311290Y-102403571D01*
X110311290Y-102403571D02*
X110323195Y-102427380D01*
X94758333Y-93289765D02*
X94746429Y-93301670D01*
X94746429Y-93301670D02*
X94710714Y-93313574D01*
X94710714Y-93313574D02*
X94686905Y-93313574D01*
X94686905Y-93313574D02*
X94651191Y-93301670D01*
X94651191Y-93301670D02*
X94627381Y-93277860D01*
X94627381Y-93277860D02*
X94615476Y-93254050D01*
X94615476Y-93254050D02*
X94603572Y-93206431D01*
X94603572Y-93206431D02*
X94603572Y-93170717D01*
X94603572Y-93170717D02*
X94615476Y-93123098D01*
X94615476Y-93123098D02*
X94627381Y-93099289D01*
X94627381Y-93099289D02*
X94651191Y-93075479D01*
X94651191Y-93075479D02*
X94686905Y-93063574D01*
X94686905Y-93063574D02*
X94710714Y-93063574D01*
X94710714Y-93063574D02*
X94746429Y-93075479D01*
X94746429Y-93075479D02*
X94758333Y-93087384D01*
X94841667Y-93063574D02*
X95008333Y-93063574D01*
X95008333Y-93063574D02*
X94901191Y-93313574D01*
X113739765Y-104535714D02*
X113751670Y-104547618D01*
X113751670Y-104547618D02*
X113763574Y-104583333D01*
X113763574Y-104583333D02*
X113763574Y-104607142D01*
X113763574Y-104607142D02*
X113751670Y-104642856D01*
X113751670Y-104642856D02*
X113727860Y-104666666D01*
X113727860Y-104666666D02*
X113704050Y-104678571D01*
X113704050Y-104678571D02*
X113656431Y-104690475D01*
X113656431Y-104690475D02*
X113620717Y-104690475D01*
X113620717Y-104690475D02*
X113573098Y-104678571D01*
X113573098Y-104678571D02*
X113549289Y-104666666D01*
X113549289Y-104666666D02*
X113525479Y-104642856D01*
X113525479Y-104642856D02*
X113513574Y-104607142D01*
X113513574Y-104607142D02*
X113513574Y-104583333D01*
X113513574Y-104583333D02*
X113525479Y-104547618D01*
X113525479Y-104547618D02*
X113537384Y-104535714D01*
X113763574Y-104297618D02*
X113763574Y-104440475D01*
X113763574Y-104369047D02*
X113513574Y-104369047D01*
X113513574Y-104369047D02*
X113549289Y-104392856D01*
X113549289Y-104392856D02*
X113573098Y-104416666D01*
X113573098Y-104416666D02*
X113585003Y-104440475D01*
X113513574Y-104214285D02*
X113513574Y-104059523D01*
X113513574Y-104059523D02*
X113608812Y-104142857D01*
X113608812Y-104142857D02*
X113608812Y-104107142D01*
X113608812Y-104107142D02*
X113620717Y-104083333D01*
X113620717Y-104083333D02*
X113632622Y-104071428D01*
X113632622Y-104071428D02*
X113656431Y-104059523D01*
X113656431Y-104059523D02*
X113715955Y-104059523D01*
X113715955Y-104059523D02*
X113739765Y-104071428D01*
X113739765Y-104071428D02*
X113751670Y-104083333D01*
X113751670Y-104083333D02*
X113763574Y-104107142D01*
X113763574Y-104107142D02*
X113763574Y-104178571D01*
X113763574Y-104178571D02*
X113751670Y-104202380D01*
X113751670Y-104202380D02*
X113739765Y-104214285D01*
D12*
X100022057Y-96460632D02*
X100003009Y-96479680D01*
X100003009Y-96479680D02*
X99945867Y-96498727D01*
X99945867Y-96498727D02*
X99907771Y-96498727D01*
X99907771Y-96498727D02*
X99850628Y-96479680D01*
X99850628Y-96479680D02*
X99812533Y-96441584D01*
X99812533Y-96441584D02*
X99793486Y-96403489D01*
X99793486Y-96403489D02*
X99774438Y-96327299D01*
X99774438Y-96327299D02*
X99774438Y-96270156D01*
X99774438Y-96270156D02*
X99793486Y-96193965D01*
X99793486Y-96193965D02*
X99812533Y-96155870D01*
X99812533Y-96155870D02*
X99850628Y-96117775D01*
X99850628Y-96117775D02*
X99907771Y-96098727D01*
X99907771Y-96098727D02*
X99945867Y-96098727D01*
X99945867Y-96098727D02*
X100003009Y-96117775D01*
X100003009Y-96117775D02*
X100022057Y-96136822D01*
X100403009Y-96498727D02*
X100174438Y-96498727D01*
X100288724Y-96498727D02*
X100288724Y-96098727D01*
X100288724Y-96098727D02*
X100250628Y-96155870D01*
X100250628Y-96155870D02*
X100212533Y-96193965D01*
X100212533Y-96193965D02*
X100174438Y-96213013D01*
X100650628Y-96098727D02*
X100688723Y-96098727D01*
X100688723Y-96098727D02*
X100726819Y-96117775D01*
X100726819Y-96117775D02*
X100745866Y-96136822D01*
X100745866Y-96136822D02*
X100764914Y-96174918D01*
X100764914Y-96174918D02*
X100783961Y-96251108D01*
X100783961Y-96251108D02*
X100783961Y-96346346D01*
X100783961Y-96346346D02*
X100764914Y-96422537D01*
X100764914Y-96422537D02*
X100745866Y-96460632D01*
X100745866Y-96460632D02*
X100726819Y-96479680D01*
X100726819Y-96479680D02*
X100688723Y-96498727D01*
X100688723Y-96498727D02*
X100650628Y-96498727D01*
X100650628Y-96498727D02*
X100612533Y-96479680D01*
X100612533Y-96479680D02*
X100593485Y-96460632D01*
X100593485Y-96460632D02*
X100574438Y-96422537D01*
X100574438Y-96422537D02*
X100555390Y-96346346D01*
X100555390Y-96346346D02*
X100555390Y-96251108D01*
X100555390Y-96251108D02*
X100574438Y-96174918D01*
X100574438Y-96174918D02*
X100593485Y-96136822D01*
X100593485Y-96136822D02*
X100612533Y-96117775D01*
X100612533Y-96117775D02*
X100650628Y-96098727D01*
D10*
X119923880Y-95131190D02*
X118923880Y-95797856D01*
X119923880Y-95797856D02*
X118923880Y-95131190D01*
X119923880Y-96035952D02*
X119923880Y-96607380D01*
X118923880Y-96321666D02*
X119923880Y-96321666D01*
X119209595Y-96893095D02*
X119209595Y-97369285D01*
X118923880Y-96797857D02*
X119923880Y-97131190D01*
X119923880Y-97131190D02*
X118923880Y-97464523D01*
X118923880Y-98274047D02*
X118923880Y-97797857D01*
X118923880Y-97797857D02*
X119923880Y-97797857D01*
X118923880Y-99131190D02*
X118923880Y-98559762D01*
X118923880Y-98845476D02*
X119923880Y-98845476D01*
X119923880Y-98845476D02*
X119781023Y-98750238D01*
X119781023Y-98750238D02*
X119685785Y-98655000D01*
X119685785Y-98655000D02*
X119638166Y-98559762D01*
X124028095Y-101368253D02*
X124075714Y-101320634D01*
X124075714Y-101320634D02*
X124170952Y-101273015D01*
X124170952Y-101273015D02*
X124409047Y-101273015D01*
X124409047Y-101273015D02*
X124504285Y-101320634D01*
X124504285Y-101320634D02*
X124551904Y-101368253D01*
X124551904Y-101368253D02*
X124599523Y-101463491D01*
X124599523Y-101463491D02*
X124599523Y-101558729D01*
X124599523Y-101558729D02*
X124551904Y-101701586D01*
X124551904Y-101701586D02*
X123980476Y-102273015D01*
X123980476Y-102273015D02*
X124599523Y-102273015D01*
X125028095Y-101606348D02*
X125028095Y-102273015D01*
X125028095Y-101701586D02*
X125075714Y-101653967D01*
X125075714Y-101653967D02*
X125170952Y-101606348D01*
X125170952Y-101606348D02*
X125313809Y-101606348D01*
X125313809Y-101606348D02*
X125409047Y-101653967D01*
X125409047Y-101653967D02*
X125456666Y-101749205D01*
X125456666Y-101749205D02*
X125456666Y-102273015D01*
X125932857Y-102273015D02*
X125932857Y-101273015D01*
X125932857Y-101749205D02*
X126504285Y-101749205D01*
X126504285Y-102273015D02*
X126504285Y-101273015D01*
X125123333Y-102273015D02*
X124647143Y-102273015D01*
X124647143Y-102273015D02*
X124647143Y-101273015D01*
X125932857Y-101273015D02*
X125456667Y-101273015D01*
X125456667Y-101273015D02*
X125409048Y-101749205D01*
X125409048Y-101749205D02*
X125456667Y-101701586D01*
X125456667Y-101701586D02*
X125551905Y-101653967D01*
X125551905Y-101653967D02*
X125790000Y-101653967D01*
X125790000Y-101653967D02*
X125885238Y-101701586D01*
X125885238Y-101701586D02*
X125932857Y-101749205D01*
X125932857Y-101749205D02*
X125980476Y-101844443D01*
X125980476Y-101844443D02*
X125980476Y-102082538D01*
X125980476Y-102082538D02*
X125932857Y-102177776D01*
X125932857Y-102177776D02*
X125885238Y-102225396D01*
X125885238Y-102225396D02*
X125790000Y-102273015D01*
X125790000Y-102273015D02*
X125551905Y-102273015D01*
X125551905Y-102273015D02*
X125456667Y-102225396D01*
X125456667Y-102225396D02*
X125409048Y-102177776D01*
X94754811Y-102425790D02*
X94754811Y-101949599D01*
X95088144Y-102949599D02*
X94754811Y-102425790D01*
X94754811Y-102425790D02*
X94421478Y-102949599D01*
X94088144Y-102473409D02*
X93754811Y-102473409D01*
X93611954Y-101949599D02*
X94088144Y-101949599D01*
X94088144Y-101949599D02*
X94088144Y-102949599D01*
X94088144Y-102949599D02*
X93611954Y-102949599D01*
X92707192Y-101949599D02*
X93183382Y-101949599D01*
X93183382Y-101949599D02*
X93183382Y-102949599D01*
X91897668Y-101949599D02*
X92373858Y-101949599D01*
X92373858Y-101949599D02*
X92373858Y-102949599D01*
X91373858Y-102949599D02*
X91183382Y-102949599D01*
X91183382Y-102949599D02*
X91088144Y-102901980D01*
X91088144Y-102901980D02*
X90992906Y-102806742D01*
X90992906Y-102806742D02*
X90945287Y-102616266D01*
X90945287Y-102616266D02*
X90945287Y-102282933D01*
X90945287Y-102282933D02*
X90992906Y-102092457D01*
X90992906Y-102092457D02*
X91088144Y-101997219D01*
X91088144Y-101997219D02*
X91183382Y-101949599D01*
X91183382Y-101949599D02*
X91373858Y-101949599D01*
X91373858Y-101949599D02*
X91469096Y-101997219D01*
X91469096Y-101997219D02*
X91564334Y-102092457D01*
X91564334Y-102092457D02*
X91611953Y-102282933D01*
X91611953Y-102282933D02*
X91611953Y-102616266D01*
X91611953Y-102616266D02*
X91564334Y-102806742D01*
X91564334Y-102806742D02*
X91469096Y-102901980D01*
X91469096Y-102901980D02*
X91373858Y-102949599D01*
X90611953Y-102949599D02*
X90373858Y-101949599D01*
X90373858Y-101949599D02*
X90183382Y-102663885D01*
X90183382Y-102663885D02*
X89992906Y-101949599D01*
X89992906Y-101949599D02*
X89754811Y-102949599D01*
X88135763Y-101949599D02*
X88611953Y-101949599D01*
X88611953Y-101949599D02*
X88611953Y-102949599D01*
X87802429Y-102473409D02*
X87469096Y-102473409D01*
X87326239Y-101949599D02*
X87802429Y-101949599D01*
X87802429Y-101949599D02*
X87802429Y-102949599D01*
X87802429Y-102949599D02*
X87326239Y-102949599D01*
X86897667Y-101949599D02*
X86897667Y-102949599D01*
X86897667Y-102949599D02*
X86659572Y-102949599D01*
X86659572Y-102949599D02*
X86516715Y-102901980D01*
X86516715Y-102901980D02*
X86421477Y-102806742D01*
X86421477Y-102806742D02*
X86373858Y-102711504D01*
X86373858Y-102711504D02*
X86326239Y-102521028D01*
X86326239Y-102521028D02*
X86326239Y-102378171D01*
X86326239Y-102378171D02*
X86373858Y-102187695D01*
X86373858Y-102187695D02*
X86421477Y-102092457D01*
X86421477Y-102092457D02*
X86516715Y-101997219D01*
X86516715Y-101997219D02*
X86659572Y-101949599D01*
X86659572Y-101949599D02*
X86897667Y-101949599D01*
X91397667Y-101949599D02*
X91397667Y-102949599D01*
X91397667Y-102949599D02*
X91159572Y-102949599D01*
X91159572Y-102949599D02*
X91016715Y-102901980D01*
X91016715Y-102901980D02*
X90921477Y-102806742D01*
X90921477Y-102806742D02*
X90873858Y-102711504D01*
X90873858Y-102711504D02*
X90826239Y-102521028D01*
X90826239Y-102521028D02*
X90826239Y-102378171D01*
X90826239Y-102378171D02*
X90873858Y-102187695D01*
X90873858Y-102187695D02*
X90921477Y-102092457D01*
X90921477Y-102092457D02*
X91016715Y-101997219D01*
X91016715Y-101997219D02*
X91159572Y-101949599D01*
X91159572Y-101949599D02*
X91397667Y-101949599D01*
X89873858Y-101949599D02*
X90445286Y-101949599D01*
X90159572Y-101949599D02*
X90159572Y-102949599D01*
X90159572Y-102949599D02*
X90254810Y-102806742D01*
X90254810Y-102806742D02*
X90350048Y-102711504D01*
X90350048Y-102711504D02*
X90445286Y-102663885D01*
D11*
X104503067Y-86224200D02*
X104416400Y-86100391D01*
X104354495Y-86224200D02*
X104354495Y-85964200D01*
X104354495Y-85964200D02*
X104453543Y-85964200D01*
X104453543Y-85964200D02*
X104478305Y-85976581D01*
X104478305Y-85976581D02*
X104490686Y-85988962D01*
X104490686Y-85988962D02*
X104503067Y-86013724D01*
X104503067Y-86013724D02*
X104503067Y-86050867D01*
X104503067Y-86050867D02*
X104490686Y-86075629D01*
X104490686Y-86075629D02*
X104478305Y-86088010D01*
X104478305Y-86088010D02*
X104453543Y-86100391D01*
X104453543Y-86100391D02*
X104354495Y-86100391D01*
X104626876Y-86224200D02*
X104676400Y-86224200D01*
X104676400Y-86224200D02*
X104701162Y-86211820D01*
X104701162Y-86211820D02*
X104713543Y-86199439D01*
X104713543Y-86199439D02*
X104738305Y-86162296D01*
X104738305Y-86162296D02*
X104750686Y-86112772D01*
X104750686Y-86112772D02*
X104750686Y-86013724D01*
X104750686Y-86013724D02*
X104738305Y-85988962D01*
X104738305Y-85988962D02*
X104725924Y-85976581D01*
X104725924Y-85976581D02*
X104701162Y-85964200D01*
X104701162Y-85964200D02*
X104651638Y-85964200D01*
X104651638Y-85964200D02*
X104626876Y-85976581D01*
X104626876Y-85976581D02*
X104614495Y-85988962D01*
X104614495Y-85988962D02*
X104602114Y-86013724D01*
X104602114Y-86013724D02*
X104602114Y-86075629D01*
X104602114Y-86075629D02*
X104614495Y-86100391D01*
X104614495Y-86100391D02*
X104626876Y-86112772D01*
X104626876Y-86112772D02*
X104651638Y-86125153D01*
X104651638Y-86125153D02*
X104701162Y-86125153D01*
X104701162Y-86125153D02*
X104725924Y-86112772D01*
X104725924Y-86112772D02*
X104738305Y-86100391D01*
X104738305Y-86100391D02*
X104750686Y-86075629D01*
X127329765Y-102309862D02*
X127341670Y-102321766D01*
X127341670Y-102321766D02*
X127353574Y-102357481D01*
X127353574Y-102357481D02*
X127353574Y-102381290D01*
X127353574Y-102381290D02*
X127341670Y-102417004D01*
X127341670Y-102417004D02*
X127317860Y-102440814D01*
X127317860Y-102440814D02*
X127294050Y-102452719D01*
X127294050Y-102452719D02*
X127246431Y-102464623D01*
X127246431Y-102464623D02*
X127210717Y-102464623D01*
X127210717Y-102464623D02*
X127163098Y-102452719D01*
X127163098Y-102452719D02*
X127139289Y-102440814D01*
X127139289Y-102440814D02*
X127115479Y-102417004D01*
X127115479Y-102417004D02*
X127103574Y-102381290D01*
X127103574Y-102381290D02*
X127103574Y-102357481D01*
X127103574Y-102357481D02*
X127115479Y-102321766D01*
X127115479Y-102321766D02*
X127127384Y-102309862D01*
X127103574Y-102083671D02*
X127103574Y-102202719D01*
X127103574Y-102202719D02*
X127222622Y-102214623D01*
X127222622Y-102214623D02*
X127210717Y-102202719D01*
X127210717Y-102202719D02*
X127198812Y-102178909D01*
X127198812Y-102178909D02*
X127198812Y-102119385D01*
X127198812Y-102119385D02*
X127210717Y-102095576D01*
X127210717Y-102095576D02*
X127222622Y-102083671D01*
X127222622Y-102083671D02*
X127246431Y-102071766D01*
X127246431Y-102071766D02*
X127305955Y-102071766D01*
X127305955Y-102071766D02*
X127329765Y-102083671D01*
X127329765Y-102083671D02*
X127341670Y-102095576D01*
X127341670Y-102095576D02*
X127353574Y-102119385D01*
X127353574Y-102119385D02*
X127353574Y-102178909D01*
X127353574Y-102178909D02*
X127341670Y-102202719D01*
X127341670Y-102202719D02*
X127329765Y-102214623D01*
D10*
X98615595Y-104229819D02*
X98615595Y-105039342D01*
X98615595Y-105039342D02*
X98663214Y-105134580D01*
X98663214Y-105134580D02*
X98710833Y-105182200D01*
X98710833Y-105182200D02*
X98806071Y-105229819D01*
X98806071Y-105229819D02*
X98996547Y-105229819D01*
X98996547Y-105229819D02*
X99091785Y-105182200D01*
X99091785Y-105182200D02*
X99139404Y-105134580D01*
X99139404Y-105134580D02*
X99187023Y-105039342D01*
X99187023Y-105039342D02*
X99187023Y-104229819D01*
X100187023Y-105229819D02*
X99615595Y-105229819D01*
X99901309Y-105229819D02*
X99901309Y-104229819D01*
X99901309Y-104229819D02*
X99806071Y-104372676D01*
X99806071Y-104372676D02*
X99710833Y-104467914D01*
X99710833Y-104467914D02*
X99615595Y-104515533D01*
X121273333Y-100573015D02*
X120797143Y-100573015D01*
X120797143Y-100573015D02*
X120797143Y-99573015D01*
X122035238Y-99906348D02*
X122035238Y-100573015D01*
X121797143Y-99525396D02*
X121559048Y-100239681D01*
X121559048Y-100239681D02*
X122178095Y-100239681D01*
D11*
X122604285Y-96444765D02*
X122592381Y-96456670D01*
X122592381Y-96456670D02*
X122556666Y-96468574D01*
X122556666Y-96468574D02*
X122532857Y-96468574D01*
X122532857Y-96468574D02*
X122497143Y-96456670D01*
X122497143Y-96456670D02*
X122473333Y-96432860D01*
X122473333Y-96432860D02*
X122461428Y-96409050D01*
X122461428Y-96409050D02*
X122449524Y-96361431D01*
X122449524Y-96361431D02*
X122449524Y-96325717D01*
X122449524Y-96325717D02*
X122461428Y-96278098D01*
X122461428Y-96278098D02*
X122473333Y-96254289D01*
X122473333Y-96254289D02*
X122497143Y-96230479D01*
X122497143Y-96230479D02*
X122532857Y-96218574D01*
X122532857Y-96218574D02*
X122556666Y-96218574D01*
X122556666Y-96218574D02*
X122592381Y-96230479D01*
X122592381Y-96230479D02*
X122604285Y-96242384D01*
X122842381Y-96468574D02*
X122699524Y-96468574D01*
X122770952Y-96468574D02*
X122770952Y-96218574D01*
X122770952Y-96218574D02*
X122747143Y-96254289D01*
X122747143Y-96254289D02*
X122723333Y-96278098D01*
X122723333Y-96278098D02*
X122699524Y-96290003D01*
X123068571Y-96218574D02*
X122949523Y-96218574D01*
X122949523Y-96218574D02*
X122937619Y-96337622D01*
X122937619Y-96337622D02*
X122949523Y-96325717D01*
X122949523Y-96325717D02*
X122973333Y-96313812D01*
X122973333Y-96313812D02*
X123032857Y-96313812D01*
X123032857Y-96313812D02*
X123056666Y-96325717D01*
X123056666Y-96325717D02*
X123068571Y-96337622D01*
X123068571Y-96337622D02*
X123080476Y-96361431D01*
X123080476Y-96361431D02*
X123080476Y-96420955D01*
X123080476Y-96420955D02*
X123068571Y-96444765D01*
X123068571Y-96444765D02*
X123056666Y-96456670D01*
X123056666Y-96456670D02*
X123032857Y-96468574D01*
X123032857Y-96468574D02*
X122973333Y-96468574D01*
X122973333Y-96468574D02*
X122949523Y-96456670D01*
X122949523Y-96456670D02*
X122937619Y-96444765D01*
X128948333Y-101927961D02*
X128936429Y-101939866D01*
X128936429Y-101939866D02*
X128900714Y-101951770D01*
X128900714Y-101951770D02*
X128876905Y-101951770D01*
X128876905Y-101951770D02*
X128841191Y-101939866D01*
X128841191Y-101939866D02*
X128817381Y-101916056D01*
X128817381Y-101916056D02*
X128805476Y-101892246D01*
X128805476Y-101892246D02*
X128793572Y-101844627D01*
X128793572Y-101844627D02*
X128793572Y-101808913D01*
X128793572Y-101808913D02*
X128805476Y-101761294D01*
X128805476Y-101761294D02*
X128817381Y-101737485D01*
X128817381Y-101737485D02*
X128841191Y-101713675D01*
X128841191Y-101713675D02*
X128876905Y-101701770D01*
X128876905Y-101701770D02*
X128900714Y-101701770D01*
X128900714Y-101701770D02*
X128936429Y-101713675D01*
X128936429Y-101713675D02*
X128948333Y-101725580D01*
X129162619Y-101701770D02*
X129115000Y-101701770D01*
X129115000Y-101701770D02*
X129091191Y-101713675D01*
X129091191Y-101713675D02*
X129079286Y-101725580D01*
X129079286Y-101725580D02*
X129055476Y-101761294D01*
X129055476Y-101761294D02*
X129043572Y-101808913D01*
X129043572Y-101808913D02*
X129043572Y-101904151D01*
X129043572Y-101904151D02*
X129055476Y-101927961D01*
X129055476Y-101927961D02*
X129067381Y-101939866D01*
X129067381Y-101939866D02*
X129091191Y-101951770D01*
X129091191Y-101951770D02*
X129138810Y-101951770D01*
X129138810Y-101951770D02*
X129162619Y-101939866D01*
X129162619Y-101939866D02*
X129174524Y-101927961D01*
X129174524Y-101927961D02*
X129186429Y-101904151D01*
X129186429Y-101904151D02*
X129186429Y-101844627D01*
X129186429Y-101844627D02*
X129174524Y-101820818D01*
X129174524Y-101820818D02*
X129162619Y-101808913D01*
X129162619Y-101808913D02*
X129138810Y-101797008D01*
X129138810Y-101797008D02*
X129091191Y-101797008D01*
X129091191Y-101797008D02*
X129067381Y-101808913D01*
X129067381Y-101808913D02*
X129055476Y-101820818D01*
X129055476Y-101820818D02*
X129043572Y-101844627D01*
D10*
X87704819Y-103492856D02*
X86704819Y-103492856D01*
X86704819Y-103492856D02*
X87419104Y-103159523D01*
X87419104Y-103159523D02*
X86704819Y-102826190D01*
X86704819Y-102826190D02*
X87704819Y-102826190D01*
X87609580Y-101778571D02*
X87657200Y-101826190D01*
X87657200Y-101826190D02*
X87704819Y-101969047D01*
X87704819Y-101969047D02*
X87704819Y-102064285D01*
X87704819Y-102064285D02*
X87657200Y-102207142D01*
X87657200Y-102207142D02*
X87561961Y-102302380D01*
X87561961Y-102302380D02*
X87466723Y-102349999D01*
X87466723Y-102349999D02*
X87276247Y-102397618D01*
X87276247Y-102397618D02*
X87133390Y-102397618D01*
X87133390Y-102397618D02*
X86942914Y-102349999D01*
X86942914Y-102349999D02*
X86847676Y-102302380D01*
X86847676Y-102302380D02*
X86752438Y-102207142D01*
X86752438Y-102207142D02*
X86704819Y-102064285D01*
X86704819Y-102064285D02*
X86704819Y-101969047D01*
X86704819Y-101969047D02*
X86752438Y-101826190D01*
X86752438Y-101826190D02*
X86800057Y-101778571D01*
X87704819Y-101349999D02*
X86704819Y-101349999D01*
X86704819Y-101349999D02*
X86704819Y-100969047D01*
X86704819Y-100969047D02*
X86752438Y-100873809D01*
X86752438Y-100873809D02*
X86800057Y-100826190D01*
X86800057Y-100826190D02*
X86895295Y-100778571D01*
X86895295Y-100778571D02*
X87038152Y-100778571D01*
X87038152Y-100778571D02*
X87133390Y-100826190D01*
X87133390Y-100826190D02*
X87181009Y-100873809D01*
X87181009Y-100873809D02*
X87228628Y-100969047D01*
X87228628Y-100969047D02*
X87228628Y-101349999D01*
X86704819Y-100445237D02*
X86704819Y-99778571D01*
X86704819Y-99778571D02*
X87704819Y-100207142D01*
X86704819Y-99492856D02*
X86704819Y-98873809D01*
X86704819Y-98873809D02*
X87085771Y-99207142D01*
X87085771Y-99207142D02*
X87085771Y-99064285D01*
X87085771Y-99064285D02*
X87133390Y-98969047D01*
X87133390Y-98969047D02*
X87181009Y-98921428D01*
X87181009Y-98921428D02*
X87276247Y-98873809D01*
X87276247Y-98873809D02*
X87514342Y-98873809D01*
X87514342Y-98873809D02*
X87609580Y-98921428D01*
X87609580Y-98921428D02*
X87657200Y-98969047D01*
X87657200Y-98969047D02*
X87704819Y-99064285D01*
X87704819Y-99064285D02*
X87704819Y-99349999D01*
X87704819Y-99349999D02*
X87657200Y-99445237D01*
X87657200Y-99445237D02*
X87609580Y-99492856D01*
X87133390Y-98302380D02*
X87085771Y-98397618D01*
X87085771Y-98397618D02*
X87038152Y-98445237D01*
X87038152Y-98445237D02*
X86942914Y-98492856D01*
X86942914Y-98492856D02*
X86895295Y-98492856D01*
X86895295Y-98492856D02*
X86800057Y-98445237D01*
X86800057Y-98445237D02*
X86752438Y-98397618D01*
X86752438Y-98397618D02*
X86704819Y-98302380D01*
X86704819Y-98302380D02*
X86704819Y-98111904D01*
X86704819Y-98111904D02*
X86752438Y-98016666D01*
X86752438Y-98016666D02*
X86800057Y-97969047D01*
X86800057Y-97969047D02*
X86895295Y-97921428D01*
X86895295Y-97921428D02*
X86942914Y-97921428D01*
X86942914Y-97921428D02*
X87038152Y-97969047D01*
X87038152Y-97969047D02*
X87085771Y-98016666D01*
X87085771Y-98016666D02*
X87133390Y-98111904D01*
X87133390Y-98111904D02*
X87133390Y-98302380D01*
X87133390Y-98302380D02*
X87181009Y-98397618D01*
X87181009Y-98397618D02*
X87228628Y-98445237D01*
X87228628Y-98445237D02*
X87323866Y-98492856D01*
X87323866Y-98492856D02*
X87514342Y-98492856D01*
X87514342Y-98492856D02*
X87609580Y-98445237D01*
X87609580Y-98445237D02*
X87657200Y-98397618D01*
X87657200Y-98397618D02*
X87704819Y-98302380D01*
X87704819Y-98302380D02*
X87704819Y-98111904D01*
X87704819Y-98111904D02*
X87657200Y-98016666D01*
X87657200Y-98016666D02*
X87609580Y-97969047D01*
X87609580Y-97969047D02*
X87514342Y-97921428D01*
X87514342Y-97921428D02*
X87323866Y-97921428D01*
X87323866Y-97921428D02*
X87228628Y-97969047D01*
X87228628Y-97969047D02*
X87181009Y-98016666D01*
X87181009Y-98016666D02*
X87133390Y-98111904D01*
X86704819Y-97588094D02*
X86704819Y-96969047D01*
X86704819Y-96969047D02*
X87085771Y-97302380D01*
X87085771Y-97302380D02*
X87085771Y-97159523D01*
X87085771Y-97159523D02*
X87133390Y-97064285D01*
X87133390Y-97064285D02*
X87181009Y-97016666D01*
X87181009Y-97016666D02*
X87276247Y-96969047D01*
X87276247Y-96969047D02*
X87514342Y-96969047D01*
X87514342Y-96969047D02*
X87609580Y-97016666D01*
X87609580Y-97016666D02*
X87657200Y-97064285D01*
X87657200Y-97064285D02*
X87704819Y-97159523D01*
X87704819Y-97159523D02*
X87704819Y-97445237D01*
X87704819Y-97445237D02*
X87657200Y-97540475D01*
X87657200Y-97540475D02*
X87609580Y-97588094D01*
X87704819Y-96016666D02*
X87704819Y-96588094D01*
X87704819Y-96302380D02*
X86704819Y-96302380D01*
X86704819Y-96302380D02*
X86847676Y-96397618D01*
X86847676Y-96397618D02*
X86942914Y-96492856D01*
X86942914Y-96492856D02*
X86990533Y-96588094D01*
X86704819Y-95730951D02*
X86704819Y-95159523D01*
X87704819Y-95445237D02*
X86704819Y-95445237D01*
X87323866Y-94826189D02*
X87323866Y-94064285D01*
X86800057Y-93635713D02*
X86752438Y-93588094D01*
X86752438Y-93588094D02*
X86704819Y-93492856D01*
X86704819Y-93492856D02*
X86704819Y-93254761D01*
X86704819Y-93254761D02*
X86752438Y-93159523D01*
X86752438Y-93159523D02*
X86800057Y-93111904D01*
X86800057Y-93111904D02*
X86895295Y-93064285D01*
X86895295Y-93064285D02*
X86990533Y-93064285D01*
X86990533Y-93064285D02*
X87133390Y-93111904D01*
X87133390Y-93111904D02*
X87704819Y-93683332D01*
X87704819Y-93683332D02*
X87704819Y-93064285D01*
X87419104Y-92683332D02*
X87419104Y-92207142D01*
X87704819Y-92778570D02*
X86704819Y-92445237D01*
X86704819Y-92445237D02*
X87704819Y-92111904D01*
X87609580Y-91207142D02*
X87657200Y-91254761D01*
X87657200Y-91254761D02*
X87704819Y-91397618D01*
X87704819Y-91397618D02*
X87704819Y-91492856D01*
X87704819Y-91492856D02*
X87657200Y-91635713D01*
X87657200Y-91635713D02*
X87561961Y-91730951D01*
X87561961Y-91730951D02*
X87466723Y-91778570D01*
X87466723Y-91778570D02*
X87276247Y-91826189D01*
X87276247Y-91826189D02*
X87133390Y-91826189D01*
X87133390Y-91826189D02*
X86942914Y-91778570D01*
X86942914Y-91778570D02*
X86847676Y-91730951D01*
X86847676Y-91730951D02*
X86752438Y-91635713D01*
X86752438Y-91635713D02*
X86704819Y-91492856D01*
X86704819Y-91492856D02*
X86704819Y-91397618D01*
X86704819Y-91397618D02*
X86752438Y-91254761D01*
X86752438Y-91254761D02*
X86800057Y-91207142D01*
X87704819Y-90778570D02*
X86704819Y-90778570D01*
X87800057Y-90540476D02*
X87800057Y-89778571D01*
X86704819Y-89349999D02*
X86704819Y-89159523D01*
X86704819Y-89159523D02*
X86752438Y-89064285D01*
X86752438Y-89064285D02*
X86847676Y-88969047D01*
X86847676Y-88969047D02*
X87038152Y-88921428D01*
X87038152Y-88921428D02*
X87371485Y-88921428D01*
X87371485Y-88921428D02*
X87561961Y-88969047D01*
X87561961Y-88969047D02*
X87657200Y-89064285D01*
X87657200Y-89064285D02*
X87704819Y-89159523D01*
X87704819Y-89159523D02*
X87704819Y-89349999D01*
X87704819Y-89349999D02*
X87657200Y-89445237D01*
X87657200Y-89445237D02*
X87561961Y-89540475D01*
X87561961Y-89540475D02*
X87371485Y-89588094D01*
X87371485Y-89588094D02*
X87038152Y-89588094D01*
X87038152Y-89588094D02*
X86847676Y-89540475D01*
X86847676Y-89540475D02*
X86752438Y-89445237D01*
X86752438Y-89445237D02*
X86704819Y-89349999D01*
X86704819Y-88635713D02*
X86704819Y-88064285D01*
X87704819Y-88349999D02*
X86704819Y-88349999D01*
D13*
X89744047Y-95577409D02*
X89744047Y-95982171D01*
X89744047Y-95982171D02*
X89767857Y-96029790D01*
X89767857Y-96029790D02*
X89791666Y-96053600D01*
X89791666Y-96053600D02*
X89839285Y-96077409D01*
X89839285Y-96077409D02*
X89934523Y-96077409D01*
X89934523Y-96077409D02*
X89982142Y-96053600D01*
X89982142Y-96053600D02*
X90005952Y-96029790D01*
X90005952Y-96029790D02*
X90029761Y-95982171D01*
X90029761Y-95982171D02*
X90029761Y-95577409D01*
X90482143Y-95744076D02*
X90482143Y-96077409D01*
X90363095Y-95553600D02*
X90244048Y-95910742D01*
X90244048Y-95910742D02*
X90553571Y-95910742D01*
D12*
X94683333Y-103443832D02*
X94664285Y-103462880D01*
X94664285Y-103462880D02*
X94607143Y-103481927D01*
X94607143Y-103481927D02*
X94569047Y-103481927D01*
X94569047Y-103481927D02*
X94511904Y-103462880D01*
X94511904Y-103462880D02*
X94473809Y-103424784D01*
X94473809Y-103424784D02*
X94454762Y-103386689D01*
X94454762Y-103386689D02*
X94435714Y-103310499D01*
X94435714Y-103310499D02*
X94435714Y-103253356D01*
X94435714Y-103253356D02*
X94454762Y-103177165D01*
X94454762Y-103177165D02*
X94473809Y-103139070D01*
X94473809Y-103139070D02*
X94511904Y-103100975D01*
X94511904Y-103100975D02*
X94569047Y-103081927D01*
X94569047Y-103081927D02*
X94607143Y-103081927D01*
X94607143Y-103081927D02*
X94664285Y-103100975D01*
X94664285Y-103100975D02*
X94683333Y-103120022D01*
X94835714Y-103120022D02*
X94854762Y-103100975D01*
X94854762Y-103100975D02*
X94892857Y-103081927D01*
X94892857Y-103081927D02*
X94988095Y-103081927D01*
X94988095Y-103081927D02*
X95026190Y-103100975D01*
X95026190Y-103100975D02*
X95045238Y-103120022D01*
X95045238Y-103120022D02*
X95064285Y-103158118D01*
X95064285Y-103158118D02*
X95064285Y-103196213D01*
X95064285Y-103196213D02*
X95045238Y-103253356D01*
X95045238Y-103253356D02*
X94816666Y-103481927D01*
X94816666Y-103481927D02*
X95064285Y-103481927D01*
D11*
X105839285Y-88889765D02*
X105827381Y-88901670D01*
X105827381Y-88901670D02*
X105791666Y-88913574D01*
X105791666Y-88913574D02*
X105767857Y-88913574D01*
X105767857Y-88913574D02*
X105732143Y-88901670D01*
X105732143Y-88901670D02*
X105708333Y-88877860D01*
X105708333Y-88877860D02*
X105696428Y-88854050D01*
X105696428Y-88854050D02*
X105684524Y-88806431D01*
X105684524Y-88806431D02*
X105684524Y-88770717D01*
X105684524Y-88770717D02*
X105696428Y-88723098D01*
X105696428Y-88723098D02*
X105708333Y-88699289D01*
X105708333Y-88699289D02*
X105732143Y-88675479D01*
X105732143Y-88675479D02*
X105767857Y-88663574D01*
X105767857Y-88663574D02*
X105791666Y-88663574D01*
X105791666Y-88663574D02*
X105827381Y-88675479D01*
X105827381Y-88675479D02*
X105839285Y-88687384D01*
X106077381Y-88913574D02*
X105934524Y-88913574D01*
X106005952Y-88913574D02*
X106005952Y-88663574D01*
X106005952Y-88663574D02*
X105982143Y-88699289D01*
X105982143Y-88699289D02*
X105958333Y-88723098D01*
X105958333Y-88723098D02*
X105934524Y-88735003D01*
X106196428Y-88913574D02*
X106244047Y-88913574D01*
X106244047Y-88913574D02*
X106267857Y-88901670D01*
X106267857Y-88901670D02*
X106279761Y-88889765D01*
X106279761Y-88889765D02*
X106303571Y-88854050D01*
X106303571Y-88854050D02*
X106315476Y-88806431D01*
X106315476Y-88806431D02*
X106315476Y-88711193D01*
X106315476Y-88711193D02*
X106303571Y-88687384D01*
X106303571Y-88687384D02*
X106291666Y-88675479D01*
X106291666Y-88675479D02*
X106267857Y-88663574D01*
X106267857Y-88663574D02*
X106220238Y-88663574D01*
X106220238Y-88663574D02*
X106196428Y-88675479D01*
X106196428Y-88675479D02*
X106184523Y-88687384D01*
X106184523Y-88687384D02*
X106172619Y-88711193D01*
X106172619Y-88711193D02*
X106172619Y-88770717D01*
X106172619Y-88770717D02*
X106184523Y-88794527D01*
X106184523Y-88794527D02*
X106196428Y-88806431D01*
X106196428Y-88806431D02*
X106220238Y-88818336D01*
X106220238Y-88818336D02*
X106267857Y-88818336D01*
X106267857Y-88818336D02*
X106291666Y-88806431D01*
X106291666Y-88806431D02*
X106303571Y-88794527D01*
X106303571Y-88794527D02*
X106315476Y-88770717D01*
X106518200Y-104443332D02*
X106394391Y-104529999D01*
X106518200Y-104591904D02*
X106258200Y-104591904D01*
X106258200Y-104591904D02*
X106258200Y-104492856D01*
X106258200Y-104492856D02*
X106270581Y-104468094D01*
X106270581Y-104468094D02*
X106282962Y-104455713D01*
X106282962Y-104455713D02*
X106307724Y-104443332D01*
X106307724Y-104443332D02*
X106344867Y-104443332D01*
X106344867Y-104443332D02*
X106369629Y-104455713D01*
X106369629Y-104455713D02*
X106382010Y-104468094D01*
X106382010Y-104468094D02*
X106394391Y-104492856D01*
X106394391Y-104492856D02*
X106394391Y-104591904D01*
X106258200Y-104356666D02*
X106258200Y-104183332D01*
X106258200Y-104183332D02*
X106518200Y-104294761D01*
X105956667Y-91118200D02*
X105870000Y-90994391D01*
X105808095Y-91118200D02*
X105808095Y-90858200D01*
X105808095Y-90858200D02*
X105907143Y-90858200D01*
X105907143Y-90858200D02*
X105931905Y-90870581D01*
X105931905Y-90870581D02*
X105944286Y-90882962D01*
X105944286Y-90882962D02*
X105956667Y-90907724D01*
X105956667Y-90907724D02*
X105956667Y-90944867D01*
X105956667Y-90944867D02*
X105944286Y-90969629D01*
X105944286Y-90969629D02*
X105931905Y-90982010D01*
X105931905Y-90982010D02*
X105907143Y-90994391D01*
X105907143Y-90994391D02*
X105808095Y-90994391D01*
X106179524Y-90944867D02*
X106179524Y-91118200D01*
X106117619Y-90845820D02*
X106055714Y-91031534D01*
X106055714Y-91031534D02*
X106216667Y-91031534D01*
D12*
X99103832Y-93507142D02*
X99122880Y-93526190D01*
X99122880Y-93526190D02*
X99141927Y-93583332D01*
X99141927Y-93583332D02*
X99141927Y-93621428D01*
X99141927Y-93621428D02*
X99122880Y-93678571D01*
X99122880Y-93678571D02*
X99084784Y-93716666D01*
X99084784Y-93716666D02*
X99046689Y-93735713D01*
X99046689Y-93735713D02*
X98970499Y-93754761D01*
X98970499Y-93754761D02*
X98913356Y-93754761D01*
X98913356Y-93754761D02*
X98837165Y-93735713D01*
X98837165Y-93735713D02*
X98799070Y-93716666D01*
X98799070Y-93716666D02*
X98760975Y-93678571D01*
X98760975Y-93678571D02*
X98741927Y-93621428D01*
X98741927Y-93621428D02*
X98741927Y-93583332D01*
X98741927Y-93583332D02*
X98760975Y-93526190D01*
X98760975Y-93526190D02*
X98780022Y-93507142D01*
X99141927Y-93126190D02*
X99141927Y-93354761D01*
X99141927Y-93240475D02*
X98741927Y-93240475D01*
X98741927Y-93240475D02*
X98799070Y-93278571D01*
X98799070Y-93278571D02*
X98837165Y-93316666D01*
X98837165Y-93316666D02*
X98856213Y-93354761D01*
X99141927Y-92745238D02*
X99141927Y-92973809D01*
X99141927Y-92859523D02*
X98741927Y-92859523D01*
X98741927Y-92859523D02*
X98799070Y-92897619D01*
X98799070Y-92897619D02*
X98837165Y-92935714D01*
X98837165Y-92935714D02*
X98856213Y-92973809D01*
D11*
X95514465Y-106452314D02*
X95526370Y-106464218D01*
X95526370Y-106464218D02*
X95538274Y-106499933D01*
X95538274Y-106499933D02*
X95538274Y-106523742D01*
X95538274Y-106523742D02*
X95526370Y-106559456D01*
X95526370Y-106559456D02*
X95502560Y-106583266D01*
X95502560Y-106583266D02*
X95478750Y-106595171D01*
X95478750Y-106595171D02*
X95431131Y-106607075D01*
X95431131Y-106607075D02*
X95395417Y-106607075D01*
X95395417Y-106607075D02*
X95347798Y-106595171D01*
X95347798Y-106595171D02*
X95323989Y-106583266D01*
X95323989Y-106583266D02*
X95300179Y-106559456D01*
X95300179Y-106559456D02*
X95288274Y-106523742D01*
X95288274Y-106523742D02*
X95288274Y-106499933D01*
X95288274Y-106499933D02*
X95300179Y-106464218D01*
X95300179Y-106464218D02*
X95312084Y-106452314D01*
X95312084Y-106357075D02*
X95300179Y-106345171D01*
X95300179Y-106345171D02*
X95288274Y-106321361D01*
X95288274Y-106321361D02*
X95288274Y-106261837D01*
X95288274Y-106261837D02*
X95300179Y-106238028D01*
X95300179Y-106238028D02*
X95312084Y-106226123D01*
X95312084Y-106226123D02*
X95335893Y-106214218D01*
X95335893Y-106214218D02*
X95359703Y-106214218D01*
X95359703Y-106214218D02*
X95395417Y-106226123D01*
X95395417Y-106226123D02*
X95538274Y-106368980D01*
X95538274Y-106368980D02*
X95538274Y-106214218D01*
X95288274Y-106059457D02*
X95288274Y-106035647D01*
X95288274Y-106035647D02*
X95300179Y-106011838D01*
X95300179Y-106011838D02*
X95312084Y-105999933D01*
X95312084Y-105999933D02*
X95335893Y-105988028D01*
X95335893Y-105988028D02*
X95383512Y-105976123D01*
X95383512Y-105976123D02*
X95443036Y-105976123D01*
X95443036Y-105976123D02*
X95490655Y-105988028D01*
X95490655Y-105988028D02*
X95514465Y-105999933D01*
X95514465Y-105999933D02*
X95526370Y-106011838D01*
X95526370Y-106011838D02*
X95538274Y-106035647D01*
X95538274Y-106035647D02*
X95538274Y-106059457D01*
X95538274Y-106059457D02*
X95526370Y-106083266D01*
X95526370Y-106083266D02*
X95514465Y-106095171D01*
X95514465Y-106095171D02*
X95490655Y-106107076D01*
X95490655Y-106107076D02*
X95443036Y-106118980D01*
X95443036Y-106118980D02*
X95383512Y-106118980D01*
X95383512Y-106118980D02*
X95335893Y-106107076D01*
X95335893Y-106107076D02*
X95312084Y-106095171D01*
X95312084Y-106095171D02*
X95300179Y-106083266D01*
X95300179Y-106083266D02*
X95288274Y-106059457D01*
D10*
X118049942Y-102911796D02*
X118097561Y-102959415D01*
X118097561Y-102959415D02*
X118145180Y-103054653D01*
X118145180Y-103054653D02*
X118145180Y-103292748D01*
X118145180Y-103292748D02*
X118097561Y-103387986D01*
X118097561Y-103387986D02*
X118049942Y-103435605D01*
X118049942Y-103435605D02*
X117954704Y-103483224D01*
X117954704Y-103483224D02*
X117859466Y-103483224D01*
X117859466Y-103483224D02*
X117716609Y-103435605D01*
X117716609Y-103435605D02*
X117145180Y-102864177D01*
X117145180Y-102864177D02*
X117145180Y-103483224D01*
X117811847Y-104340367D02*
X117145180Y-104340367D01*
X118192800Y-104102272D02*
X117478514Y-103864177D01*
X117478514Y-103864177D02*
X117478514Y-104483224D01*
X117145180Y-104864177D02*
X118145180Y-104864177D01*
X118145180Y-104864177D02*
X117430895Y-105197510D01*
X117430895Y-105197510D02*
X118145180Y-105530843D01*
X118145180Y-105530843D02*
X117145180Y-105530843D01*
X117145180Y-106007034D02*
X118145180Y-106007034D01*
X117668990Y-106007034D02*
X117668990Y-106578462D01*
X117145180Y-106578462D02*
X118145180Y-106578462D01*
X117811847Y-106959415D02*
X117811847Y-107483224D01*
X117811847Y-107483224D02*
X117145180Y-106959415D01*
X117145180Y-106959415D02*
X117145180Y-107483224D01*
X118145180Y-103149891D02*
X117145180Y-103816557D01*
X118145180Y-103816557D02*
X117145180Y-103149891D01*
X118145180Y-104054653D02*
X118145180Y-104626081D01*
X117145180Y-104340367D02*
X118145180Y-104340367D01*
X117430895Y-104911796D02*
X117430895Y-105387986D01*
X117145180Y-104816558D02*
X118145180Y-105149891D01*
X118145180Y-105149891D02*
X117145180Y-105483224D01*
X117145180Y-106292748D02*
X117145180Y-105816558D01*
X117145180Y-105816558D02*
X118145180Y-105816558D01*
X118049942Y-106578463D02*
X118097561Y-106626082D01*
X118097561Y-106626082D02*
X118145180Y-106721320D01*
X118145180Y-106721320D02*
X118145180Y-106959415D01*
X118145180Y-106959415D02*
X118097561Y-107054653D01*
X118097561Y-107054653D02*
X118049942Y-107102272D01*
X118049942Y-107102272D02*
X117954704Y-107149891D01*
X117954704Y-107149891D02*
X117859466Y-107149891D01*
X117859466Y-107149891D02*
X117716609Y-107102272D01*
X117716609Y-107102272D02*
X117145180Y-106530844D01*
X117145180Y-106530844D02*
X117145180Y-107149891D01*
X125224819Y-93160590D02*
X124224819Y-93160590D01*
X124224819Y-93160590D02*
X124224819Y-92922495D01*
X124224819Y-92922495D02*
X124272438Y-92779638D01*
X124272438Y-92779638D02*
X124367676Y-92684400D01*
X124367676Y-92684400D02*
X124462914Y-92636781D01*
X124462914Y-92636781D02*
X124653390Y-92589162D01*
X124653390Y-92589162D02*
X124796247Y-92589162D01*
X124796247Y-92589162D02*
X124986723Y-92636781D01*
X124986723Y-92636781D02*
X125081961Y-92684400D01*
X125081961Y-92684400D02*
X125177200Y-92779638D01*
X125177200Y-92779638D02*
X125224819Y-92922495D01*
X125224819Y-92922495D02*
X125224819Y-93160590D01*
X124320057Y-92208209D02*
X124272438Y-92160590D01*
X124272438Y-92160590D02*
X124224819Y-92065352D01*
X124224819Y-92065352D02*
X124224819Y-91827257D01*
X124224819Y-91827257D02*
X124272438Y-91732019D01*
X124272438Y-91732019D02*
X124320057Y-91684400D01*
X124320057Y-91684400D02*
X124415295Y-91636781D01*
X124415295Y-91636781D02*
X124510533Y-91636781D01*
X124510533Y-91636781D02*
X124653390Y-91684400D01*
X124653390Y-91684400D02*
X125224819Y-92255828D01*
X125224819Y-92255828D02*
X125224819Y-91636781D01*
D12*
X92142857Y-90343832D02*
X92123809Y-90362880D01*
X92123809Y-90362880D02*
X92066667Y-90381927D01*
X92066667Y-90381927D02*
X92028571Y-90381927D01*
X92028571Y-90381927D02*
X91971428Y-90362880D01*
X91971428Y-90362880D02*
X91933333Y-90324784D01*
X91933333Y-90324784D02*
X91914286Y-90286689D01*
X91914286Y-90286689D02*
X91895238Y-90210499D01*
X91895238Y-90210499D02*
X91895238Y-90153356D01*
X91895238Y-90153356D02*
X91914286Y-90077165D01*
X91914286Y-90077165D02*
X91933333Y-90039070D01*
X91933333Y-90039070D02*
X91971428Y-90000975D01*
X91971428Y-90000975D02*
X92028571Y-89981927D01*
X92028571Y-89981927D02*
X92066667Y-89981927D01*
X92066667Y-89981927D02*
X92123809Y-90000975D01*
X92123809Y-90000975D02*
X92142857Y-90020022D01*
X92523809Y-90381927D02*
X92295238Y-90381927D01*
X92409524Y-90381927D02*
X92409524Y-89981927D01*
X92409524Y-89981927D02*
X92371428Y-90039070D01*
X92371428Y-90039070D02*
X92333333Y-90077165D01*
X92333333Y-90077165D02*
X92295238Y-90096213D01*
X92752380Y-90153356D02*
X92714285Y-90134308D01*
X92714285Y-90134308D02*
X92695238Y-90115260D01*
X92695238Y-90115260D02*
X92676190Y-90077165D01*
X92676190Y-90077165D02*
X92676190Y-90058118D01*
X92676190Y-90058118D02*
X92695238Y-90020022D01*
X92695238Y-90020022D02*
X92714285Y-90000975D01*
X92714285Y-90000975D02*
X92752380Y-89981927D01*
X92752380Y-89981927D02*
X92828571Y-89981927D01*
X92828571Y-89981927D02*
X92866666Y-90000975D01*
X92866666Y-90000975D02*
X92885714Y-90020022D01*
X92885714Y-90020022D02*
X92904761Y-90058118D01*
X92904761Y-90058118D02*
X92904761Y-90077165D01*
X92904761Y-90077165D02*
X92885714Y-90115260D01*
X92885714Y-90115260D02*
X92866666Y-90134308D01*
X92866666Y-90134308D02*
X92828571Y-90153356D01*
X92828571Y-90153356D02*
X92752380Y-90153356D01*
X92752380Y-90153356D02*
X92714285Y-90172403D01*
X92714285Y-90172403D02*
X92695238Y-90191451D01*
X92695238Y-90191451D02*
X92676190Y-90229546D01*
X92676190Y-90229546D02*
X92676190Y-90305737D01*
X92676190Y-90305737D02*
X92695238Y-90343832D01*
X92695238Y-90343832D02*
X92714285Y-90362880D01*
X92714285Y-90362880D02*
X92752380Y-90381927D01*
X92752380Y-90381927D02*
X92828571Y-90381927D01*
X92828571Y-90381927D02*
X92866666Y-90362880D01*
X92866666Y-90362880D02*
X92885714Y-90343832D01*
X92885714Y-90343832D02*
X92904761Y-90305737D01*
X92904761Y-90305737D02*
X92904761Y-90229546D01*
X92904761Y-90229546D02*
X92885714Y-90191451D01*
X92885714Y-90191451D02*
X92866666Y-90172403D01*
X92866666Y-90172403D02*
X92828571Y-90153356D01*
D10*
X111126666Y-86254819D02*
X111126666Y-86969104D01*
X111126666Y-86969104D02*
X111079047Y-87111961D01*
X111079047Y-87111961D02*
X110983809Y-87207200D01*
X110983809Y-87207200D02*
X110840952Y-87254819D01*
X110840952Y-87254819D02*
X110745714Y-87254819D01*
X112126666Y-87254819D02*
X111555238Y-87254819D01*
X111840952Y-87254819D02*
X111840952Y-86254819D01*
X111840952Y-86254819D02*
X111745714Y-86397676D01*
X111745714Y-86397676D02*
X111650476Y-86492914D01*
X111650476Y-86492914D02*
X111555238Y-86540533D01*
X101104819Y-93411904D02*
X101914342Y-93411904D01*
X101914342Y-93411904D02*
X102009580Y-93364285D01*
X102009580Y-93364285D02*
X102057200Y-93316666D01*
X102057200Y-93316666D02*
X102104819Y-93221428D01*
X102104819Y-93221428D02*
X102104819Y-93030952D01*
X102104819Y-93030952D02*
X102057200Y-92935714D01*
X102057200Y-92935714D02*
X102009580Y-92888095D01*
X102009580Y-92888095D02*
X101914342Y-92840476D01*
X101914342Y-92840476D02*
X101104819Y-92840476D01*
X101104819Y-92459523D02*
X101104819Y-91840476D01*
X101104819Y-91840476D02*
X101485771Y-92173809D01*
X101485771Y-92173809D02*
X101485771Y-92030952D01*
X101485771Y-92030952D02*
X101533390Y-91935714D01*
X101533390Y-91935714D02*
X101581009Y-91888095D01*
X101581009Y-91888095D02*
X101676247Y-91840476D01*
X101676247Y-91840476D02*
X101914342Y-91840476D01*
X101914342Y-91840476D02*
X102009580Y-91888095D01*
X102009580Y-91888095D02*
X102057200Y-91935714D01*
X102057200Y-91935714D02*
X102104819Y-92030952D01*
X102104819Y-92030952D02*
X102104819Y-92316666D01*
X102104819Y-92316666D02*
X102057200Y-92411904D01*
X102057200Y-92411904D02*
X102009580Y-92459523D01*
X91468930Y-100231799D02*
X91421311Y-100184180D01*
X91421311Y-100184180D02*
X91373692Y-100088942D01*
X91373692Y-100088942D02*
X91373692Y-99850847D01*
X91373692Y-99850847D02*
X91421311Y-99755609D01*
X91421311Y-99755609D02*
X91468930Y-99707990D01*
X91468930Y-99707990D02*
X91564168Y-99660371D01*
X91564168Y-99660371D02*
X91659406Y-99660371D01*
X91659406Y-99660371D02*
X91802263Y-99707990D01*
X91802263Y-99707990D02*
X92373692Y-100279418D01*
X92373692Y-100279418D02*
X92373692Y-99660371D01*
X91802263Y-99088942D02*
X91754644Y-99184180D01*
X91754644Y-99184180D02*
X91707025Y-99231799D01*
X91707025Y-99231799D02*
X91611787Y-99279418D01*
X91611787Y-99279418D02*
X91564168Y-99279418D01*
X91564168Y-99279418D02*
X91468930Y-99231799D01*
X91468930Y-99231799D02*
X91421311Y-99184180D01*
X91421311Y-99184180D02*
X91373692Y-99088942D01*
X91373692Y-99088942D02*
X91373692Y-98898466D01*
X91373692Y-98898466D02*
X91421311Y-98803228D01*
X91421311Y-98803228D02*
X91468930Y-98755609D01*
X91468930Y-98755609D02*
X91564168Y-98707990D01*
X91564168Y-98707990D02*
X91611787Y-98707990D01*
X91611787Y-98707990D02*
X91707025Y-98755609D01*
X91707025Y-98755609D02*
X91754644Y-98803228D01*
X91754644Y-98803228D02*
X91802263Y-98898466D01*
X91802263Y-98898466D02*
X91802263Y-99088942D01*
X91802263Y-99088942D02*
X91849882Y-99184180D01*
X91849882Y-99184180D02*
X91897501Y-99231799D01*
X91897501Y-99231799D02*
X91992739Y-99279418D01*
X91992739Y-99279418D02*
X92183215Y-99279418D01*
X92183215Y-99279418D02*
X92278453Y-99231799D01*
X92278453Y-99231799D02*
X92326073Y-99184180D01*
X92326073Y-99184180D02*
X92373692Y-99088942D01*
X92373692Y-99088942D02*
X92373692Y-98898466D01*
X92373692Y-98898466D02*
X92326073Y-98803228D01*
X92326073Y-98803228D02*
X92278453Y-98755609D01*
X92278453Y-98755609D02*
X92183215Y-98707990D01*
X92183215Y-98707990D02*
X91992739Y-98707990D01*
X91992739Y-98707990D02*
X91897501Y-98755609D01*
X91897501Y-98755609D02*
X91849882Y-98803228D01*
X91849882Y-98803228D02*
X91802263Y-98898466D01*
X92278453Y-98279418D02*
X92326073Y-98231799D01*
X92326073Y-98231799D02*
X92373692Y-98279418D01*
X92373692Y-98279418D02*
X92326073Y-98327037D01*
X92326073Y-98327037D02*
X92278453Y-98279418D01*
X92278453Y-98279418D02*
X92373692Y-98279418D01*
X91373692Y-97898466D02*
X91373692Y-97231800D01*
X91373692Y-97231800D02*
X92373692Y-97660371D01*
X92373692Y-96850847D02*
X91373692Y-96850847D01*
X91992739Y-96755609D02*
X92373692Y-96469895D01*
X91707025Y-96469895D02*
X92087977Y-96850847D01*
X92373692Y-96088942D02*
X92373692Y-95850847D01*
X92373692Y-95850847D02*
X92183215Y-95850847D01*
X92183215Y-95850847D02*
X92135596Y-95946085D01*
X92135596Y-95946085D02*
X92040358Y-96041323D01*
X92040358Y-96041323D02*
X91897501Y-96088942D01*
X91897501Y-96088942D02*
X91659406Y-96088942D01*
X91659406Y-96088942D02*
X91516549Y-96041323D01*
X91516549Y-96041323D02*
X91421311Y-95946085D01*
X91421311Y-95946085D02*
X91373692Y-95803228D01*
X91373692Y-95803228D02*
X91373692Y-95612752D01*
X91373692Y-95612752D02*
X91421311Y-95469895D01*
X91421311Y-95469895D02*
X91516549Y-95374657D01*
X91516549Y-95374657D02*
X91659406Y-95327038D01*
X91659406Y-95327038D02*
X91897501Y-95327038D01*
X91897501Y-95327038D02*
X92040358Y-95374657D01*
X92040358Y-95374657D02*
X92135596Y-95469895D01*
X92135596Y-95469895D02*
X92183215Y-95565133D01*
X92183215Y-95565133D02*
X92373692Y-95565133D01*
X92373692Y-95565133D02*
X92373692Y-95327038D01*
D11*
X93207073Y-97822751D02*
X93083264Y-97909418D01*
X93207073Y-97971323D02*
X92947073Y-97971323D01*
X92947073Y-97971323D02*
X92947073Y-97872275D01*
X92947073Y-97872275D02*
X92959454Y-97847513D01*
X92959454Y-97847513D02*
X92971835Y-97835132D01*
X92971835Y-97835132D02*
X92996597Y-97822751D01*
X92996597Y-97822751D02*
X93033740Y-97822751D01*
X93033740Y-97822751D02*
X93058502Y-97835132D01*
X93058502Y-97835132D02*
X93070883Y-97847513D01*
X93070883Y-97847513D02*
X93083264Y-97872275D01*
X93083264Y-97872275D02*
X93083264Y-97971323D01*
X92947073Y-97599894D02*
X92947073Y-97649418D01*
X92947073Y-97649418D02*
X92959454Y-97674180D01*
X92959454Y-97674180D02*
X92971835Y-97686561D01*
X92971835Y-97686561D02*
X93008978Y-97711323D01*
X93008978Y-97711323D02*
X93058502Y-97723704D01*
X93058502Y-97723704D02*
X93157550Y-97723704D01*
X93157550Y-97723704D02*
X93182312Y-97711323D01*
X93182312Y-97711323D02*
X93194693Y-97698942D01*
X93194693Y-97698942D02*
X93207073Y-97674180D01*
X93207073Y-97674180D02*
X93207073Y-97624656D01*
X93207073Y-97624656D02*
X93194693Y-97599894D01*
X93194693Y-97599894D02*
X93182312Y-97587513D01*
X93182312Y-97587513D02*
X93157550Y-97575132D01*
X93157550Y-97575132D02*
X93095645Y-97575132D01*
X93095645Y-97575132D02*
X93070883Y-97587513D01*
X93070883Y-97587513D02*
X93058502Y-97599894D01*
X93058502Y-97599894D02*
X93046121Y-97624656D01*
X93046121Y-97624656D02*
X93046121Y-97674180D01*
X93046121Y-97674180D02*
X93058502Y-97698942D01*
X93058502Y-97698942D02*
X93070883Y-97711323D01*
X93070883Y-97711323D02*
X93095645Y-97723704D01*
X115729765Y-94259862D02*
X115741670Y-94271766D01*
X115741670Y-94271766D02*
X115753574Y-94307481D01*
X115753574Y-94307481D02*
X115753574Y-94331290D01*
X115753574Y-94331290D02*
X115741670Y-94367004D01*
X115741670Y-94367004D02*
X115717860Y-94390814D01*
X115717860Y-94390814D02*
X115694050Y-94402719D01*
X115694050Y-94402719D02*
X115646431Y-94414623D01*
X115646431Y-94414623D02*
X115610717Y-94414623D01*
X115610717Y-94414623D02*
X115563098Y-94402719D01*
X115563098Y-94402719D02*
X115539289Y-94390814D01*
X115539289Y-94390814D02*
X115515479Y-94367004D01*
X115515479Y-94367004D02*
X115503574Y-94331290D01*
X115503574Y-94331290D02*
X115503574Y-94307481D01*
X115503574Y-94307481D02*
X115515479Y-94271766D01*
X115515479Y-94271766D02*
X115527384Y-94259862D01*
X115610717Y-94117004D02*
X115598812Y-94140814D01*
X115598812Y-94140814D02*
X115586908Y-94152719D01*
X115586908Y-94152719D02*
X115563098Y-94164623D01*
X115563098Y-94164623D02*
X115551193Y-94164623D01*
X115551193Y-94164623D02*
X115527384Y-94152719D01*
X115527384Y-94152719D02*
X115515479Y-94140814D01*
X115515479Y-94140814D02*
X115503574Y-94117004D01*
X115503574Y-94117004D02*
X115503574Y-94069385D01*
X115503574Y-94069385D02*
X115515479Y-94045576D01*
X115515479Y-94045576D02*
X115527384Y-94033671D01*
X115527384Y-94033671D02*
X115551193Y-94021766D01*
X115551193Y-94021766D02*
X115563098Y-94021766D01*
X115563098Y-94021766D02*
X115586908Y-94033671D01*
X115586908Y-94033671D02*
X115598812Y-94045576D01*
X115598812Y-94045576D02*
X115610717Y-94069385D01*
X115610717Y-94069385D02*
X115610717Y-94117004D01*
X115610717Y-94117004D02*
X115622622Y-94140814D01*
X115622622Y-94140814D02*
X115634527Y-94152719D01*
X115634527Y-94152719D02*
X115658336Y-94164623D01*
X115658336Y-94164623D02*
X115705955Y-94164623D01*
X115705955Y-94164623D02*
X115729765Y-94152719D01*
X115729765Y-94152719D02*
X115741670Y-94140814D01*
X115741670Y-94140814D02*
X115753574Y-94117004D01*
X115753574Y-94117004D02*
X115753574Y-94069385D01*
X115753574Y-94069385D02*
X115741670Y-94045576D01*
X115741670Y-94045576D02*
X115729765Y-94033671D01*
X115729765Y-94033671D02*
X115705955Y-94021766D01*
X115705955Y-94021766D02*
X115658336Y-94021766D01*
X115658336Y-94021766D02*
X115634527Y-94033671D01*
X115634527Y-94033671D02*
X115622622Y-94045576D01*
X115622622Y-94045576D02*
X115610717Y-94069385D01*
X104258200Y-98468332D02*
X104134391Y-98554999D01*
X104258200Y-98616904D02*
X103998200Y-98616904D01*
X103998200Y-98616904D02*
X103998200Y-98517856D01*
X103998200Y-98517856D02*
X104010581Y-98493094D01*
X104010581Y-98493094D02*
X104022962Y-98480713D01*
X104022962Y-98480713D02*
X104047724Y-98468332D01*
X104047724Y-98468332D02*
X104084867Y-98468332D01*
X104084867Y-98468332D02*
X104109629Y-98480713D01*
X104109629Y-98480713D02*
X104122010Y-98493094D01*
X104122010Y-98493094D02*
X104134391Y-98517856D01*
X104134391Y-98517856D02*
X104134391Y-98616904D01*
X104022962Y-98369285D02*
X104010581Y-98356904D01*
X104010581Y-98356904D02*
X103998200Y-98332142D01*
X103998200Y-98332142D02*
X103998200Y-98270237D01*
X103998200Y-98270237D02*
X104010581Y-98245475D01*
X104010581Y-98245475D02*
X104022962Y-98233094D01*
X104022962Y-98233094D02*
X104047724Y-98220713D01*
X104047724Y-98220713D02*
X104072486Y-98220713D01*
X104072486Y-98220713D02*
X104109629Y-98233094D01*
X104109629Y-98233094D02*
X104258200Y-98381666D01*
X104258200Y-98381666D02*
X104258200Y-98220713D01*
D10*
X88245238Y-100868152D02*
X88245238Y-101534819D01*
X88007143Y-100487200D02*
X87769048Y-101201485D01*
X87769048Y-101201485D02*
X88388095Y-101201485D01*
X88769048Y-101439580D02*
X88816667Y-101487200D01*
X88816667Y-101487200D02*
X88769048Y-101534819D01*
X88769048Y-101534819D02*
X88721429Y-101487200D01*
X88721429Y-101487200D02*
X88769048Y-101439580D01*
X88769048Y-101439580D02*
X88769048Y-101534819D01*
X89150000Y-100534819D02*
X89816666Y-100534819D01*
X89816666Y-100534819D02*
X89388095Y-101534819D01*
X90626190Y-100868152D02*
X90626190Y-101534819D01*
X90197619Y-100868152D02*
X90197619Y-101391961D01*
X90197619Y-101391961D02*
X90245238Y-101487200D01*
X90245238Y-101487200D02*
X90340476Y-101534819D01*
X90340476Y-101534819D02*
X90483333Y-101534819D01*
X90483333Y-101534819D02*
X90578571Y-101487200D01*
X90578571Y-101487200D02*
X90626190Y-101439580D01*
X91435714Y-101011009D02*
X91102381Y-101011009D01*
X91102381Y-101534819D02*
X91102381Y-100534819D01*
X91102381Y-100534819D02*
X91578571Y-100534819D01*
D12*
X89392857Y-99793832D02*
X89373809Y-99812880D01*
X89373809Y-99812880D02*
X89316667Y-99831927D01*
X89316667Y-99831927D02*
X89278571Y-99831927D01*
X89278571Y-99831927D02*
X89221428Y-99812880D01*
X89221428Y-99812880D02*
X89183333Y-99774784D01*
X89183333Y-99774784D02*
X89164286Y-99736689D01*
X89164286Y-99736689D02*
X89145238Y-99660499D01*
X89145238Y-99660499D02*
X89145238Y-99603356D01*
X89145238Y-99603356D02*
X89164286Y-99527165D01*
X89164286Y-99527165D02*
X89183333Y-99489070D01*
X89183333Y-99489070D02*
X89221428Y-99450975D01*
X89221428Y-99450975D02*
X89278571Y-99431927D01*
X89278571Y-99431927D02*
X89316667Y-99431927D01*
X89316667Y-99431927D02*
X89373809Y-99450975D01*
X89373809Y-99450975D02*
X89392857Y-99470022D01*
X89773809Y-99831927D02*
X89545238Y-99831927D01*
X89659524Y-99831927D02*
X89659524Y-99431927D01*
X89659524Y-99431927D02*
X89621428Y-99489070D01*
X89621428Y-99489070D02*
X89583333Y-99527165D01*
X89583333Y-99527165D02*
X89545238Y-99546213D01*
X89926190Y-99470022D02*
X89945238Y-99450975D01*
X89945238Y-99450975D02*
X89983333Y-99431927D01*
X89983333Y-99431927D02*
X90078571Y-99431927D01*
X90078571Y-99431927D02*
X90116666Y-99450975D01*
X90116666Y-99450975D02*
X90135714Y-99470022D01*
X90135714Y-99470022D02*
X90154761Y-99508118D01*
X90154761Y-99508118D02*
X90154761Y-99546213D01*
X90154761Y-99546213D02*
X90135714Y-99603356D01*
X90135714Y-99603356D02*
X89907142Y-99831927D01*
X89907142Y-99831927D02*
X90154761Y-99831927D01*
D10*
X97789519Y-102806838D02*
X97789519Y-103378266D01*
X97789519Y-103092552D02*
X96789519Y-103092552D01*
X96789519Y-103092552D02*
X96932376Y-103187790D01*
X96932376Y-103187790D02*
X97027614Y-103283028D01*
X97027614Y-103283028D02*
X97075233Y-103378266D01*
X97122852Y-101949695D02*
X97789519Y-101949695D01*
X97122852Y-102378266D02*
X97646661Y-102378266D01*
X97646661Y-102378266D02*
X97741900Y-102330647D01*
X97741900Y-102330647D02*
X97789519Y-102235409D01*
X97789519Y-102235409D02*
X97789519Y-102092552D01*
X97789519Y-102092552D02*
X97741900Y-101997314D01*
X97741900Y-101997314D02*
X97694280Y-101949695D01*
X97265709Y-101140171D02*
X97265709Y-101473504D01*
X97789519Y-101473504D02*
X96789519Y-101473504D01*
X96789519Y-101473504D02*
X96789519Y-100997314D01*
D11*
X96264465Y-102253266D02*
X96276370Y-102265170D01*
X96276370Y-102265170D02*
X96288274Y-102300885D01*
X96288274Y-102300885D02*
X96288274Y-102324694D01*
X96288274Y-102324694D02*
X96276370Y-102360408D01*
X96276370Y-102360408D02*
X96252560Y-102384218D01*
X96252560Y-102384218D02*
X96228750Y-102396123D01*
X96228750Y-102396123D02*
X96181131Y-102408027D01*
X96181131Y-102408027D02*
X96145417Y-102408027D01*
X96145417Y-102408027D02*
X96097798Y-102396123D01*
X96097798Y-102396123D02*
X96073989Y-102384218D01*
X96073989Y-102384218D02*
X96050179Y-102360408D01*
X96050179Y-102360408D02*
X96038274Y-102324694D01*
X96038274Y-102324694D02*
X96038274Y-102300885D01*
X96038274Y-102300885D02*
X96050179Y-102265170D01*
X96050179Y-102265170D02*
X96062084Y-102253266D01*
X96288274Y-102015170D02*
X96288274Y-102158027D01*
X96288274Y-102086599D02*
X96038274Y-102086599D01*
X96038274Y-102086599D02*
X96073989Y-102110408D01*
X96073989Y-102110408D02*
X96097798Y-102134218D01*
X96097798Y-102134218D02*
X96109703Y-102158027D01*
D10*
X115301904Y-99813376D02*
X115301904Y-99003853D01*
X115301904Y-99003853D02*
X115254285Y-98908615D01*
X115254285Y-98908615D02*
X115206666Y-98860996D01*
X115206666Y-98860996D02*
X115111428Y-98813376D01*
X115111428Y-98813376D02*
X114920952Y-98813376D01*
X114920952Y-98813376D02*
X114825714Y-98860996D01*
X114825714Y-98860996D02*
X114778095Y-98908615D01*
X114778095Y-98908615D02*
X114730476Y-99003853D01*
X114730476Y-99003853D02*
X114730476Y-99813376D01*
X114301904Y-99718138D02*
X114254285Y-99765757D01*
X114254285Y-99765757D02*
X114159047Y-99813376D01*
X114159047Y-99813376D02*
X113920952Y-99813376D01*
X113920952Y-99813376D02*
X113825714Y-99765757D01*
X113825714Y-99765757D02*
X113778095Y-99718138D01*
X113778095Y-99718138D02*
X113730476Y-99622900D01*
X113730476Y-99622900D02*
X113730476Y-99527662D01*
X113730476Y-99527662D02*
X113778095Y-99384805D01*
X113778095Y-99384805D02*
X114349523Y-98813376D01*
X114349523Y-98813376D02*
X113730476Y-98813376D01*
D11*
X112154765Y-104459862D02*
X112166670Y-104471766D01*
X112166670Y-104471766D02*
X112178574Y-104507481D01*
X112178574Y-104507481D02*
X112178574Y-104531290D01*
X112178574Y-104531290D02*
X112166670Y-104567004D01*
X112166670Y-104567004D02*
X112142860Y-104590814D01*
X112142860Y-104590814D02*
X112119050Y-104602719D01*
X112119050Y-104602719D02*
X112071431Y-104614623D01*
X112071431Y-104614623D02*
X112035717Y-104614623D01*
X112035717Y-104614623D02*
X111988098Y-104602719D01*
X111988098Y-104602719D02*
X111964289Y-104590814D01*
X111964289Y-104590814D02*
X111940479Y-104567004D01*
X111940479Y-104567004D02*
X111928574Y-104531290D01*
X111928574Y-104531290D02*
X111928574Y-104507481D01*
X111928574Y-104507481D02*
X111940479Y-104471766D01*
X111940479Y-104471766D02*
X111952384Y-104459862D01*
X112178574Y-104340814D02*
X112178574Y-104293195D01*
X112178574Y-104293195D02*
X112166670Y-104269385D01*
X112166670Y-104269385D02*
X112154765Y-104257481D01*
X112154765Y-104257481D02*
X112119050Y-104233671D01*
X112119050Y-104233671D02*
X112071431Y-104221766D01*
X112071431Y-104221766D02*
X111976193Y-104221766D01*
X111976193Y-104221766D02*
X111952384Y-104233671D01*
X111952384Y-104233671D02*
X111940479Y-104245576D01*
X111940479Y-104245576D02*
X111928574Y-104269385D01*
X111928574Y-104269385D02*
X111928574Y-104317004D01*
X111928574Y-104317004D02*
X111940479Y-104340814D01*
X111940479Y-104340814D02*
X111952384Y-104352719D01*
X111952384Y-104352719D02*
X111976193Y-104364623D01*
X111976193Y-104364623D02*
X112035717Y-104364623D01*
X112035717Y-104364623D02*
X112059527Y-104352719D01*
X112059527Y-104352719D02*
X112071431Y-104340814D01*
X112071431Y-104340814D02*
X112083336Y-104317004D01*
X112083336Y-104317004D02*
X112083336Y-104269385D01*
X112083336Y-104269385D02*
X112071431Y-104245576D01*
X112071431Y-104245576D02*
X112059527Y-104233671D01*
X112059527Y-104233671D02*
X112035717Y-104221766D01*
D10*
X84070180Y-97051190D02*
X83260657Y-97051190D01*
X83260657Y-97051190D02*
X83165419Y-97098809D01*
X83165419Y-97098809D02*
X83117800Y-97146428D01*
X83117800Y-97146428D02*
X83070180Y-97241666D01*
X83070180Y-97241666D02*
X83070180Y-97432142D01*
X83070180Y-97432142D02*
X83117800Y-97527380D01*
X83117800Y-97527380D02*
X83165419Y-97574999D01*
X83165419Y-97574999D02*
X83260657Y-97622618D01*
X83260657Y-97622618D02*
X84070180Y-97622618D01*
X83117800Y-98051190D02*
X83070180Y-98194047D01*
X83070180Y-98194047D02*
X83070180Y-98432142D01*
X83070180Y-98432142D02*
X83117800Y-98527380D01*
X83117800Y-98527380D02*
X83165419Y-98574999D01*
X83165419Y-98574999D02*
X83260657Y-98622618D01*
X83260657Y-98622618D02*
X83355895Y-98622618D01*
X83355895Y-98622618D02*
X83451133Y-98574999D01*
X83451133Y-98574999D02*
X83498752Y-98527380D01*
X83498752Y-98527380D02*
X83546371Y-98432142D01*
X83546371Y-98432142D02*
X83593990Y-98241666D01*
X83593990Y-98241666D02*
X83641609Y-98146428D01*
X83641609Y-98146428D02*
X83689228Y-98098809D01*
X83689228Y-98098809D02*
X83784466Y-98051190D01*
X83784466Y-98051190D02*
X83879704Y-98051190D01*
X83879704Y-98051190D02*
X83974942Y-98098809D01*
X83974942Y-98098809D02*
X84022561Y-98146428D01*
X84022561Y-98146428D02*
X84070180Y-98241666D01*
X84070180Y-98241666D02*
X84070180Y-98479761D01*
X84070180Y-98479761D02*
X84022561Y-98622618D01*
X83593990Y-99384523D02*
X83546371Y-99527380D01*
X83546371Y-99527380D02*
X83498752Y-99574999D01*
X83498752Y-99574999D02*
X83403514Y-99622618D01*
X83403514Y-99622618D02*
X83260657Y-99622618D01*
X83260657Y-99622618D02*
X83165419Y-99574999D01*
X83165419Y-99574999D02*
X83117800Y-99527380D01*
X83117800Y-99527380D02*
X83070180Y-99432142D01*
X83070180Y-99432142D02*
X83070180Y-99051190D01*
X83070180Y-99051190D02*
X84070180Y-99051190D01*
X84070180Y-99051190D02*
X84070180Y-99384523D01*
X84070180Y-99384523D02*
X84022561Y-99479761D01*
X84022561Y-99479761D02*
X83974942Y-99527380D01*
X83974942Y-99527380D02*
X83879704Y-99574999D01*
X83879704Y-99574999D02*
X83784466Y-99574999D01*
X83784466Y-99574999D02*
X83689228Y-99527380D01*
X83689228Y-99527380D02*
X83641609Y-99479761D01*
X83641609Y-99479761D02*
X83593990Y-99384523D01*
X83593990Y-99384523D02*
X83593990Y-99051190D01*
X82974942Y-99813095D02*
X82974942Y-100574999D01*
X83593990Y-101146428D02*
X83546371Y-101289285D01*
X83546371Y-101289285D02*
X83498752Y-101336904D01*
X83498752Y-101336904D02*
X83403514Y-101384523D01*
X83403514Y-101384523D02*
X83260657Y-101384523D01*
X83260657Y-101384523D02*
X83165419Y-101336904D01*
X83165419Y-101336904D02*
X83117800Y-101289285D01*
X83117800Y-101289285D02*
X83070180Y-101194047D01*
X83070180Y-101194047D02*
X83070180Y-100813095D01*
X83070180Y-100813095D02*
X84070180Y-100813095D01*
X84070180Y-100813095D02*
X84070180Y-101146428D01*
X84070180Y-101146428D02*
X84022561Y-101241666D01*
X84022561Y-101241666D02*
X83974942Y-101289285D01*
X83974942Y-101289285D02*
X83879704Y-101336904D01*
X83879704Y-101336904D02*
X83784466Y-101336904D01*
X83784466Y-101336904D02*
X83689228Y-101289285D01*
X83689228Y-101289285D02*
X83641609Y-101241666D01*
X83641609Y-101241666D02*
X83593990Y-101146428D01*
X83593990Y-101146428D02*
X83593990Y-100813095D01*
X82974942Y-101575000D02*
X82974942Y-102336904D01*
X83070180Y-102575000D02*
X84070180Y-102575000D01*
X84070180Y-102575000D02*
X83355895Y-102908333D01*
X83355895Y-102908333D02*
X84070180Y-103241666D01*
X84070180Y-103241666D02*
X83070180Y-103241666D01*
X83070180Y-103717857D02*
X83736847Y-103717857D01*
X84070180Y-103717857D02*
X84022561Y-103670238D01*
X84022561Y-103670238D02*
X83974942Y-103717857D01*
X83974942Y-103717857D02*
X84022561Y-103765476D01*
X84022561Y-103765476D02*
X84070180Y-103717857D01*
X84070180Y-103717857D02*
X83974942Y-103717857D01*
X83117800Y-104622618D02*
X83070180Y-104527380D01*
X83070180Y-104527380D02*
X83070180Y-104336904D01*
X83070180Y-104336904D02*
X83117800Y-104241666D01*
X83117800Y-104241666D02*
X83165419Y-104194047D01*
X83165419Y-104194047D02*
X83260657Y-104146428D01*
X83260657Y-104146428D02*
X83546371Y-104146428D01*
X83546371Y-104146428D02*
X83641609Y-104194047D01*
X83641609Y-104194047D02*
X83689228Y-104241666D01*
X83689228Y-104241666D02*
X83736847Y-104336904D01*
X83736847Y-104336904D02*
X83736847Y-104527380D01*
X83736847Y-104527380D02*
X83689228Y-104622618D01*
X83070180Y-105051190D02*
X83736847Y-105051190D01*
X83546371Y-105051190D02*
X83641609Y-105098809D01*
X83641609Y-105098809D02*
X83689228Y-105146428D01*
X83689228Y-105146428D02*
X83736847Y-105241666D01*
X83736847Y-105241666D02*
X83736847Y-105336904D01*
X83070180Y-105813095D02*
X83117800Y-105717857D01*
X83117800Y-105717857D02*
X83165419Y-105670238D01*
X83165419Y-105670238D02*
X83260657Y-105622619D01*
X83260657Y-105622619D02*
X83546371Y-105622619D01*
X83546371Y-105622619D02*
X83641609Y-105670238D01*
X83641609Y-105670238D02*
X83689228Y-105717857D01*
X83689228Y-105717857D02*
X83736847Y-105813095D01*
X83736847Y-105813095D02*
X83736847Y-105955952D01*
X83736847Y-105955952D02*
X83689228Y-106051190D01*
X83689228Y-106051190D02*
X83641609Y-106098809D01*
X83641609Y-106098809D02*
X83546371Y-106146428D01*
X83546371Y-106146428D02*
X83260657Y-106146428D01*
X83260657Y-106146428D02*
X83165419Y-106098809D01*
X83165419Y-106098809D02*
X83117800Y-106051190D01*
X83117800Y-106051190D02*
X83070180Y-105955952D01*
X83070180Y-105955952D02*
X83070180Y-105813095D01*
X82421979Y-102873666D02*
X81707694Y-102873666D01*
X81707694Y-102873666D02*
X81564837Y-102826047D01*
X81564837Y-102826047D02*
X81469599Y-102730809D01*
X81469599Y-102730809D02*
X81421979Y-102587952D01*
X81421979Y-102587952D02*
X81421979Y-102492714D01*
X82421979Y-103254619D02*
X82421979Y-103873666D01*
X82421979Y-103873666D02*
X82041027Y-103540333D01*
X82041027Y-103540333D02*
X82041027Y-103683190D01*
X82041027Y-103683190D02*
X81993408Y-103778428D01*
X81993408Y-103778428D02*
X81945789Y-103826047D01*
X81945789Y-103826047D02*
X81850551Y-103873666D01*
X81850551Y-103873666D02*
X81612456Y-103873666D01*
X81612456Y-103873666D02*
X81517218Y-103826047D01*
X81517218Y-103826047D02*
X81469599Y-103778428D01*
X81469599Y-103778428D02*
X81421979Y-103683190D01*
X81421979Y-103683190D02*
X81421979Y-103397476D01*
X81421979Y-103397476D02*
X81469599Y-103302238D01*
X81469599Y-103302238D02*
X81517218Y-103254619D01*
D11*
X119204285Y-102007961D02*
X119192381Y-102019866D01*
X119192381Y-102019866D02*
X119156666Y-102031770D01*
X119156666Y-102031770D02*
X119132857Y-102031770D01*
X119132857Y-102031770D02*
X119097143Y-102019866D01*
X119097143Y-102019866D02*
X119073333Y-101996056D01*
X119073333Y-101996056D02*
X119061428Y-101972246D01*
X119061428Y-101972246D02*
X119049524Y-101924627D01*
X119049524Y-101924627D02*
X119049524Y-101888913D01*
X119049524Y-101888913D02*
X119061428Y-101841294D01*
X119061428Y-101841294D02*
X119073333Y-101817485D01*
X119073333Y-101817485D02*
X119097143Y-101793675D01*
X119097143Y-101793675D02*
X119132857Y-101781770D01*
X119132857Y-101781770D02*
X119156666Y-101781770D01*
X119156666Y-101781770D02*
X119192381Y-101793675D01*
X119192381Y-101793675D02*
X119204285Y-101805580D01*
X119442381Y-102031770D02*
X119299524Y-102031770D01*
X119370952Y-102031770D02*
X119370952Y-101781770D01*
X119370952Y-101781770D02*
X119347143Y-101817485D01*
X119347143Y-101817485D02*
X119323333Y-101841294D01*
X119323333Y-101841294D02*
X119299524Y-101853199D01*
X119656666Y-101865104D02*
X119656666Y-102031770D01*
X119597142Y-101769866D02*
X119537619Y-101948437D01*
X119537619Y-101948437D02*
X119692380Y-101948437D01*
X102358333Y-104289765D02*
X102346429Y-104301670D01*
X102346429Y-104301670D02*
X102310714Y-104313574D01*
X102310714Y-104313574D02*
X102286905Y-104313574D01*
X102286905Y-104313574D02*
X102251191Y-104301670D01*
X102251191Y-104301670D02*
X102227381Y-104277860D01*
X102227381Y-104277860D02*
X102215476Y-104254050D01*
X102215476Y-104254050D02*
X102203572Y-104206431D01*
X102203572Y-104206431D02*
X102203572Y-104170717D01*
X102203572Y-104170717D02*
X102215476Y-104123098D01*
X102215476Y-104123098D02*
X102227381Y-104099289D01*
X102227381Y-104099289D02*
X102251191Y-104075479D01*
X102251191Y-104075479D02*
X102286905Y-104063574D01*
X102286905Y-104063574D02*
X102310714Y-104063574D01*
X102310714Y-104063574D02*
X102346429Y-104075479D01*
X102346429Y-104075479D02*
X102358333Y-104087384D01*
X102441667Y-104063574D02*
X102596429Y-104063574D01*
X102596429Y-104063574D02*
X102513095Y-104158812D01*
X102513095Y-104158812D02*
X102548810Y-104158812D01*
X102548810Y-104158812D02*
X102572619Y-104170717D01*
X102572619Y-104170717D02*
X102584524Y-104182622D01*
X102584524Y-104182622D02*
X102596429Y-104206431D01*
X102596429Y-104206431D02*
X102596429Y-104265955D01*
X102596429Y-104265955D02*
X102584524Y-104289765D01*
X102584524Y-104289765D02*
X102572619Y-104301670D01*
X102572619Y-104301670D02*
X102548810Y-104313574D01*
X102548810Y-104313574D02*
X102477381Y-104313574D01*
X102477381Y-104313574D02*
X102453572Y-104301670D01*
X102453572Y-104301670D02*
X102441667Y-104289765D01*
X122604285Y-98044765D02*
X122592381Y-98056670D01*
X122592381Y-98056670D02*
X122556666Y-98068574D01*
X122556666Y-98068574D02*
X122532857Y-98068574D01*
X122532857Y-98068574D02*
X122497143Y-98056670D01*
X122497143Y-98056670D02*
X122473333Y-98032860D01*
X122473333Y-98032860D02*
X122461428Y-98009050D01*
X122461428Y-98009050D02*
X122449524Y-97961431D01*
X122449524Y-97961431D02*
X122449524Y-97925717D01*
X122449524Y-97925717D02*
X122461428Y-97878098D01*
X122461428Y-97878098D02*
X122473333Y-97854289D01*
X122473333Y-97854289D02*
X122497143Y-97830479D01*
X122497143Y-97830479D02*
X122532857Y-97818574D01*
X122532857Y-97818574D02*
X122556666Y-97818574D01*
X122556666Y-97818574D02*
X122592381Y-97830479D01*
X122592381Y-97830479D02*
X122604285Y-97842384D01*
X122842381Y-98068574D02*
X122699524Y-98068574D01*
X122770952Y-98068574D02*
X122770952Y-97818574D01*
X122770952Y-97818574D02*
X122747143Y-97854289D01*
X122747143Y-97854289D02*
X122723333Y-97878098D01*
X122723333Y-97878098D02*
X122699524Y-97890003D01*
X123056666Y-97818574D02*
X123009047Y-97818574D01*
X123009047Y-97818574D02*
X122985238Y-97830479D01*
X122985238Y-97830479D02*
X122973333Y-97842384D01*
X122973333Y-97842384D02*
X122949523Y-97878098D01*
X122949523Y-97878098D02*
X122937619Y-97925717D01*
X122937619Y-97925717D02*
X122937619Y-98020955D01*
X122937619Y-98020955D02*
X122949523Y-98044765D01*
X122949523Y-98044765D02*
X122961428Y-98056670D01*
X122961428Y-98056670D02*
X122985238Y-98068574D01*
X122985238Y-98068574D02*
X123032857Y-98068574D01*
X123032857Y-98068574D02*
X123056666Y-98056670D01*
X123056666Y-98056670D02*
X123068571Y-98044765D01*
X123068571Y-98044765D02*
X123080476Y-98020955D01*
X123080476Y-98020955D02*
X123080476Y-97961431D01*
X123080476Y-97961431D02*
X123068571Y-97937622D01*
X123068571Y-97937622D02*
X123056666Y-97925717D01*
X123056666Y-97925717D02*
X123032857Y-97913812D01*
X123032857Y-97913812D02*
X122985238Y-97913812D01*
X122985238Y-97913812D02*
X122961428Y-97925717D01*
X122961428Y-97925717D02*
X122949523Y-97937622D01*
X122949523Y-97937622D02*
X122937619Y-97961431D01*
X120118200Y-93625339D02*
X119994391Y-93712006D01*
X120118200Y-93773911D02*
X119858200Y-93773911D01*
X119858200Y-93773911D02*
X119858200Y-93674863D01*
X119858200Y-93674863D02*
X119870581Y-93650101D01*
X119870581Y-93650101D02*
X119882962Y-93637720D01*
X119882962Y-93637720D02*
X119907724Y-93625339D01*
X119907724Y-93625339D02*
X119944867Y-93625339D01*
X119944867Y-93625339D02*
X119969629Y-93637720D01*
X119969629Y-93637720D02*
X119982010Y-93650101D01*
X119982010Y-93650101D02*
X119994391Y-93674863D01*
X119994391Y-93674863D02*
X119994391Y-93773911D01*
X120118200Y-93377720D02*
X120118200Y-93526292D01*
X120118200Y-93452006D02*
X119858200Y-93452006D01*
X119858200Y-93452006D02*
X119895343Y-93476768D01*
X119895343Y-93476768D02*
X119920105Y-93501530D01*
X119920105Y-93501530D02*
X119932486Y-93526292D01*
X119858200Y-93216768D02*
X119858200Y-93192006D01*
X119858200Y-93192006D02*
X119870581Y-93167244D01*
X119870581Y-93167244D02*
X119882962Y-93154863D01*
X119882962Y-93154863D02*
X119907724Y-93142482D01*
X119907724Y-93142482D02*
X119957248Y-93130101D01*
X119957248Y-93130101D02*
X120019153Y-93130101D01*
X120019153Y-93130101D02*
X120068677Y-93142482D01*
X120068677Y-93142482D02*
X120093439Y-93154863D01*
X120093439Y-93154863D02*
X120105820Y-93167244D01*
X120105820Y-93167244D02*
X120118200Y-93192006D01*
X120118200Y-93192006D02*
X120118200Y-93216768D01*
X120118200Y-93216768D02*
X120105820Y-93241530D01*
X120105820Y-93241530D02*
X120093439Y-93253911D01*
X120093439Y-93253911D02*
X120068677Y-93266292D01*
X120068677Y-93266292D02*
X120019153Y-93278673D01*
X120019153Y-93278673D02*
X119957248Y-93278673D01*
X119957248Y-93278673D02*
X119907724Y-93266292D01*
X119907724Y-93266292D02*
X119882962Y-93253911D01*
X119882962Y-93253911D02*
X119870581Y-93241530D01*
X119870581Y-93241530D02*
X119858200Y-93216768D01*
X108525400Y-101084532D02*
X108401591Y-101171199D01*
X108525400Y-101233104D02*
X108265400Y-101233104D01*
X108265400Y-101233104D02*
X108265400Y-101134056D01*
X108265400Y-101134056D02*
X108277781Y-101109294D01*
X108277781Y-101109294D02*
X108290162Y-101096913D01*
X108290162Y-101096913D02*
X108314924Y-101084532D01*
X108314924Y-101084532D02*
X108352067Y-101084532D01*
X108352067Y-101084532D02*
X108376829Y-101096913D01*
X108376829Y-101096913D02*
X108389210Y-101109294D01*
X108389210Y-101109294D02*
X108401591Y-101134056D01*
X108401591Y-101134056D02*
X108401591Y-101233104D01*
X108265400Y-100997866D02*
X108265400Y-100836913D01*
X108265400Y-100836913D02*
X108364448Y-100923580D01*
X108364448Y-100923580D02*
X108364448Y-100886437D01*
X108364448Y-100886437D02*
X108376829Y-100861675D01*
X108376829Y-100861675D02*
X108389210Y-100849294D01*
X108389210Y-100849294D02*
X108413972Y-100836913D01*
X108413972Y-100836913D02*
X108475877Y-100836913D01*
X108475877Y-100836913D02*
X108500639Y-100849294D01*
X108500639Y-100849294D02*
X108513020Y-100861675D01*
X108513020Y-100861675D02*
X108525400Y-100886437D01*
X108525400Y-100886437D02*
X108525400Y-100960723D01*
X108525400Y-100960723D02*
X108513020Y-100985485D01*
X108513020Y-100985485D02*
X108500639Y-100997866D01*
X101505867Y-98314600D02*
X101419200Y-98190791D01*
X101357295Y-98314600D02*
X101357295Y-98054600D01*
X101357295Y-98054600D02*
X101456343Y-98054600D01*
X101456343Y-98054600D02*
X101481105Y-98066981D01*
X101481105Y-98066981D02*
X101493486Y-98079362D01*
X101493486Y-98079362D02*
X101505867Y-98104124D01*
X101505867Y-98104124D02*
X101505867Y-98141267D01*
X101505867Y-98141267D02*
X101493486Y-98166029D01*
X101493486Y-98166029D02*
X101481105Y-98178410D01*
X101481105Y-98178410D02*
X101456343Y-98190791D01*
X101456343Y-98190791D02*
X101357295Y-98190791D01*
X101654438Y-98166029D02*
X101629676Y-98153648D01*
X101629676Y-98153648D02*
X101617295Y-98141267D01*
X101617295Y-98141267D02*
X101604914Y-98116505D01*
X101604914Y-98116505D02*
X101604914Y-98104124D01*
X101604914Y-98104124D02*
X101617295Y-98079362D01*
X101617295Y-98079362D02*
X101629676Y-98066981D01*
X101629676Y-98066981D02*
X101654438Y-98054600D01*
X101654438Y-98054600D02*
X101703962Y-98054600D01*
X101703962Y-98054600D02*
X101728724Y-98066981D01*
X101728724Y-98066981D02*
X101741105Y-98079362D01*
X101741105Y-98079362D02*
X101753486Y-98104124D01*
X101753486Y-98104124D02*
X101753486Y-98116505D01*
X101753486Y-98116505D02*
X101741105Y-98141267D01*
X101741105Y-98141267D02*
X101728724Y-98153648D01*
X101728724Y-98153648D02*
X101703962Y-98166029D01*
X101703962Y-98166029D02*
X101654438Y-98166029D01*
X101654438Y-98166029D02*
X101629676Y-98178410D01*
X101629676Y-98178410D02*
X101617295Y-98190791D01*
X101617295Y-98190791D02*
X101604914Y-98215553D01*
X101604914Y-98215553D02*
X101604914Y-98265077D01*
X101604914Y-98265077D02*
X101617295Y-98289839D01*
X101617295Y-98289839D02*
X101629676Y-98302220D01*
X101629676Y-98302220D02*
X101654438Y-98314600D01*
X101654438Y-98314600D02*
X101703962Y-98314600D01*
X101703962Y-98314600D02*
X101728724Y-98302220D01*
X101728724Y-98302220D02*
X101741105Y-98289839D01*
X101741105Y-98289839D02*
X101753486Y-98265077D01*
X101753486Y-98265077D02*
X101753486Y-98215553D01*
X101753486Y-98215553D02*
X101741105Y-98190791D01*
X101741105Y-98190791D02*
X101728724Y-98178410D01*
X101728724Y-98178410D02*
X101703962Y-98166029D01*
X123479765Y-102359862D02*
X123491670Y-102371766D01*
X123491670Y-102371766D02*
X123503574Y-102407481D01*
X123503574Y-102407481D02*
X123503574Y-102431290D01*
X123503574Y-102431290D02*
X123491670Y-102467004D01*
X123491670Y-102467004D02*
X123467860Y-102490814D01*
X123467860Y-102490814D02*
X123444050Y-102502719D01*
X123444050Y-102502719D02*
X123396431Y-102514623D01*
X123396431Y-102514623D02*
X123360717Y-102514623D01*
X123360717Y-102514623D02*
X123313098Y-102502719D01*
X123313098Y-102502719D02*
X123289289Y-102490814D01*
X123289289Y-102490814D02*
X123265479Y-102467004D01*
X123265479Y-102467004D02*
X123253574Y-102431290D01*
X123253574Y-102431290D02*
X123253574Y-102407481D01*
X123253574Y-102407481D02*
X123265479Y-102371766D01*
X123265479Y-102371766D02*
X123277384Y-102359862D01*
X123336908Y-102145576D02*
X123503574Y-102145576D01*
X123241670Y-102205100D02*
X123420241Y-102264623D01*
X123420241Y-102264623D02*
X123420241Y-102109862D01*
D10*
X92297206Y-94664238D02*
X91725778Y-94664238D01*
X92011492Y-94664238D02*
X92011492Y-93664238D01*
X92011492Y-93664238D02*
X91916254Y-93807095D01*
X91916254Y-93807095D02*
X91821016Y-93902333D01*
X91821016Y-93902333D02*
X91725778Y-93949952D01*
X92916254Y-93664238D02*
X93011492Y-93664238D01*
X93011492Y-93664238D02*
X93106730Y-93711857D01*
X93106730Y-93711857D02*
X93154349Y-93759476D01*
X93154349Y-93759476D02*
X93201968Y-93854714D01*
X93201968Y-93854714D02*
X93249587Y-94045190D01*
X93249587Y-94045190D02*
X93249587Y-94283285D01*
X93249587Y-94283285D02*
X93201968Y-94473761D01*
X93201968Y-94473761D02*
X93154349Y-94568999D01*
X93154349Y-94568999D02*
X93106730Y-94616619D01*
X93106730Y-94616619D02*
X93011492Y-94664238D01*
X93011492Y-94664238D02*
X92916254Y-94664238D01*
X92916254Y-94664238D02*
X92821016Y-94616619D01*
X92821016Y-94616619D02*
X92773397Y-94568999D01*
X92773397Y-94568999D02*
X92725778Y-94473761D01*
X92725778Y-94473761D02*
X92678159Y-94283285D01*
X92678159Y-94283285D02*
X92678159Y-94045190D01*
X92678159Y-94045190D02*
X92725778Y-93854714D01*
X92725778Y-93854714D02*
X92773397Y-93759476D01*
X92773397Y-93759476D02*
X92821016Y-93711857D01*
X92821016Y-93711857D02*
X92916254Y-93664238D01*
X93678159Y-94664238D02*
X93678159Y-93664238D01*
X93773397Y-94283285D02*
X94059111Y-94664238D01*
X94059111Y-93997571D02*
X93678159Y-94378523D01*
X94440064Y-94664238D02*
X94678159Y-94664238D01*
X94678159Y-94664238D02*
X94678159Y-94473761D01*
X94678159Y-94473761D02*
X94582921Y-94426142D01*
X94582921Y-94426142D02*
X94487683Y-94330904D01*
X94487683Y-94330904D02*
X94440064Y-94188047D01*
X94440064Y-94188047D02*
X94440064Y-93949952D01*
X94440064Y-93949952D02*
X94487683Y-93807095D01*
X94487683Y-93807095D02*
X94582921Y-93711857D01*
X94582921Y-93711857D02*
X94725778Y-93664238D01*
X94725778Y-93664238D02*
X94916254Y-93664238D01*
X94916254Y-93664238D02*
X95059111Y-93711857D01*
X95059111Y-93711857D02*
X95154349Y-93807095D01*
X95154349Y-93807095D02*
X95201968Y-93949952D01*
X95201968Y-93949952D02*
X95201968Y-94188047D01*
X95201968Y-94188047D02*
X95154349Y-94330904D01*
X95154349Y-94330904D02*
X95059111Y-94426142D01*
X95059111Y-94426142D02*
X94963873Y-94473761D01*
X94963873Y-94473761D02*
X94963873Y-94664238D01*
X94963873Y-94664238D02*
X95201968Y-94664238D01*
D11*
X93420540Y-95497619D02*
X93333873Y-95373810D01*
X93271968Y-95497619D02*
X93271968Y-95237619D01*
X93271968Y-95237619D02*
X93371016Y-95237619D01*
X93371016Y-95237619D02*
X93395778Y-95250000D01*
X93395778Y-95250000D02*
X93408159Y-95262381D01*
X93408159Y-95262381D02*
X93420540Y-95287143D01*
X93420540Y-95287143D02*
X93420540Y-95324286D01*
X93420540Y-95324286D02*
X93408159Y-95349048D01*
X93408159Y-95349048D02*
X93395778Y-95361429D01*
X93395778Y-95361429D02*
X93371016Y-95373810D01*
X93371016Y-95373810D02*
X93271968Y-95373810D01*
X93655778Y-95237619D02*
X93531968Y-95237619D01*
X93531968Y-95237619D02*
X93519587Y-95361429D01*
X93519587Y-95361429D02*
X93531968Y-95349048D01*
X93531968Y-95349048D02*
X93556730Y-95336667D01*
X93556730Y-95336667D02*
X93618635Y-95336667D01*
X93618635Y-95336667D02*
X93643397Y-95349048D01*
X93643397Y-95349048D02*
X93655778Y-95361429D01*
X93655778Y-95361429D02*
X93668159Y-95386191D01*
X93668159Y-95386191D02*
X93668159Y-95448096D01*
X93668159Y-95448096D02*
X93655778Y-95472858D01*
X93655778Y-95472858D02*
X93643397Y-95485239D01*
X93643397Y-95485239D02*
X93618635Y-95497619D01*
X93618635Y-95497619D02*
X93556730Y-95497619D01*
X93556730Y-95497619D02*
X93531968Y-95485239D01*
X93531968Y-95485239D02*
X93519587Y-95472858D01*
D14*
X120219048Y-87004900D02*
X120290476Y-87028709D01*
X120290476Y-87028709D02*
X120409524Y-87028709D01*
X120409524Y-87028709D02*
X120457143Y-87004900D01*
X120457143Y-87004900D02*
X120480952Y-86981090D01*
X120480952Y-86981090D02*
X120504762Y-86933471D01*
X120504762Y-86933471D02*
X120504762Y-86885852D01*
X120504762Y-86885852D02*
X120480952Y-86838233D01*
X120480952Y-86838233D02*
X120457143Y-86814423D01*
X120457143Y-86814423D02*
X120409524Y-86790614D01*
X120409524Y-86790614D02*
X120314286Y-86766804D01*
X120314286Y-86766804D02*
X120266667Y-86742995D01*
X120266667Y-86742995D02*
X120242857Y-86719185D01*
X120242857Y-86719185D02*
X120219048Y-86671566D01*
X120219048Y-86671566D02*
X120219048Y-86623947D01*
X120219048Y-86623947D02*
X120242857Y-86576328D01*
X120242857Y-86576328D02*
X120266667Y-86552519D01*
X120266667Y-86552519D02*
X120314286Y-86528709D01*
X120314286Y-86528709D02*
X120433333Y-86528709D01*
X120433333Y-86528709D02*
X120504762Y-86552519D01*
X120980952Y-87028709D02*
X120695238Y-87028709D01*
X120838095Y-87028709D02*
X120838095Y-86528709D01*
X120838095Y-86528709D02*
X120790476Y-86600138D01*
X120790476Y-86600138D02*
X120742857Y-86647757D01*
X120742857Y-86647757D02*
X120695238Y-86671566D01*
D10*
X99383333Y-99168990D02*
X99716666Y-99168990D01*
X99716666Y-98645180D02*
X99716666Y-99645180D01*
X99716666Y-99645180D02*
X99240476Y-99645180D01*
X98526190Y-99168990D02*
X98383333Y-99121371D01*
X98383333Y-99121371D02*
X98335714Y-99073752D01*
X98335714Y-99073752D02*
X98288095Y-98978514D01*
X98288095Y-98978514D02*
X98288095Y-98835657D01*
X98288095Y-98835657D02*
X98335714Y-98740419D01*
X98335714Y-98740419D02*
X98383333Y-98692800D01*
X98383333Y-98692800D02*
X98478571Y-98645180D01*
X98478571Y-98645180D02*
X98859523Y-98645180D01*
X98859523Y-98645180D02*
X98859523Y-99645180D01*
X98859523Y-99645180D02*
X98526190Y-99645180D01*
X98526190Y-99645180D02*
X98430952Y-99597561D01*
X98430952Y-99597561D02*
X98383333Y-99549942D01*
X98383333Y-99549942D02*
X98335714Y-99454704D01*
X98335714Y-99454704D02*
X98335714Y-99359466D01*
X98335714Y-99359466D02*
X98383333Y-99264228D01*
X98383333Y-99264228D02*
X98430952Y-99216609D01*
X98430952Y-99216609D02*
X98526190Y-99168990D01*
X98526190Y-99168990D02*
X98859523Y-99168990D01*
X97907142Y-99549942D02*
X97859523Y-99597561D01*
X97859523Y-99597561D02*
X97764285Y-99645180D01*
X97764285Y-99645180D02*
X97526190Y-99645180D01*
X97526190Y-99645180D02*
X97430952Y-99597561D01*
X97430952Y-99597561D02*
X97383333Y-99549942D01*
X97383333Y-99549942D02*
X97335714Y-99454704D01*
X97335714Y-99454704D02*
X97335714Y-99359466D01*
X97335714Y-99359466D02*
X97383333Y-99216609D01*
X97383333Y-99216609D02*
X97954761Y-98645180D01*
X97954761Y-98645180D02*
X97335714Y-98645180D01*
D11*
X114429765Y-94378910D02*
X114441670Y-94390814D01*
X114441670Y-94390814D02*
X114453574Y-94426529D01*
X114453574Y-94426529D02*
X114453574Y-94450338D01*
X114453574Y-94450338D02*
X114441670Y-94486052D01*
X114441670Y-94486052D02*
X114417860Y-94509862D01*
X114417860Y-94509862D02*
X114394050Y-94521767D01*
X114394050Y-94521767D02*
X114346431Y-94533671D01*
X114346431Y-94533671D02*
X114310717Y-94533671D01*
X114310717Y-94533671D02*
X114263098Y-94521767D01*
X114263098Y-94521767D02*
X114239289Y-94509862D01*
X114239289Y-94509862D02*
X114215479Y-94486052D01*
X114215479Y-94486052D02*
X114203574Y-94450338D01*
X114203574Y-94450338D02*
X114203574Y-94426529D01*
X114203574Y-94426529D02*
X114215479Y-94390814D01*
X114215479Y-94390814D02*
X114227384Y-94378910D01*
X114453574Y-94140814D02*
X114453574Y-94283671D01*
X114453574Y-94212243D02*
X114203574Y-94212243D01*
X114203574Y-94212243D02*
X114239289Y-94236052D01*
X114239289Y-94236052D02*
X114263098Y-94259862D01*
X114263098Y-94259862D02*
X114275003Y-94283671D01*
X114203574Y-94057481D02*
X114203574Y-93890815D01*
X114203574Y-93890815D02*
X114453574Y-93997957D01*
D15*
%TO.C,J2*%
X89641300Y-87000000D02*
G75*
G02*
X88879300Y-87000000I-381000J0D01*
G01*
X88879300Y-87000000D02*
G75*
G02*
X89641300Y-87000000I381000J0D01*
G01*
D16*
X88705300Y-91949700D02*
X88705300Y-84050300D01*
X88705300Y-84050300D02*
X80094700Y-84050300D01*
X80094700Y-91949700D02*
X88705300Y-91949700D01*
X80094700Y-84050300D02*
X80094700Y-91949700D01*
D10*
%TO.C,AE2*%
X138200000Y-89518196D02*
X132250000Y-89518196D01*
X132250000Y-89518196D02*
X132250000Y-105018196D01*
X138200000Y-105018196D02*
X138200000Y-89518196D01*
X132250000Y-105018196D02*
X138200000Y-105018196D01*
D17*
%TO.C,R1*%
X106790000Y-95030000D02*
X107840000Y-95030000D01*
X106790000Y-95570000D02*
X106790000Y-95030000D01*
X107840000Y-95030000D02*
X107840000Y-95570000D01*
X107840000Y-95570000D02*
X106790000Y-95570000D01*
D16*
%TO.C,FB1*%
X96440100Y-92448700D02*
X96440100Y-93058300D01*
X96440100Y-92448700D02*
X96440100Y-94201300D01*
X96440100Y-93058300D02*
X97379900Y-93058300D01*
X96440100Y-93591700D02*
X96440100Y-94201300D01*
X96440100Y-94201300D02*
X97379900Y-94201300D01*
X96440100Y-94201300D02*
X97379900Y-94201300D01*
X97379900Y-92448700D02*
X96440100Y-92448700D01*
X97379900Y-92448700D02*
X96440100Y-92448700D01*
X97379900Y-93058300D02*
X97379900Y-92448700D01*
X97379900Y-93591700D02*
X96440100Y-93591700D01*
X97379900Y-94201300D02*
X97379900Y-92448700D01*
X97379900Y-94201300D02*
X97379900Y-93591700D01*
X96910001Y-92702700D02*
X96910001Y-92702700D01*
X96910001Y-92702700D01*
X96910001Y-92702700D01*
X96910001Y-92702700D01*
X96910001Y-92702700D01*
X96910001Y-92702701D01*
X96910001Y-92702701D01*
X96910001Y-92702701D01*
X96910001Y-92702701D01*
X96910001Y-92702701D01*
X96910001Y-92702701D01*
X96910001Y-92702701D01*
X96910000Y-92702701D01*
X96910000Y-92702701D01*
X96910000Y-92702701D01*
X96910000Y-92702701D01*
X96910000Y-92702701D01*
X96910000Y-92702701D01*
X96910000Y-92702701D01*
X96910000Y-92702701D01*
X96910000Y-92702701D01*
X96910000Y-92702701D01*
X96910000Y-92702701D01*
X96910000Y-92702701D01*
X96909999Y-92702701D01*
X96909999Y-92702701D01*
X96909999Y-92702701D01*
X96909999Y-92702701D01*
X96909999Y-92702701D01*
X96909999Y-92702701D01*
X96909999Y-92702700D01*
X96909999Y-92702700D01*
X96909999Y-92702700D01*
X96909999Y-92702700D01*
X96909999Y-92702700D01*
X96909999Y-92702700D01*
X96909999Y-92702700D02*
X96909999Y-92702700D01*
X96909999Y-92702700D01*
X96909999Y-92702700D01*
X96909999Y-92702700D01*
X96909999Y-92702700D01*
X96909999Y-92702700D01*
X96909999Y-92702699D01*
X96909999Y-92702699D01*
X96909999Y-92702699D01*
X96909999Y-92702699D01*
X96909999Y-92702699D01*
X96910000Y-92702699D01*
X96910000Y-92702699D01*
X96910000Y-92702699D01*
X96910000Y-92702699D01*
X96910000Y-92702699D01*
X96910000Y-92702699D01*
X96910000Y-92702699D01*
X96910000Y-92702699D01*
X96910000Y-92702699D01*
X96910000Y-92702699D01*
X96910000Y-92702699D01*
X96910000Y-92702699D01*
X96910001Y-92702699D01*
X96910001Y-92702699D01*
X96910001Y-92702699D01*
X96910001Y-92702699D01*
X96910001Y-92702699D01*
X96910001Y-92702699D01*
X96910001Y-92702700D01*
X96910001Y-92702700D01*
X96910001Y-92702700D01*
X96910001Y-92702700D01*
X96910001Y-92702700D01*
X96910001Y-92702700D01*
X96910001Y-92702700D01*
D17*
%TO.C,C21*%
X110138192Y-102100000D02*
X110638192Y-102100000D01*
X110138192Y-103100000D02*
X110138192Y-102100000D01*
X110638192Y-102100000D02*
X110638192Y-103100000D01*
X110638192Y-103100000D02*
X110138192Y-103100000D01*
%TO.C,C7*%
X94300000Y-92950000D02*
X95300000Y-92950000D01*
X94300000Y-93450000D02*
X94300000Y-92950000D01*
X95300000Y-92950000D02*
X95300000Y-93450000D01*
X95300000Y-93450000D02*
X94300000Y-93450000D01*
%TO.C,C13*%
X113350000Y-103950000D02*
X113850000Y-103950000D01*
X113350000Y-104950000D02*
X113350000Y-103950000D01*
X113850000Y-103950000D02*
X113850000Y-104950000D01*
X113850000Y-104950000D02*
X113350000Y-104950000D01*
%TO.C,C10*%
X99479200Y-95916800D02*
X101079200Y-95916800D01*
X99479200Y-96716800D02*
X99479200Y-95916800D01*
X101079200Y-95916800D02*
X101079200Y-96716800D01*
X101079200Y-96716800D02*
X99479200Y-96716800D01*
D16*
%TO.C,XTAL1*%
X119367300Y-96075500D02*
X119367300Y-98234500D01*
X119367300Y-98234500D02*
X120662700Y-98234500D01*
X120662700Y-96075500D02*
X119367300Y-96075500D01*
X120662700Y-98234500D02*
X120662700Y-96075500D01*
D18*
%TO.C,L1*%
X98080000Y-88600000D02*
X98080000Y-90000000D01*
X98080000Y-88600000D02*
X100220000Y-88600000D01*
X98080000Y-90000000D02*
X100220000Y-90000000D01*
X100220000Y-88600000D02*
X100220000Y-90000000D01*
D16*
%TO.C,L5*%
X124769300Y-101538796D02*
X124769300Y-102097596D01*
X124769300Y-101538796D02*
X124769300Y-102097596D01*
X124769300Y-102097596D02*
X125124900Y-102097596D01*
X124769300Y-102097596D02*
X125810700Y-102097596D01*
X125124900Y-101538796D02*
X124769300Y-101538796D01*
X125124900Y-102097596D02*
X125124900Y-101538796D01*
X125455100Y-101538796D02*
X125455100Y-102097596D01*
X125455100Y-102097596D02*
X125810700Y-102097596D01*
X125810700Y-101538796D02*
X124769300Y-101538796D01*
X125810700Y-101538796D02*
X125455100Y-101538796D01*
X125810700Y-102097596D02*
X125810700Y-101538796D01*
X125810700Y-102097596D02*
X125810700Y-101538796D01*
X124896301Y-101818196D02*
X124896301Y-101818196D01*
X124896301Y-101818196D01*
X124896301Y-101818196D01*
X124896301Y-101818196D01*
X124896301Y-101818196D01*
X124896301Y-101818197D01*
X124896301Y-101818197D01*
X124896301Y-101818197D01*
X124896301Y-101818197D01*
X124896301Y-101818197D01*
X124896301Y-101818197D01*
X124896301Y-101818197D01*
X124896300Y-101818197D01*
X124896300Y-101818197D01*
X124896300Y-101818197D01*
X124896300Y-101818197D01*
X124896300Y-101818197D01*
X124896300Y-101818197D01*
X124896300Y-101818197D01*
X124896300Y-101818197D01*
X124896300Y-101818197D01*
X124896300Y-101818197D01*
X124896300Y-101818197D01*
X124896300Y-101818197D01*
X124896299Y-101818197D01*
X124896299Y-101818197D01*
X124896299Y-101818197D01*
X124896299Y-101818197D01*
X124896299Y-101818197D01*
X124896299Y-101818197D01*
X124896299Y-101818196D01*
X124896299Y-101818196D01*
X124896299Y-101818196D01*
X124896299Y-101818196D01*
X124896299Y-101818196D01*
X124896299Y-101818196D01*
X124896299Y-101818196D02*
X124896299Y-101818196D01*
X124896299Y-101818196D01*
X124896299Y-101818196D01*
X124896299Y-101818196D01*
X124896299Y-101818196D01*
X124896299Y-101818196D01*
X124896299Y-101818195D01*
X124896299Y-101818195D01*
X124896299Y-101818195D01*
X124896299Y-101818195D01*
X124896299Y-101818195D01*
X124896300Y-101818195D01*
X124896300Y-101818195D01*
X124896300Y-101818195D01*
X124896300Y-101818195D01*
X124896300Y-101818195D01*
X124896300Y-101818195D01*
X124896300Y-101818195D01*
X124896300Y-101818195D01*
X124896300Y-101818195D01*
X124896300Y-101818195D01*
X124896300Y-101818195D01*
X124896300Y-101818195D01*
X124896301Y-101818195D01*
X124896301Y-101818195D01*
X124896301Y-101818195D01*
X124896301Y-101818195D01*
X124896301Y-101818195D01*
X124896301Y-101818195D01*
X124896301Y-101818196D01*
X124896301Y-101818196D01*
X124896301Y-101818196D01*
X124896301Y-101818196D01*
X124896301Y-101818196D01*
X124896301Y-101818196D01*
X124896301Y-101818196D01*
%TO.C,D1*%
X90164273Y-102099619D02*
X90164273Y-102709219D01*
X90164273Y-102099619D02*
X90164273Y-102709219D01*
X90164273Y-102709219D02*
X90469073Y-102709219D01*
X90164273Y-102709219D02*
X91154873Y-102709219D01*
X90469073Y-102099619D02*
X90164273Y-102099619D01*
X90469073Y-102709219D02*
X90469073Y-102099619D01*
X90850073Y-102099619D02*
X90850073Y-102709219D01*
X90850073Y-102709219D02*
X91154873Y-102709219D01*
X91154873Y-102099619D02*
X90164273Y-102099619D01*
X91154873Y-102099619D02*
X90850073Y-102099619D01*
X91154873Y-102709219D02*
X91154873Y-102099619D01*
X91154873Y-102709219D02*
X91154873Y-102099619D01*
X91053274Y-102404419D02*
X91053274Y-102404419D01*
X91053274Y-102404419D01*
X91053274Y-102404419D01*
X91053274Y-102404419D01*
X91053274Y-102404419D01*
X91053274Y-102404420D01*
X91053274Y-102404420D01*
X91053274Y-102404420D01*
X91053274Y-102404420D01*
X91053274Y-102404420D01*
X91053274Y-102404420D01*
X91053274Y-102404420D01*
X91053273Y-102404420D01*
X91053273Y-102404420D01*
X91053273Y-102404420D01*
X91053273Y-102404420D01*
X91053273Y-102404420D01*
X91053273Y-102404420D01*
X91053273Y-102404420D01*
X91053273Y-102404420D01*
X91053273Y-102404420D01*
X91053273Y-102404420D01*
X91053273Y-102404420D01*
X91053273Y-102404420D01*
X91053272Y-102404420D01*
X91053272Y-102404420D01*
X91053272Y-102404420D01*
X91053272Y-102404420D01*
X91053272Y-102404420D01*
X91053272Y-102404420D01*
X91053272Y-102404419D01*
X91053272Y-102404419D01*
X91053272Y-102404419D01*
X91053272Y-102404419D01*
X91053272Y-102404419D01*
X91053272Y-102404419D01*
X91053272Y-102404419D02*
X91053272Y-102404419D01*
X91053272Y-102404419D01*
X91053272Y-102404419D01*
X91053272Y-102404419D01*
X91053272Y-102404419D01*
X91053272Y-102404419D01*
X91053272Y-102404418D01*
X91053272Y-102404418D01*
X91053272Y-102404418D01*
X91053272Y-102404418D01*
X91053272Y-102404418D01*
X91053273Y-102404418D01*
X91053273Y-102404418D01*
X91053273Y-102404418D01*
X91053273Y-102404418D01*
X91053273Y-102404418D01*
X91053273Y-102404418D01*
X91053273Y-102404418D01*
X91053273Y-102404418D01*
X91053273Y-102404418D01*
X91053273Y-102404418D01*
X91053273Y-102404418D01*
X91053273Y-102404418D01*
X91053274Y-102404418D01*
X91053274Y-102404418D01*
X91053274Y-102404418D01*
X91053274Y-102404418D01*
X91053274Y-102404418D01*
X91053274Y-102404418D01*
X91053274Y-102404419D01*
X91053274Y-102404419D01*
X91053274Y-102404419D01*
X91053274Y-102404419D01*
X91053274Y-102404419D01*
X91053274Y-102404419D01*
X91053274Y-102404419D01*
D17*
%TO.C,R9*%
X104021400Y-85836000D02*
X105071400Y-85836000D01*
X104021400Y-86376000D02*
X104021400Y-85836000D01*
X105071400Y-85836000D02*
X105071400Y-86376000D01*
X105071400Y-86376000D02*
X104021400Y-86376000D01*
%TO.C,C5*%
X126990000Y-101768196D02*
X127490000Y-101768196D01*
X126990000Y-102768196D02*
X126990000Y-101768196D01*
X127490000Y-101768196D02*
X127490000Y-102768196D01*
X127490000Y-102768196D02*
X126990000Y-102768196D01*
D16*
%TO.C,U1*%
X97878900Y-102577900D02*
X97878900Y-106972100D01*
X97878900Y-106972100D02*
X100876100Y-106972100D01*
X100876100Y-102577900D02*
X97878900Y-102577900D01*
X100876100Y-106972100D02*
X100876100Y-102577900D01*
X99627267Y-102577900D02*
G75*
G02*
X99127733Y-102577900I-249767J0D01*
G01*
X98856800Y-102975000D02*
G75*
G02*
X98704400Y-102975000I-76200J0D01*
G01*
X98704400Y-102975000D02*
G75*
G02*
X98856800Y-102975000I76200J0D01*
G01*
%TO.C,L4*%
X120919300Y-99838796D02*
X120919300Y-100397596D01*
X120919300Y-99838796D02*
X120919300Y-100397596D01*
X120919300Y-100397596D02*
X121274900Y-100397596D01*
X120919300Y-100397596D02*
X121960700Y-100397596D01*
X121274900Y-99838796D02*
X120919300Y-99838796D01*
X121274900Y-100397596D02*
X121274900Y-99838796D01*
X121605100Y-99838796D02*
X121605100Y-100397596D01*
X121605100Y-100397596D02*
X121960700Y-100397596D01*
X121960700Y-99838796D02*
X120919300Y-99838796D01*
X121960700Y-99838796D02*
X121605100Y-99838796D01*
X121960700Y-100397596D02*
X121960700Y-99838796D01*
X121960700Y-100397596D02*
X121960700Y-99838796D01*
X121046301Y-100118196D02*
X121046301Y-100118196D01*
X121046301Y-100118196D01*
X121046301Y-100118196D01*
X121046301Y-100118196D01*
X121046301Y-100118196D01*
X121046301Y-100118197D01*
X121046301Y-100118197D01*
X121046301Y-100118197D01*
X121046301Y-100118197D01*
X121046301Y-100118197D01*
X121046301Y-100118197D01*
X121046301Y-100118197D01*
X121046300Y-100118197D01*
X121046300Y-100118197D01*
X121046300Y-100118197D01*
X121046300Y-100118197D01*
X121046300Y-100118197D01*
X121046300Y-100118197D01*
X121046300Y-100118197D01*
X121046300Y-100118197D01*
X121046300Y-100118197D01*
X121046300Y-100118197D01*
X121046300Y-100118197D01*
X121046300Y-100118197D01*
X121046299Y-100118197D01*
X121046299Y-100118197D01*
X121046299Y-100118197D01*
X121046299Y-100118197D01*
X121046299Y-100118197D01*
X121046299Y-100118197D01*
X121046299Y-100118196D01*
X121046299Y-100118196D01*
X121046299Y-100118196D01*
X121046299Y-100118196D01*
X121046299Y-100118196D01*
X121046299Y-100118196D01*
X121046299Y-100118196D02*
X121046299Y-100118196D01*
X121046299Y-100118196D01*
X121046299Y-100118196D01*
X121046299Y-100118196D01*
X121046299Y-100118196D01*
X121046299Y-100118196D01*
X121046299Y-100118195D01*
X121046299Y-100118195D01*
X121046299Y-100118195D01*
X121046299Y-100118195D01*
X121046299Y-100118195D01*
X121046300Y-100118195D01*
X121046300Y-100118195D01*
X121046300Y-100118195D01*
X121046300Y-100118195D01*
X121046300Y-100118195D01*
X121046300Y-100118195D01*
X121046300Y-100118195D01*
X121046300Y-100118195D01*
X121046300Y-100118195D01*
X121046300Y-100118195D01*
X121046300Y-100118195D01*
X121046300Y-100118195D01*
X121046301Y-100118195D01*
X121046301Y-100118195D01*
X121046301Y-100118195D01*
X121046301Y-100118195D01*
X121046301Y-100118195D01*
X121046301Y-100118195D01*
X121046301Y-100118196D01*
X121046301Y-100118196D01*
X121046301Y-100118196D01*
X121046301Y-100118196D01*
X121046301Y-100118196D01*
X121046301Y-100118196D01*
X121046301Y-100118196D01*
D10*
%TO.C,Q1*%
X121725000Y-93275000D02*
X122775000Y-93275000D01*
X121725000Y-93925000D02*
X121725000Y-93275000D01*
X122775000Y-93275000D02*
X122775000Y-93925000D01*
X122775000Y-93925000D02*
X121725000Y-93925000D01*
D17*
%TO.C,C15*%
X122265000Y-96105000D02*
X123265000Y-96105000D01*
X122265000Y-96605000D02*
X122265000Y-96105000D01*
X123265000Y-96105000D02*
X123265000Y-96605000D01*
X123265000Y-96605000D02*
X122265000Y-96605000D01*
%TO.C,C6*%
X128490000Y-101588196D02*
X129490000Y-101588196D01*
X128490000Y-102088196D02*
X128490000Y-101588196D01*
X129490000Y-101588196D02*
X129490000Y-102088196D01*
X129490000Y-102088196D02*
X128490000Y-102088196D01*
%TO.C,U4*%
X91575000Y-95075000D02*
X88675000Y-95075000D01*
X88675000Y-96625000D01*
X91575000Y-96625000D01*
X91575000Y-95075000D01*
D19*
X91231539Y-95400000D02*
G75*
G02*
X91028461Y-95400000I-101539J0D01*
G01*
X91028461Y-95400000D02*
G75*
G02*
X91231539Y-95400000I101539J0D01*
G01*
D18*
%TO.C,S3*%
X91700000Y-83050000D02*
X96200000Y-83050000D01*
X91700000Y-86550000D02*
X91700000Y-83050000D01*
X96200000Y-80800000D02*
X96200000Y-83050000D01*
X96200000Y-83050000D02*
X97700000Y-83050000D01*
X97700000Y-80800000D02*
X96200000Y-80800000D01*
X97700000Y-83050000D02*
X97700000Y-80800000D01*
X97700000Y-83050000D02*
X100700000Y-83050000D01*
X100700000Y-83050000D02*
X100700000Y-86550000D01*
X100700000Y-86550000D02*
X91700000Y-86550000D01*
D20*
X102250623Y-86250000D02*
G75*
G02*
X101499377Y-86250000I-375623J0D01*
G01*
X101499377Y-86250000D02*
G75*
G02*
X102250623Y-86250000I375623J0D01*
G01*
D17*
%TO.C,C2*%
X93950000Y-103850000D02*
X95550000Y-103850000D01*
X93950000Y-104650000D02*
X93950000Y-103850000D01*
X95550000Y-103850000D02*
X95550000Y-104650000D01*
X95550000Y-104650000D02*
X93950000Y-104650000D01*
%TO.C,C19*%
X105500000Y-88550000D02*
X106500000Y-88550000D01*
X105500000Y-89050000D02*
X105500000Y-88550000D01*
X106500000Y-88550000D02*
X106500000Y-89050000D01*
X106500000Y-89050000D02*
X105500000Y-89050000D01*
%TO.C,R7*%
X106130000Y-103875000D02*
X106670000Y-103875000D01*
X106130000Y-104925000D02*
X106130000Y-103875000D01*
X106670000Y-103875000D02*
X106670000Y-104925000D01*
X106670000Y-104925000D02*
X106130000Y-104925000D01*
%TO.C,R4*%
X105475000Y-90730000D02*
X106525000Y-90730000D01*
X105475000Y-91270000D02*
X105475000Y-90730000D01*
X106525000Y-90730000D02*
X106525000Y-91270000D01*
X106525000Y-91270000D02*
X105475000Y-91270000D01*
%TO.C,C11*%
X98560000Y-92450000D02*
X99360000Y-92450000D01*
X98560000Y-94050000D02*
X98560000Y-92450000D01*
X99360000Y-92450000D02*
X99360000Y-94050000D01*
X99360000Y-94050000D02*
X98560000Y-94050000D01*
%TO.C,C20*%
X96024700Y-105791600D02*
X96524700Y-105791600D01*
X96024700Y-106791600D02*
X96024700Y-105791600D01*
X96524700Y-105791600D02*
X96524700Y-106791600D01*
X96524700Y-106791600D02*
X96024700Y-106791600D01*
D16*
%TO.C,XTAL2*%
X116304600Y-104119601D02*
X116304600Y-106227801D01*
X116304600Y-106227801D02*
X118895400Y-106227801D01*
X118895400Y-104119601D02*
X116304600Y-104119601D01*
X118895400Y-106227801D02*
X118895400Y-104119601D01*
X118895400Y-105478501D02*
G75*
G02*
X118895400Y-104868901I0J304800D01*
G01*
X118526200Y-104780001D02*
G75*
G02*
X118373800Y-104780001I-76200J0D01*
G01*
X118373800Y-104780001D02*
G75*
G02*
X118526200Y-104780001I76200J0D01*
G01*
%TO.C,D2*%
X124385200Y-91927196D02*
X124385200Y-92231996D01*
X124385200Y-91927196D02*
X124385200Y-92917796D01*
X124385200Y-92231996D02*
X124994800Y-92231996D01*
X124385200Y-92612996D02*
X124385200Y-92917796D01*
X124385200Y-92917796D02*
X124994800Y-92917796D01*
X124385200Y-92917796D02*
X124994800Y-92917796D01*
X124994800Y-91927196D02*
X124385200Y-91927196D01*
X124994800Y-91927196D02*
X124385200Y-91927196D01*
X124994800Y-92231996D02*
X124994800Y-91927196D01*
X124994800Y-92612996D02*
X124385200Y-92612996D01*
X124994800Y-92917796D02*
X124994800Y-91927196D01*
X124994800Y-92917796D02*
X124994800Y-92612996D01*
X124690001Y-92816196D02*
X124690001Y-92816196D01*
X124690001Y-92816196D01*
X124690001Y-92816196D01*
X124690001Y-92816196D01*
X124690001Y-92816196D01*
X124690001Y-92816197D01*
X124690001Y-92816197D01*
X124690001Y-92816197D01*
X124690001Y-92816197D01*
X124690001Y-92816197D01*
X124690001Y-92816197D01*
X124690001Y-92816197D01*
X124690000Y-92816197D01*
X124690000Y-92816197D01*
X124690000Y-92816197D01*
X124690000Y-92816197D01*
X124690000Y-92816197D01*
X124690000Y-92816197D01*
X124690000Y-92816197D01*
X124690000Y-92816197D01*
X124690000Y-92816197D01*
X124690000Y-92816197D01*
X124690000Y-92816197D01*
X124690000Y-92816197D01*
X124689999Y-92816197D01*
X124689999Y-92816197D01*
X124689999Y-92816197D01*
X124689999Y-92816197D01*
X124689999Y-92816197D01*
X124689999Y-92816197D01*
X124689999Y-92816196D01*
X124689999Y-92816196D01*
X124689999Y-92816196D01*
X124689999Y-92816196D01*
X124689999Y-92816196D01*
X124689999Y-92816196D01*
X124689999Y-92816196D02*
X124689999Y-92816196D01*
X124689999Y-92816196D01*
X124689999Y-92816196D01*
X124689999Y-92816196D01*
X124689999Y-92816196D01*
X124689999Y-92816196D01*
X124689999Y-92816195D01*
X124689999Y-92816195D01*
X124689999Y-92816195D01*
X124689999Y-92816195D01*
X124689999Y-92816195D01*
X124690000Y-92816195D01*
X124690000Y-92816195D01*
X124690000Y-92816195D01*
X124690000Y-92816195D01*
X124690000Y-92816195D01*
X124690000Y-92816195D01*
X124690000Y-92816195D01*
X124690000Y-92816195D01*
X124690000Y-92816195D01*
X124690000Y-92816195D01*
X124690000Y-92816195D01*
X124690000Y-92816195D01*
X124690001Y-92816195D01*
X124690001Y-92816195D01*
X124690001Y-92816195D01*
X124690001Y-92816195D01*
X124690001Y-92816195D01*
X124690001Y-92816195D01*
X124690001Y-92816196D01*
X124690001Y-92816196D01*
X124690001Y-92816196D01*
X124690001Y-92816196D01*
X124690001Y-92816196D01*
X124690001Y-92816196D01*
X124690001Y-92816196D01*
D17*
%TO.C,C18*%
X91600000Y-89800000D02*
X93200000Y-89800000D01*
X91600000Y-90600000D02*
X91600000Y-89800000D01*
X93200000Y-89800000D02*
X93200000Y-90600000D01*
X93200000Y-90600000D02*
X91600000Y-90600000D01*
D16*
%TO.C,U3*%
X100595900Y-91849900D02*
X100595900Y-93450100D01*
X100595900Y-93450100D02*
X102704100Y-93450100D01*
X102704100Y-91849900D02*
X100595900Y-91849900D01*
X102704100Y-93450100D02*
X102704100Y-91849900D01*
X100595900Y-92345200D02*
G75*
G02*
X100595900Y-92954800I0J-304800D01*
G01*
D21*
X100863838Y-94300000D02*
G75*
G02*
X100536162Y-94300000I-163838J0D01*
G01*
X100536162Y-94300000D02*
G75*
G02*
X100863838Y-94300000I163838J0D01*
G01*
D17*
%TO.C,R6*%
X92818873Y-97254419D02*
X93358873Y-97254419D01*
X92818873Y-98304419D02*
X92818873Y-97254419D01*
X93358873Y-97254419D02*
X93358873Y-98304419D01*
X93358873Y-98304419D02*
X92818873Y-98304419D01*
%TO.C,C8*%
X115390000Y-93718196D02*
X115890000Y-93718196D01*
X115390000Y-94718196D02*
X115390000Y-93718196D01*
X115890000Y-93718196D02*
X115890000Y-94718196D01*
X115890000Y-94718196D02*
X115390000Y-94718196D01*
%TO.C,R2*%
X103870000Y-97900000D02*
X104410000Y-97900000D01*
X103870000Y-98950000D02*
X103870000Y-97900000D01*
X104410000Y-97900000D02*
X104410000Y-98950000D01*
X104410000Y-98950000D02*
X103870000Y-98950000D01*
%TO.C,C12*%
X88850000Y-99250000D02*
X90450000Y-99250000D01*
X88850000Y-100050000D02*
X88850000Y-99250000D01*
X90450000Y-99250000D02*
X90450000Y-100050000D01*
X90450000Y-100050000D02*
X88850000Y-100050000D01*
%TO.C,C1*%
X95924700Y-101711600D02*
X96424700Y-101711600D01*
X95924700Y-102711600D02*
X95924700Y-101711600D01*
X96424700Y-101711600D02*
X96424700Y-102711600D01*
X96424700Y-102711600D02*
X95924700Y-102711600D01*
%TO.C,U2*%
X112464998Y-97193196D02*
X112464998Y-101343198D01*
X116615000Y-97193196D02*
X112464998Y-97193196D01*
X116615000Y-97193196D02*
X116615000Y-101343198D01*
X116615000Y-101343198D02*
X112464998Y-101343198D01*
X116264997Y-100668196D02*
G75*
G02*
X115664999Y-100668196I-299999J0D01*
G01*
X115664999Y-100668196D02*
G75*
G02*
X116264997Y-100668196I299999J0D01*
G01*
%TO.C,C9*%
X111815000Y-103918196D02*
X112315000Y-103918196D01*
X111815000Y-104918196D02*
X111815000Y-103918196D01*
X112315000Y-103918196D02*
X112315000Y-104918196D01*
X112315000Y-104918196D02*
X111815000Y-104918196D01*
D16*
%TO.C,J3*%
X80870700Y-97434800D02*
X80870700Y-105715200D01*
X80870700Y-102240000D02*
X79600700Y-102875000D01*
X80870700Y-103510000D02*
X79600700Y-102875000D01*
X80870700Y-105715200D02*
X86179300Y-105715200D01*
X86179300Y-97434800D02*
X80870700Y-97434800D01*
X86179300Y-105715200D02*
X86179300Y-97434800D01*
D17*
%TO.C,C14*%
X118865000Y-101668196D02*
X119865000Y-101668196D01*
X118865000Y-102168196D02*
X118865000Y-101668196D01*
X119865000Y-101668196D02*
X119865000Y-102168196D01*
X119865000Y-102168196D02*
X118865000Y-102168196D01*
%TO.C,C3*%
X101900000Y-103950000D02*
X102900000Y-103950000D01*
X101900000Y-104450000D02*
X101900000Y-103950000D01*
X102900000Y-103950000D02*
X102900000Y-104450000D01*
X102900000Y-104450000D02*
X101900000Y-104450000D01*
%TO.C,C16*%
X122265000Y-97705000D02*
X123265000Y-97705000D01*
X122265000Y-98205000D02*
X122265000Y-97705000D01*
X123265000Y-97705000D02*
X123265000Y-98205000D01*
X123265000Y-98205000D02*
X122265000Y-98205000D01*
%TO.C,R10*%
X119730000Y-92933197D02*
X120270000Y-92933197D01*
X119730000Y-93983197D02*
X119730000Y-92933197D01*
X120270000Y-92933197D02*
X120270000Y-93983197D01*
X120270000Y-93983197D02*
X119730000Y-93983197D01*
%TO.C,R3*%
X108137200Y-100516200D02*
X108677200Y-100516200D01*
X108137200Y-101566200D02*
X108137200Y-100516200D01*
X108677200Y-100516200D02*
X108677200Y-101566200D01*
X108677200Y-101566200D02*
X108137200Y-101566200D01*
%TO.C,R8*%
X101024200Y-97926400D02*
X102074200Y-97926400D01*
X101024200Y-98466400D02*
X101024200Y-97926400D01*
X102074200Y-97926400D02*
X102074200Y-98466400D01*
X102074200Y-98466400D02*
X101024200Y-98466400D01*
%TO.C,C4*%
X123140000Y-101818196D02*
X123640000Y-101818196D01*
X123140000Y-102818196D02*
X123140000Y-101818196D01*
X123640000Y-101818196D02*
X123640000Y-102818196D01*
X123640000Y-102818196D02*
X123140000Y-102818196D01*
%TO.C,R5*%
X92938873Y-95109419D02*
X93988873Y-95109419D01*
X92938873Y-95649419D02*
X92938873Y-95109419D01*
X93988873Y-95109419D02*
X93988873Y-95649419D01*
X93988873Y-95649419D02*
X92938873Y-95649419D01*
%TO.C,S1*%
X119100000Y-85310000D02*
X119100000Y-88290000D01*
X119100000Y-85310000D02*
X122100000Y-85310000D01*
X119100000Y-88290000D02*
X122100000Y-88290000D01*
X122100000Y-85310000D02*
X122100000Y-88290000D01*
D16*
%TO.C,FB2*%
X97673700Y-98630100D02*
X97673700Y-99569900D01*
X97673700Y-98630100D02*
X97673700Y-99569900D01*
X97673700Y-99569900D02*
X98283300Y-99569900D01*
X97673700Y-99569900D02*
X99426300Y-99569900D01*
X98283300Y-98630100D02*
X97673700Y-98630100D01*
X98283300Y-99569900D02*
X98283300Y-98630100D01*
X98816700Y-98630100D02*
X98816700Y-99569900D01*
X98816700Y-99569900D02*
X99426300Y-99569900D01*
X99426300Y-98630100D02*
X97673700Y-98630100D01*
X99426300Y-98630100D02*
X98816700Y-98630100D01*
X99426300Y-99569900D02*
X99426300Y-98630100D01*
X99426300Y-99569900D02*
X99426300Y-98630100D01*
X99172301Y-99100000D02*
X99172301Y-99100000D01*
X99172301Y-99100000D01*
X99172301Y-99100000D01*
X99172301Y-99100000D01*
X99172301Y-99100000D01*
X99172301Y-99100001D01*
X99172301Y-99100001D01*
X99172301Y-99100001D01*
X99172301Y-99100001D01*
X99172301Y-99100001D01*
X99172301Y-99100001D01*
X99172301Y-99100001D01*
X99172300Y-99100001D01*
X99172300Y-99100001D01*
X99172300Y-99100001D01*
X99172300Y-99100001D01*
X99172300Y-99100001D01*
X99172300Y-99100001D01*
X99172300Y-99100001D01*
X99172300Y-99100001D01*
X99172300Y-99100001D01*
X99172300Y-99100001D01*
X99172300Y-99100001D01*
X99172300Y-99100001D01*
X99172299Y-99100001D01*
X99172299Y-99100001D01*
X99172299Y-99100001D01*
X99172299Y-99100001D01*
X99172299Y-99100001D01*
X99172299Y-99100001D01*
X99172299Y-99100000D01*
X99172299Y-99100000D01*
X99172299Y-99100000D01*
X99172299Y-99100000D01*
X99172299Y-99100000D01*
X99172299Y-99100000D01*
X99172299Y-99100000D02*
X99172299Y-99100000D01*
X99172299Y-99100000D01*
X99172299Y-99100000D01*
X99172299Y-99100000D01*
X99172299Y-99100000D01*
X99172299Y-99100000D01*
X99172299Y-99099999D01*
X99172299Y-99099999D01*
X99172299Y-99099999D01*
X99172299Y-99099999D01*
X99172299Y-99099999D01*
X99172300Y-99099999D01*
X99172300Y-99099999D01*
X99172300Y-99099999D01*
X99172300Y-99099999D01*
X99172300Y-99099999D01*
X99172300Y-99099999D01*
X99172300Y-99099999D01*
X99172300Y-99099999D01*
X99172300Y-99099999D01*
X99172300Y-99099999D01*
X99172300Y-99099999D01*
X99172300Y-99099999D01*
X99172301Y-99099999D01*
X99172301Y-99099999D01*
X99172301Y-99099999D01*
X99172301Y-99099999D01*
X99172301Y-99099999D01*
X99172301Y-99099999D01*
X99172301Y-99100000D01*
X99172301Y-99100000D01*
X99172301Y-99100000D01*
X99172301Y-99100000D01*
X99172301Y-99100000D01*
X99172301Y-99100000D01*
X99172301Y-99100000D01*
D17*
%TO.C,C17*%
X114090000Y-93718196D02*
X114590000Y-93718196D01*
X114090000Y-94718196D02*
X114090000Y-93718196D01*
X114590000Y-93718196D02*
X114590000Y-94718196D01*
X114590000Y-94718196D02*
X114090000Y-94718196D01*
%TD*%
%TO.C,J2*%
X79903499Y-90600701D02*
X79903499Y-92099301D01*
X83307099Y-92099301D01*
X83307099Y-90600701D01*
X79903499Y-90600701D01*
X79903499Y-83900699D02*
X79903499Y-85399299D01*
X83307099Y-85399299D01*
X83307099Y-83900699D01*
X79903499Y-83900699D01*
X85602700Y-88504701D02*
X85602700Y-89495301D01*
X89107900Y-89495301D01*
X89107900Y-88504701D01*
X85602700Y-88504701D01*
X85602700Y-86504699D02*
X85602700Y-87495299D01*
X89107900Y-87495299D01*
X89107900Y-86504699D01*
X85602700Y-86504699D01*
%TD*%
%TO.C,AE2*%
X132350000Y-101568196D02*
X132350000Y-102068196D01*
X132850000Y-102068196D01*
X132850000Y-101568196D01*
X132350000Y-101568196D01*
X132350000Y-103468196D02*
X132350000Y-104368196D01*
X132850000Y-104368196D01*
X132850000Y-103468196D01*
X132350000Y-103468196D01*
%TD*%
D22*
%TO.C,R1*%
D17*
X106535000Y-95115000D02*
X106545276Y-95063338D01*
X106574541Y-95019541D01*
X106618338Y-94990276D01*
X106670000Y-94980000D01*
X106940000Y-94980000D01*
X106991662Y-94990276D01*
X107035459Y-95019541D01*
X107064724Y-95063338D01*
X107075000Y-95115000D01*
X107075000Y-95485000D01*
X107064724Y-95536662D01*
X107035459Y-95580459D01*
X106991662Y-95609724D01*
X106940000Y-95620000D01*
X106670000Y-95620000D01*
X106618338Y-95609724D01*
X106574541Y-95580459D01*
X106545276Y-95536662D01*
X106535000Y-95485000D01*
X106535000Y-95115000D01*
D22*
D17*
X107555000Y-95115000D02*
X107565276Y-95063338D01*
X107594541Y-95019541D01*
X107638338Y-94990276D01*
X107690000Y-94980000D01*
X107960000Y-94980000D01*
X108011662Y-94990276D01*
X108055459Y-95019541D01*
X108084724Y-95063338D01*
X108095000Y-95115000D01*
X108095000Y-95485000D01*
X108084724Y-95536662D01*
X108055459Y-95580459D01*
X108011662Y-95609724D01*
X107960000Y-95620000D01*
X107690000Y-95620000D01*
X107638338Y-95609724D01*
X107594541Y-95580459D01*
X107565276Y-95536662D01*
X107555000Y-95485000D01*
X107555000Y-95115000D01*
%TD*%
%TO.C,FB1*%
X96440100Y-92093100D02*
X96440100Y-93058300D01*
X97379900Y-93058300D01*
X97379900Y-92093100D01*
X96440100Y-92093100D01*
X96440100Y-93591700D02*
X96440100Y-94556900D01*
X97379900Y-94556900D01*
X97379900Y-93591700D01*
X96440100Y-93591700D01*
%TD*%
D22*
%TO.C,C21*%
D17*
X110558192Y-101840000D02*
X110611768Y-101850657D01*
X110657187Y-101881005D01*
X110687535Y-101926424D01*
X110698192Y-101980000D01*
X110698192Y-102260000D01*
X110687535Y-102313576D01*
X110657187Y-102358995D01*
X110611768Y-102389343D01*
X110558192Y-102400000D01*
X110218192Y-102400000D01*
X110164616Y-102389343D01*
X110119197Y-102358995D01*
X110088849Y-102313576D01*
X110078192Y-102260000D01*
X110078192Y-101980000D01*
X110088849Y-101926424D01*
X110119197Y-101881005D01*
X110164616Y-101850657D01*
X110218192Y-101840000D01*
X110558192Y-101840000D01*
D22*
D17*
X110558192Y-102800000D02*
X110611768Y-102810657D01*
X110657187Y-102841005D01*
X110687535Y-102886424D01*
X110698192Y-102940000D01*
X110698192Y-103220000D01*
X110687535Y-103273576D01*
X110657187Y-103318995D01*
X110611768Y-103349343D01*
X110558192Y-103360000D01*
X110218192Y-103360000D01*
X110164616Y-103349343D01*
X110119197Y-103318995D01*
X110088849Y-103273576D01*
X110078192Y-103220000D01*
X110078192Y-102940000D01*
X110088849Y-102886424D01*
X110119197Y-102841005D01*
X110164616Y-102810657D01*
X110218192Y-102800000D01*
X110558192Y-102800000D01*
%TD*%
D22*
%TO.C,C7*%
D17*
X95560000Y-93370000D02*
X95549343Y-93423576D01*
X95518995Y-93468995D01*
X95473576Y-93499343D01*
X95420000Y-93510000D01*
X95140000Y-93510000D01*
X95086424Y-93499343D01*
X95041005Y-93468995D01*
X95010657Y-93423576D01*
X95000000Y-93370000D01*
X95000000Y-93030000D01*
X95010657Y-92976424D01*
X95041005Y-92931005D01*
X95086424Y-92900657D01*
X95140000Y-92890000D01*
X95420000Y-92890000D01*
X95473576Y-92900657D01*
X95518995Y-92931005D01*
X95549343Y-92976424D01*
X95560000Y-93030000D01*
X95560000Y-93370000D01*
D22*
D17*
X94600000Y-93370000D02*
X94589343Y-93423576D01*
X94558995Y-93468995D01*
X94513576Y-93499343D01*
X94460000Y-93510000D01*
X94180000Y-93510000D01*
X94126424Y-93499343D01*
X94081005Y-93468995D01*
X94050657Y-93423576D01*
X94040000Y-93370000D01*
X94040000Y-93030000D01*
X94050657Y-92976424D01*
X94081005Y-92931005D01*
X94126424Y-92900657D01*
X94180000Y-92890000D01*
X94460000Y-92890000D01*
X94513576Y-92900657D01*
X94558995Y-92931005D01*
X94589343Y-92976424D01*
X94600000Y-93030000D01*
X94600000Y-93370000D01*
%TD*%
D22*
%TO.C,C13*%
D17*
X113770000Y-103690000D02*
X113823576Y-103700657D01*
X113868995Y-103731005D01*
X113899343Y-103776424D01*
X113910000Y-103830000D01*
X113910000Y-104110000D01*
X113899343Y-104163576D01*
X113868995Y-104208995D01*
X113823576Y-104239343D01*
X113770000Y-104250000D01*
X113430000Y-104250000D01*
X113376424Y-104239343D01*
X113331005Y-104208995D01*
X113300657Y-104163576D01*
X113290000Y-104110000D01*
X113290000Y-103830000D01*
X113300657Y-103776424D01*
X113331005Y-103731005D01*
X113376424Y-103700657D01*
X113430000Y-103690000D01*
X113770000Y-103690000D01*
D22*
D17*
X113770000Y-104650000D02*
X113823576Y-104660657D01*
X113868995Y-104691005D01*
X113899343Y-104736424D01*
X113910000Y-104790000D01*
X113910000Y-105070000D01*
X113899343Y-105123576D01*
X113868995Y-105168995D01*
X113823576Y-105199343D01*
X113770000Y-105210000D01*
X113430000Y-105210000D01*
X113376424Y-105199343D01*
X113331005Y-105168995D01*
X113300657Y-105123576D01*
X113290000Y-105070000D01*
X113290000Y-104790000D01*
X113300657Y-104736424D01*
X113331005Y-104691005D01*
X113376424Y-104660657D01*
X113430000Y-104650000D01*
X113770000Y-104650000D01*
%TD*%
D22*
%TO.C,C10*%
D17*
X101504200Y-96566800D02*
X101487073Y-96652904D01*
X101438299Y-96725899D01*
X101365304Y-96774673D01*
X101279200Y-96791800D01*
X100829200Y-96791800D01*
X100743096Y-96774673D01*
X100670101Y-96725899D01*
X100621327Y-96652904D01*
X100604200Y-96566800D01*
X100604200Y-96066800D01*
X100621327Y-95980696D01*
X100670101Y-95907701D01*
X100743096Y-95858927D01*
X100829200Y-95841800D01*
X101279200Y-95841800D01*
X101365304Y-95858927D01*
X101438299Y-95907701D01*
X101487073Y-95980696D01*
X101504200Y-96066800D01*
X101504200Y-96566800D01*
D22*
D17*
X99954200Y-96566800D02*
X99937073Y-96652904D01*
X99888299Y-96725899D01*
X99815304Y-96774673D01*
X99729200Y-96791800D01*
X99279200Y-96791800D01*
X99193096Y-96774673D01*
X99120101Y-96725899D01*
X99071327Y-96652904D01*
X99054200Y-96566800D01*
X99054200Y-96066800D01*
X99071327Y-95980696D01*
X99120101Y-95907701D01*
X99193096Y-95858927D01*
X99279200Y-95841800D01*
X99729200Y-95841800D01*
X99815304Y-95858927D01*
X99888299Y-95907701D01*
X99937073Y-95980696D01*
X99954200Y-96066800D01*
X99954200Y-96566800D01*
%TD*%
%TO.C,XTAL1*%
X119316500Y-96050100D02*
X119316500Y-96748600D01*
X120713500Y-96748600D01*
X120713500Y-96050100D01*
X119316500Y-96050100D01*
X119316500Y-97561400D02*
X119316500Y-98259900D01*
X120713500Y-98259900D01*
X120713500Y-97561400D01*
X119316500Y-97561400D01*
%TD*%
%TO.C,L1*%
X99485000Y-88590000D02*
X99485000Y-90010000D01*
X100585000Y-90010000D01*
X100585000Y-88590000D01*
X99485000Y-88590000D01*
X97715000Y-88590000D02*
X97715000Y-90010000D01*
X98815000Y-90010000D01*
X98815000Y-88590000D01*
X97715000Y-88590000D01*
%TD*%
%TO.C,L5*%
X124413700Y-101538796D02*
X124413700Y-102097596D01*
X125124900Y-102097596D01*
X125124900Y-101538796D01*
X124413700Y-101538796D01*
X125455100Y-101538796D02*
X125455100Y-102097596D01*
X126166300Y-102097596D01*
X126166300Y-101538796D01*
X125455100Y-101538796D01*
%TD*%
%TO.C,D1*%
X90850073Y-102099619D02*
X90850073Y-102709219D01*
X91510473Y-102709219D01*
X91510473Y-102099619D01*
X90850073Y-102099619D01*
X89808673Y-102099619D02*
X89808673Y-102709219D01*
X90469073Y-102709219D01*
X90469073Y-102099619D01*
X89808673Y-102099619D01*
%TD*%
D22*
%TO.C,R9*%
D17*
X103766400Y-85921000D02*
X103776676Y-85869338D01*
X103805941Y-85825541D01*
X103849738Y-85796276D01*
X103901400Y-85786000D01*
X104171400Y-85786000D01*
X104223062Y-85796276D01*
X104266859Y-85825541D01*
X104296124Y-85869338D01*
X104306400Y-85921000D01*
X104306400Y-86291000D01*
X104296124Y-86342662D01*
X104266859Y-86386459D01*
X104223062Y-86415724D01*
X104171400Y-86426000D01*
X103901400Y-86426000D01*
X103849738Y-86415724D01*
X103805941Y-86386459D01*
X103776676Y-86342662D01*
X103766400Y-86291000D01*
X103766400Y-85921000D01*
D22*
D17*
X104786400Y-85921000D02*
X104796676Y-85869338D01*
X104825941Y-85825541D01*
X104869738Y-85796276D01*
X104921400Y-85786000D01*
X105191400Y-85786000D01*
X105243062Y-85796276D01*
X105286859Y-85825541D01*
X105316124Y-85869338D01*
X105326400Y-85921000D01*
X105326400Y-86291000D01*
X105316124Y-86342662D01*
X105286859Y-86386459D01*
X105243062Y-86415724D01*
X105191400Y-86426000D01*
X104921400Y-86426000D01*
X104869738Y-86415724D01*
X104825941Y-86386459D01*
X104796676Y-86342662D01*
X104786400Y-86291000D01*
X104786400Y-85921000D01*
%TD*%
D22*
%TO.C,C5*%
D17*
X127410000Y-101508196D02*
X127463576Y-101518853D01*
X127508995Y-101549201D01*
X127539343Y-101594620D01*
X127550000Y-101648196D01*
X127550000Y-101928196D01*
X127539343Y-101981772D01*
X127508995Y-102027191D01*
X127463576Y-102057539D01*
X127410000Y-102068196D01*
X127070000Y-102068196D01*
X127016424Y-102057539D01*
X126971005Y-102027191D01*
X126940657Y-101981772D01*
X126930000Y-101928196D01*
X126930000Y-101648196D01*
X126940657Y-101594620D01*
X126971005Y-101549201D01*
X127016424Y-101518853D01*
X127070000Y-101508196D01*
X127410000Y-101508196D01*
D22*
D17*
X127410000Y-102468196D02*
X127463576Y-102478853D01*
X127508995Y-102509201D01*
X127539343Y-102554620D01*
X127550000Y-102608196D01*
X127550000Y-102888196D01*
X127539343Y-102941772D01*
X127508995Y-102987191D01*
X127463576Y-103017539D01*
X127410000Y-103028196D01*
X127070000Y-103028196D01*
X127016424Y-103017539D01*
X126971005Y-102987191D01*
X126940657Y-102941772D01*
X126930000Y-102888196D01*
X126930000Y-102608196D01*
X126940657Y-102554620D01*
X126971005Y-102509201D01*
X127016424Y-102478853D01*
X127070000Y-102468196D01*
X127410000Y-102468196D01*
%TD*%
%TO.C,U1*%
X98094800Y-102775002D02*
X98094800Y-103175000D01*
X98755200Y-103175000D01*
X98755200Y-102775002D01*
X98094800Y-102775002D01*
X98094800Y-103375000D02*
X98094800Y-103775000D01*
X98755200Y-103775000D01*
X98755200Y-103375000D01*
X98094800Y-103375000D01*
X98094800Y-103975002D02*
X98094800Y-104375000D01*
X98755200Y-104375000D01*
X98755200Y-103975002D01*
X98094800Y-103975002D01*
X98094800Y-104575000D02*
X98094800Y-104975000D01*
X98755200Y-104975000D01*
X98755200Y-104575000D01*
X98094800Y-104575000D01*
X98094800Y-105175000D02*
X98094800Y-105575000D01*
X98755200Y-105575000D01*
X98755200Y-105175000D01*
X98094800Y-105175000D01*
X98094800Y-105775000D02*
X98094800Y-106175000D01*
X98755200Y-106175000D01*
X98755200Y-105775000D01*
X98094800Y-105775000D01*
X98094800Y-106375000D02*
X98094800Y-106775000D01*
X98755200Y-106775000D01*
X98755200Y-106375000D01*
X98094800Y-106375000D01*
X99999800Y-106375000D02*
X99999800Y-106775000D01*
X100660200Y-106775000D01*
X100660200Y-106375000D01*
X99999800Y-106375000D01*
X99999800Y-105775000D02*
X99999800Y-106175000D01*
X100660200Y-106175000D01*
X100660200Y-105775000D01*
X99999800Y-105775000D01*
X99999800Y-105175000D02*
X99999800Y-105575000D01*
X100660200Y-105575000D01*
X100660200Y-105175000D01*
X99999800Y-105175000D01*
X100002500Y-104575000D02*
X100002500Y-104975000D01*
X100660200Y-104975000D01*
X100660200Y-104575000D01*
X100002500Y-104575000D01*
X99999800Y-103975002D02*
X99999800Y-104375000D01*
X100660200Y-104375000D01*
X100660200Y-103975002D01*
X99999800Y-103975002D01*
X99999800Y-103375000D02*
X99999800Y-103775000D01*
X100660200Y-103775000D01*
X100660200Y-103375000D01*
X99999800Y-103375000D01*
X99999800Y-102775002D02*
X99999800Y-103175000D01*
X100660200Y-103175000D01*
X100660200Y-102775002D01*
X99999800Y-102775002D01*
%TD*%
%TO.C,L4*%
X120563700Y-99838796D02*
X120563700Y-100397596D01*
X121274900Y-100397596D01*
X121274900Y-99838796D01*
X120563700Y-99838796D01*
X121605100Y-99838796D02*
X121605100Y-100397596D01*
X122316300Y-100397596D01*
X122316300Y-99838796D01*
X121605100Y-99838796D01*
%TD*%
%TO.C,Q1*%
X121700000Y-93250001D02*
X121700000Y-93500001D01*
X122100000Y-93500001D01*
X122100000Y-93250001D01*
X121700000Y-93250001D01*
X122400000Y-93250000D02*
X122400000Y-93950000D01*
X122800000Y-93950000D01*
X122800000Y-93250000D01*
X122400000Y-93250000D01*
X121700000Y-93699999D02*
X121700000Y-93949999D01*
X122100000Y-93949999D01*
X122100000Y-93699999D01*
X121700000Y-93699999D01*
%TD*%
D22*
%TO.C,C15*%
D17*
X122005000Y-96185000D02*
X122015657Y-96131424D01*
X122046005Y-96086005D01*
X122091424Y-96055657D01*
X122145000Y-96045000D01*
X122425000Y-96045000D01*
X122478576Y-96055657D01*
X122523995Y-96086005D01*
X122554343Y-96131424D01*
X122565000Y-96185000D01*
X122565000Y-96525000D01*
X122554343Y-96578576D01*
X122523995Y-96623995D01*
X122478576Y-96654343D01*
X122425000Y-96665000D01*
X122145000Y-96665000D01*
X122091424Y-96654343D01*
X122046005Y-96623995D01*
X122015657Y-96578576D01*
X122005000Y-96525000D01*
X122005000Y-96185000D01*
D22*
D17*
X122965000Y-96185000D02*
X122975657Y-96131424D01*
X123006005Y-96086005D01*
X123051424Y-96055657D01*
X123105000Y-96045000D01*
X123385000Y-96045000D01*
X123438576Y-96055657D01*
X123483995Y-96086005D01*
X123514343Y-96131424D01*
X123525000Y-96185000D01*
X123525000Y-96525000D01*
X123514343Y-96578576D01*
X123483995Y-96623995D01*
X123438576Y-96654343D01*
X123385000Y-96665000D01*
X123105000Y-96665000D01*
X123051424Y-96654343D01*
X123006005Y-96623995D01*
X122975657Y-96578576D01*
X122965000Y-96525000D01*
X122965000Y-96185000D01*
%TD*%
D22*
%TO.C,C6*%
D17*
X128230000Y-101668196D02*
X128240657Y-101614620D01*
X128271005Y-101569201D01*
X128316424Y-101538853D01*
X128370000Y-101528196D01*
X128650000Y-101528196D01*
X128703576Y-101538853D01*
X128748995Y-101569201D01*
X128779343Y-101614620D01*
X128790000Y-101668196D01*
X128790000Y-102008196D01*
X128779343Y-102061772D01*
X128748995Y-102107191D01*
X128703576Y-102137539D01*
X128650000Y-102148196D01*
X128370000Y-102148196D01*
X128316424Y-102137539D01*
X128271005Y-102107191D01*
X128240657Y-102061772D01*
X128230000Y-102008196D01*
X128230000Y-101668196D01*
D22*
D17*
X129190000Y-101668196D02*
X129200657Y-101614620D01*
X129231005Y-101569201D01*
X129276424Y-101538853D01*
X129330000Y-101528196D01*
X129610000Y-101528196D01*
X129663576Y-101538853D01*
X129708995Y-101569201D01*
X129739343Y-101614620D01*
X129750000Y-101668196D01*
X129750000Y-102008196D01*
X129739343Y-102061772D01*
X129708995Y-102107191D01*
X129663576Y-102137539D01*
X129610000Y-102148196D01*
X129330000Y-102148196D01*
X129276424Y-102137539D01*
X129231005Y-102107191D01*
X129200657Y-102061772D01*
X129190000Y-102008196D01*
X129190000Y-101668196D01*
%TD*%
D22*
%TO.C,U4*%
D17*
X91225000Y-93900000D02*
X91282403Y-93911418D01*
X91331066Y-93943934D01*
X91363582Y-93992597D01*
X91375000Y-94050000D01*
X91375000Y-94850000D01*
X91363582Y-94907403D01*
X91331066Y-94956066D01*
X91282403Y-94988582D01*
X91225000Y-95000000D01*
X90925000Y-95000000D01*
X90867597Y-94988582D01*
X90818934Y-94956066D01*
X90786418Y-94907403D01*
X90775000Y-94850000D01*
X90775000Y-94050000D01*
X90786418Y-93992597D01*
X90818934Y-93943934D01*
X90867597Y-93911418D01*
X90925000Y-93900000D01*
X91225000Y-93900000D01*
D22*
D17*
X90275000Y-93900000D02*
X90332403Y-93911418D01*
X90381066Y-93943934D01*
X90413582Y-93992597D01*
X90425000Y-94050000D01*
X90425000Y-94850000D01*
X90413582Y-94907403D01*
X90381066Y-94956066D01*
X90332403Y-94988582D01*
X90275000Y-95000000D01*
X89975000Y-95000000D01*
X89917597Y-94988582D01*
X89868934Y-94956066D01*
X89836418Y-94907403D01*
X89825000Y-94850000D01*
X89825000Y-94050000D01*
X89836418Y-93992597D01*
X89868934Y-93943934D01*
X89917597Y-93911418D01*
X89975000Y-93900000D01*
X90275000Y-93900000D01*
D22*
D17*
X89325000Y-93900000D02*
X89382403Y-93911418D01*
X89431066Y-93943934D01*
X89463582Y-93992597D01*
X89475000Y-94050000D01*
X89475000Y-94850000D01*
X89463582Y-94907403D01*
X89431066Y-94956066D01*
X89382403Y-94988582D01*
X89325000Y-95000000D01*
X89025000Y-95000000D01*
X88967597Y-94988582D01*
X88918934Y-94956066D01*
X88886418Y-94907403D01*
X88875000Y-94850000D01*
X88875000Y-94050000D01*
X88886418Y-93992597D01*
X88918934Y-93943934D01*
X88967597Y-93911418D01*
X89025000Y-93900000D01*
X89325000Y-93900000D01*
D22*
D17*
X89325000Y-96700000D02*
X89382403Y-96711418D01*
X89431066Y-96743934D01*
X89463582Y-96792597D01*
X89475000Y-96850000D01*
X89475000Y-97650000D01*
X89463582Y-97707403D01*
X89431066Y-97756066D01*
X89382403Y-97788582D01*
X89325000Y-97800000D01*
X89025000Y-97800000D01*
X88967597Y-97788582D01*
X88918934Y-97756066D01*
X88886418Y-97707403D01*
X88875000Y-97650000D01*
X88875000Y-96850000D01*
X88886418Y-96792597D01*
X88918934Y-96743934D01*
X88967597Y-96711418D01*
X89025000Y-96700000D01*
X89325000Y-96700000D01*
D22*
D17*
X91225000Y-96700000D02*
X91282403Y-96711418D01*
X91331066Y-96743934D01*
X91363582Y-96792597D01*
X91375000Y-96850000D01*
X91375000Y-97650000D01*
X91363582Y-97707403D01*
X91331066Y-97756066D01*
X91282403Y-97788582D01*
X91225000Y-97800000D01*
X90925000Y-97800000D01*
X90867597Y-97788582D01*
X90818934Y-97756066D01*
X90786418Y-97707403D01*
X90775000Y-97650000D01*
X90775000Y-96850000D01*
X90786418Y-96792597D01*
X90818934Y-96743934D01*
X90867597Y-96711418D01*
X90925000Y-96700000D01*
X91225000Y-96700000D01*
%TD*%
%TO.C,S3*%
X100425000Y-84800000D02*
G75*
G02*
X99525000Y-84800000I-450000J0D01*
G01*
X99525000Y-84800000D02*
G75*
G02*
X100425000Y-84800000I450000J0D01*
G01*
X92875000Y-84775000D02*
G75*
G02*
X91975000Y-84775000I-450000J0D01*
G01*
X91975000Y-84775000D02*
G75*
G02*
X92875000Y-84775000I450000J0D01*
G01*
X98200000Y-85200000D02*
X98200000Y-86800000D01*
X99200000Y-86800000D01*
X99200000Y-85200000D01*
X98200000Y-85200000D01*
X98200000Y-82800000D02*
X98200000Y-84400000D01*
X99200000Y-84400000D01*
X99200000Y-82800000D01*
X98200000Y-82800000D01*
X95700000Y-85200000D02*
X95700000Y-86800000D01*
X96700000Y-86800000D01*
X96700000Y-85200000D01*
X95700000Y-85200000D01*
X95700000Y-82800000D02*
X95700000Y-84400000D01*
X96700000Y-84400000D01*
X96700000Y-82800000D01*
X95700000Y-82800000D01*
X93200000Y-85200000D02*
X93200000Y-86800000D01*
X94200000Y-86800000D01*
X94200000Y-85200000D01*
X93200000Y-85200000D01*
X93200000Y-82800000D02*
X93200000Y-84400000D01*
X94200000Y-84400000D01*
X94200000Y-82800000D01*
X93200000Y-82800000D01*
%TD*%
D22*
%TO.C,C2*%
D17*
X95975000Y-104500000D02*
X95957873Y-104586104D01*
X95909099Y-104659099D01*
X95836104Y-104707873D01*
X95750000Y-104725000D01*
X95300000Y-104725000D01*
X95213896Y-104707873D01*
X95140901Y-104659099D01*
X95092127Y-104586104D01*
X95075000Y-104500000D01*
X95075000Y-104000000D01*
X95092127Y-103913896D01*
X95140901Y-103840901D01*
X95213896Y-103792127D01*
X95300000Y-103775000D01*
X95750000Y-103775000D01*
X95836104Y-103792127D01*
X95909099Y-103840901D01*
X95957873Y-103913896D01*
X95975000Y-104000000D01*
X95975000Y-104500000D01*
D22*
D17*
X94425000Y-104500000D02*
X94407873Y-104586104D01*
X94359099Y-104659099D01*
X94286104Y-104707873D01*
X94200000Y-104725000D01*
X93750000Y-104725000D01*
X93663896Y-104707873D01*
X93590901Y-104659099D01*
X93542127Y-104586104D01*
X93525000Y-104500000D01*
X93525000Y-104000000D01*
X93542127Y-103913896D01*
X93590901Y-103840901D01*
X93663896Y-103792127D01*
X93750000Y-103775000D01*
X94200000Y-103775000D01*
X94286104Y-103792127D01*
X94359099Y-103840901D01*
X94407873Y-103913896D01*
X94425000Y-104000000D01*
X94425000Y-104500000D01*
%TD*%
D22*
%TO.C,C19*%
D17*
X106760000Y-88970000D02*
X106749343Y-89023576D01*
X106718995Y-89068995D01*
X106673576Y-89099343D01*
X106620000Y-89110000D01*
X106340000Y-89110000D01*
X106286424Y-89099343D01*
X106241005Y-89068995D01*
X106210657Y-89023576D01*
X106200000Y-88970000D01*
X106200000Y-88630000D01*
X106210657Y-88576424D01*
X106241005Y-88531005D01*
X106286424Y-88500657D01*
X106340000Y-88490000D01*
X106620000Y-88490000D01*
X106673576Y-88500657D01*
X106718995Y-88531005D01*
X106749343Y-88576424D01*
X106760000Y-88630000D01*
X106760000Y-88970000D01*
D22*
D17*
X105800000Y-88970000D02*
X105789343Y-89023576D01*
X105758995Y-89068995D01*
X105713576Y-89099343D01*
X105660000Y-89110000D01*
X105380000Y-89110000D01*
X105326424Y-89099343D01*
X105281005Y-89068995D01*
X105250657Y-89023576D01*
X105240000Y-88970000D01*
X105240000Y-88630000D01*
X105250657Y-88576424D01*
X105281005Y-88531005D01*
X105326424Y-88500657D01*
X105380000Y-88490000D01*
X105660000Y-88490000D01*
X105713576Y-88500657D01*
X105758995Y-88531005D01*
X105789343Y-88576424D01*
X105800000Y-88630000D01*
X105800000Y-88970000D01*
%TD*%
D22*
%TO.C,R7*%
D17*
X106585000Y-103620000D02*
X106636662Y-103630276D01*
X106680459Y-103659541D01*
X106709724Y-103703338D01*
X106720000Y-103755000D01*
X106720000Y-104025000D01*
X106709724Y-104076662D01*
X106680459Y-104120459D01*
X106636662Y-104149724D01*
X106585000Y-104160000D01*
X106215000Y-104160000D01*
X106163338Y-104149724D01*
X106119541Y-104120459D01*
X106090276Y-104076662D01*
X106080000Y-104025000D01*
X106080000Y-103755000D01*
X106090276Y-103703338D01*
X106119541Y-103659541D01*
X106163338Y-103630276D01*
X106215000Y-103620000D01*
X106585000Y-103620000D01*
D22*
D17*
X106585000Y-104640000D02*
X106636662Y-104650276D01*
X106680459Y-104679541D01*
X106709724Y-104723338D01*
X106720000Y-104775000D01*
X106720000Y-105045000D01*
X106709724Y-105096662D01*
X106680459Y-105140459D01*
X106636662Y-105169724D01*
X106585000Y-105180000D01*
X106215000Y-105180000D01*
X106163338Y-105169724D01*
X106119541Y-105140459D01*
X106090276Y-105096662D01*
X106080000Y-105045000D01*
X106080000Y-104775000D01*
X106090276Y-104723338D01*
X106119541Y-104679541D01*
X106163338Y-104650276D01*
X106215000Y-104640000D01*
X106585000Y-104640000D01*
%TD*%
D22*
%TO.C,R4*%
D17*
X105220000Y-90815000D02*
X105230276Y-90763338D01*
X105259541Y-90719541D01*
X105303338Y-90690276D01*
X105355000Y-90680000D01*
X105625000Y-90680000D01*
X105676662Y-90690276D01*
X105720459Y-90719541D01*
X105749724Y-90763338D01*
X105760000Y-90815000D01*
X105760000Y-91185000D01*
X105749724Y-91236662D01*
X105720459Y-91280459D01*
X105676662Y-91309724D01*
X105625000Y-91320000D01*
X105355000Y-91320000D01*
X105303338Y-91309724D01*
X105259541Y-91280459D01*
X105230276Y-91236662D01*
X105220000Y-91185000D01*
X105220000Y-90815000D01*
D22*
D17*
X106240000Y-90815000D02*
X106250276Y-90763338D01*
X106279541Y-90719541D01*
X106323338Y-90690276D01*
X106375000Y-90680000D01*
X106645000Y-90680000D01*
X106696662Y-90690276D01*
X106740459Y-90719541D01*
X106769724Y-90763338D01*
X106780000Y-90815000D01*
X106780000Y-91185000D01*
X106769724Y-91236662D01*
X106740459Y-91280459D01*
X106696662Y-91309724D01*
X106645000Y-91320000D01*
X106375000Y-91320000D01*
X106323338Y-91309724D01*
X106279541Y-91280459D01*
X106250276Y-91236662D01*
X106240000Y-91185000D01*
X106240000Y-90815000D01*
%TD*%
D22*
%TO.C,C11*%
D17*
X99210000Y-92025000D02*
X99296104Y-92042127D01*
X99369099Y-92090901D01*
X99417873Y-92163896D01*
X99435000Y-92250000D01*
X99435000Y-92700000D01*
X99417873Y-92786104D01*
X99369099Y-92859099D01*
X99296104Y-92907873D01*
X99210000Y-92925000D01*
X98710000Y-92925000D01*
X98623896Y-92907873D01*
X98550901Y-92859099D01*
X98502127Y-92786104D01*
X98485000Y-92700000D01*
X98485000Y-92250000D01*
X98502127Y-92163896D01*
X98550901Y-92090901D01*
X98623896Y-92042127D01*
X98710000Y-92025000D01*
X99210000Y-92025000D01*
D22*
D17*
X99210000Y-93575000D02*
X99296104Y-93592127D01*
X99369099Y-93640901D01*
X99417873Y-93713896D01*
X99435000Y-93800000D01*
X99435000Y-94250000D01*
X99417873Y-94336104D01*
X99369099Y-94409099D01*
X99296104Y-94457873D01*
X99210000Y-94475000D01*
X98710000Y-94475000D01*
X98623896Y-94457873D01*
X98550901Y-94409099D01*
X98502127Y-94336104D01*
X98485000Y-94250000D01*
X98485000Y-93800000D01*
X98502127Y-93713896D01*
X98550901Y-93640901D01*
X98623896Y-93592127D01*
X98710000Y-93575000D01*
X99210000Y-93575000D01*
%TD*%
D22*
%TO.C,C20*%
D17*
X96444700Y-105531600D02*
X96498276Y-105542257D01*
X96543695Y-105572605D01*
X96574043Y-105618024D01*
X96584700Y-105671600D01*
X96584700Y-105951600D01*
X96574043Y-106005176D01*
X96543695Y-106050595D01*
X96498276Y-106080943D01*
X96444700Y-106091600D01*
X96104700Y-106091600D01*
X96051124Y-106080943D01*
X96005705Y-106050595D01*
X95975357Y-106005176D01*
X95964700Y-105951600D01*
X95964700Y-105671600D01*
X95975357Y-105618024D01*
X96005705Y-105572605D01*
X96051124Y-105542257D01*
X96104700Y-105531600D01*
X96444700Y-105531600D01*
D22*
D17*
X96444700Y-106491600D02*
X96498276Y-106502257D01*
X96543695Y-106532605D01*
X96574043Y-106578024D01*
X96584700Y-106631600D01*
X96584700Y-106911600D01*
X96574043Y-106965176D01*
X96543695Y-107010595D01*
X96498276Y-107040943D01*
X96444700Y-107051600D01*
X96104700Y-107051600D01*
X96051124Y-107040943D01*
X96005705Y-107010595D01*
X95975357Y-106965176D01*
X95964700Y-106911600D01*
X95964700Y-106631600D01*
X95975357Y-106578024D01*
X96005705Y-106532605D01*
X96051124Y-106502257D01*
X96104700Y-106491600D01*
X96444700Y-106491600D01*
%TD*%
%TO.C,XTAL2*%
X118069001Y-103814801D02*
X118069001Y-104780001D01*
X118831001Y-104780001D01*
X118831001Y-103814801D01*
X118069001Y-103814801D01*
X116368999Y-103814801D02*
X116368999Y-104780001D01*
X117130999Y-104780001D01*
X117130999Y-103814801D01*
X116368999Y-103814801D01*
X116368999Y-105567401D02*
X116368999Y-106532601D01*
X117130999Y-106532601D01*
X117130999Y-105567401D01*
X116368999Y-105567401D01*
X118069001Y-105567401D02*
X118069001Y-106532601D01*
X118831001Y-106532601D01*
X118831001Y-105567401D01*
X118069001Y-105567401D01*
%TD*%
%TO.C,D2*%
X124385200Y-92612996D02*
X124385200Y-93273396D01*
X124994800Y-93273396D01*
X124994800Y-92612996D01*
X124385200Y-92612996D01*
X124385200Y-91571596D02*
X124385200Y-92231996D01*
X124994800Y-92231996D01*
X124994800Y-91571596D01*
X124385200Y-91571596D01*
%TD*%
D22*
%TO.C,C18*%
D17*
X91175000Y-89950000D02*
X91192127Y-89863896D01*
X91240901Y-89790901D01*
X91313896Y-89742127D01*
X91400000Y-89725000D01*
X91850000Y-89725000D01*
X91936104Y-89742127D01*
X92009099Y-89790901D01*
X92057873Y-89863896D01*
X92075000Y-89950000D01*
X92075000Y-90450000D01*
X92057873Y-90536104D01*
X92009099Y-90609099D01*
X91936104Y-90657873D01*
X91850000Y-90675000D01*
X91400000Y-90675000D01*
X91313896Y-90657873D01*
X91240901Y-90609099D01*
X91192127Y-90536104D01*
X91175000Y-90450000D01*
X91175000Y-89950000D01*
D22*
D17*
X92725000Y-89950000D02*
X92742127Y-89863896D01*
X92790901Y-89790901D01*
X92863896Y-89742127D01*
X92950000Y-89725000D01*
X93400000Y-89725000D01*
X93486104Y-89742127D01*
X93559099Y-89790901D01*
X93607873Y-89863896D01*
X93625000Y-89950000D01*
X93625000Y-90450000D01*
X93607873Y-90536104D01*
X93559099Y-90609099D01*
X93486104Y-90657873D01*
X93400000Y-90675000D01*
X92950000Y-90675000D01*
X92863896Y-90657873D01*
X92790901Y-90609099D01*
X92742127Y-90536104D01*
X92725000Y-90450000D01*
X92725000Y-89950000D01*
%TD*%
%TO.C,J1*%
X114495300Y-86800000D02*
G75*
G02*
X113504700Y-86800000I-495300J0D01*
G01*
X113504700Y-86800000D02*
G75*
G02*
X114495300Y-86800000I495300J0D01*
G01*
X109415300Y-87816000D02*
G75*
G02*
X108424700Y-87816000I-495300J0D01*
G01*
X108424700Y-87816000D02*
G75*
G02*
X109415300Y-87816000I495300J0D01*
G01*
X109415300Y-85784000D02*
G75*
G02*
X108424700Y-85784000I-495300J0D01*
G01*
X108424700Y-85784000D02*
G75*
G02*
X109415300Y-85784000I495300J0D01*
G01*
X113123700Y-86165000D02*
G75*
G02*
X112336300Y-86165000I-393700J0D01*
G01*
X112336300Y-86165000D02*
G75*
G02*
X113123700Y-86165000I393700J0D01*
G01*
X113123700Y-87435000D02*
G75*
G02*
X112336300Y-87435000I-393700J0D01*
G01*
X112336300Y-87435000D02*
G75*
G02*
X113123700Y-87435000I393700J0D01*
G01*
X111853700Y-86165000D02*
G75*
G02*
X111066300Y-86165000I-393700J0D01*
G01*
X111066300Y-86165000D02*
G75*
G02*
X111853700Y-86165000I393700J0D01*
G01*
X111853700Y-87435000D02*
G75*
G02*
X111066300Y-87435000I-393700J0D01*
G01*
X111066300Y-87435000D02*
G75*
G02*
X111853700Y-87435000I393700J0D01*
G01*
X110583700Y-86165000D02*
G75*
G02*
X109796300Y-86165000I-393700J0D01*
G01*
X109796300Y-86165000D02*
G75*
G02*
X110583700Y-86165000I393700J0D01*
G01*
X110583700Y-87435000D02*
G75*
G02*
X109796300Y-87435000I-393700J0D01*
G01*
X109796300Y-87435000D02*
G75*
G02*
X110583700Y-87435000I393700J0D01*
G01*
%TD*%
%TO.C,U3*%
X100773003Y-93150000D02*
X100773003Y-93754900D01*
X101026999Y-93754900D01*
X101026999Y-93150000D01*
X100773003Y-93150000D01*
X101273000Y-93150000D02*
X101273000Y-93754900D01*
X101527000Y-93754900D01*
X101527000Y-93150000D01*
X101273000Y-93150000D01*
X101773000Y-93150000D02*
X101773000Y-93754900D01*
X102027000Y-93754900D01*
X102027000Y-93150000D01*
X101773000Y-93150000D01*
X102273001Y-93150000D02*
X102273001Y-93754900D01*
X102526997Y-93754900D01*
X102526997Y-93150000D01*
X102273001Y-93150000D01*
X102273001Y-91545100D02*
X102273001Y-92150000D01*
X102527001Y-92150000D01*
X102527001Y-91545100D01*
X102273001Y-91545100D01*
X101773000Y-91545100D02*
X101773000Y-92150000D01*
X102027000Y-92150000D01*
X102027000Y-91545100D01*
X101773000Y-91545100D01*
X101273000Y-91545100D02*
X101273000Y-92150000D01*
X101527000Y-92150000D01*
X101527000Y-91545100D01*
X101273000Y-91545100D01*
X100773003Y-91545100D02*
X100773003Y-92150000D01*
X101026999Y-92150000D01*
X101026999Y-91545100D01*
X100773003Y-91545100D01*
%TD*%
D22*
%TO.C,R6*%
D17*
X93273873Y-96999419D02*
X93325535Y-97009695D01*
X93369332Y-97038960D01*
X93398597Y-97082757D01*
X93408873Y-97134419D01*
X93408873Y-97404419D01*
X93398597Y-97456081D01*
X93369332Y-97499878D01*
X93325535Y-97529143D01*
X93273873Y-97539419D01*
X92903873Y-97539419D01*
X92852211Y-97529143D01*
X92808414Y-97499878D01*
X92779149Y-97456081D01*
X92768873Y-97404419D01*
X92768873Y-97134419D01*
X92779149Y-97082757D01*
X92808414Y-97038960D01*
X92852211Y-97009695D01*
X92903873Y-96999419D01*
X93273873Y-96999419D01*
D22*
D17*
X93273873Y-98019419D02*
X93325535Y-98029695D01*
X93369332Y-98058960D01*
X93398597Y-98102757D01*
X93408873Y-98154419D01*
X93408873Y-98424419D01*
X93398597Y-98476081D01*
X93369332Y-98519878D01*
X93325535Y-98549143D01*
X93273873Y-98559419D01*
X92903873Y-98559419D01*
X92852211Y-98549143D01*
X92808414Y-98519878D01*
X92779149Y-98476081D01*
X92768873Y-98424419D01*
X92768873Y-98154419D01*
X92779149Y-98102757D01*
X92808414Y-98058960D01*
X92852211Y-98029695D01*
X92903873Y-98019419D01*
X93273873Y-98019419D01*
%TD*%
D22*
%TO.C,C8*%
D17*
X115470000Y-94978196D02*
X115416424Y-94967539D01*
X115371005Y-94937191D01*
X115340657Y-94891772D01*
X115330000Y-94838196D01*
X115330000Y-94558196D01*
X115340657Y-94504620D01*
X115371005Y-94459201D01*
X115416424Y-94428853D01*
X115470000Y-94418196D01*
X115810000Y-94418196D01*
X115863576Y-94428853D01*
X115908995Y-94459201D01*
X115939343Y-94504620D01*
X115950000Y-94558196D01*
X115950000Y-94838196D01*
X115939343Y-94891772D01*
X115908995Y-94937191D01*
X115863576Y-94967539D01*
X115810000Y-94978196D01*
X115470000Y-94978196D01*
D22*
D17*
X115470000Y-94018196D02*
X115416424Y-94007539D01*
X115371005Y-93977191D01*
X115340657Y-93931772D01*
X115330000Y-93878196D01*
X115330000Y-93598196D01*
X115340657Y-93544620D01*
X115371005Y-93499201D01*
X115416424Y-93468853D01*
X115470000Y-93458196D01*
X115810000Y-93458196D01*
X115863576Y-93468853D01*
X115908995Y-93499201D01*
X115939343Y-93544620D01*
X115950000Y-93598196D01*
X115950000Y-93878196D01*
X115939343Y-93931772D01*
X115908995Y-93977191D01*
X115863576Y-94007539D01*
X115810000Y-94018196D01*
X115470000Y-94018196D01*
%TD*%
D22*
%TO.C,R2*%
D17*
X104325000Y-97645000D02*
X104376662Y-97655276D01*
X104420459Y-97684541D01*
X104449724Y-97728338D01*
X104460000Y-97780000D01*
X104460000Y-98050000D01*
X104449724Y-98101662D01*
X104420459Y-98145459D01*
X104376662Y-98174724D01*
X104325000Y-98185000D01*
X103955000Y-98185000D01*
X103903338Y-98174724D01*
X103859541Y-98145459D01*
X103830276Y-98101662D01*
X103820000Y-98050000D01*
X103820000Y-97780000D01*
X103830276Y-97728338D01*
X103859541Y-97684541D01*
X103903338Y-97655276D01*
X103955000Y-97645000D01*
X104325000Y-97645000D01*
D22*
D17*
X104325000Y-98665000D02*
X104376662Y-98675276D01*
X104420459Y-98704541D01*
X104449724Y-98748338D01*
X104460000Y-98800000D01*
X104460000Y-99070000D01*
X104449724Y-99121662D01*
X104420459Y-99165459D01*
X104376662Y-99194724D01*
X104325000Y-99205000D01*
X103955000Y-99205000D01*
X103903338Y-99194724D01*
X103859541Y-99165459D01*
X103830276Y-99121662D01*
X103820000Y-99070000D01*
X103820000Y-98800000D01*
X103830276Y-98748338D01*
X103859541Y-98704541D01*
X103903338Y-98675276D01*
X103955000Y-98665000D01*
X104325000Y-98665000D01*
%TD*%
D22*
%TO.C,C12*%
D17*
X88425000Y-99400000D02*
X88442127Y-99313896D01*
X88490901Y-99240901D01*
X88563896Y-99192127D01*
X88650000Y-99175000D01*
X89100000Y-99175000D01*
X89186104Y-99192127D01*
X89259099Y-99240901D01*
X89307873Y-99313896D01*
X89325000Y-99400000D01*
X89325000Y-99900000D01*
X89307873Y-99986104D01*
X89259099Y-100059099D01*
X89186104Y-100107873D01*
X89100000Y-100125000D01*
X88650000Y-100125000D01*
X88563896Y-100107873D01*
X88490901Y-100059099D01*
X88442127Y-99986104D01*
X88425000Y-99900000D01*
X88425000Y-99400000D01*
D22*
D17*
X89975000Y-99400000D02*
X89992127Y-99313896D01*
X90040901Y-99240901D01*
X90113896Y-99192127D01*
X90200000Y-99175000D01*
X90650000Y-99175000D01*
X90736104Y-99192127D01*
X90809099Y-99240901D01*
X90857873Y-99313896D01*
X90875000Y-99400000D01*
X90875000Y-99900000D01*
X90857873Y-99986104D01*
X90809099Y-100059099D01*
X90736104Y-100107873D01*
X90650000Y-100125000D01*
X90200000Y-100125000D01*
X90113896Y-100107873D01*
X90040901Y-100059099D01*
X89992127Y-99986104D01*
X89975000Y-99900000D01*
X89975000Y-99400000D01*
%TD*%
D22*
%TO.C,C1*%
D17*
X96004700Y-102971600D02*
X95951124Y-102960943D01*
X95905705Y-102930595D01*
X95875357Y-102885176D01*
X95864700Y-102831600D01*
X95864700Y-102551600D01*
X95875357Y-102498024D01*
X95905705Y-102452605D01*
X95951124Y-102422257D01*
X96004700Y-102411600D01*
X96344700Y-102411600D01*
X96398276Y-102422257D01*
X96443695Y-102452605D01*
X96474043Y-102498024D01*
X96484700Y-102551600D01*
X96484700Y-102831600D01*
X96474043Y-102885176D01*
X96443695Y-102930595D01*
X96398276Y-102960943D01*
X96344700Y-102971600D01*
X96004700Y-102971600D01*
D22*
D17*
X96004700Y-102011600D02*
X95951124Y-102000943D01*
X95905705Y-101970595D01*
X95875357Y-101925176D01*
X95864700Y-101871600D01*
X95864700Y-101591600D01*
X95875357Y-101538024D01*
X95905705Y-101492605D01*
X95951124Y-101462257D01*
X96004700Y-101451600D01*
X96344700Y-101451600D01*
X96398276Y-101462257D01*
X96443695Y-101492605D01*
X96474043Y-101538024D01*
X96484700Y-101591600D01*
X96484700Y-101871600D01*
X96474043Y-101925176D01*
X96443695Y-101970595D01*
X96398276Y-102000943D01*
X96344700Y-102011600D01*
X96004700Y-102011600D01*
%TD*%
X116639998Y-100568198D02*
X116240000Y-100568198D01*
X116240000Y-100768198D02*
G75*
G02*
X116240000Y-100568198I0J100000D01*
G01*
X116240000Y-100768198D02*
X116639998Y-100768198D01*
X116639998Y-100768198D02*
G75*
G03*
X116639998Y-100568198I0J100000D01*
G01*
X116639998Y-100168197D02*
X116240000Y-100168197D01*
X116240000Y-100368197D02*
G75*
G02*
X116240000Y-100168197I0J100000D01*
G01*
X116240000Y-100368197D02*
X116639998Y-100368197D01*
X116639998Y-100368197D02*
G75*
G03*
X116639998Y-100168197I0J100000D01*
G01*
X116639998Y-99768197D02*
X116240000Y-99768197D01*
X116240000Y-99968197D02*
G75*
G02*
X116240000Y-99768197I0J100000D01*
G01*
X116240000Y-99968197D02*
X116639998Y-99968197D01*
X116639998Y-99968197D02*
G75*
G03*
X116639998Y-99768197I0J100000D01*
G01*
X116639998Y-99368198D02*
X116240000Y-99368198D01*
X116240000Y-99568198D02*
G75*
G02*
X116240000Y-99368198I0J100000D01*
G01*
X116240000Y-99568198D02*
X116639998Y-99568198D01*
X116639998Y-99568198D02*
G75*
G03*
X116639998Y-99368198I0J100000D01*
G01*
X116639998Y-98968196D02*
X116240000Y-98968196D01*
X116240000Y-99168196D02*
G75*
G02*
X116240000Y-98968196I0J100000D01*
G01*
X116240000Y-99168196D02*
X116639998Y-99168196D01*
X116639998Y-99168196D02*
G75*
G03*
X116639998Y-98968196I0J100000D01*
G01*
X116639998Y-98568197D02*
X116240000Y-98568197D01*
X116240000Y-98768197D02*
G75*
G02*
X116240000Y-98568197I0J100000D01*
G01*
X116240000Y-98768197D02*
X116639998Y-98768197D01*
X116639998Y-98768197D02*
G75*
G03*
X116639998Y-98568197I0J100000D01*
G01*
X116639998Y-98168198D02*
X116240000Y-98168198D01*
X116240000Y-98368198D02*
G75*
G02*
X116240000Y-98168198I0J100000D01*
G01*
X116240000Y-98368198D02*
X116639998Y-98368198D01*
X116639998Y-98368198D02*
G75*
G03*
X116639998Y-98168198I0J100000D01*
G01*
X116639998Y-97768196D02*
X116240000Y-97768196D01*
X116240000Y-97968196D02*
G75*
G02*
X116240000Y-97768196I0J100000D01*
G01*
X116240000Y-97968196D02*
X116639998Y-97968196D01*
X116639998Y-97968196D02*
G75*
G03*
X116639998Y-97768196I0J100000D01*
G01*
X116040000Y-97568196D02*
X116040000Y-97168198D01*
X115840000Y-97168198D02*
G75*
G02*
X116040000Y-97168198I100000J0D01*
G01*
X115840000Y-97168198D02*
X115840000Y-97568196D01*
X115840000Y-97568196D02*
G75*
G03*
X116040000Y-97568196I100000J0D01*
G01*
X115639998Y-97568196D02*
X115639998Y-97168198D01*
X115439998Y-97168198D02*
G75*
G02*
X115639998Y-97168198I100000J0D01*
G01*
X115439998Y-97168198D02*
X115439998Y-97568196D01*
X115439998Y-97568196D02*
G75*
G03*
X115639998Y-97568196I100000J0D01*
G01*
X115239999Y-97568196D02*
X115239999Y-97168198D01*
X115039999Y-97168198D02*
G75*
G02*
X115239999Y-97168198I100000J0D01*
G01*
X115039999Y-97168198D02*
X115039999Y-97568196D01*
X115039999Y-97568196D02*
G75*
G03*
X115239999Y-97568196I100000J0D01*
G01*
X114840000Y-97568196D02*
X114840000Y-97168198D01*
X114640000Y-97168198D02*
G75*
G02*
X114840000Y-97168198I100000J0D01*
G01*
X114640000Y-97168198D02*
X114640000Y-97568196D01*
X114640000Y-97568196D02*
G75*
G03*
X114840000Y-97568196I100000J0D01*
G01*
X114439998Y-97568196D02*
X114439998Y-97168198D01*
X114239998Y-97168198D02*
G75*
G02*
X114439998Y-97168198I100000J0D01*
G01*
X114239998Y-97168198D02*
X114239998Y-97568196D01*
X114239998Y-97568196D02*
G75*
G03*
X114439998Y-97568196I100000J0D01*
G01*
X114039999Y-97568196D02*
X114039999Y-97168198D01*
X113839999Y-97168198D02*
G75*
G02*
X114039999Y-97168198I100000J0D01*
G01*
X113839999Y-97168198D02*
X113839999Y-97568196D01*
X113839999Y-97568196D02*
G75*
G03*
X114039999Y-97568196I100000J0D01*
G01*
X113639999Y-97568196D02*
X113639999Y-97168198D01*
X113439999Y-97168198D02*
G75*
G02*
X113639999Y-97168198I100000J0D01*
G01*
X113439999Y-97168198D02*
X113439999Y-97568196D01*
X113439999Y-97568196D02*
G75*
G03*
X113639999Y-97568196I100000J0D01*
G01*
X113239998Y-97568196D02*
X113239998Y-97168198D01*
X113039998Y-97168198D02*
G75*
G02*
X113239998Y-97168198I100000J0D01*
G01*
X113039998Y-97168198D02*
X113039998Y-97568196D01*
X113039998Y-97568196D02*
G75*
G03*
X113239998Y-97568196I100000J0D01*
G01*
X112840000Y-97768196D02*
X112440002Y-97768196D01*
X112440002Y-97968196D02*
G75*
G02*
X112440002Y-97768196I0J100000D01*
G01*
X112440002Y-97968196D02*
X112840000Y-97968196D01*
X112840000Y-97968196D02*
G75*
G03*
X112840000Y-97768196I0J100000D01*
G01*
X112840000Y-98168198D02*
X112440002Y-98168198D01*
X112440002Y-98368198D02*
G75*
G02*
X112440002Y-98168198I0J100000D01*
G01*
X112440002Y-98368198D02*
X112840000Y-98368198D01*
X112840000Y-98368198D02*
G75*
G03*
X112840000Y-98168198I0J100000D01*
G01*
X112840000Y-98568197D02*
X112440002Y-98568197D01*
X112440002Y-98768197D02*
G75*
G02*
X112440002Y-98568197I0J100000D01*
G01*
X112440002Y-98768197D02*
X112840000Y-98768197D01*
X112840000Y-98768197D02*
G75*
G03*
X112840000Y-98568197I0J100000D01*
G01*
X112840000Y-98968196D02*
X112440002Y-98968196D01*
X112440002Y-99168196D02*
G75*
G02*
X112440002Y-98968196I0J100000D01*
G01*
X112440002Y-99168196D02*
X112840000Y-99168196D01*
X112840000Y-99168196D02*
G75*
G03*
X112840000Y-98968196I0J100000D01*
G01*
X112840000Y-99368198D02*
X112440002Y-99368198D01*
X112440002Y-99568198D02*
G75*
G02*
X112440002Y-99368198I0J100000D01*
G01*
X112440002Y-99568198D02*
X112840000Y-99568198D01*
X112840000Y-99568198D02*
G75*
G03*
X112840000Y-99368198I0J100000D01*
G01*
X112840000Y-99768197D02*
X112440002Y-99768197D01*
X112440002Y-99968197D02*
G75*
G02*
X112440002Y-99768197I0J100000D01*
G01*
X112440002Y-99968197D02*
X112840000Y-99968197D01*
X112840000Y-99968197D02*
G75*
G03*
X112840000Y-99768197I0J100000D01*
G01*
X112840000Y-100168197D02*
X112440002Y-100168197D01*
X112440002Y-100368197D02*
G75*
G02*
X112440002Y-100168197I0J100000D01*
G01*
X112440002Y-100368197D02*
X112840000Y-100368197D01*
X112840000Y-100368197D02*
G75*
G03*
X112840000Y-100168197I0J100000D01*
G01*
X112840000Y-100568198D02*
X112440002Y-100568198D01*
X112440002Y-100768198D02*
G75*
G02*
X112440002Y-100568198I0J100000D01*
G01*
X112440002Y-100768198D02*
X112840000Y-100768198D01*
X112840000Y-100768198D02*
G75*
G03*
X112840000Y-100568198I0J100000D01*
G01*
X113239998Y-101368194D02*
X113239998Y-100968196D01*
X113039998Y-100968196D02*
G75*
G02*
X113239998Y-100968196I100000J0D01*
G01*
X113039998Y-100968196D02*
X113039998Y-101368194D01*
X113039998Y-101368194D02*
G75*
G03*
X113239998Y-101368194I100000J0D01*
G01*
X113639999Y-101368194D02*
X113639999Y-100968196D01*
X113439999Y-100968196D02*
G75*
G02*
X113639999Y-100968196I100000J0D01*
G01*
X113439999Y-100968196D02*
X113439999Y-101368194D01*
X113439999Y-101368194D02*
G75*
G03*
X113639999Y-101368194I100000J0D01*
G01*
X114039999Y-101368194D02*
X114039999Y-100968196D01*
X113839999Y-100968196D02*
G75*
G02*
X114039999Y-100968196I100000J0D01*
G01*
X113839999Y-100968196D02*
X113839999Y-101368194D01*
X113839999Y-101368194D02*
G75*
G03*
X114039999Y-101368194I100000J0D01*
G01*
X114439998Y-101368194D02*
X114439998Y-100968196D01*
X114239998Y-100968196D02*
G75*
G02*
X114439998Y-100968196I100000J0D01*
G01*
X114239998Y-100968196D02*
X114239998Y-101368194D01*
X114239998Y-101368194D02*
G75*
G03*
X114439998Y-101368194I100000J0D01*
G01*
X114840000Y-101368194D02*
X114840000Y-100968196D01*
X114640000Y-100968196D02*
G75*
G02*
X114840000Y-100968196I100000J0D01*
G01*
X114640000Y-100968196D02*
X114640000Y-101368194D01*
X114640000Y-101368194D02*
G75*
G03*
X114840000Y-101368194I100000J0D01*
G01*
X115239999Y-101368194D02*
X115239999Y-100968196D01*
X115039999Y-100968196D02*
G75*
G02*
X115239999Y-100968196I100000J0D01*
G01*
X115039999Y-100968196D02*
X115039999Y-101368194D01*
X115039999Y-101368194D02*
G75*
G03*
X115239999Y-101368194I100000J0D01*
G01*
X115639998Y-101368194D02*
X115639998Y-100968196D01*
X115439998Y-100968196D02*
G75*
G02*
X115639998Y-100968196I100000J0D01*
G01*
X115439998Y-100968196D02*
X115439998Y-101368194D01*
X115439998Y-101368194D02*
G75*
G03*
X115639998Y-101368194I100000J0D01*
G01*
X116040000Y-101368194D02*
X116040000Y-100968196D01*
X115840000Y-100968196D02*
G75*
G02*
X116040000Y-100968196I100000J0D01*
G01*
X115840000Y-100968196D02*
X115840000Y-101368194D01*
X115840000Y-101368194D02*
G75*
G03*
X116040000Y-101368194I100000J0D01*
G01*
%TO.C,U2*%
X115865000Y-99268196D02*
G75*
G02*
X115265000Y-99268196I-300000J0D01*
G01*
X115265000Y-99268196D02*
G75*
G02*
X115865000Y-99268196I300000J0D01*
G01*
X114840000Y-100318196D02*
G75*
G02*
X114240000Y-100318196I-300000J0D01*
G01*
X114240000Y-100318196D02*
G75*
G02*
X114840000Y-100318196I300000J0D01*
G01*
X114840000Y-98218196D02*
G75*
G02*
X114240000Y-98218196I-300000J0D01*
G01*
X114240000Y-98218196D02*
G75*
G02*
X114840000Y-98218196I300000J0D01*
G01*
X114839997Y-99268196D02*
G75*
G02*
X114239997Y-99268196I-300000J0D01*
G01*
X114239997Y-99268196D02*
G75*
G02*
X114839997Y-99268196I300000J0D01*
G01*
X113139998Y-97868197D02*
X113139998Y-100668195D01*
X115939996Y-100668195D01*
X115939996Y-97868197D01*
X113139998Y-97868197D01*
X113765000Y-99268196D02*
G75*
G02*
X113165000Y-99268196I-300000J0D01*
G01*
X113165000Y-99268196D02*
G75*
G02*
X113765000Y-99268196I300000J0D01*
G01*
%TD*%
D22*
%TO.C,C9*%
D17*
X112235000Y-103658196D02*
X112288576Y-103668853D01*
X112333995Y-103699201D01*
X112364343Y-103744620D01*
X112375000Y-103798196D01*
X112375000Y-104078196D01*
X112364343Y-104131772D01*
X112333995Y-104177191D01*
X112288576Y-104207539D01*
X112235000Y-104218196D01*
X111895000Y-104218196D01*
X111841424Y-104207539D01*
X111796005Y-104177191D01*
X111765657Y-104131772D01*
X111755000Y-104078196D01*
X111755000Y-103798196D01*
X111765657Y-103744620D01*
X111796005Y-103699201D01*
X111841424Y-103668853D01*
X111895000Y-103658196D01*
X112235000Y-103658196D01*
D22*
D17*
X112235000Y-104618196D02*
X112288576Y-104628853D01*
X112333995Y-104659201D01*
X112364343Y-104704620D01*
X112375000Y-104758196D01*
X112375000Y-105038196D01*
X112364343Y-105091772D01*
X112333995Y-105137191D01*
X112288576Y-105167539D01*
X112235000Y-105178196D01*
X111895000Y-105178196D01*
X111841424Y-105167539D01*
X111796005Y-105137191D01*
X111765657Y-105091772D01*
X111755000Y-105038196D01*
X111755000Y-104758196D01*
X111765657Y-104704620D01*
X111796005Y-104659201D01*
X111841424Y-104628853D01*
X111895000Y-104618196D01*
X112235000Y-104618196D01*
%TD*%
%TO.C,J3*%
X84807700Y-102646400D02*
X84807700Y-103103600D01*
X86179300Y-103103600D01*
X86179300Y-102646400D01*
X84807700Y-102646400D01*
X84807700Y-101996399D02*
X84807700Y-102444999D01*
X86179300Y-102444999D01*
X86179300Y-101996399D01*
X84807700Y-101996399D01*
X84807700Y-101346400D02*
X84807700Y-101795000D01*
X86179300Y-101795000D01*
X86179300Y-101346400D01*
X84807700Y-101346400D01*
X84807700Y-100705002D02*
X84807700Y-101145000D01*
X86179300Y-101145000D01*
X86179300Y-100705002D01*
X84807700Y-100705002D01*
X84807700Y-100046400D02*
X84807700Y-100503600D01*
X86179300Y-100503600D01*
X86179300Y-100046400D01*
X84807700Y-100046400D01*
X82486399Y-98336200D02*
X83172199Y-98336200D01*
X83172199Y-96913800D02*
G75*
G02*
X83172199Y-98336200I0J-711200D01*
G01*
X83172199Y-96913800D02*
X82486399Y-96913800D01*
X82486399Y-96913800D02*
G75*
G03*
X82486399Y-98336200I0J-711200D01*
G01*
X84629900Y-98401301D02*
X84629900Y-99823701D01*
X86179300Y-99823701D01*
X86179300Y-98401301D01*
X84629900Y-98401301D01*
X81876799Y-99943000D02*
X81876799Y-100832000D01*
X83781799Y-100832000D01*
X83781799Y-99943000D01*
X81876799Y-99943000D01*
X81876799Y-102318000D02*
X81876799Y-103207000D01*
X83781799Y-103207000D01*
X83781799Y-102318000D01*
X81876799Y-102318000D01*
X84629900Y-103326299D02*
X84629900Y-104748699D01*
X86179300Y-104748699D01*
X86179300Y-103326299D01*
X84629900Y-103326299D01*
X82486399Y-106236200D02*
X83172199Y-106236200D01*
X83172199Y-104813800D02*
G75*
G02*
X83172199Y-106236200I0J-711200D01*
G01*
X83172199Y-104813800D02*
X82486399Y-104813800D01*
X82486399Y-104813800D02*
G75*
G03*
X82486399Y-106236200I0J-711200D01*
G01*
%TD*%
D22*
%TO.C,C14*%
D17*
X118605000Y-101748196D02*
X118615657Y-101694620D01*
X118646005Y-101649201D01*
X118691424Y-101618853D01*
X118745000Y-101608196D01*
X119025000Y-101608196D01*
X119078576Y-101618853D01*
X119123995Y-101649201D01*
X119154343Y-101694620D01*
X119165000Y-101748196D01*
X119165000Y-102088196D01*
X119154343Y-102141772D01*
X119123995Y-102187191D01*
X119078576Y-102217539D01*
X119025000Y-102228196D01*
X118745000Y-102228196D01*
X118691424Y-102217539D01*
X118646005Y-102187191D01*
X118615657Y-102141772D01*
X118605000Y-102088196D01*
X118605000Y-101748196D01*
D22*
D17*
X119565000Y-101748196D02*
X119575657Y-101694620D01*
X119606005Y-101649201D01*
X119651424Y-101618853D01*
X119705000Y-101608196D01*
X119985000Y-101608196D01*
X120038576Y-101618853D01*
X120083995Y-101649201D01*
X120114343Y-101694620D01*
X120125000Y-101748196D01*
X120125000Y-102088196D01*
X120114343Y-102141772D01*
X120083995Y-102187191D01*
X120038576Y-102217539D01*
X119985000Y-102228196D01*
X119705000Y-102228196D01*
X119651424Y-102217539D01*
X119606005Y-102187191D01*
X119575657Y-102141772D01*
X119565000Y-102088196D01*
X119565000Y-101748196D01*
%TD*%
D22*
%TO.C,C3*%
D17*
X101640000Y-104030000D02*
X101650657Y-103976424D01*
X101681005Y-103931005D01*
X101726424Y-103900657D01*
X101780000Y-103890000D01*
X102060000Y-103890000D01*
X102113576Y-103900657D01*
X102158995Y-103931005D01*
X102189343Y-103976424D01*
X102200000Y-104030000D01*
X102200000Y-104370000D01*
X102189343Y-104423576D01*
X102158995Y-104468995D01*
X102113576Y-104499343D01*
X102060000Y-104510000D01*
X101780000Y-104510000D01*
X101726424Y-104499343D01*
X101681005Y-104468995D01*
X101650657Y-104423576D01*
X101640000Y-104370000D01*
X101640000Y-104030000D01*
D22*
D17*
X102600000Y-104030000D02*
X102610657Y-103976424D01*
X102641005Y-103931005D01*
X102686424Y-103900657D01*
X102740000Y-103890000D01*
X103020000Y-103890000D01*
X103073576Y-103900657D01*
X103118995Y-103931005D01*
X103149343Y-103976424D01*
X103160000Y-104030000D01*
X103160000Y-104370000D01*
X103149343Y-104423576D01*
X103118995Y-104468995D01*
X103073576Y-104499343D01*
X103020000Y-104510000D01*
X102740000Y-104510000D01*
X102686424Y-104499343D01*
X102641005Y-104468995D01*
X102610657Y-104423576D01*
X102600000Y-104370000D01*
X102600000Y-104030000D01*
%TD*%
D22*
%TO.C,C16*%
D17*
X122005000Y-97785000D02*
X122015657Y-97731424D01*
X122046005Y-97686005D01*
X122091424Y-97655657D01*
X122145000Y-97645000D01*
X122425000Y-97645000D01*
X122478576Y-97655657D01*
X122523995Y-97686005D01*
X122554343Y-97731424D01*
X122565000Y-97785000D01*
X122565000Y-98125000D01*
X122554343Y-98178576D01*
X122523995Y-98223995D01*
X122478576Y-98254343D01*
X122425000Y-98265000D01*
X122145000Y-98265000D01*
X122091424Y-98254343D01*
X122046005Y-98223995D01*
X122015657Y-98178576D01*
X122005000Y-98125000D01*
X122005000Y-97785000D01*
D22*
D17*
X122965000Y-97785000D02*
X122975657Y-97731424D01*
X123006005Y-97686005D01*
X123051424Y-97655657D01*
X123105000Y-97645000D01*
X123385000Y-97645000D01*
X123438576Y-97655657D01*
X123483995Y-97686005D01*
X123514343Y-97731424D01*
X123525000Y-97785000D01*
X123525000Y-98125000D01*
X123514343Y-98178576D01*
X123483995Y-98223995D01*
X123438576Y-98254343D01*
X123385000Y-98265000D01*
X123105000Y-98265000D01*
X123051424Y-98254343D01*
X123006005Y-98223995D01*
X122975657Y-98178576D01*
X122965000Y-98125000D01*
X122965000Y-97785000D01*
%TD*%
D22*
%TO.C,R10*%
D17*
X119815000Y-94238197D02*
X119763338Y-94227921D01*
X119719541Y-94198656D01*
X119690276Y-94154859D01*
X119680000Y-94103197D01*
X119680000Y-93833197D01*
X119690276Y-93781535D01*
X119719541Y-93737738D01*
X119763338Y-93708473D01*
X119815000Y-93698197D01*
X120185000Y-93698197D01*
X120236662Y-93708473D01*
X120280459Y-93737738D01*
X120309724Y-93781535D01*
X120320000Y-93833197D01*
X120320000Y-94103197D01*
X120309724Y-94154859D01*
X120280459Y-94198656D01*
X120236662Y-94227921D01*
X120185000Y-94238197D01*
X119815000Y-94238197D01*
D22*
D17*
X119815000Y-93218197D02*
X119763338Y-93207921D01*
X119719541Y-93178656D01*
X119690276Y-93134859D01*
X119680000Y-93083197D01*
X119680000Y-92813197D01*
X119690276Y-92761535D01*
X119719541Y-92717738D01*
X119763338Y-92688473D01*
X119815000Y-92678197D01*
X120185000Y-92678197D01*
X120236662Y-92688473D01*
X120280459Y-92717738D01*
X120309724Y-92761535D01*
X120320000Y-92813197D01*
X120320000Y-93083197D01*
X120309724Y-93134859D01*
X120280459Y-93178656D01*
X120236662Y-93207921D01*
X120185000Y-93218197D01*
X119815000Y-93218197D01*
%TD*%
D22*
%TO.C,R3*%
D17*
X108222200Y-101821200D02*
X108170538Y-101810924D01*
X108126741Y-101781659D01*
X108097476Y-101737862D01*
X108087200Y-101686200D01*
X108087200Y-101416200D01*
X108097476Y-101364538D01*
X108126741Y-101320741D01*
X108170538Y-101291476D01*
X108222200Y-101281200D01*
X108592200Y-101281200D01*
X108643862Y-101291476D01*
X108687659Y-101320741D01*
X108716924Y-101364538D01*
X108727200Y-101416200D01*
X108727200Y-101686200D01*
X108716924Y-101737862D01*
X108687659Y-101781659D01*
X108643862Y-101810924D01*
X108592200Y-101821200D01*
X108222200Y-101821200D01*
D22*
D17*
X108222200Y-100801200D02*
X108170538Y-100790924D01*
X108126741Y-100761659D01*
X108097476Y-100717862D01*
X108087200Y-100666200D01*
X108087200Y-100396200D01*
X108097476Y-100344538D01*
X108126741Y-100300741D01*
X108170538Y-100271476D01*
X108222200Y-100261200D01*
X108592200Y-100261200D01*
X108643862Y-100271476D01*
X108687659Y-100300741D01*
X108716924Y-100344538D01*
X108727200Y-100396200D01*
X108727200Y-100666200D01*
X108716924Y-100717862D01*
X108687659Y-100761659D01*
X108643862Y-100790924D01*
X108592200Y-100801200D01*
X108222200Y-100801200D01*
%TD*%
D22*
%TO.C,R8*%
D17*
X100769200Y-98011400D02*
X100779476Y-97959738D01*
X100808741Y-97915941D01*
X100852538Y-97886676D01*
X100904200Y-97876400D01*
X101174200Y-97876400D01*
X101225862Y-97886676D01*
X101269659Y-97915941D01*
X101298924Y-97959738D01*
X101309200Y-98011400D01*
X101309200Y-98381400D01*
X101298924Y-98433062D01*
X101269659Y-98476859D01*
X101225862Y-98506124D01*
X101174200Y-98516400D01*
X100904200Y-98516400D01*
X100852538Y-98506124D01*
X100808741Y-98476859D01*
X100779476Y-98433062D01*
X100769200Y-98381400D01*
X100769200Y-98011400D01*
D22*
D17*
X101789200Y-98011400D02*
X101799476Y-97959738D01*
X101828741Y-97915941D01*
X101872538Y-97886676D01*
X101924200Y-97876400D01*
X102194200Y-97876400D01*
X102245862Y-97886676D01*
X102289659Y-97915941D01*
X102318924Y-97959738D01*
X102329200Y-98011400D01*
X102329200Y-98381400D01*
X102318924Y-98433062D01*
X102289659Y-98476859D01*
X102245862Y-98506124D01*
X102194200Y-98516400D01*
X101924200Y-98516400D01*
X101872538Y-98506124D01*
X101828741Y-98476859D01*
X101799476Y-98433062D01*
X101789200Y-98381400D01*
X101789200Y-98011400D01*
%TD*%
D22*
%TO.C,C4*%
D17*
X123560000Y-101558196D02*
X123613576Y-101568853D01*
X123658995Y-101599201D01*
X123689343Y-101644620D01*
X123700000Y-101698196D01*
X123700000Y-101978196D01*
X123689343Y-102031772D01*
X123658995Y-102077191D01*
X123613576Y-102107539D01*
X123560000Y-102118196D01*
X123220000Y-102118196D01*
X123166424Y-102107539D01*
X123121005Y-102077191D01*
X123090657Y-102031772D01*
X123080000Y-101978196D01*
X123080000Y-101698196D01*
X123090657Y-101644620D01*
X123121005Y-101599201D01*
X123166424Y-101568853D01*
X123220000Y-101558196D01*
X123560000Y-101558196D01*
D22*
D17*
X123560000Y-102518196D02*
X123613576Y-102528853D01*
X123658995Y-102559201D01*
X123689343Y-102604620D01*
X123700000Y-102658196D01*
X123700000Y-102938196D01*
X123689343Y-102991772D01*
X123658995Y-103037191D01*
X123613576Y-103067539D01*
X123560000Y-103078196D01*
X123220000Y-103078196D01*
X123166424Y-103067539D01*
X123121005Y-103037191D01*
X123090657Y-102991772D01*
X123080000Y-102938196D01*
X123080000Y-102658196D01*
X123090657Y-102604620D01*
X123121005Y-102559201D01*
X123166424Y-102528853D01*
X123220000Y-102518196D01*
X123560000Y-102518196D01*
%TD*%
D22*
%TO.C,R5*%
D17*
X94243873Y-95564419D02*
X94233597Y-95616081D01*
X94204332Y-95659878D01*
X94160535Y-95689143D01*
X94108873Y-95699419D01*
X93838873Y-95699419D01*
X93787211Y-95689143D01*
X93743414Y-95659878D01*
X93714149Y-95616081D01*
X93703873Y-95564419D01*
X93703873Y-95194419D01*
X93714149Y-95142757D01*
X93743414Y-95098960D01*
X93787211Y-95069695D01*
X93838873Y-95059419D01*
X94108873Y-95059419D01*
X94160535Y-95069695D01*
X94204332Y-95098960D01*
X94233597Y-95142757D01*
X94243873Y-95194419D01*
X94243873Y-95564419D01*
D22*
D17*
X93223873Y-95564419D02*
X93213597Y-95616081D01*
X93184332Y-95659878D01*
X93140535Y-95689143D01*
X93088873Y-95699419D01*
X92818873Y-95699419D01*
X92767211Y-95689143D01*
X92723414Y-95659878D01*
X92694149Y-95616081D01*
X92683873Y-95564419D01*
X92683873Y-95194419D01*
X92694149Y-95142757D01*
X92723414Y-95098960D01*
X92767211Y-95069695D01*
X92818873Y-95059419D01*
X93088873Y-95059419D01*
X93140535Y-95069695D01*
X93184332Y-95098960D01*
X93213597Y-95142757D01*
X93223873Y-95194419D01*
X93223873Y-95564419D01*
%TD*%
%TO.C,S1*%
X118500000Y-85950000D02*
X118500000Y-87650000D01*
X119300000Y-87650000D01*
X119300000Y-85950000D01*
X118500000Y-85950000D01*
X121900000Y-85950000D02*
X121900000Y-87650000D01*
X122700000Y-87650000D01*
X122700000Y-85950000D01*
X121900000Y-85950000D01*
%TD*%
%TO.C,FB2*%
X98816700Y-98630100D02*
X98816700Y-99569900D01*
X99781900Y-99569900D01*
X99781900Y-98630100D01*
X98816700Y-98630100D01*
X97318100Y-98630100D02*
X97318100Y-99569900D01*
X98283300Y-99569900D01*
X98283300Y-98630100D01*
X97318100Y-98630100D01*
%TD*%
D22*
%TO.C,C17*%
D17*
X114170000Y-94978196D02*
X114116424Y-94967539D01*
X114071005Y-94937191D01*
X114040657Y-94891772D01*
X114030000Y-94838196D01*
X114030000Y-94558196D01*
X114040657Y-94504620D01*
X114071005Y-94459201D01*
X114116424Y-94428853D01*
X114170000Y-94418196D01*
X114510000Y-94418196D01*
X114563576Y-94428853D01*
X114608995Y-94459201D01*
X114639343Y-94504620D01*
X114650000Y-94558196D01*
X114650000Y-94838196D01*
X114639343Y-94891772D01*
X114608995Y-94937191D01*
X114563576Y-94967539D01*
X114510000Y-94978196D01*
X114170000Y-94978196D01*
D22*
D17*
X114170000Y-94018196D02*
X114116424Y-94007539D01*
X114071005Y-93977191D01*
X114040657Y-93931772D01*
X114030000Y-93878196D01*
X114030000Y-93598196D01*
X114040657Y-93544620D01*
X114071005Y-93499201D01*
X114116424Y-93468853D01*
X114170000Y-93458196D01*
X114510000Y-93458196D01*
X114563576Y-93468853D01*
X114608995Y-93499201D01*
X114639343Y-93544620D01*
X114650000Y-93598196D01*
X114650000Y-93878196D01*
X114639343Y-93931772D01*
X114608995Y-93977191D01*
X114563576Y-94007539D01*
X114510000Y-94018196D01*
X114170000Y-94018196D01*
%TD*%
M02*
