%TF.GenerationSoftware,KiCad,Pcbnew,9.0.3*%
%TF.CreationDate,2025-09-07T13:00:30+02:00*%
%TF.ProjectId,LoTiBloxy,4c6f5469-426c-46f7-9879-2e6b69636164,rev?*%
%TF.SameCoordinates,Original*%
%TF.FileFunction,Copper,L1,Top*%
%TF.FilePolarity,Positive*%
%FSLAX46Y46*%
G04 Gerber Fmt 4.6, Leading zero omitted, Abs format (unit mm)*
G04 Created by KiCad (PCBNEW 9.0.3) date 2025-09-07 13:00:31*
%MOMM*%
%LPD*%
G01*
G04 APERTURE LIST*
G04 Aperture macros list*
%AMRoundRect*
0 Rectangle with rounded corners*
0 $1 Rounding radius*
0 $2 $3 $4 $5 $6 $7 $8 $9 X,Y pos of 4 corners*
0 Add a 4 corners polygon primitive as box body*
4,1,4,$2,$3,$4,$5,$6,$7,$8,$9,$2,$3,0*
0 Add four circle primitives for the rounded corners*
1,1,$1+$1,$2,$3*
1,1,$1+$1,$4,$5*
1,1,$1+$1,$6,$7*
1,1,$1+$1,$8,$9*
0 Add four rect primitives between the rounded corners*
20,1,$1+$1,$2,$3,$4,$5,0*
20,1,$1+$1,$4,$5,$6,$7,0*
20,1,$1+$1,$6,$7,$8,$9,0*
20,1,$1+$1,$8,$9,$2,$3,0*%
G04 Aperture macros list end*
%TA.AperFunction,EtchedComponent*%
%ADD10C,0.000000*%
%TD*%
%TA.AperFunction,SMDPad,CuDef*%
%ADD11R,3.403600X1.498600*%
%TD*%
%TA.AperFunction,SMDPad,CuDef*%
%ADD12R,3.505200X0.990600*%
%TD*%
%TA.AperFunction,ConnectorPad*%
%ADD13R,0.500000X0.500000*%
%TD*%
%TA.AperFunction,SMDPad,CuDef*%
%ADD14R,0.500000X0.900000*%
%TD*%
%TA.AperFunction,SMDPad,CuDef*%
%ADD15RoundRect,0.135000X-0.135000X-0.185000X0.135000X-0.185000X0.135000X0.185000X-0.135000X0.185000X0*%
%TD*%
%TA.AperFunction,SMDPad,CuDef*%
%ADD16R,0.939800X0.965200*%
%TD*%
%TA.AperFunction,SMDPad,CuDef*%
%ADD17RoundRect,0.140000X-0.170000X0.140000X-0.170000X-0.140000X0.170000X-0.140000X0.170000X0.140000X0*%
%TD*%
%TA.AperFunction,SMDPad,CuDef*%
%ADD18RoundRect,0.140000X0.140000X0.170000X-0.140000X0.170000X-0.140000X-0.170000X0.140000X-0.170000X0*%
%TD*%
%TA.AperFunction,SMDPad,CuDef*%
%ADD19RoundRect,0.225000X0.225000X0.250000X-0.225000X0.250000X-0.225000X-0.250000X0.225000X-0.250000X0*%
%TD*%
%TA.AperFunction,SMDPad,CuDef*%
%ADD20R,1.397000X0.698500*%
%TD*%
%TA.AperFunction,SMDPad,CuDef*%
%ADD21R,1.100000X1.420000*%
%TD*%
%TA.AperFunction,SMDPad,CuDef*%
%ADD22R,0.711200X0.558800*%
%TD*%
%TA.AperFunction,SMDPad,CuDef*%
%ADD23R,0.660400X0.609600*%
%TD*%
%TA.AperFunction,SMDPad,CuDef*%
%ADD24R,0.660400X0.399998*%
%TD*%
%TA.AperFunction,SMDPad,CuDef*%
%ADD25R,0.660400X0.400000*%
%TD*%
%TA.AperFunction,SMDPad,CuDef*%
%ADD26R,0.657700X0.400000*%
%TD*%
%TA.AperFunction,SMDPad,CuDef*%
%ADD27R,0.400000X0.250000*%
%TD*%
%TA.AperFunction,SMDPad,CuDef*%
%ADD28R,0.400000X0.700000*%
%TD*%
%TA.AperFunction,SMDPad,CuDef*%
%ADD29RoundRect,0.140000X-0.140000X-0.170000X0.140000X-0.170000X0.140000X0.170000X-0.140000X0.170000X0*%
%TD*%
%TA.AperFunction,SMDPad,CuDef*%
%ADD30RoundRect,0.150000X-0.150000X0.400000X-0.150000X-0.400000X0.150000X-0.400000X0.150000X0.400000X0*%
%TD*%
%TA.AperFunction,SMDPad,CuDef*%
%ADD31R,1.000000X1.600000*%
%TD*%
%TA.AperFunction,SMDPad,CuDef*%
%ADD32RoundRect,0.135000X-0.185000X0.135000X-0.185000X-0.135000X0.185000X-0.135000X0.185000X0.135000X0*%
%TD*%
%TA.AperFunction,SMDPad,CuDef*%
%ADD33RoundRect,0.225000X-0.250000X0.225000X-0.250000X-0.225000X0.250000X-0.225000X0.250000X0.225000X0*%
%TD*%
%TA.AperFunction,SMDPad,CuDef*%
%ADD34R,0.762000X0.965200*%
%TD*%
%TA.AperFunction,SMDPad,CuDef*%
%ADD35R,0.609600X0.660400*%
%TD*%
%TA.AperFunction,SMDPad,CuDef*%
%ADD36RoundRect,0.225000X-0.225000X-0.250000X0.225000X-0.250000X0.225000X0.250000X-0.225000X0.250000X0*%
%TD*%
%TA.AperFunction,ConnectorPad*%
%ADD37C,0.787400*%
%TD*%
%TA.AperFunction,SMDPad,CuDef*%
%ADD38R,0.253996X0.604900*%
%TD*%
%TA.AperFunction,SMDPad,CuDef*%
%ADD39R,0.254000X0.604900*%
%TD*%
%TA.AperFunction,SMDPad,CuDef*%
%ADD40RoundRect,0.140000X0.170000X-0.140000X0.170000X0.140000X-0.170000X0.140000X-0.170000X-0.140000X0*%
%TD*%
%TA.AperFunction,SMDPad,CuDef*%
%ADD41O,0.599999X0.200000*%
%TD*%
%TA.AperFunction,SMDPad,CuDef*%
%ADD42O,0.200000X0.599999*%
%TD*%
%TA.AperFunction,ComponentPad*%
%ADD43C,0.600000*%
%TD*%
%TA.AperFunction,SMDPad,CuDef*%
%ADD44R,2.799999X2.799999*%
%TD*%
%TA.AperFunction,SMDPad,CuDef*%
%ADD45R,1.371600X0.457200*%
%TD*%
%TA.AperFunction,SMDPad,CuDef*%
%ADD46R,1.371600X0.448601*%
%TD*%
%TA.AperFunction,SMDPad,CuDef*%
%ADD47R,1.371600X0.448600*%
%TD*%
%TA.AperFunction,SMDPad,CuDef*%
%ADD48R,1.371600X0.439998*%
%TD*%
%TA.AperFunction,ComponentPad*%
%ADD49O,2.108200X1.422400*%
%TD*%
%TA.AperFunction,SMDPad,CuDef*%
%ADD50R,1.549400X1.422400*%
%TD*%
%TA.AperFunction,SMDPad,CuDef*%
%ADD51R,1.905000X0.889000*%
%TD*%
%TA.AperFunction,SMDPad,CuDef*%
%ADD52RoundRect,0.135000X0.185000X-0.135000X0.185000X0.135000X-0.185000X0.135000X-0.185000X-0.135000X0*%
%TD*%
%TA.AperFunction,SMDPad,CuDef*%
%ADD53RoundRect,0.135000X0.135000X0.185000X-0.135000X0.185000X-0.135000X-0.185000X0.135000X-0.185000X0*%
%TD*%
%TA.AperFunction,SMDPad,CuDef*%
%ADD54R,0.800000X1.700000*%
%TD*%
%TA.AperFunction,SMDPad,CuDef*%
%ADD55R,0.965200X0.939800*%
%TD*%
%TA.AperFunction,ViaPad*%
%ADD56C,0.670000*%
%TD*%
%TA.AperFunction,Conductor*%
%ADD57C,0.200000*%
%TD*%
%TA.AperFunction,Conductor*%
%ADD58C,0.350000*%
%TD*%
%TA.AperFunction,Conductor*%
%ADD59C,0.400000*%
%TD*%
G04 APERTURE END LIST*
D10*
%TA.AperFunction,EtchedComponent*%
%TO.C,AE2*%
G36*
X137750000Y-92668196D02*
G01*
X135110000Y-92668196D01*
X135110000Y-94668196D01*
X137750000Y-94668196D01*
X137750000Y-97368196D01*
X135110000Y-97368196D01*
X135110000Y-99368196D01*
X137750000Y-99368196D01*
X137750000Y-104368196D01*
X132593215Y-104368196D01*
X132350000Y-104368196D01*
X132350000Y-103943352D01*
X132453957Y-103943352D01*
X132466065Y-103986015D01*
X132470419Y-103993927D01*
X132503203Y-104031870D01*
X132545605Y-104055938D01*
X132593215Y-104065779D01*
X132641622Y-104061043D01*
X132686416Y-104041381D01*
X132723186Y-104006441D01*
X132740092Y-103973549D01*
X132747982Y-103925463D01*
X132741408Y-103875878D01*
X132721313Y-103830568D01*
X132688643Y-103795308D01*
X132656417Y-103778414D01*
X132608158Y-103769974D01*
X132558632Y-103776505D01*
X132513447Y-103797064D01*
X132478213Y-103830707D01*
X132467600Y-103849318D01*
X132454700Y-103894833D01*
X132453957Y-103943352D01*
X132350000Y-103943352D01*
X132350000Y-103468196D01*
X137250000Y-103468196D01*
X137250000Y-102068196D01*
X132350000Y-102068196D01*
X132350000Y-101568196D01*
X137250000Y-101568196D01*
X137250000Y-99868196D01*
X134610000Y-99868196D01*
X134610000Y-96868196D01*
X137250000Y-96868196D01*
X137250000Y-95168196D01*
X134610000Y-95168196D01*
X134610000Y-92168196D01*
X137250000Y-92168196D01*
X137250000Y-90468196D01*
X133310000Y-90468196D01*
X133310000Y-89968196D01*
X137750000Y-89968196D01*
X137750000Y-92668196D01*
G37*
%TD.AperFunction*%
%TD*%
D11*
%TO.P,J2,4*%
%TO.N,N/C*%
X81605299Y-91350001D03*
%TO.P,J2,3*%
X81605299Y-84649999D03*
D12*
%TO.P,J2,2,2*%
%TO.N,GND*%
X87355300Y-89000001D03*
%TO.P,J2,1,1*%
%TO.N,/PowerSection/VBAT*%
X87355300Y-86999999D03*
%TD*%
D13*
%TO.P,AE2,1,A*%
%TO.N,/MCU/FEED*%
X132600000Y-101818196D03*
D14*
%TO.P,AE2,2,Shield*%
%TO.N,GND*%
X132600000Y-103918196D03*
%TD*%
D15*
%TO.P,R1,1*%
%TO.N,/VDD_1V8*%
X106805000Y-95300000D03*
%TO.P,R1,2*%
%TO.N,/SDA*%
X107825000Y-95300000D03*
%TD*%
D16*
%TO.P,FB1,1*%
%TO.N,/PowerSection/VOS*%
X96910000Y-92575700D03*
%TO.P,FB1,2*%
%TO.N,/VDD_1V8*%
X96910000Y-94074300D03*
%TD*%
D17*
%TO.P,C21,1*%
%TO.N,/MCU/batCheck*%
X110388192Y-102120000D03*
%TO.P,C21,2*%
%TO.N,GND*%
X110388192Y-103080000D03*
%TD*%
D18*
%TO.P,C7,1*%
%TO.N,/VDD_1V8*%
X95280000Y-93200000D03*
%TO.P,C7,2*%
%TO.N,GND*%
X94320000Y-93200000D03*
%TD*%
D17*
%TO.P,C13,1*%
%TO.N,/VDD_1V8*%
X113600000Y-103970000D03*
%TO.P,C13,2*%
%TO.N,GND*%
X113600000Y-104930000D03*
%TD*%
D19*
%TO.P,C10,1*%
%TO.N,/VSYS*%
X101054200Y-96316800D03*
%TO.P,C10,2*%
%TO.N,GND*%
X99504200Y-96316800D03*
%TD*%
D20*
%TO.P,XTAL1,1,1*%
%TO.N,/MCU/x32_Q2*%
X120015000Y-96399350D03*
%TO.P,XTAL1,2,2*%
%TO.N,/MCU/x32_Q1*%
X120015000Y-97910650D03*
%TD*%
D21*
%TO.P,L1,1,1*%
%TO.N,/PowerSection/SW*%
X100035000Y-89300000D03*
%TO.P,L1,2,2*%
%TO.N,/PowerSection/VOS*%
X98265000Y-89300000D03*
%TD*%
D22*
%TO.P,L5,1,1*%
%TO.N,/MCU/RFP*%
X124769300Y-101818196D03*
%TO.P,L5,2,2*%
%TO.N,/MCU/AntsCaps*%
X125810700Y-101818196D03*
%TD*%
D23*
%TO.P,D1,1,K*%
%TO.N,Net-(D1-K)*%
X91180273Y-102404419D03*
%TO.P,D1,2,A*%
%TO.N,/PowerSection/VBUS*%
X90138873Y-102404419D03*
%TD*%
D15*
%TO.P,R9,1*%
%TO.N,/VSYS*%
X104036400Y-86106000D03*
%TO.P,R9,2*%
%TO.N,Net-(D2-A)*%
X105056400Y-86106000D03*
%TD*%
D17*
%TO.P,C5,1*%
%TO.N,/MCU/AntsCaps*%
X127240000Y-101788196D03*
%TO.P,C5,2*%
%TO.N,GND*%
X127240000Y-102748196D03*
%TD*%
D24*
%TO.P,U1,1,SDA*%
%TO.N,/SDA*%
X98425000Y-102975001D03*
D25*
%TO.P,U1,2,SCL*%
%TO.N,/SCL*%
X98425000Y-103575000D03*
D24*
%TO.P,U1,3,LDO_EN*%
%TO.N,/VDD_1V8*%
X98425000Y-104175001D03*
D25*
%TO.P,U1,4,VLDO*%
%TO.N,/sensor/VLDO*%
X98425000Y-104775000D03*
%TO.P,U1,5,VLED*%
%TO.N,/VLED*%
X98425000Y-105375000D03*
%TO.P,U1,6,NC*%
%TO.N,unconnected-(U1-NC-Pad6)*%
X98425000Y-105975000D03*
%TO.P,U1,7,NC*%
%TO.N,unconnected-(U1-NC-Pad7)*%
X98425000Y-106575000D03*
%TO.P,U1,8,NC*%
%TO.N,unconnected-(U1-NC-Pad8)*%
X100330000Y-106575000D03*
%TO.P,U1,9,PGND*%
%TO.N,GND*%
X100330000Y-105975000D03*
%TO.P,U1,10,GND_DIG*%
X100330000Y-105375000D03*
D26*
%TO.P,U1,11,GND_ANA*%
X100331350Y-104775000D03*
D24*
%TO.P,U1,12,VREF*%
%TO.N,/sensor/VREF*%
X100330000Y-104175001D03*
D25*
%TO.P,U1,13,GPIO*%
%TO.N,unconnected-(U1-GPIO-Pad13)*%
X100330000Y-103575000D03*
D24*
%TO.P,U1,14,INTB*%
%TO.N,/INTB*%
X100330000Y-102975001D03*
%TD*%
D22*
%TO.P,L4,1,1*%
%TO.N,/MCU/RFN*%
X120919300Y-100118196D03*
%TO.P,L4,2,2*%
%TO.N,/MCU/RFP*%
X121960700Y-100118196D03*
%TD*%
D27*
%TO.P,Q1,1,G*%
%TO.N,/MCU/statusCtrl*%
X121900000Y-93375001D03*
D28*
%TO.P,Q1,2,D*%
%TO.N,Net-(D2-K)*%
X122600000Y-93600000D03*
D27*
%TO.P,Q1,3,S*%
%TO.N,GND*%
X121900000Y-93824999D03*
%TD*%
D29*
%TO.P,C15,1*%
%TO.N,/MCU/x32_Q2*%
X122285000Y-96355000D03*
%TO.P,C15,2*%
%TO.N,GND*%
X123245000Y-96355000D03*
%TD*%
%TO.P,C6,1*%
%TO.N,/MCU/AntsCaps*%
X128510000Y-101838196D03*
%TO.P,C6,2*%
%TO.N,/MCU/FEED*%
X129470000Y-101838196D03*
%TD*%
D30*
%TO.P,U4,1,STAT*%
%TO.N,/PowerSection/STAT*%
X91075000Y-94450000D03*
%TO.P,U4,2,VSS*%
%TO.N,GND*%
X90125000Y-94450000D03*
%TO.P,U4,3,VBAT*%
%TO.N,/PowerSection/VBAT*%
X89175000Y-94450000D03*
%TO.P,U4,4,VDD*%
%TO.N,/PowerSection/VBUS*%
X89175000Y-97250000D03*
%TO.P,U4,5,PROG*%
%TO.N,/PowerSection/PROG*%
X91075000Y-97250000D03*
%TD*%
D31*
%TO.P,S3,1,1*%
%TO.N,/VSYS*%
X98700000Y-86000000D03*
%TO.P,S3,1.1,1*%
X98700000Y-83600000D03*
%TO.P,S3,2,2*%
%TO.N,/PowerSection/VBAT*%
X96200000Y-86000000D03*
%TO.P,S3,2.1,2*%
X96200000Y-83600000D03*
%TO.P,S3,3,3*%
%TO.N,unconnected-(S3-Pad3)*%
X93700000Y-86000000D03*
%TO.P,S3,3.1,3*%
%TO.N,unconnected-(S3-3-Pad3.1)*%
X93700000Y-83600000D03*
%TD*%
D19*
%TO.P,C2,1*%
%TO.N,/VLED*%
X95525000Y-104250000D03*
%TO.P,C2,2*%
%TO.N,GND*%
X93975000Y-104250000D03*
%TD*%
D18*
%TO.P,C19,1*%
%TO.N,/MCU/nRESET*%
X106480000Y-88800000D03*
%TO.P,C19,2*%
%TO.N,GND*%
X105520000Y-88800000D03*
%TD*%
D32*
%TO.P,R7,1*%
%TO.N,/MCU/batCheck*%
X106400000Y-103890000D03*
%TO.P,R7,2*%
%TO.N,GND*%
X106400000Y-104910000D03*
%TD*%
D15*
%TO.P,R4,1*%
%TO.N,/VDD_1V8*%
X105490000Y-91000000D03*
%TO.P,R4,2*%
%TO.N,/MCU/nRESET*%
X106510000Y-91000000D03*
%TD*%
D33*
%TO.P,C11,1*%
%TO.N,/PowerSection/VOS*%
X98960000Y-92475000D03*
%TO.P,C11,2*%
%TO.N,GND*%
X98960000Y-94025000D03*
%TD*%
D17*
%TO.P,C20,1*%
%TO.N,/VLED*%
X96274700Y-105811600D03*
%TO.P,C20,2*%
%TO.N,GND*%
X96274700Y-106771600D03*
%TD*%
D34*
%TO.P,XTAL2,1,1*%
%TO.N,/MCU/x24_P*%
X118450001Y-104297401D03*
%TO.P,XTAL2,2,2*%
%TO.N,GND*%
X116749999Y-104297401D03*
%TO.P,XTAL2,3,3*%
%TO.N,/MCU/x24_N*%
X116749999Y-106050001D03*
%TO.P,XTAL2,4,4*%
%TO.N,GND*%
X118450001Y-106050001D03*
%TD*%
D35*
%TO.P,D2,1,K*%
%TO.N,Net-(D2-K)*%
X124690000Y-92943196D03*
%TO.P,D2,2,A*%
%TO.N,Net-(D2-A)*%
X124690000Y-91901796D03*
%TD*%
D36*
%TO.P,C18,1*%
%TO.N,/PowerSection/VBAT*%
X91625000Y-90200000D03*
%TO.P,C18,2*%
%TO.N,GND*%
X93175000Y-90200000D03*
%TD*%
D37*
%TO.P,J1,1,VCC*%
%TO.N,/VDD_1V8*%
X112730000Y-86165000D03*
%TO.P,J1,2,SWDIO*%
%TO.N,/MCU/TMS*%
X112730000Y-87435000D03*
%TO.P,J1,3,~{RESET}*%
%TO.N,/MCU/nRESET*%
X111460000Y-86165000D03*
%TO.P,J1,4,SWCLK*%
%TO.N,/MCU/TCK*%
X111460000Y-87435000D03*
%TO.P,J1,5,GND*%
%TO.N,GND*%
X110190000Y-86165000D03*
%TO.P,J1,6,SWO*%
%TO.N,unconnected-(J1-SWO-Pad6)*%
X110190000Y-87435000D03*
%TD*%
D38*
%TO.P,U3,1,GND*%
%TO.N,GND*%
X100900001Y-93452450D03*
D39*
%TO.P,U3,2,VIN*%
%TO.N,/VSYS*%
X101400000Y-93452450D03*
%TO.P,U3,3,MODE*%
X101900000Y-93452450D03*
D38*
%TO.P,U3,4,EN*%
%TO.N,GND*%
X102399999Y-93452450D03*
D39*
%TO.P,U3,5,VSET*%
X102400001Y-91847550D03*
%TO.P,U3,6,STOP*%
X101900000Y-91847550D03*
%TO.P,U3,7,SW*%
%TO.N,/PowerSection/SW*%
X101400000Y-91847550D03*
D38*
%TO.P,U3,8,VOS*%
%TO.N,/PowerSection/VOS*%
X100900001Y-91847550D03*
%TD*%
D32*
%TO.P,R6,1*%
%TO.N,/PowerSection/PROG*%
X93088873Y-97269419D03*
%TO.P,R6,2*%
%TO.N,GND*%
X93088873Y-98289419D03*
%TD*%
D40*
%TO.P,C8,1*%
%TO.N,/VDD_1V8*%
X115640000Y-94698196D03*
%TO.P,C8,2*%
%TO.N,GND*%
X115640000Y-93738196D03*
%TD*%
D32*
%TO.P,R2,1*%
%TO.N,/VDD_1V8*%
X104140000Y-97915000D03*
%TO.P,R2,2*%
%TO.N,/SCL*%
X104140000Y-98935000D03*
%TD*%
D36*
%TO.P,C12,1*%
%TO.N,/PowerSection/VBUS*%
X88875000Y-99650000D03*
%TO.P,C12,2*%
%TO.N,GND*%
X90425000Y-99650000D03*
%TD*%
D40*
%TO.P,C1,1*%
%TO.N,/sensor/VLDO*%
X96174700Y-102691600D03*
%TO.P,C1,2*%
%TO.N,GND*%
X96174700Y-101731600D03*
%TD*%
D41*
%TO.P,U2,1,RF_P*%
%TO.N,/MCU/RFP*%
X116439999Y-100668198D03*
%TO.P,U2,2,RF_N*%
%TO.N,/MCU/RFN*%
X116439999Y-100268197D03*
%TO.P,U2,3,VSS*%
%TO.N,GND*%
X116439999Y-99868197D03*
%TO.P,U2,4,RX_TX*%
%TO.N,unconnected-(U2-RX_TX-Pad4)*%
X116439999Y-99468198D03*
%TO.P,U2,5,X32K_Q1*%
%TO.N,/MCU/x32_Q1*%
X116439999Y-99068196D03*
%TO.P,U2,6,X32K_Q2*%
%TO.N,/MCU/x32_Q2*%
X116439999Y-98668197D03*
%TO.P,U2,7,VSS*%
%TO.N,GND*%
X116439999Y-98268198D03*
%TO.P,U2,8,DIO_0*%
%TO.N,/MCU/statusCtrl*%
X116439999Y-97868196D03*
D42*
%TO.P,U2,9,DIO_1*%
%TO.N,unconnected-(U2-DIO_1-Pad9)*%
X115940000Y-97368197D03*
%TO.P,U2,10,DIO_2*%
%TO.N,unconnected-(U2-DIO_2-Pad10)*%
X115539998Y-97368197D03*
%TO.P,U2,11,VDDS2*%
%TO.N,/VDD_1V8*%
X115139999Y-97368197D03*
%TO.P,U2,12,DCOUPL*%
%TO.N,/MCU/DCOUPL*%
X114740000Y-97368197D03*
%TO.P,U2,13,JTAG_TMSC*%
%TO.N,/MCU/TMS*%
X114339998Y-97368197D03*
%TO.P,U2,14,JTAG_TCKC*%
%TO.N,/MCU/TCK*%
X113939999Y-97368197D03*
%TO.P,U2,15,DIO_3*%
%TO.N,unconnected-(U2-DIO_3-Pad15)*%
X113539999Y-97368197D03*
%TO.P,U2,16,DIO_4*%
%TO.N,unconnected-(U2-DIO_4-Pad16)*%
X113139998Y-97368197D03*
D41*
%TO.P,U2,17,VSS*%
%TO.N,GND*%
X112640001Y-97868196D03*
%TO.P,U2,18,DCDC_SW*%
X112640001Y-98268198D03*
%TO.P,U2,19,VDDS_DCDC*%
X112640001Y-98668197D03*
%TO.P,U2,20,VSS*%
X112640001Y-99068196D03*
%TO.P,U2,21,RESET_N*%
%TO.N,/MCU/nRESET*%
X112640001Y-99468198D03*
%TO.P,U2,22,DIO_5*%
%TO.N,/SDA*%
X112640001Y-99868197D03*
%TO.P,U2,23,DIO_6*%
%TO.N,/SCL*%
X112640001Y-100268197D03*
%TO.P,U2,24,DIO_7*%
%TO.N,/INTB*%
X112640001Y-100668198D03*
D42*
%TO.P,U2,25,DIO_8*%
%TO.N,/MCU/batCheck*%
X113139998Y-101168195D03*
%TO.P,U2,26,DIO_9*%
%TO.N,unconnected-(U2-DIO_9-Pad26)*%
X113539999Y-101168195D03*
%TO.P,U2,27,VDDS*%
%TO.N,/VDD_1V8*%
X113939999Y-101168195D03*
%TO.P,U2,28,VDDR*%
X114339998Y-101168195D03*
%TO.P,U2,29,VSS*%
%TO.N,GND*%
X114740000Y-101168195D03*
%TO.P,U2,30,X24M_N*%
%TO.N,/MCU/x24_N*%
X115139999Y-101168195D03*
%TO.P,U2,31,X24M_P*%
%TO.N,/MCU/x24_P*%
X115539998Y-101168195D03*
%TO.P,U2,32,VDDR_RF*%
%TO.N,/VDD_1V8*%
X115940000Y-101168195D03*
D43*
%TO.P,U2,33,EGP*%
%TO.N,GND*%
X115565000Y-99268196D03*
X114540000Y-100318196D03*
X114540000Y-98218196D03*
X114539997Y-99268196D03*
D44*
X114539997Y-99268196D03*
D43*
X113465000Y-99268196D03*
%TD*%
D17*
%TO.P,C9,1*%
%TO.N,/VDD_1V8*%
X112065000Y-103938196D03*
%TO.P,C9,2*%
%TO.N,GND*%
X112065000Y-104898196D03*
%TD*%
D45*
%TO.P,J3,1,VBUS*%
%TO.N,/PowerSection/VBUS*%
X85493500Y-102875000D03*
D46*
%TO.P,J3,2,D-*%
%TO.N,unconnected-(J3-D--Pad2)*%
X85493500Y-102220699D03*
D47*
%TO.P,J3,3,D+*%
%TO.N,unconnected-(J3-D+-Pad3)*%
X85493500Y-101570700D03*
D48*
%TO.P,J3,4,ID*%
%TO.N,unconnected-(J3-ID-Pad4)*%
X85493500Y-100925001D03*
D45*
%TO.P,J3,5,GND*%
%TO.N,GND*%
X85493500Y-100275000D03*
D49*
%TO.P,J3,6,Shield*%
X82829299Y-97625000D03*
D50*
X85404600Y-99112501D03*
D51*
X82829299Y-100387500D03*
X82829299Y-102762500D03*
D50*
X85404600Y-104037499D03*
D49*
X82829299Y-105525000D03*
%TD*%
D29*
%TO.P,C14,1*%
%TO.N,/VDD_1V8*%
X118885000Y-101918196D03*
%TO.P,C14,2*%
%TO.N,GND*%
X119845000Y-101918196D03*
%TD*%
%TO.P,C3,1*%
%TO.N,/sensor/VREF*%
X101920000Y-104200000D03*
%TO.P,C3,2*%
%TO.N,GND*%
X102880000Y-104200000D03*
%TD*%
%TO.P,C16,1*%
%TO.N,/MCU/x32_Q1*%
X122285000Y-97955000D03*
%TO.P,C16,2*%
%TO.N,GND*%
X123245000Y-97955000D03*
%TD*%
D52*
%TO.P,R10,1*%
%TO.N,/MCU/statusCtrl*%
X120000000Y-93968197D03*
%TO.P,R10,2*%
%TO.N,GND*%
X120000000Y-92948197D03*
%TD*%
%TO.P,R3,1*%
%TO.N,/VDD_1V8*%
X108407200Y-101551200D03*
%TO.P,R3,2*%
%TO.N,/INTB*%
X108407200Y-100531200D03*
%TD*%
D15*
%TO.P,R8,1*%
%TO.N,/VSYS*%
X101039200Y-98196400D03*
%TO.P,R8,2*%
%TO.N,/MCU/batCheck*%
X102059200Y-98196400D03*
%TD*%
D17*
%TO.P,C4,1*%
%TO.N,/MCU/RFP*%
X123390000Y-101838196D03*
%TO.P,C4,2*%
%TO.N,GND*%
X123390000Y-102798196D03*
%TD*%
D53*
%TO.P,R5,1*%
%TO.N,Net-(D1-K)*%
X93973873Y-95379419D03*
%TO.P,R5,2*%
%TO.N,/PowerSection/STAT*%
X92953873Y-95379419D03*
%TD*%
D54*
%TO.P,S1,1*%
%TO.N,/MCU/nRESET*%
X118900000Y-86800000D03*
%TO.P,S1,2*%
%TO.N,GND*%
X122300000Y-86800000D03*
%TD*%
D55*
%TO.P,FB2,1*%
%TO.N,/VSYS*%
X99299300Y-99100000D03*
%TO.P,FB2,2*%
%TO.N,/VLED*%
X97800700Y-99100000D03*
%TD*%
D40*
%TO.P,C17,1*%
%TO.N,/MCU/DCOUPL*%
X114340000Y-94698196D03*
%TO.P,C17,2*%
%TO.N,GND*%
X114340000Y-93738196D03*
%TD*%
D56*
%TO.N,GND*%
X96174700Y-100975300D03*
X95325000Y-101750000D03*
X92850000Y-104250000D03*
X84375000Y-105525000D03*
X124495000Y-97955000D03*
X85450000Y-97750000D03*
X87050000Y-99100000D03*
X120000000Y-91875000D03*
X91650000Y-93000000D03*
X96250000Y-107600000D03*
X95321600Y-106771600D03*
X113300000Y-93738196D03*
X106400000Y-105750000D03*
X126150000Y-102725000D03*
X114525000Y-104925000D03*
X120950000Y-101900000D03*
X131075000Y-103900000D03*
X111000000Y-105150000D03*
X98166800Y-96316800D03*
X103775000Y-104200000D03*
X115640000Y-92410000D03*
X82850000Y-95950000D03*
X123700000Y-86800000D03*
X124500000Y-96300000D03*
X100875000Y-94350000D03*
X93200000Y-91200000D03*
X90450000Y-100600000D03*
X116700000Y-93700000D03*
X102880000Y-103105000D03*
X93175000Y-88975000D03*
X123250000Y-95200000D03*
X94300000Y-94000000D03*
X114350000Y-92700000D03*
X99475000Y-97325000D03*
X119585000Y-106050001D03*
X119845000Y-102795000D03*
X124600000Y-102800000D03*
X90000000Y-88975000D03*
X93250000Y-93200000D03*
X98960000Y-95140000D03*
X81225000Y-100375000D03*
X112050000Y-105850000D03*
X82850000Y-103850000D03*
X128250000Y-102800000D03*
X93088873Y-99038873D03*
X87200000Y-100250000D03*
X93975000Y-105374400D03*
X82800000Y-106825000D03*
X82850000Y-99400000D03*
X105475000Y-87600000D03*
X123245000Y-98895000D03*
X110375000Y-103896400D03*
X81200000Y-102700000D03*
X86732618Y-104056948D03*
X94350000Y-92250000D03*
X110175000Y-84575000D03*
X127250000Y-103650000D03*
X122301804Y-102798196D03*
X121900000Y-94700000D03*
X91850000Y-99650000D03*
X103250000Y-91850000D03*
X123390000Y-103640000D03*
X101600000Y-106000000D03*
X85400000Y-105150000D03*
X93975000Y-102991294D03*
X94300000Y-90200000D03*
X103250000Y-93475000D03*
X113600000Y-105850000D03*
X109480000Y-103080000D03*
X81000000Y-97600000D03*
%TO.N,/VLED*%
X95376600Y-100406600D03*
X96331902Y-99451298D03*
%TO.N,/VDD_1V8*%
X117150000Y-101400000D03*
X114550000Y-102300000D03*
X116725000Y-102500000D03*
X107500000Y-104565000D03*
X115800000Y-96450000D03*
X107450000Y-103215000D03*
%TO.N,/MCU/batCheck*%
X104650000Y-101200000D03*
X101281475Y-100025000D03*
%TO.N,/SDA*%
X106000000Y-99100000D03*
X107430000Y-99100000D03*
%TO.N,/SCL*%
X105950000Y-97375000D03*
X108090000Y-97400000D03*
%TO.N,/INTB*%
X106000000Y-100475000D03*
X107354000Y-100500000D03*
%TD*%
D57*
%TO.N,/SCL*%
X111083797Y-100268197D02*
X112640001Y-100268197D01*
X108090000Y-97400000D02*
X108215600Y-97400000D01*
X108215600Y-97400000D02*
X111083797Y-100268197D01*
%TO.N,/VDD_1V8*%
X107051200Y-101551200D02*
X108407200Y-101551200D01*
X106675000Y-101175000D02*
X107051200Y-101551200D01*
X106675000Y-95430000D02*
X106675000Y-101175000D01*
X106805000Y-95300000D02*
X106675000Y-95430000D01*
%TO.N,/INTB*%
X105975000Y-100500000D02*
X104300000Y-100500000D01*
X106000000Y-100475000D02*
X105975000Y-100500000D01*
X104300000Y-100500000D02*
X101824999Y-102975001D01*
X101824999Y-102975001D02*
X100330000Y-102975001D01*
%TO.N,/SCL*%
X105950000Y-98025000D02*
X105040000Y-98935000D01*
X105950000Y-97375000D02*
X105950000Y-98025000D01*
X105040000Y-98935000D02*
X104140000Y-98935000D01*
%TO.N,/SDA*%
X98425000Y-102425000D02*
X98425000Y-102975001D01*
X99050000Y-101800000D02*
X98425000Y-102425000D01*
X105379600Y-99720400D02*
X104343200Y-99720400D01*
X104343200Y-99720400D02*
X102263600Y-101800000D01*
X106000000Y-99100000D02*
X105379600Y-99720400D01*
X102263600Y-101800000D02*
X99050000Y-101800000D01*
%TO.N,/VDD_1V8*%
X116941600Y-101193600D02*
X115965405Y-101193600D01*
X117148000Y-101400000D02*
X116941600Y-101193600D01*
X117150000Y-101400000D02*
X117148000Y-101400000D01*
X115965405Y-101193600D02*
X115940000Y-101168195D01*
X116550000Y-101950000D02*
X115940000Y-101340000D01*
X118853196Y-101950000D02*
X116550000Y-101950000D01*
X118885000Y-101918196D02*
X118853196Y-101950000D01*
X115940000Y-101340000D02*
X115940000Y-101168195D01*
X116750000Y-102288527D02*
X116750000Y-101918196D01*
X116825000Y-102363527D02*
X116750000Y-102288527D01*
X116825000Y-102400000D02*
X116825000Y-102363527D01*
X116725000Y-102500000D02*
X116825000Y-102400000D01*
X103150000Y-99100000D02*
X103150000Y-98905000D01*
X101500000Y-100750000D02*
X103150000Y-99100000D01*
X103150000Y-98905000D02*
X104140000Y-97915000D01*
X97950000Y-101050000D02*
X98250000Y-100750000D01*
X98250000Y-100750000D02*
X101500000Y-100750000D01*
X111362475Y-103938196D02*
X112065000Y-103938196D01*
X110754271Y-104546400D02*
X111362475Y-103938196D01*
X107518600Y-104546400D02*
X110754271Y-104546400D01*
X107500000Y-104565000D02*
X107518600Y-104546400D01*
D58*
%TO.N,GND*%
X111301804Y-104898196D02*
X112065000Y-104898196D01*
X111290863Y-104909137D02*
X111301804Y-104898196D01*
X111240863Y-104909137D02*
X111290863Y-104909137D01*
X111000000Y-105150000D02*
X111240863Y-104909137D01*
X96200000Y-100950000D02*
X96174700Y-100975300D01*
X96174700Y-101731600D02*
X96174700Y-100975300D01*
X95343400Y-101731600D02*
X95325000Y-101750000D01*
X96174700Y-101731600D02*
X95343400Y-101731600D01*
D57*
%TO.N,/VLED*%
X95525000Y-103620640D02*
X95525000Y-104250000D01*
X94600000Y-102695640D02*
X95525000Y-103620640D01*
X95376600Y-100406600D02*
X94600000Y-101183200D01*
X94600000Y-101183200D02*
X94600000Y-102695640D01*
%TO.N,/MCU/x24_P*%
X118215599Y-104297401D02*
X118450001Y-104297401D01*
X117431999Y-103513801D02*
X118215599Y-104297401D01*
X116000000Y-103000000D02*
X116513801Y-103513801D01*
X116513801Y-103513801D02*
X117431999Y-103513801D01*
X115539998Y-101689998D02*
X116000000Y-102150000D01*
X116000000Y-102150000D02*
X116000000Y-103000000D01*
X115539998Y-101168195D02*
X115539998Y-101689998D01*
%TO.N,/MCU/x24_N*%
X115444600Y-105715505D02*
X115779096Y-106050001D01*
X115484800Y-104097000D02*
X115444600Y-104137200D01*
X115139999Y-101989999D02*
X115484800Y-102334800D01*
X115779096Y-106050001D02*
X116749999Y-106050001D01*
X115139999Y-101168195D02*
X115139999Y-101989999D01*
X115484800Y-102334800D02*
X115484800Y-104097000D01*
X115444600Y-104137200D02*
X115444600Y-105715505D01*
%TO.N,/VDD_1V8*%
X113600000Y-103250000D02*
X114550000Y-102300000D01*
X113600000Y-103970000D02*
X113600000Y-103250000D01*
X114550000Y-102110002D02*
X114339998Y-101900000D01*
X114550000Y-102300000D02*
X114550000Y-102110002D01*
X114339998Y-101900000D02*
X114339998Y-101168195D01*
X113939999Y-101710001D02*
X113939999Y-101168195D01*
X112065000Y-103585000D02*
X113939999Y-101710001D01*
X112065000Y-103938196D02*
X112065000Y-103585000D01*
%TO.N,/MCU/FEED*%
X129490000Y-101818196D02*
X129470000Y-101838196D01*
X132600000Y-101818196D02*
X129490000Y-101818196D01*
%TO.N,/sensor/VLDO*%
X96174700Y-103085501D02*
X97864199Y-104775000D01*
X97864199Y-104775000D02*
X98425000Y-104775000D01*
X96174700Y-102691600D02*
X96174700Y-103085501D01*
D58*
%TO.N,GND*%
X118450001Y-106050001D02*
X119585000Y-106050001D01*
X82829299Y-105525000D02*
X84375000Y-105525000D01*
X90425000Y-99650000D02*
X91850000Y-99650000D01*
X123390000Y-102798196D02*
X124598196Y-102798196D01*
D57*
X100900001Y-93452450D02*
X100900001Y-94324999D01*
D58*
X112065000Y-105835000D02*
X112050000Y-105850000D01*
X103740000Y-104165000D02*
X103775000Y-104200000D01*
D57*
X113939998Y-98668197D02*
X114539997Y-99268196D01*
D58*
X101625000Y-105975000D02*
X101600000Y-106000000D01*
X90125000Y-94450000D02*
X90125000Y-93900001D01*
X109450000Y-103050000D02*
X109480000Y-103080000D01*
D57*
X93175000Y-90200000D02*
X94300000Y-90200000D01*
D58*
X95321600Y-106771600D02*
X95300000Y-106750000D01*
X119845000Y-101918196D02*
X119845000Y-102795000D01*
X82829299Y-99420701D02*
X82850000Y-99400000D01*
X114520000Y-104930000D02*
X114525000Y-104925000D01*
X100331350Y-104775000D02*
X100331350Y-105373650D01*
X91025001Y-93000000D02*
X91650000Y-93000000D01*
X123250000Y-98900000D02*
X123245000Y-98895000D01*
D57*
X112640001Y-98268198D02*
X112640001Y-98668197D01*
D58*
X120000000Y-91850000D02*
X120000000Y-91875000D01*
X82829299Y-97625000D02*
X81025000Y-97625000D01*
X113600000Y-105850000D02*
X113600000Y-104930000D01*
X123390000Y-102798196D02*
X123390000Y-103640000D01*
X87175000Y-100275000D02*
X87200000Y-100250000D01*
X124598196Y-102798196D02*
X124600000Y-102800000D01*
D57*
X102399999Y-93452450D02*
X103227450Y-93452450D01*
D58*
X106400000Y-104910000D02*
X106400000Y-105750000D01*
X94320000Y-92280000D02*
X94350000Y-92250000D01*
X85404600Y-99112501D02*
X85404600Y-97795400D01*
D57*
X103227450Y-93452450D02*
X103250000Y-93475000D01*
D58*
X120931804Y-101918196D02*
X120950000Y-101900000D01*
X93966600Y-104241600D02*
X93975000Y-104250000D01*
X96274700Y-106771600D02*
X96274700Y-107575300D01*
X128198196Y-102748196D02*
X128250000Y-102800000D01*
X90125000Y-93900001D02*
X91025001Y-93000000D01*
X116749999Y-104297401D02*
X116749999Y-104349999D01*
D57*
X116439999Y-99868197D02*
X115139998Y-99868197D01*
D58*
X131075000Y-103900000D02*
X131093196Y-103918196D01*
D57*
X112640001Y-97868196D02*
X112640001Y-98268198D01*
X110190000Y-86165000D02*
X110190000Y-84590000D01*
D58*
X99504200Y-97295800D02*
X99475000Y-97325000D01*
X123245000Y-97955000D02*
X124495000Y-97955000D01*
X94320000Y-93980000D02*
X94300000Y-94000000D01*
X90425000Y-100575000D02*
X90450000Y-100600000D01*
X82829299Y-106795701D02*
X82800000Y-106825000D01*
D57*
X116439999Y-98268198D02*
X114590002Y-98268198D01*
D58*
X94320000Y-93200000D02*
X94320000Y-92280000D01*
X87355300Y-89000001D02*
X89974999Y-89000001D01*
X100330000Y-105375000D02*
X100330000Y-105975000D01*
X86739566Y-104050000D02*
X86732618Y-104056948D01*
X102880000Y-104165000D02*
X103740000Y-104165000D01*
D57*
X112640001Y-99068196D02*
X113265000Y-99068196D01*
D58*
X85404600Y-97795400D02*
X85450000Y-97750000D01*
X85404600Y-105145400D02*
X85400000Y-105150000D01*
X127240000Y-102748196D02*
X126173196Y-102748196D01*
X85404600Y-104037499D02*
X85404600Y-105145400D01*
X93975000Y-102991294D02*
X93975000Y-104250000D01*
X110388192Y-103080000D02*
X109480000Y-103080000D01*
D57*
X105520000Y-87645000D02*
X105475000Y-87600000D01*
D58*
X86737499Y-104037499D02*
X86750000Y-104050000D01*
D57*
X98950000Y-95150000D02*
X98960000Y-95140000D01*
X121900000Y-93824999D02*
X121900000Y-94700000D01*
D58*
X122300000Y-102800000D02*
X122301804Y-102798196D01*
X82829299Y-100387500D02*
X81237500Y-100387500D01*
X127240000Y-102748196D02*
X128198196Y-102748196D01*
X82829299Y-100387500D02*
X82829299Y-99420701D01*
X85404600Y-104037499D02*
X86737499Y-104037499D01*
X81262500Y-102762500D02*
X81200000Y-102700000D01*
X123245000Y-96355000D02*
X123245000Y-95205000D01*
D57*
X110190000Y-84590000D02*
X110175000Y-84575000D01*
D58*
X85404600Y-99112501D02*
X87037499Y-99112501D01*
D57*
X112640001Y-98668197D02*
X113939998Y-98668197D01*
D58*
X124500000Y-97950000D02*
X124495000Y-97955000D01*
X127240000Y-102748196D02*
X127240000Y-103640000D01*
X93100000Y-99050000D02*
X93088873Y-99038873D01*
X110388192Y-103883208D02*
X110375000Y-103896400D01*
D57*
X102400001Y-91847550D02*
X103247550Y-91847550D01*
D58*
X99504200Y-96316800D02*
X98166800Y-96316800D01*
X123245000Y-97955000D02*
X123245000Y-98895000D01*
X94320000Y-93200000D02*
X93250000Y-93200000D01*
X89974999Y-89000001D02*
X90000000Y-88975000D01*
X115650000Y-92400000D02*
X115640000Y-92410000D01*
D57*
X115139998Y-99868197D02*
X114539997Y-99268196D01*
D58*
X123245000Y-95205000D02*
X123250000Y-95200000D01*
D57*
X98960000Y-94025000D02*
X98960000Y-95140000D01*
D58*
X99504200Y-96316800D02*
X99504200Y-97295800D01*
X93300000Y-104250000D02*
X93308400Y-104241600D01*
D57*
X93175000Y-91175000D02*
X93200000Y-91200000D01*
D58*
X96274700Y-107575300D02*
X96250000Y-107600000D01*
X114340000Y-92710000D02*
X114350000Y-92700000D01*
D57*
X93175000Y-90200000D02*
X93175000Y-88975000D01*
D58*
X81025000Y-97625000D02*
X81000000Y-97600000D01*
X92850000Y-104250000D02*
X93300000Y-104250000D01*
D57*
X113265000Y-99068196D02*
X113465000Y-99268196D01*
D58*
X93308400Y-104241600D02*
X93966600Y-104241600D01*
X120000000Y-92948197D02*
X120000000Y-91850000D01*
D57*
X114740000Y-101168195D02*
X114740000Y-100518196D01*
X101900000Y-91847550D02*
X102400001Y-91847550D01*
D58*
X115640000Y-93738196D02*
X115640000Y-92410000D01*
X96274700Y-106771600D02*
X95321600Y-106771600D01*
X131093196Y-103918196D02*
X132600000Y-103918196D01*
D57*
X100900001Y-94324999D02*
X100875000Y-94350000D01*
D58*
X123390000Y-102798196D02*
X122301804Y-102798196D01*
X100330000Y-105975000D02*
X101625000Y-105975000D01*
X82829299Y-97625000D02*
X82829299Y-95970701D01*
X86750000Y-104050000D02*
X86739566Y-104050000D01*
X82850000Y-103850000D02*
X82829299Y-103829299D01*
D57*
X103247550Y-91847550D02*
X103250000Y-91850000D01*
D58*
X98150000Y-96300000D02*
X98166800Y-96316800D01*
X90425000Y-99650000D02*
X90425000Y-100575000D01*
D57*
X122300000Y-86800000D02*
X123700000Y-86800000D01*
D58*
X93088873Y-98289419D02*
X93088873Y-99038873D01*
D57*
X93175000Y-90200000D02*
X93175000Y-91175000D01*
D58*
X123400000Y-103650000D02*
X123390000Y-103640000D01*
X82829299Y-102762500D02*
X81262500Y-102762500D01*
X114340000Y-93738196D02*
X113300000Y-93738196D01*
X126173196Y-102748196D02*
X126150000Y-102725000D01*
D57*
X114590002Y-98268198D02*
X114540000Y-98218196D01*
D58*
X123245000Y-96355000D02*
X124445000Y-96355000D01*
X81237500Y-100387500D02*
X81225000Y-100375000D01*
X114340000Y-93738196D02*
X114340000Y-92710000D01*
X115640000Y-93738196D02*
X116661804Y-93738196D01*
X82829299Y-95970701D02*
X82850000Y-95950000D01*
X94320000Y-93200000D02*
X94320000Y-93980000D01*
X102880000Y-104165000D02*
X102880000Y-103105000D01*
X124445000Y-96355000D02*
X124500000Y-96300000D01*
X84400000Y-105550000D02*
X84375000Y-105525000D01*
D57*
X105520000Y-88800000D02*
X105520000Y-87645000D01*
D58*
X116749999Y-104349999D02*
X118450001Y-106050001D01*
X82829299Y-105525000D02*
X82829299Y-106795701D01*
X87037499Y-99112501D02*
X87050000Y-99100000D01*
X127240000Y-103640000D02*
X127250000Y-103650000D01*
X112065000Y-104898196D02*
X112065000Y-105835000D01*
X119850000Y-102800000D02*
X119845000Y-102795000D01*
X93975000Y-105374400D02*
X93975000Y-104250000D01*
X100331350Y-105373650D02*
X100330000Y-105375000D01*
X82829299Y-103829299D02*
X82829299Y-102762500D01*
X113600000Y-104930000D02*
X114520000Y-104930000D01*
X116661804Y-93738196D02*
X116700000Y-93700000D01*
X119845000Y-101918196D02*
X120931804Y-101918196D01*
X85493500Y-100275000D02*
X87175000Y-100275000D01*
D57*
X114740000Y-100518196D02*
X114540000Y-100318196D01*
D58*
X110388192Y-103080000D02*
X110388192Y-103883208D01*
D57*
%TO.N,/VLED*%
X96331902Y-99451298D02*
X96363200Y-99420000D01*
X97147100Y-105811600D02*
X97583701Y-105374999D01*
X96024700Y-104749700D02*
X96024700Y-105561600D01*
X95525000Y-104250000D02*
X96024700Y-104749700D01*
X97480700Y-99420000D02*
X97800700Y-99100000D01*
X96024700Y-105561600D02*
X96274700Y-105811600D01*
X96274700Y-105811600D02*
X97147100Y-105811600D01*
X97583701Y-105374999D02*
X98425000Y-105374999D01*
X96363200Y-99420000D02*
X97480700Y-99420000D01*
%TO.N,/sensor/VREF*%
X101895001Y-104175001D02*
X101920000Y-104200000D01*
X100330000Y-104175001D02*
X101895001Y-104175001D01*
%TO.N,/MCU/RFP*%
X116439999Y-100668198D02*
X119465002Y-100668198D01*
X119715000Y-100918196D02*
X121190000Y-100918196D01*
X121960700Y-100147496D02*
X121960700Y-100118196D01*
X121190000Y-100918196D02*
X121960700Y-100147496D01*
X124769300Y-101818196D02*
X123410000Y-101818196D01*
X123390000Y-101838196D02*
X123390000Y-101547496D01*
X123410000Y-101818196D02*
X123390000Y-101838196D01*
X119465002Y-100668198D02*
X119715000Y-100918196D01*
X123390000Y-101547496D02*
X121960700Y-100118196D01*
%TO.N,/MCU/AntsCaps*%
X127240000Y-101788196D02*
X125840700Y-101788196D01*
X128510000Y-101838196D02*
X127290000Y-101838196D01*
X125840700Y-101788196D02*
X125810700Y-101818196D01*
X127290000Y-101838196D02*
X127240000Y-101788196D01*
%TO.N,/VDD_1V8*%
X105500000Y-92650000D02*
X106805000Y-93955000D01*
X104140000Y-97915000D02*
X104140000Y-96510000D01*
X108356400Y-102343600D02*
X108356400Y-101602000D01*
X98425000Y-104175001D02*
X97864201Y-104175001D01*
X96176009Y-100250000D02*
X97200000Y-100250000D01*
X105490000Y-91000000D02*
X105500000Y-91010000D01*
X96910000Y-94074300D02*
X95453200Y-95531100D01*
X115139999Y-96143197D02*
X115640000Y-95643196D01*
X108356400Y-101602000D02*
X108407200Y-101551200D01*
D59*
X117950000Y-93550000D02*
X117950000Y-90496520D01*
D57*
X105500000Y-91010000D02*
X105500000Y-92650000D01*
X106805000Y-93955000D02*
X106805000Y-95300000D01*
X115139999Y-97368197D02*
X115139999Y-96620000D01*
D59*
X116801804Y-94698196D02*
X117950000Y-93550000D01*
D57*
X95453200Y-95531100D02*
X95453200Y-99527191D01*
X115640000Y-95643196D02*
X115640000Y-94698196D01*
X97200000Y-100250000D02*
X97200000Y-100300000D01*
X115309999Y-96450000D02*
X115139999Y-96620000D01*
X107450000Y-103215000D02*
X107485000Y-103215000D01*
X96910000Y-94074300D02*
X96154300Y-94074300D01*
X96154300Y-94074300D02*
X95280000Y-93200000D01*
X113939999Y-101168195D02*
X114339998Y-101168195D01*
X105350000Y-95300000D02*
X106805000Y-95300000D01*
X104140000Y-96510000D02*
X105350000Y-95300000D01*
X97442600Y-101557400D02*
X97950000Y-101050000D01*
D59*
X116150000Y-88696520D02*
X116150000Y-87255000D01*
X116150000Y-87255000D02*
X114630000Y-85735000D01*
X113160000Y-85735000D02*
X112730000Y-86165000D01*
D57*
X97864201Y-104175001D02*
X97078800Y-103389600D01*
X115139999Y-96620000D02*
X115139999Y-96143197D01*
X97078800Y-101921200D02*
X97442600Y-101557400D01*
D59*
X115640000Y-94698196D02*
X116801804Y-94698196D01*
D57*
X97078800Y-103389600D02*
X97078800Y-101921200D01*
X108407200Y-101551200D02*
X108407200Y-102102800D01*
X108407200Y-102102800D02*
X108400000Y-102110000D01*
D59*
X117950000Y-90496520D02*
X116150000Y-88696520D01*
D57*
X97200000Y-100300000D02*
X97950000Y-101050000D01*
X107485000Y-103215000D02*
X108356400Y-102343600D01*
X115800000Y-96450000D02*
X115309999Y-96450000D01*
D59*
X114630000Y-85735000D02*
X113160000Y-85735000D01*
D57*
X95453200Y-99527191D02*
X96176009Y-100250000D01*
D59*
%TO.N,/VSYS*%
X98700000Y-86000000D02*
X98806000Y-86106000D01*
X101054200Y-97125800D02*
X101054200Y-96316800D01*
X101039200Y-98196400D02*
X101039200Y-97140800D01*
X101039200Y-97140800D02*
X101054200Y-97125800D01*
X102685000Y-88435000D02*
X104036400Y-87083600D01*
D57*
X101900000Y-93452450D02*
X101900000Y-94350000D01*
D59*
X98700000Y-86000000D02*
X100250000Y-86000000D01*
X101010600Y-98225000D02*
X101039200Y-98196400D01*
X101054200Y-96316800D02*
X101257400Y-96113600D01*
X102685000Y-88435000D02*
X104000000Y-89750000D01*
X101054200Y-96316800D02*
X102616000Y-96316800D01*
X101257400Y-96520000D02*
X101054200Y-96316800D01*
D57*
X101900000Y-94350000D02*
X101054200Y-95195800D01*
D58*
X100135600Y-99100000D02*
X101039200Y-98196400D01*
D57*
X101900000Y-93452450D02*
X101400000Y-93452450D01*
D59*
X104000000Y-89750000D02*
X104000000Y-94860000D01*
D57*
X101054200Y-95195800D02*
X101054200Y-96316800D01*
D59*
X104036400Y-87083600D02*
X104036400Y-86106000D01*
X100250000Y-86000000D02*
X102685000Y-88435000D01*
X104000000Y-94860000D02*
X104036400Y-94896400D01*
D58*
X99299300Y-99100000D02*
X100135600Y-99100000D01*
D59*
X98700000Y-86000000D02*
X98700000Y-83600000D01*
X102616000Y-96316800D02*
X104036400Y-94896400D01*
%TO.N,/PowerSection/VOS*%
X97010700Y-92475000D02*
X96910000Y-92575700D01*
X98250000Y-89315000D02*
X98250000Y-91765000D01*
D57*
X100900001Y-91847550D02*
X99587450Y-91847550D01*
D59*
X98250000Y-91765000D02*
X98960000Y-92475000D01*
D57*
X99587450Y-91847550D02*
X98960000Y-92475000D01*
D59*
X98960000Y-92475000D02*
X97010700Y-92475000D01*
X98265000Y-89300000D02*
X98250000Y-89315000D01*
%TO.N,/PowerSection/VBUS*%
X89909546Y-102875000D02*
X90138873Y-102645673D01*
X88850000Y-101100000D02*
X88850000Y-99675000D01*
X88875000Y-99650000D02*
X88875000Y-97550000D01*
X90138873Y-102645673D02*
X90138873Y-102404419D01*
X90138873Y-102388873D02*
X88850000Y-101100000D01*
X88875000Y-97550000D02*
X89175000Y-97250000D01*
X88850000Y-99675000D02*
X88875000Y-99650000D01*
X90138873Y-102404419D02*
X90138873Y-102388873D01*
X85493500Y-102875000D02*
X89909546Y-102875000D01*
D57*
%TO.N,/MCU/x32_Q2*%
X118190000Y-97325850D02*
X118190000Y-98018196D01*
X119116500Y-96399350D02*
X118190000Y-97325850D01*
X120015000Y-96399350D02*
X119116500Y-96399350D01*
X122285000Y-96355000D02*
X120059350Y-96355000D01*
X118190000Y-98018196D02*
X117539999Y-98668197D01*
X117539999Y-98668197D02*
X116439999Y-98668197D01*
X120059350Y-96355000D02*
X120015000Y-96399350D01*
%TO.N,/MCU/x32_Q1*%
X116439999Y-99068196D02*
X118857454Y-99068196D01*
X118857454Y-99068196D02*
X120015000Y-97910650D01*
X120015000Y-97910650D02*
X122240650Y-97910650D01*
X122240650Y-97910650D02*
X122285000Y-97955000D01*
%TO.N,/MCU/DCOUPL*%
X114340000Y-95568196D02*
X114740000Y-95968196D01*
X114340000Y-94698196D02*
X114340000Y-95568196D01*
X114740000Y-95968196D02*
X114740000Y-97368197D01*
D59*
%TO.N,/PowerSection/VBAT*%
X96200000Y-86000000D02*
X96200000Y-83600000D01*
X96200000Y-86000000D02*
X96200000Y-87200000D01*
X91625000Y-89075000D02*
X91625000Y-90200000D01*
X96200000Y-87200000D02*
X95350000Y-88050000D01*
X95350000Y-88050000D02*
X92650000Y-88050000D01*
X92650000Y-88050000D02*
X91625000Y-89075000D01*
X91625000Y-90200000D02*
X91700000Y-90275000D01*
X91700000Y-91150000D02*
X89195000Y-93655000D01*
X89195000Y-93655000D02*
X89195000Y-94430000D01*
X91700000Y-90275000D02*
X91700000Y-91150000D01*
X91625000Y-90200000D02*
X90850000Y-89425000D01*
X90099999Y-86999999D02*
X87355300Y-86999999D01*
X89195000Y-94430000D02*
X89175000Y-94450000D01*
X90850000Y-87750000D02*
X90099999Y-86999999D01*
X90850000Y-89425000D02*
X90850000Y-87750000D01*
D57*
%TO.N,/MCU/nRESET*%
X106480000Y-85570000D02*
X108200000Y-83850000D01*
X106510000Y-91981200D02*
X108356400Y-93827600D01*
X110642400Y-93827600D02*
X111506000Y-94691200D01*
X106510000Y-91000000D02*
X106480000Y-90970000D01*
X112505000Y-85185000D02*
X115835000Y-85185000D01*
X111460000Y-85505000D02*
X111780000Y-85185000D01*
X117450000Y-86800000D02*
X118900000Y-86800000D01*
X108356400Y-93827600D02*
X110642400Y-93827600D01*
X112500000Y-84400000D02*
X112500000Y-85180000D01*
X106480000Y-90970000D02*
X106480000Y-88800000D01*
X111780000Y-85185000D02*
X112505000Y-85185000D01*
X108200000Y-83850000D02*
X111950000Y-83850000D01*
X106480000Y-88800000D02*
X106480000Y-85570000D01*
X106510000Y-91000000D02*
X106510000Y-91981200D01*
X111506000Y-94691200D02*
X111506000Y-99161600D01*
X111460000Y-86165000D02*
X111460000Y-85505000D01*
X111950000Y-83850000D02*
X112500000Y-84400000D01*
X111812598Y-99468198D02*
X112640001Y-99468198D01*
X115835000Y-85185000D02*
X117450000Y-86800000D01*
X111506000Y-99161600D02*
X111812598Y-99468198D01*
X112500000Y-85180000D02*
X112505000Y-85185000D01*
%TO.N,/MCU/batCheck*%
X113139998Y-101168195D02*
X112188192Y-102120000D01*
X106290000Y-103890000D02*
X106400000Y-103890000D01*
X104650000Y-102250000D02*
X106290000Y-103890000D01*
X108800000Y-102850000D02*
X108800000Y-102650000D01*
X106400000Y-103890000D02*
X106523600Y-103890000D01*
X109330000Y-102120000D02*
X110388192Y-102120000D01*
X101281475Y-100025000D02*
X102059200Y-99247275D01*
X102059200Y-99247275D02*
X102059200Y-98196400D01*
X104650000Y-101200000D02*
X104650000Y-102250000D01*
X108800000Y-102650000D02*
X109330000Y-102120000D01*
X106523600Y-103890000D02*
X106553600Y-103920000D01*
X112188192Y-102120000D02*
X110388192Y-102120000D01*
X106400000Y-103890000D02*
X107760000Y-103890000D01*
X107760000Y-103890000D02*
X108800000Y-102850000D01*
%TO.N,Net-(D1-K)*%
X94388873Y-95794419D02*
X93973873Y-95379419D01*
X94388873Y-100461127D02*
X94388873Y-95794419D01*
X91180273Y-102404419D02*
X92445581Y-102404419D01*
X92445581Y-102404419D02*
X94388873Y-100461127D01*
%TO.N,Net-(D2-A)*%
X124690000Y-91901796D02*
X124690000Y-85390000D01*
X107812400Y-83350000D02*
X105056400Y-86106000D01*
X124690000Y-85390000D02*
X122650000Y-83350000D01*
X122650000Y-83350000D02*
X107812400Y-83350000D01*
%TO.N,Net-(D2-K)*%
X124033196Y-93600000D02*
X124690000Y-92943196D01*
X122600000Y-93600000D02*
X124033196Y-93600000D01*
%TO.N,/MCU/TCK*%
X113939999Y-97001097D02*
X112000000Y-95061098D01*
X111050000Y-87845000D02*
X111460000Y-87435000D01*
X111050000Y-93200000D02*
X111050000Y-87845000D01*
X113939999Y-97368197D02*
X113939999Y-97001097D01*
X112000000Y-94150000D02*
X111050000Y-93200000D01*
X112000000Y-95061098D02*
X112000000Y-94150000D01*
%TO.N,/MCU/TMS*%
X114339998Y-96768194D02*
X112500000Y-94928196D01*
X112500000Y-87665000D02*
X112730000Y-87435000D01*
X112500000Y-94928196D02*
X112500000Y-87665000D01*
X114339998Y-97368197D02*
X114339998Y-96768194D01*
%TO.N,/PowerSection/SW*%
X101400000Y-90450000D02*
X100250000Y-89300000D01*
X101400000Y-91847550D02*
X101400000Y-90450000D01*
X100250000Y-89300000D02*
X100035000Y-89300000D01*
%TO.N,/MCU/RFN*%
X120919300Y-100118196D02*
X116957100Y-100118196D01*
X116957100Y-100118196D02*
X116807098Y-100268198D01*
%TO.N,/MCU/statusCtrl*%
X118537998Y-93968197D02*
X116439999Y-96066196D01*
X120631803Y-93968197D02*
X121224999Y-93375001D01*
X116439999Y-96066196D02*
X116439999Y-97868196D01*
X121224999Y-93375001D02*
X121900000Y-93375001D01*
X120000000Y-93968197D02*
X120631803Y-93968197D01*
X118537998Y-93968197D02*
X120000000Y-93968197D01*
%TO.N,/SDA*%
X111468197Y-99868197D02*
X110800000Y-99200000D01*
X112640001Y-99868197D02*
X111468197Y-99868197D01*
X110800000Y-99200000D02*
X110800000Y-96350000D01*
X109750000Y-95300000D02*
X107825000Y-95300000D01*
X107350000Y-99020000D02*
X107350000Y-95775000D01*
X107430000Y-99100000D02*
X107350000Y-99020000D01*
X110800000Y-96350000D02*
X109750000Y-95300000D01*
X107350000Y-95775000D02*
X107825000Y-95300000D01*
%TO.N,/SCL*%
X97650000Y-103310801D02*
X97650000Y-102250000D01*
X98655600Y-101244400D02*
X102105600Y-101244400D01*
X97914199Y-103575000D02*
X97650000Y-103310801D01*
X104140000Y-99210000D02*
X104140000Y-98935000D01*
X102105600Y-101244400D02*
X104140000Y-99210000D01*
X97650000Y-102250000D02*
X98655600Y-101244400D01*
X98425000Y-103575000D02*
X97914199Y-103575000D01*
%TO.N,/INTB*%
X108407200Y-100531200D02*
X108544198Y-100668198D01*
X107354000Y-100500000D02*
X107385200Y-100531200D01*
X108544198Y-100668198D02*
X112640001Y-100668198D01*
X107385200Y-100531200D02*
X108407200Y-100531200D01*
%TO.N,/PowerSection/STAT*%
X91075000Y-94450000D02*
X91445000Y-94450000D01*
X92374419Y-95379419D02*
X92953873Y-95379419D01*
X91445000Y-94450000D02*
X92374419Y-95379419D01*
%TO.N,/PowerSection/PROG*%
X91464419Y-97269419D02*
X93088873Y-97269419D01*
X91445000Y-97250000D02*
X91464419Y-97269419D01*
X91075000Y-97250000D02*
X91445000Y-97250000D01*
%TD*%
M02*
