%TF.GenerationSoftware,KiCad,Pcbnew,9.0.3*%
%TF.CreationDate,2025-09-07T12:19:25+02:00*%
%TF.ProjectId,LoTiBloxy,4c6f5469-426c-46f7-9879-2e6b69636164,rev?*%
%TF.SameCoordinates,Original*%
%TF.FileFunction,Copper,L2,Bot*%
%TF.FilePolarity,Positive*%
%FSLAX46Y46*%
G04 Gerber Fmt 4.6, Leading zero omitted, Abs format (unit mm)*
G04 Created by KiCad (PCBNEW 9.0.3) date 2025-09-07 12:19:25*
%MOMM*%
%LPD*%
G01*
G04 APERTURE LIST*
%TA.AperFunction,ComponentPad*%
%ADD10C,0.600000*%
%TD*%
%TA.AperFunction,ComponentPad*%
%ADD11O,2.108200X1.422400*%
%TD*%
%TA.AperFunction,ViaPad*%
%ADD12C,0.670000*%
%TD*%
%TA.AperFunction,Conductor*%
%ADD13C,0.200000*%
%TD*%
G04 APERTURE END LIST*
D10*
%TO.P,U2,33,EGP*%
%TO.N,GND*%
X115565000Y-99268196D03*
X114540000Y-100318196D03*
X114540000Y-98218196D03*
X114539997Y-99268196D03*
X113465000Y-99268196D03*
%TD*%
D11*
%TO.P,J3,6,Shield*%
%TO.N,GND*%
X82829299Y-97625000D03*
X82829299Y-105525000D03*
%TD*%
D12*
%TO.N,GND*%
X96174700Y-100975300D03*
X95325000Y-101750000D03*
X92850000Y-104250000D03*
X84375000Y-105525000D03*
X124495000Y-97955000D03*
X85450000Y-97750000D03*
X87050000Y-99100000D03*
X120000000Y-91875000D03*
X91650000Y-93000000D03*
X96250000Y-107600000D03*
X95321600Y-106771600D03*
X113300000Y-93738196D03*
X106400000Y-105750000D03*
X126150000Y-102725000D03*
X114525000Y-104925000D03*
X120950000Y-101900000D03*
X131075000Y-103900000D03*
X111000000Y-105150000D03*
X98166800Y-96316800D03*
X103775000Y-104200000D03*
X115640000Y-92410000D03*
X82850000Y-95950000D03*
X123700000Y-86800000D03*
X124500000Y-96300000D03*
X100875000Y-94350000D03*
X93200000Y-91200000D03*
X90450000Y-100600000D03*
X116700000Y-93700000D03*
X102880000Y-103105000D03*
X93175000Y-88975000D03*
X123250000Y-95200000D03*
X94300000Y-94000000D03*
X114350000Y-92700000D03*
X99475000Y-97325000D03*
X119585000Y-106050001D03*
X119845000Y-102795000D03*
X124600000Y-102800000D03*
X90000000Y-88975000D03*
X93250000Y-93200000D03*
X98960000Y-95140000D03*
X81225000Y-100375000D03*
X112050000Y-105850000D03*
X82850000Y-103850000D03*
X128250000Y-102800000D03*
X93088873Y-99038873D03*
X87200000Y-100250000D03*
X93975000Y-105374400D03*
X82800000Y-106825000D03*
X82850000Y-99400000D03*
X105475000Y-87600000D03*
X123245000Y-98895000D03*
X110375000Y-103896400D03*
X81200000Y-102700000D03*
X86732618Y-104056948D03*
X94350000Y-92250000D03*
X110175000Y-84575000D03*
X127250000Y-103650000D03*
X122301804Y-102798196D03*
X121900000Y-94700000D03*
X91850000Y-99650000D03*
X103250000Y-91850000D03*
X123390000Y-103640000D03*
X101600000Y-106000000D03*
X85400000Y-105150000D03*
X93975000Y-102991294D03*
X94300000Y-90200000D03*
X103250000Y-93475000D03*
X113600000Y-105850000D03*
X109480000Y-103080000D03*
X81000000Y-97600000D03*
%TO.N,/VLED*%
X95376600Y-100406600D03*
X96331902Y-99451298D03*
%TO.N,/VDD_1V8*%
X117150000Y-101400000D03*
X114550000Y-102300000D03*
X116725000Y-102500000D03*
X107500000Y-104565000D03*
X115800000Y-96450000D03*
X107450000Y-103215000D03*
%TO.N,/MCU/batCheck*%
X104650000Y-101200000D03*
X101281475Y-100025000D03*
%TO.N,/SDA*%
X106000000Y-99100000D03*
X107430000Y-99100000D03*
%TO.N,/SCL*%
X105950000Y-97375000D03*
X108090000Y-97400000D03*
%TO.N,/INTB*%
X106000000Y-100475000D03*
X107354000Y-100500000D03*
%TD*%
D13*
%TO.N,/SCL*%
X105975000Y-97400000D02*
X105950000Y-97375000D01*
X108090000Y-97400000D02*
X105975000Y-97400000D01*
%TO.N,/INTB*%
X106025000Y-100500000D02*
X106000000Y-100475000D01*
X107354000Y-100500000D02*
X106025000Y-100500000D01*
%TO.N,/SDA*%
X107430000Y-99100000D02*
X106000000Y-99100000D01*
%TO.N,/VDD_1V8*%
X117043200Y-97231200D02*
X116262000Y-96450000D01*
X117150000Y-101400000D02*
X117043200Y-101293200D01*
X117043200Y-101293200D02*
X117043200Y-97231200D01*
X116262000Y-96450000D02*
X115800000Y-96450000D01*
X116704509Y-102379509D02*
X114819507Y-102379509D01*
X116725000Y-102400000D02*
X116704509Y-102379509D01*
X116725000Y-102500000D02*
X116725000Y-102400000D01*
X114819507Y-102379509D02*
X114739998Y-102300000D01*
X114739998Y-102300000D02*
X114550000Y-102300000D01*
%TO.N,/VLED*%
X96331902Y-99451298D02*
X95376600Y-100406600D01*
%TO.N,/VDD_1V8*%
X107500000Y-103650000D02*
X107500000Y-104565000D01*
X107450000Y-103215000D02*
X107450000Y-103600000D01*
X107450000Y-103600000D02*
X107500000Y-103650000D01*
%TO.N,/MCU/batCheck*%
X103475000Y-100025000D02*
X101281475Y-100025000D01*
X104650000Y-101200000D02*
X103475000Y-100025000D01*
%TD*%
%TA.AperFunction,Conductor*%
%TO.N,GND*%
G36*
X95015677Y-82644685D02*
G01*
X95036319Y-82661319D01*
X95175000Y-82800000D01*
X126000000Y-82800000D01*
X126013681Y-82786319D01*
X126075004Y-82752834D01*
X126101362Y-82750000D01*
X131826000Y-82750000D01*
X131893039Y-82769685D01*
X131938794Y-82822489D01*
X131950000Y-82874000D01*
X131950000Y-108026000D01*
X131930315Y-108093039D01*
X131877511Y-108138794D01*
X131826000Y-108150000D01*
X79674000Y-108150000D01*
X79606961Y-108130315D01*
X79561206Y-108077511D01*
X79550000Y-108026000D01*
X79550000Y-105275000D01*
X81299699Y-105275000D01*
X82309811Y-105275000D01*
X82299247Y-105281099D01*
X82242498Y-105337848D01*
X82202371Y-105407352D01*
X82181599Y-105484872D01*
X82181599Y-105565128D01*
X82202371Y-105642648D01*
X82242498Y-105712152D01*
X82299247Y-105768901D01*
X82309811Y-105775000D01*
X81299699Y-105775000D01*
X81305025Y-105808630D01*
X81363934Y-105989936D01*
X81450488Y-106159807D01*
X81562550Y-106314045D01*
X81562550Y-106314046D01*
X81697352Y-106448848D01*
X81851591Y-106560910D01*
X82021462Y-106647464D01*
X82202772Y-106706375D01*
X82391077Y-106736200D01*
X82579299Y-106736200D01*
X82579299Y-105829800D01*
X83079299Y-105829800D01*
X83079299Y-106736200D01*
X83267521Y-106736200D01*
X83455823Y-106706375D01*
X83455826Y-106706375D01*
X83637135Y-106647464D01*
X83807006Y-106560910D01*
X83961244Y-106448848D01*
X83961245Y-106448848D01*
X84096047Y-106314046D01*
X84096047Y-106314045D01*
X84208109Y-106159807D01*
X84294663Y-105989936D01*
X84353572Y-105808630D01*
X84358899Y-105775000D01*
X83348787Y-105775000D01*
X83359351Y-105768901D01*
X83416100Y-105712152D01*
X83456227Y-105642648D01*
X83476999Y-105565128D01*
X83476999Y-105484872D01*
X83456227Y-105407352D01*
X83416100Y-105337848D01*
X83359351Y-105281099D01*
X83348787Y-105275000D01*
X84358899Y-105275000D01*
X84353572Y-105241369D01*
X84294663Y-105060063D01*
X84208109Y-104890192D01*
X84096047Y-104735954D01*
X84096047Y-104735953D01*
X83961245Y-104601151D01*
X83807006Y-104489089D01*
X83637135Y-104402535D01*
X83455825Y-104343624D01*
X83267521Y-104313800D01*
X83079299Y-104313800D01*
X83079299Y-105220200D01*
X82579299Y-105220200D01*
X82579299Y-104313800D01*
X82391077Y-104313800D01*
X82202774Y-104343624D01*
X82202771Y-104343624D01*
X82021462Y-104402535D01*
X81851591Y-104489089D01*
X81697353Y-104601151D01*
X81697352Y-104601151D01*
X81562550Y-104735953D01*
X81562550Y-104735954D01*
X81450488Y-104890192D01*
X81363934Y-105060063D01*
X81305025Y-105241369D01*
X81299699Y-105275000D01*
X79550000Y-105275000D01*
X79550000Y-103144500D01*
X106914500Y-103144500D01*
X106914500Y-103285499D01*
X106950993Y-103421694D01*
X106950994Y-103421697D01*
X107021490Y-103543801D01*
X107021492Y-103543804D01*
X107021493Y-103543805D01*
X107121195Y-103643507D01*
X107121198Y-103643509D01*
X107124764Y-103646245D01*
X107161474Y-103691821D01*
X107166185Y-103701833D01*
X107169979Y-103715989D01*
X107185489Y-103742853D01*
X107187698Y-103747547D01*
X107190940Y-103768403D01*
X107199500Y-103800346D01*
X107199500Y-104056826D01*
X107179815Y-104123865D01*
X107163181Y-104144507D01*
X107071494Y-104236193D01*
X107071490Y-104236198D01*
X107000994Y-104358302D01*
X107000993Y-104358305D01*
X106964500Y-104494500D01*
X106964500Y-104635500D01*
X106991417Y-104735954D01*
X107000993Y-104771694D01*
X107000994Y-104771697D01*
X107071490Y-104893801D01*
X107071492Y-104893804D01*
X107071493Y-104893805D01*
X107171195Y-104993507D01*
X107293305Y-105064007D01*
X107429500Y-105100500D01*
X107429502Y-105100500D01*
X107570498Y-105100500D01*
X107570500Y-105100500D01*
X107706695Y-105064007D01*
X107828805Y-104993507D01*
X107928507Y-104893805D01*
X107999007Y-104771695D01*
X108035500Y-104635500D01*
X108035500Y-104494500D01*
X107999007Y-104358305D01*
X107928507Y-104236195D01*
X107836819Y-104144507D01*
X107803334Y-104083184D01*
X107800500Y-104056826D01*
X107800500Y-103673174D01*
X107820185Y-103606135D01*
X107836819Y-103585493D01*
X107878507Y-103543805D01*
X107949007Y-103421695D01*
X107985500Y-103285500D01*
X107985500Y-103144500D01*
X107949007Y-103008305D01*
X107878507Y-102886195D01*
X107778805Y-102786493D01*
X107778804Y-102786492D01*
X107778801Y-102786490D01*
X107656697Y-102715994D01*
X107656696Y-102715993D01*
X107656695Y-102715993D01*
X107520500Y-102679500D01*
X107379500Y-102679500D01*
X107243305Y-102715993D01*
X107243302Y-102715994D01*
X107121198Y-102786490D01*
X107121193Y-102786494D01*
X107021494Y-102886193D01*
X107021490Y-102886198D01*
X106950994Y-103008302D01*
X106950993Y-103008305D01*
X106914500Y-103144500D01*
X79550000Y-103144500D01*
X79550000Y-102229500D01*
X114014500Y-102229500D01*
X114014500Y-102370500D01*
X114030310Y-102429502D01*
X114050993Y-102506694D01*
X114050994Y-102506697D01*
X114121490Y-102628801D01*
X114121492Y-102628804D01*
X114121493Y-102628805D01*
X114221195Y-102728507D01*
X114343305Y-102799007D01*
X114479500Y-102835500D01*
X114479502Y-102835500D01*
X114620498Y-102835500D01*
X114620500Y-102835500D01*
X114756695Y-102799007D01*
X114878805Y-102728507D01*
X114890984Y-102716328D01*
X114952307Y-102682843D01*
X114978665Y-102680009D01*
X116138994Y-102680009D01*
X116206033Y-102699694D01*
X116246381Y-102742009D01*
X116296490Y-102828801D01*
X116296492Y-102828804D01*
X116296493Y-102828805D01*
X116396195Y-102928507D01*
X116518305Y-102999007D01*
X116654500Y-103035500D01*
X116654502Y-103035500D01*
X116795498Y-103035500D01*
X116795500Y-103035500D01*
X116931695Y-102999007D01*
X117053805Y-102928507D01*
X117153507Y-102828805D01*
X117224007Y-102706695D01*
X117260500Y-102570500D01*
X117260500Y-102429500D01*
X117224007Y-102293305D01*
X117153507Y-102171195D01*
X117129493Y-102147181D01*
X117096008Y-102085858D01*
X117100992Y-102016166D01*
X117142864Y-101960233D01*
X117208328Y-101935816D01*
X117217174Y-101935500D01*
X117220498Y-101935500D01*
X117220500Y-101935500D01*
X117356695Y-101899007D01*
X117478805Y-101828507D01*
X117578507Y-101728805D01*
X117649007Y-101606695D01*
X117685500Y-101470500D01*
X117685500Y-101329500D01*
X117649007Y-101193305D01*
X117603495Y-101114475D01*
X117578509Y-101071198D01*
X117578505Y-101071193D01*
X117478806Y-100971494D01*
X117478801Y-100971490D01*
X117405700Y-100929285D01*
X117357484Y-100878718D01*
X117343700Y-100821898D01*
X117343700Y-97191640D01*
X117343700Y-97191638D01*
X117329525Y-97138737D01*
X117323222Y-97115212D01*
X117283660Y-97046689D01*
X116446511Y-96209540D01*
X116446509Y-96209539D01*
X116446504Y-96209535D01*
X116377995Y-96169982D01*
X116377990Y-96169979D01*
X116301559Y-96149499D01*
X116293503Y-96148439D01*
X116293914Y-96145312D01*
X116241135Y-96129815D01*
X116220493Y-96113181D01*
X116128806Y-96021494D01*
X116128801Y-96021490D01*
X116006697Y-95950994D01*
X116006696Y-95950993D01*
X116006695Y-95950993D01*
X115870500Y-95914500D01*
X115729500Y-95914500D01*
X115593305Y-95950993D01*
X115593302Y-95950994D01*
X115471198Y-96021490D01*
X115471193Y-96021494D01*
X115371494Y-96121193D01*
X115371490Y-96121198D01*
X115300994Y-96243302D01*
X115300993Y-96243305D01*
X115264500Y-96379500D01*
X115264500Y-96520499D01*
X115300993Y-96656694D01*
X115300994Y-96656697D01*
X115371490Y-96778801D01*
X115371492Y-96778804D01*
X115371493Y-96778805D01*
X115471195Y-96878507D01*
X115471196Y-96878508D01*
X115471198Y-96878509D01*
X115510142Y-96900993D01*
X115593305Y-96949007D01*
X115729500Y-96985500D01*
X115729502Y-96985500D01*
X115870498Y-96985500D01*
X115870500Y-96985500D01*
X116006695Y-96949007D01*
X116128805Y-96878507D01*
X116128805Y-96878506D01*
X116133088Y-96876034D01*
X116200988Y-96859561D01*
X116267015Y-96882414D01*
X116282769Y-96895740D01*
X116706381Y-97319352D01*
X116739866Y-97380675D01*
X116742700Y-97407033D01*
X116742700Y-101001465D01*
X116724474Y-101063532D01*
X116725556Y-101064157D01*
X116650994Y-101193302D01*
X116650993Y-101193305D01*
X116614500Y-101329500D01*
X116614500Y-101470499D01*
X116650993Y-101606694D01*
X116650994Y-101606697D01*
X116721490Y-101728801D01*
X116721494Y-101728806D01*
X116745507Y-101752819D01*
X116778992Y-101814142D01*
X116774008Y-101883834D01*
X116732136Y-101939767D01*
X116666672Y-101964184D01*
X116657826Y-101964500D01*
X116654500Y-101964500D01*
X116518305Y-102000993D01*
X116518302Y-102000994D01*
X116411951Y-102062396D01*
X116349951Y-102079009D01*
X115112345Y-102079009D01*
X115045306Y-102059324D01*
X115004958Y-102017009D01*
X114978509Y-101971198D01*
X114978505Y-101971193D01*
X114878806Y-101871494D01*
X114878801Y-101871490D01*
X114756697Y-101800994D01*
X114756696Y-101800993D01*
X114756695Y-101800993D01*
X114620500Y-101764500D01*
X114479500Y-101764500D01*
X114343305Y-101800993D01*
X114343302Y-101800994D01*
X114221198Y-101871490D01*
X114221193Y-101871494D01*
X114121494Y-101971193D01*
X114121490Y-101971198D01*
X114050994Y-102093302D01*
X114050993Y-102093305D01*
X114014500Y-102229500D01*
X79550000Y-102229500D01*
X79550000Y-100336100D01*
X94841100Y-100336100D01*
X94841100Y-100477100D01*
X94863447Y-100560499D01*
X94877593Y-100613294D01*
X94877594Y-100613297D01*
X94948090Y-100735401D01*
X94948092Y-100735404D01*
X94948093Y-100735405D01*
X95047795Y-100835107D01*
X95047796Y-100835108D01*
X95047798Y-100835109D01*
X95050760Y-100836819D01*
X95169905Y-100905607D01*
X95306100Y-100942100D01*
X95306102Y-100942100D01*
X95447098Y-100942100D01*
X95447100Y-100942100D01*
X95583295Y-100905607D01*
X95705405Y-100835107D01*
X95805107Y-100735405D01*
X95875607Y-100613295D01*
X95912100Y-100477100D01*
X95912100Y-100347432D01*
X95931785Y-100280393D01*
X95948419Y-100259751D01*
X96185053Y-100023117D01*
X96246376Y-99989632D01*
X96272734Y-99986798D01*
X96402400Y-99986798D01*
X96402402Y-99986798D01*
X96522941Y-99954500D01*
X100745975Y-99954500D01*
X100745975Y-100095500D01*
X100773842Y-100199500D01*
X100782468Y-100231694D01*
X100782469Y-100231697D01*
X100852965Y-100353801D01*
X100852967Y-100353804D01*
X100852968Y-100353805D01*
X100952670Y-100453507D01*
X101074780Y-100524007D01*
X101210975Y-100560500D01*
X101210977Y-100560500D01*
X101351973Y-100560500D01*
X101351975Y-100560500D01*
X101488170Y-100524007D01*
X101610280Y-100453507D01*
X101701968Y-100361819D01*
X101763291Y-100328334D01*
X101789649Y-100325500D01*
X103299167Y-100325500D01*
X103366206Y-100345185D01*
X103386848Y-100361819D01*
X104078181Y-101053152D01*
X104111666Y-101114475D01*
X104114500Y-101140833D01*
X104114500Y-101270500D01*
X104130310Y-101329502D01*
X104150993Y-101406694D01*
X104150994Y-101406697D01*
X104221490Y-101528801D01*
X104221492Y-101528804D01*
X104221493Y-101528805D01*
X104321195Y-101628507D01*
X104443305Y-101699007D01*
X104579500Y-101735500D01*
X104579502Y-101735500D01*
X104720498Y-101735500D01*
X104720500Y-101735500D01*
X104856695Y-101699007D01*
X104978805Y-101628507D01*
X105078507Y-101528805D01*
X105149007Y-101406695D01*
X105185500Y-101270500D01*
X105185500Y-101129500D01*
X105149007Y-100993305D01*
X105098374Y-100905605D01*
X105078509Y-100871198D01*
X105078505Y-100871193D01*
X104978806Y-100771494D01*
X104978801Y-100771490D01*
X104856697Y-100700994D01*
X104856696Y-100700993D01*
X104856695Y-100700993D01*
X104720500Y-100664500D01*
X104590833Y-100664500D01*
X104561392Y-100655855D01*
X104531406Y-100649332D01*
X104526390Y-100645577D01*
X104523794Y-100644815D01*
X104503152Y-100628181D01*
X104279471Y-100404500D01*
X105464500Y-100404500D01*
X105464500Y-100545500D01*
X105494070Y-100655855D01*
X105500993Y-100681694D01*
X105500994Y-100681697D01*
X105571490Y-100803801D01*
X105571492Y-100803804D01*
X105571493Y-100803805D01*
X105671195Y-100903507D01*
X105671196Y-100903508D01*
X105671198Y-100903509D01*
X105674832Y-100905607D01*
X105793305Y-100974007D01*
X105929500Y-101010500D01*
X105929502Y-101010500D01*
X106070498Y-101010500D01*
X106070500Y-101010500D01*
X106206695Y-100974007D01*
X106328805Y-100903507D01*
X106395494Y-100836818D01*
X106456818Y-100803334D01*
X106483175Y-100800500D01*
X106845826Y-100800500D01*
X106912865Y-100820185D01*
X106933506Y-100836818D01*
X107025195Y-100928507D01*
X107025196Y-100928508D01*
X107025198Y-100928509D01*
X107048737Y-100942099D01*
X107147305Y-100999007D01*
X107283500Y-101035500D01*
X107283502Y-101035500D01*
X107424498Y-101035500D01*
X107424500Y-101035500D01*
X107429945Y-101034041D01*
X114177706Y-101034041D01*
X114306652Y-101087453D01*
X114306656Y-101087454D01*
X114461202Y-101118195D01*
X114461206Y-101118196D01*
X114618794Y-101118196D01*
X114618797Y-101118195D01*
X114773343Y-101087454D01*
X114773347Y-101087453D01*
X114902293Y-101034041D01*
X114540001Y-100671749D01*
X114540000Y-100671749D01*
X114177706Y-101034041D01*
X107429945Y-101034041D01*
X107560695Y-100999007D01*
X107682805Y-100928507D01*
X107782507Y-100828805D01*
X107853007Y-100706695D01*
X107889500Y-100570500D01*
X107889500Y-100429500D01*
X107853007Y-100293305D01*
X107787484Y-100179815D01*
X107782509Y-100171198D01*
X107782505Y-100171193D01*
X107682806Y-100071494D01*
X107682801Y-100071490D01*
X107646642Y-100050614D01*
X107560697Y-100000994D01*
X107560696Y-100000993D01*
X107560695Y-100000993D01*
X107497429Y-99984041D01*
X113102706Y-99984041D01*
X113231652Y-100037453D01*
X113231656Y-100037454D01*
X113386202Y-100068195D01*
X113386206Y-100068196D01*
X113543794Y-100068196D01*
X113543794Y-100068195D01*
X113601526Y-100056712D01*
X113671118Y-100062939D01*
X113726295Y-100105801D01*
X113749540Y-100171691D01*
X113747336Y-100202518D01*
X113740000Y-100239402D01*
X113740000Y-100396993D01*
X113770741Y-100551539D01*
X113770743Y-100551547D01*
X113824153Y-100680489D01*
X114186446Y-100318196D01*
X114156609Y-100288359D01*
X114390000Y-100288359D01*
X114390000Y-100348033D01*
X114412836Y-100403164D01*
X114455032Y-100445360D01*
X114510163Y-100468196D01*
X114569837Y-100468196D01*
X114624968Y-100445360D01*
X114667164Y-100403164D01*
X114690000Y-100348033D01*
X114690000Y-100318196D01*
X114893553Y-100318196D01*
X115255845Y-100680489D01*
X115309257Y-100551543D01*
X115309258Y-100551539D01*
X115339999Y-100396993D01*
X115340000Y-100396990D01*
X115340000Y-100239404D01*
X115334723Y-100212878D01*
X115340949Y-100143286D01*
X115383811Y-100088108D01*
X115449700Y-100064862D01*
X115480536Y-100067068D01*
X115486205Y-100068195D01*
X115486206Y-100068196D01*
X115643794Y-100068196D01*
X115643797Y-100068195D01*
X115798343Y-100037454D01*
X115798347Y-100037453D01*
X115927293Y-99984041D01*
X115565000Y-99621749D01*
X115350927Y-99835821D01*
X115342201Y-99865540D01*
X115325567Y-99886182D01*
X114893553Y-100318196D01*
X114690000Y-100318196D01*
X114690000Y-100288359D01*
X114667164Y-100233228D01*
X114624968Y-100191032D01*
X114569837Y-100168196D01*
X114510163Y-100168196D01*
X114455032Y-100191032D01*
X114412836Y-100233228D01*
X114390000Y-100288359D01*
X114156609Y-100288359D01*
X113947371Y-100079121D01*
X113917655Y-100070396D01*
X113897013Y-100053762D01*
X113673140Y-99829889D01*
X113636444Y-99793193D01*
X114368871Y-99793193D01*
X114540028Y-99964613D01*
X114711445Y-99793197D01*
X114711445Y-99793196D01*
X114540025Y-99621777D01*
X114368871Y-99793193D01*
X113636444Y-99793193D01*
X113465001Y-99621749D01*
X113465000Y-99621749D01*
X113102706Y-99984041D01*
X107497429Y-99984041D01*
X107424500Y-99964500D01*
X107283500Y-99964500D01*
X107147305Y-100000993D01*
X107147302Y-100000994D01*
X107025198Y-100071490D01*
X107025193Y-100071494D01*
X106933507Y-100163181D01*
X106872184Y-100196666D01*
X106845826Y-100199500D01*
X106530559Y-100199500D01*
X106463520Y-100179815D01*
X106432183Y-100150986D01*
X106428505Y-100146193D01*
X106328806Y-100046494D01*
X106328801Y-100046490D01*
X106206697Y-99975994D01*
X106206696Y-99975993D01*
X106206695Y-99975993D01*
X106070500Y-99939500D01*
X105929500Y-99939500D01*
X105793305Y-99975993D01*
X105793302Y-99975994D01*
X105671198Y-100046490D01*
X105671193Y-100046494D01*
X105571494Y-100146193D01*
X105571490Y-100146198D01*
X105500994Y-100268302D01*
X105500993Y-100268305D01*
X105464500Y-100404500D01*
X104279471Y-100404500D01*
X103659513Y-99784542D01*
X103659511Y-99784540D01*
X103651826Y-99780103D01*
X103651825Y-99780102D01*
X103590991Y-99744980D01*
X103590990Y-99744979D01*
X103565513Y-99738152D01*
X103514562Y-99724500D01*
X103514560Y-99724500D01*
X101789649Y-99724500D01*
X101722610Y-99704815D01*
X101701968Y-99688181D01*
X101610281Y-99596494D01*
X101610276Y-99596490D01*
X101488172Y-99525994D01*
X101488171Y-99525993D01*
X101488170Y-99525993D01*
X101351975Y-99489500D01*
X101210975Y-99489500D01*
X101074780Y-99525993D01*
X101074777Y-99525994D01*
X100952673Y-99596490D01*
X100952668Y-99596494D01*
X100852969Y-99696193D01*
X100852965Y-99696198D01*
X100782469Y-99818302D01*
X100782468Y-99818305D01*
X100745975Y-99954500D01*
X96522941Y-99954500D01*
X96538597Y-99950305D01*
X96660707Y-99879805D01*
X96760409Y-99780103D01*
X96830909Y-99657993D01*
X96867402Y-99521798D01*
X96867402Y-99380798D01*
X96830909Y-99244603D01*
X96788125Y-99170498D01*
X96760411Y-99122496D01*
X96760407Y-99122491D01*
X96667416Y-99029500D01*
X105464500Y-99029500D01*
X105464500Y-99170500D01*
X105490678Y-99268196D01*
X105500993Y-99306694D01*
X105500994Y-99306697D01*
X105571490Y-99428801D01*
X105571492Y-99428804D01*
X105571493Y-99428805D01*
X105671195Y-99528507D01*
X105793305Y-99599007D01*
X105929500Y-99635500D01*
X105929502Y-99635500D01*
X106070498Y-99635500D01*
X106070500Y-99635500D01*
X106206695Y-99599007D01*
X106328805Y-99528507D01*
X106420493Y-99436819D01*
X106481816Y-99403334D01*
X106508174Y-99400500D01*
X106921826Y-99400500D01*
X106988865Y-99420185D01*
X107009507Y-99436819D01*
X107101195Y-99528507D01*
X107223305Y-99599007D01*
X107359500Y-99635500D01*
X107359502Y-99635500D01*
X107500498Y-99635500D01*
X107500500Y-99635500D01*
X107636695Y-99599007D01*
X107758805Y-99528507D01*
X107858507Y-99428805D01*
X107929007Y-99306695D01*
X107960436Y-99189398D01*
X112665000Y-99189398D01*
X112665000Y-99346993D01*
X112695741Y-99501539D01*
X112695743Y-99501547D01*
X112749153Y-99630489D01*
X113111446Y-99268197D01*
X113111446Y-99268195D01*
X113081610Y-99238359D01*
X113315000Y-99238359D01*
X113315000Y-99298033D01*
X113337836Y-99353164D01*
X113380032Y-99395360D01*
X113435163Y-99418196D01*
X113494837Y-99418196D01*
X113549968Y-99395360D01*
X113592164Y-99353164D01*
X113615000Y-99298033D01*
X113615000Y-99268196D01*
X113818553Y-99268196D01*
X114002498Y-99452141D01*
X114186443Y-99268196D01*
X114156606Y-99238359D01*
X114389997Y-99238359D01*
X114389997Y-99298033D01*
X114412833Y-99353164D01*
X114455029Y-99395360D01*
X114510160Y-99418196D01*
X114569834Y-99418196D01*
X114624965Y-99395360D01*
X114667161Y-99353164D01*
X114689997Y-99298033D01*
X114689997Y-99268196D01*
X114893550Y-99268196D01*
X115052498Y-99427144D01*
X115211446Y-99268196D01*
X115181609Y-99238359D01*
X115415000Y-99238359D01*
X115415000Y-99298033D01*
X115437836Y-99353164D01*
X115480032Y-99395360D01*
X115535163Y-99418196D01*
X115594837Y-99418196D01*
X115649968Y-99395360D01*
X115692164Y-99353164D01*
X115715000Y-99298033D01*
X115715000Y-99268195D01*
X115918553Y-99268195D01*
X115918553Y-99268197D01*
X116280845Y-99630489D01*
X116334257Y-99501543D01*
X116334258Y-99501539D01*
X116364999Y-99346993D01*
X116365000Y-99346990D01*
X116365000Y-99189402D01*
X116364999Y-99189398D01*
X116334258Y-99034852D01*
X116334257Y-99034848D01*
X116280845Y-98905902D01*
X115918553Y-99268195D01*
X115715000Y-99268195D01*
X115715000Y-99238359D01*
X115692164Y-99183228D01*
X115649968Y-99141032D01*
X115594837Y-99118196D01*
X115535163Y-99118196D01*
X115480032Y-99141032D01*
X115437836Y-99183228D01*
X115415000Y-99238359D01*
X115181609Y-99238359D01*
X115052498Y-99109247D01*
X114893550Y-99268196D01*
X114689997Y-99268196D01*
X114689997Y-99238359D01*
X114667161Y-99183228D01*
X114624965Y-99141032D01*
X114569834Y-99118196D01*
X114510160Y-99118196D01*
X114455029Y-99141032D01*
X114412833Y-99183228D01*
X114389997Y-99238359D01*
X114156606Y-99238359D01*
X114002498Y-99084250D01*
X113818553Y-99268196D01*
X113615000Y-99268196D01*
X113615000Y-99238359D01*
X113592164Y-99183228D01*
X113549968Y-99141032D01*
X113494837Y-99118196D01*
X113435163Y-99118196D01*
X113380032Y-99141032D01*
X113337836Y-99183228D01*
X113315000Y-99238359D01*
X113081610Y-99238359D01*
X112749153Y-98905901D01*
X112695743Y-99034844D01*
X112695741Y-99034852D01*
X112665000Y-99189398D01*
X107960436Y-99189398D01*
X107965500Y-99170500D01*
X107965500Y-99029500D01*
X107929007Y-98893305D01*
X107858507Y-98771195D01*
X107758805Y-98671493D01*
X107758804Y-98671492D01*
X107758801Y-98671490D01*
X107636697Y-98600994D01*
X107636696Y-98600993D01*
X107636695Y-98600993D01*
X107500500Y-98564500D01*
X107359500Y-98564500D01*
X107223305Y-98600993D01*
X107223302Y-98600994D01*
X107101198Y-98671490D01*
X107101193Y-98671494D01*
X107009507Y-98763181D01*
X106948184Y-98796666D01*
X106921826Y-98799500D01*
X106508174Y-98799500D01*
X106441135Y-98779815D01*
X106420493Y-98763181D01*
X106328806Y-98671494D01*
X106328801Y-98671490D01*
X106206697Y-98600994D01*
X106206696Y-98600993D01*
X106206695Y-98600993D01*
X106070500Y-98564500D01*
X105929500Y-98564500D01*
X105793305Y-98600993D01*
X105793302Y-98600994D01*
X105671198Y-98671490D01*
X105671193Y-98671494D01*
X105571494Y-98771193D01*
X105571490Y-98771198D01*
X105500994Y-98893302D01*
X105500993Y-98893305D01*
X105464500Y-99029500D01*
X96667416Y-99029500D01*
X96660708Y-99022792D01*
X96660703Y-99022788D01*
X96538599Y-98952292D01*
X96538598Y-98952291D01*
X96538597Y-98952291D01*
X96402402Y-98915798D01*
X96261402Y-98915798D01*
X96125207Y-98952291D01*
X96125204Y-98952292D01*
X96003100Y-99022788D01*
X96003095Y-99022792D01*
X95903396Y-99122491D01*
X95903392Y-99122496D01*
X95832896Y-99244600D01*
X95832895Y-99244603D01*
X95796402Y-99380798D01*
X95796402Y-99510464D01*
X95776717Y-99577503D01*
X95760083Y-99598145D01*
X95523447Y-99834781D01*
X95462124Y-99868266D01*
X95435766Y-99871100D01*
X95306100Y-99871100D01*
X95169905Y-99907593D01*
X95169902Y-99907594D01*
X95047798Y-99978090D01*
X95047793Y-99978094D01*
X94948094Y-100077793D01*
X94948090Y-100077798D01*
X94877594Y-100199902D01*
X94877593Y-100199905D01*
X94841100Y-100336100D01*
X79550000Y-100336100D01*
X79550000Y-97375000D01*
X81299699Y-97375000D01*
X82309811Y-97375000D01*
X82299247Y-97381099D01*
X82242498Y-97437848D01*
X82202371Y-97507352D01*
X82181599Y-97584872D01*
X82181599Y-97665128D01*
X82202371Y-97742648D01*
X82242498Y-97812152D01*
X82299247Y-97868901D01*
X82309811Y-97875000D01*
X81299699Y-97875000D01*
X81305025Y-97908630D01*
X81363934Y-98089936D01*
X81450488Y-98259807D01*
X81562550Y-98414045D01*
X81562550Y-98414046D01*
X81697352Y-98548848D01*
X81851591Y-98660910D01*
X82021462Y-98747464D01*
X82202772Y-98806375D01*
X82391077Y-98836200D01*
X82579299Y-98836200D01*
X82579299Y-97929800D01*
X83079299Y-97929800D01*
X83079299Y-98836200D01*
X83267521Y-98836200D01*
X83455823Y-98806375D01*
X83455826Y-98806375D01*
X83637135Y-98747464D01*
X83807006Y-98660910D01*
X83956425Y-98552349D01*
X113102705Y-98552349D01*
X113464999Y-98914642D01*
X113636658Y-98742984D01*
X114368551Y-98742984D01*
X114368551Y-98743409D01*
X114539961Y-98914642D01*
X114539998Y-98914642D01*
X114711445Y-98743194D01*
X114711445Y-98743193D01*
X114540001Y-98571749D01*
X114539964Y-98571749D01*
X114368551Y-98742984D01*
X113636658Y-98742984D01*
X113775740Y-98603903D01*
X113897015Y-98482628D01*
X113952080Y-98452560D01*
X114186446Y-98218195D01*
X114156610Y-98188359D01*
X114390000Y-98188359D01*
X114390000Y-98248033D01*
X114412836Y-98303164D01*
X114455032Y-98345360D01*
X114510163Y-98368196D01*
X114569837Y-98368196D01*
X114624968Y-98345360D01*
X114667164Y-98303164D01*
X114690000Y-98248033D01*
X114690000Y-98218195D01*
X114893553Y-98218195D01*
X114893553Y-98218196D01*
X115325566Y-98650209D01*
X115355636Y-98705278D01*
X115565000Y-98914642D01*
X115927293Y-98552349D01*
X115798351Y-98498939D01*
X115798343Y-98498937D01*
X115643797Y-98468196D01*
X115486200Y-98468196D01*
X115480526Y-98469325D01*
X115410935Y-98463095D01*
X115355759Y-98420229D01*
X115332517Y-98354339D01*
X115334723Y-98323512D01*
X115340000Y-98296986D01*
X115340000Y-98139402D01*
X115339999Y-98139398D01*
X115309258Y-97984852D01*
X115309257Y-97984848D01*
X115255845Y-97855902D01*
X114893553Y-98218195D01*
X114690000Y-98218195D01*
X114690000Y-98188359D01*
X114667164Y-98133228D01*
X114624968Y-98091032D01*
X114569837Y-98068196D01*
X114510163Y-98068196D01*
X114455032Y-98091032D01*
X114412836Y-98133228D01*
X114390000Y-98188359D01*
X114156610Y-98188359D01*
X113824153Y-97855901D01*
X113770743Y-97984844D01*
X113770741Y-97984852D01*
X113740000Y-98139398D01*
X113740000Y-98296989D01*
X113747336Y-98333873D01*
X113741107Y-98403464D01*
X113698243Y-98458641D01*
X113632353Y-98481884D01*
X113601528Y-98479680D01*
X113543792Y-98468196D01*
X113386202Y-98468196D01*
X113231656Y-98498937D01*
X113231648Y-98498939D01*
X113102705Y-98552349D01*
X83956425Y-98552349D01*
X83961244Y-98548848D01*
X83961245Y-98548848D01*
X84096047Y-98414046D01*
X84096047Y-98414045D01*
X84208109Y-98259807D01*
X84294663Y-98089936D01*
X84353572Y-97908630D01*
X84358899Y-97875000D01*
X83348787Y-97875000D01*
X83359351Y-97868901D01*
X83416100Y-97812152D01*
X83456227Y-97742648D01*
X83476999Y-97665128D01*
X83476999Y-97584872D01*
X83456227Y-97507352D01*
X83416100Y-97437848D01*
X83359351Y-97381099D01*
X83348787Y-97375000D01*
X84358899Y-97375000D01*
X84353572Y-97341367D01*
X84351403Y-97334690D01*
X84341594Y-97304500D01*
X105414500Y-97304500D01*
X105414500Y-97445500D01*
X105432070Y-97511070D01*
X105450993Y-97581694D01*
X105450994Y-97581697D01*
X105521490Y-97703801D01*
X105521492Y-97703804D01*
X105521493Y-97703805D01*
X105621195Y-97803507D01*
X105621196Y-97803508D01*
X105621198Y-97803509D01*
X105664493Y-97828505D01*
X105743305Y-97874007D01*
X105879500Y-97910500D01*
X105879502Y-97910500D01*
X106020498Y-97910500D01*
X106020500Y-97910500D01*
X106156695Y-97874007D01*
X106278805Y-97803507D01*
X106345494Y-97736818D01*
X106406818Y-97703334D01*
X106433175Y-97700500D01*
X107581826Y-97700500D01*
X107648865Y-97720185D01*
X107669506Y-97736818D01*
X107761195Y-97828507D01*
X107883305Y-97899007D01*
X108019500Y-97935500D01*
X108019502Y-97935500D01*
X108160498Y-97935500D01*
X108160500Y-97935500D01*
X108296695Y-97899007D01*
X108418805Y-97828507D01*
X108518507Y-97728805D01*
X108589007Y-97606695D01*
X108616966Y-97502349D01*
X114177705Y-97502349D01*
X114540000Y-97864642D01*
X114540001Y-97864642D01*
X114902293Y-97502349D01*
X114773351Y-97448939D01*
X114773343Y-97448937D01*
X114618797Y-97418196D01*
X114461202Y-97418196D01*
X114306656Y-97448937D01*
X114306648Y-97448939D01*
X114177705Y-97502349D01*
X108616966Y-97502349D01*
X108625500Y-97470500D01*
X108625500Y-97329500D01*
X108589007Y-97193305D01*
X108518507Y-97071195D01*
X108418805Y-96971493D01*
X108418804Y-96971492D01*
X108418801Y-96971490D01*
X108296697Y-96900994D01*
X108296696Y-96900993D01*
X108296695Y-96900993D01*
X108160500Y-96864500D01*
X108019500Y-96864500D01*
X107883305Y-96900993D01*
X107883302Y-96900994D01*
X107761198Y-96971490D01*
X107761193Y-96971494D01*
X107669507Y-97063181D01*
X107608184Y-97096666D01*
X107581826Y-97099500D01*
X106480559Y-97099500D01*
X106413520Y-97079815D01*
X106382183Y-97050986D01*
X106378505Y-97046193D01*
X106278806Y-96946494D01*
X106278801Y-96946490D01*
X106156697Y-96875994D01*
X106156696Y-96875993D01*
X106156695Y-96875993D01*
X106020500Y-96839500D01*
X105879500Y-96839500D01*
X105743305Y-96875993D01*
X105743302Y-96875994D01*
X105621198Y-96946490D01*
X105621193Y-96946494D01*
X105521494Y-97046193D01*
X105521490Y-97046198D01*
X105450994Y-97168302D01*
X105450993Y-97168305D01*
X105414500Y-97304500D01*
X84341594Y-97304500D01*
X84294663Y-97160063D01*
X84208109Y-96990192D01*
X84096047Y-96835954D01*
X84096047Y-96835953D01*
X83961245Y-96701151D01*
X83807006Y-96589089D01*
X83637135Y-96502535D01*
X83455825Y-96443624D01*
X83267521Y-96413800D01*
X83079299Y-96413800D01*
X83079299Y-97320200D01*
X82579299Y-97320200D01*
X82579299Y-96413800D01*
X82391077Y-96413800D01*
X82202774Y-96443624D01*
X82202771Y-96443624D01*
X82021462Y-96502535D01*
X81851591Y-96589089D01*
X81697353Y-96701151D01*
X81697352Y-96701151D01*
X81562550Y-96835953D01*
X81562550Y-96835954D01*
X81450488Y-96990192D01*
X81363934Y-97160063D01*
X81305025Y-97341369D01*
X81299699Y-97375000D01*
X79550000Y-97375000D01*
X79550000Y-87742540D01*
X108174200Y-87742540D01*
X108174200Y-87889459D01*
X108202858Y-88033534D01*
X108202861Y-88033544D01*
X108259078Y-88169266D01*
X108259083Y-88169275D01*
X108340698Y-88291419D01*
X108340701Y-88291423D01*
X108444576Y-88395298D01*
X108444580Y-88395301D01*
X108566724Y-88476916D01*
X108566730Y-88476919D01*
X108566731Y-88476920D01*
X108702458Y-88533140D01*
X108846540Y-88561799D01*
X108846544Y-88561800D01*
X108846545Y-88561800D01*
X108993456Y-88561800D01*
X108993457Y-88561799D01*
X109137542Y-88533140D01*
X109273269Y-88476920D01*
X109395420Y-88395301D01*
X109499301Y-88291420D01*
X109580920Y-88169269D01*
X109637140Y-88033542D01*
X109665800Y-87889455D01*
X109665800Y-87742545D01*
X109637140Y-87598458D01*
X109580920Y-87462731D01*
X109580919Y-87462730D01*
X109580916Y-87462724D01*
X109499301Y-87340580D01*
X109499298Y-87340576D01*
X109395423Y-87236701D01*
X109395419Y-87236698D01*
X109273275Y-87155083D01*
X109273266Y-87155078D01*
X109137544Y-87098861D01*
X109137545Y-87098861D01*
X109137542Y-87098860D01*
X109137538Y-87098859D01*
X109137534Y-87098858D01*
X108993459Y-87070200D01*
X108993455Y-87070200D01*
X108846545Y-87070200D01*
X108846540Y-87070200D01*
X108702465Y-87098858D01*
X108702455Y-87098861D01*
X108566733Y-87155078D01*
X108566724Y-87155083D01*
X108444580Y-87236698D01*
X108444576Y-87236701D01*
X108340701Y-87340576D01*
X108340698Y-87340580D01*
X108259083Y-87462724D01*
X108259078Y-87462733D01*
X108202861Y-87598455D01*
X108202858Y-87598465D01*
X108174200Y-87742540D01*
X79550000Y-87742540D01*
X79550000Y-86726540D01*
X113254200Y-86726540D01*
X113254200Y-86873459D01*
X113282858Y-87017534D01*
X113282861Y-87017544D01*
X113339078Y-87153266D01*
X113339083Y-87153275D01*
X113420698Y-87275419D01*
X113420701Y-87275423D01*
X113524576Y-87379298D01*
X113524580Y-87379301D01*
X113646724Y-87460916D01*
X113646730Y-87460919D01*
X113646731Y-87460920D01*
X113782458Y-87517140D01*
X113926540Y-87545799D01*
X113926544Y-87545800D01*
X113926545Y-87545800D01*
X114073456Y-87545800D01*
X114073457Y-87545799D01*
X114217542Y-87517140D01*
X114353269Y-87460920D01*
X114475420Y-87379301D01*
X114579301Y-87275420D01*
X114660920Y-87153269D01*
X114717140Y-87017542D01*
X114745800Y-86873455D01*
X114745800Y-86726545D01*
X114717140Y-86582458D01*
X114660920Y-86446731D01*
X114660919Y-86446730D01*
X114660916Y-86446724D01*
X114579301Y-86324580D01*
X114579298Y-86324576D01*
X114475423Y-86220701D01*
X114475419Y-86220698D01*
X114353275Y-86139083D01*
X114353266Y-86139078D01*
X114217544Y-86082861D01*
X114217545Y-86082861D01*
X114217542Y-86082860D01*
X114217538Y-86082859D01*
X114217534Y-86082858D01*
X114073459Y-86054200D01*
X114073455Y-86054200D01*
X113926545Y-86054200D01*
X113926540Y-86054200D01*
X113782465Y-86082858D01*
X113782455Y-86082861D01*
X113646733Y-86139078D01*
X113646724Y-86139083D01*
X113524580Y-86220698D01*
X113524576Y-86220701D01*
X113420701Y-86324576D01*
X113420698Y-86324580D01*
X113339083Y-86446724D01*
X113339078Y-86446733D01*
X113282861Y-86582455D01*
X113282858Y-86582465D01*
X113254200Y-86726540D01*
X79550000Y-86726540D01*
X79550000Y-85710540D01*
X108174200Y-85710540D01*
X108174200Y-85857459D01*
X108202858Y-86001534D01*
X108202861Y-86001544D01*
X108259078Y-86137266D01*
X108259083Y-86137275D01*
X108340698Y-86259419D01*
X108340701Y-86259423D01*
X108444576Y-86363298D01*
X108444580Y-86363301D01*
X108566724Y-86444916D01*
X108566730Y-86444919D01*
X108566731Y-86444920D01*
X108702458Y-86501140D01*
X108846540Y-86529799D01*
X108846544Y-86529800D01*
X108846545Y-86529800D01*
X108993456Y-86529800D01*
X108993457Y-86529799D01*
X109137542Y-86501140D01*
X109273269Y-86444920D01*
X109395420Y-86363301D01*
X109499301Y-86259420D01*
X109580920Y-86137269D01*
X109637140Y-86001542D01*
X109665800Y-85857455D01*
X109665800Y-85710545D01*
X109637140Y-85566458D01*
X109588313Y-85448580D01*
X109580921Y-85430733D01*
X109580916Y-85430724D01*
X109499301Y-85308580D01*
X109499298Y-85308576D01*
X109395423Y-85204701D01*
X109395419Y-85204698D01*
X109273275Y-85123083D01*
X109273266Y-85123078D01*
X109137544Y-85066861D01*
X109137545Y-85066861D01*
X109137542Y-85066860D01*
X109137538Y-85066859D01*
X109137534Y-85066858D01*
X108993459Y-85038200D01*
X108993455Y-85038200D01*
X108846545Y-85038200D01*
X108846540Y-85038200D01*
X108702465Y-85066858D01*
X108702455Y-85066861D01*
X108566733Y-85123078D01*
X108566724Y-85123083D01*
X108444580Y-85204698D01*
X108444576Y-85204701D01*
X108340701Y-85308576D01*
X108340698Y-85308580D01*
X108259083Y-85430724D01*
X108259078Y-85430733D01*
X108202861Y-85566455D01*
X108202858Y-85566465D01*
X108174200Y-85710540D01*
X79550000Y-85710540D01*
X79550000Y-84843995D01*
X91724499Y-84843995D01*
X91751418Y-84979322D01*
X91751421Y-84979332D01*
X91804221Y-85106804D01*
X91804228Y-85106817D01*
X91880885Y-85221541D01*
X91880888Y-85221545D01*
X91978454Y-85319111D01*
X91978458Y-85319114D01*
X92093182Y-85395771D01*
X92093195Y-85395778D01*
X92177585Y-85430733D01*
X92220672Y-85448580D01*
X92220676Y-85448580D01*
X92220677Y-85448581D01*
X92356004Y-85475500D01*
X92356007Y-85475500D01*
X92493995Y-85475500D01*
X92585041Y-85457389D01*
X92629328Y-85448580D01*
X92756811Y-85395775D01*
X92871542Y-85319114D01*
X92969114Y-85221542D01*
X93045775Y-85106811D01*
X93098580Y-84979328D01*
X93120527Y-84868995D01*
X99274499Y-84868995D01*
X99301418Y-85004322D01*
X99301421Y-85004332D01*
X99354221Y-85131804D01*
X99354228Y-85131817D01*
X99430885Y-85246541D01*
X99430888Y-85246545D01*
X99528454Y-85344111D01*
X99528458Y-85344114D01*
X99643182Y-85420771D01*
X99643195Y-85420778D01*
X99770667Y-85473578D01*
X99770672Y-85473580D01*
X99770676Y-85473580D01*
X99770677Y-85473581D01*
X99906004Y-85500500D01*
X99906007Y-85500500D01*
X100043995Y-85500500D01*
X100135041Y-85482389D01*
X100179328Y-85473580D01*
X100306811Y-85420775D01*
X100421542Y-85344114D01*
X100519114Y-85246542D01*
X100595775Y-85131811D01*
X100599392Y-85123080D01*
X100648578Y-85004332D01*
X100648580Y-85004328D01*
X100675500Y-84868993D01*
X100675500Y-84731007D01*
X100675500Y-84731004D01*
X100648581Y-84595677D01*
X100648580Y-84595676D01*
X100648580Y-84595672D01*
X100638223Y-84570667D01*
X100595778Y-84468195D01*
X100595771Y-84468182D01*
X100519114Y-84353458D01*
X100519111Y-84353454D01*
X100421545Y-84255888D01*
X100421541Y-84255885D01*
X100306817Y-84179228D01*
X100306804Y-84179221D01*
X100179332Y-84126421D01*
X100179322Y-84126418D01*
X100043995Y-84099500D01*
X100043993Y-84099500D01*
X99906007Y-84099500D01*
X99906005Y-84099500D01*
X99770677Y-84126418D01*
X99770667Y-84126421D01*
X99643195Y-84179221D01*
X99643182Y-84179228D01*
X99528458Y-84255885D01*
X99528454Y-84255888D01*
X99430888Y-84353454D01*
X99430885Y-84353458D01*
X99354228Y-84468182D01*
X99354221Y-84468195D01*
X99301421Y-84595667D01*
X99301418Y-84595677D01*
X99274500Y-84731004D01*
X99274500Y-84731007D01*
X99274500Y-84868993D01*
X99274500Y-84868995D01*
X99274499Y-84868995D01*
X93120527Y-84868995D01*
X93125500Y-84843993D01*
X93125500Y-84706007D01*
X93125500Y-84706004D01*
X93098581Y-84570677D01*
X93098580Y-84570676D01*
X93098580Y-84570672D01*
X93056133Y-84468195D01*
X93045778Y-84443195D01*
X93045771Y-84443182D01*
X92969114Y-84328458D01*
X92969111Y-84328454D01*
X92871545Y-84230888D01*
X92871541Y-84230885D01*
X92756817Y-84154228D01*
X92756804Y-84154221D01*
X92629332Y-84101421D01*
X92629322Y-84101418D01*
X92493995Y-84074500D01*
X92493993Y-84074500D01*
X92356007Y-84074500D01*
X92356005Y-84074500D01*
X92220677Y-84101418D01*
X92220667Y-84101421D01*
X92093195Y-84154221D01*
X92093182Y-84154228D01*
X91978458Y-84230885D01*
X91978454Y-84230888D01*
X91880888Y-84328454D01*
X91880885Y-84328458D01*
X91804228Y-84443182D01*
X91804221Y-84443195D01*
X91751421Y-84570667D01*
X91751418Y-84570677D01*
X91724500Y-84706004D01*
X91724500Y-84706007D01*
X91724500Y-84843993D01*
X91724500Y-84843995D01*
X91724499Y-84843995D01*
X79550000Y-84843995D01*
X79550000Y-82749000D01*
X79569685Y-82681961D01*
X79622489Y-82636206D01*
X79674000Y-82625000D01*
X94948638Y-82625000D01*
X95015677Y-82644685D01*
G37*
%TD.AperFunction*%
%TD*%
M02*
