%TF.GenerationSoftware,KiCad,Pcbnew,9.0.3*%
%TF.CreationDate,2025-09-07T12:19:25+02:00*%
%TF.ProjectId,LoTiBloxy,4c6f5469-426c-46f7-9879-2e6b69636164,rev?*%
%TF.SameCoordinates,Original*%
%TF.FileFunction,Legend,Top*%
%TF.FilePolarity,Positive*%
%FSLAX46Y46*%
G04 Gerber Fmt 4.6, Leading zero omitted, Abs format (unit mm)*
G04 Created by KiCad (PCBNEW 9.0.3) date 2025-09-07 12:19:25*
%MOMM*%
%LPD*%
G01*
G04 APERTURE LIST*
%ADD10C,0.150000*%
%ADD11C,0.098425*%
%ADD12C,0.200000*%
%ADD13C,0.375000*%
%ADD14C,0.508000*%
%ADD15C,0.152400*%
%ADD16C,0.120000*%
%ADD17C,0.298607*%
%ADD18C,0.100000*%
%ADD19C,0.203200*%
%ADD20C,0.175000*%
%ADD21C,0.450000*%
%ADD22C,0.127000*%
%ADD23C,0.761008*%
%ADD24C,0.276200*%
%ADD25C,0.262883*%
%ADD26C,0.070000*%
%ADD27C,0.225000*%
%ADD28C,0.303473*%
G04 APERTURE END LIST*
D10*
X87900480Y-87666666D02*
X87186195Y-87666666D01*
X87186195Y-87666666D02*
X87043338Y-87619047D01*
X87043338Y-87619047D02*
X86948100Y-87523809D01*
X86948100Y-87523809D02*
X86900480Y-87380952D01*
X86900480Y-87380952D02*
X86900480Y-87285714D01*
X87805242Y-88095238D02*
X87852861Y-88142857D01*
X87852861Y-88142857D02*
X87900480Y-88238095D01*
X87900480Y-88238095D02*
X87900480Y-88476190D01*
X87900480Y-88476190D02*
X87852861Y-88571428D01*
X87852861Y-88571428D02*
X87805242Y-88619047D01*
X87805242Y-88619047D02*
X87710004Y-88666666D01*
X87710004Y-88666666D02*
X87614766Y-88666666D01*
X87614766Y-88666666D02*
X87471909Y-88619047D01*
X87471909Y-88619047D02*
X86900480Y-88047619D01*
X86900480Y-88047619D02*
X86900480Y-88666666D01*
X139179104Y-98434862D02*
X139179104Y-97958672D01*
X139464819Y-98530100D02*
X138464819Y-98196767D01*
X138464819Y-98196767D02*
X139464819Y-97863434D01*
X138941009Y-97530100D02*
X138941009Y-97196767D01*
X139464819Y-97053910D02*
X139464819Y-97530100D01*
X139464819Y-97530100D02*
X138464819Y-97530100D01*
X138464819Y-97530100D02*
X138464819Y-97053910D01*
X138560057Y-96672957D02*
X138512438Y-96625338D01*
X138512438Y-96625338D02*
X138464819Y-96530100D01*
X138464819Y-96530100D02*
X138464819Y-96292005D01*
X138464819Y-96292005D02*
X138512438Y-96196767D01*
X138512438Y-96196767D02*
X138560057Y-96149148D01*
X138560057Y-96149148D02*
X138655295Y-96101529D01*
X138655295Y-96101529D02*
X138750533Y-96101529D01*
X138750533Y-96101529D02*
X138893390Y-96149148D01*
X138893390Y-96149148D02*
X139464819Y-96720576D01*
X139464819Y-96720576D02*
X139464819Y-96101529D01*
X107148333Y-94584819D02*
X106815000Y-94108628D01*
X106576905Y-94584819D02*
X106576905Y-93584819D01*
X106576905Y-93584819D02*
X106957857Y-93584819D01*
X106957857Y-93584819D02*
X107053095Y-93632438D01*
X107053095Y-93632438D02*
X107100714Y-93680057D01*
X107100714Y-93680057D02*
X107148333Y-93775295D01*
X107148333Y-93775295D02*
X107148333Y-93918152D01*
X107148333Y-93918152D02*
X107100714Y-94013390D01*
X107100714Y-94013390D02*
X107053095Y-94061009D01*
X107053095Y-94061009D02*
X106957857Y-94108628D01*
X106957857Y-94108628D02*
X106576905Y-94108628D01*
X108100714Y-94584819D02*
X107529286Y-94584819D01*
X107815000Y-94584819D02*
X107815000Y-93584819D01*
X107815000Y-93584819D02*
X107719762Y-93727676D01*
X107719762Y-93727676D02*
X107624524Y-93822914D01*
X107624524Y-93822914D02*
X107529286Y-93870533D01*
X96978990Y-92491666D02*
X96978990Y-92158333D01*
X96455180Y-92158333D02*
X97455180Y-92158333D01*
X97455180Y-92158333D02*
X97455180Y-92634523D01*
X96978990Y-93348809D02*
X96931371Y-93491666D01*
X96931371Y-93491666D02*
X96883752Y-93539285D01*
X96883752Y-93539285D02*
X96788514Y-93586904D01*
X96788514Y-93586904D02*
X96645657Y-93586904D01*
X96645657Y-93586904D02*
X96550419Y-93539285D01*
X96550419Y-93539285D02*
X96502800Y-93491666D01*
X96502800Y-93491666D02*
X96455180Y-93396428D01*
X96455180Y-93396428D02*
X96455180Y-93015476D01*
X96455180Y-93015476D02*
X97455180Y-93015476D01*
X97455180Y-93015476D02*
X97455180Y-93348809D01*
X97455180Y-93348809D02*
X97407561Y-93444047D01*
X97407561Y-93444047D02*
X97359942Y-93491666D01*
X97359942Y-93491666D02*
X97264704Y-93539285D01*
X97264704Y-93539285D02*
X97169466Y-93539285D01*
X97169466Y-93539285D02*
X97074228Y-93491666D01*
X97074228Y-93491666D02*
X97026609Y-93444047D01*
X97026609Y-93444047D02*
X96978990Y-93348809D01*
X96978990Y-93348809D02*
X96978990Y-93015476D01*
X96455180Y-94539285D02*
X96455180Y-93967857D01*
X96455180Y-94253571D02*
X97455180Y-94253571D01*
X97455180Y-94253571D02*
X97312323Y-94158333D01*
X97312323Y-94158333D02*
X97217085Y-94063095D01*
X97217085Y-94063095D02*
X97169466Y-93967857D01*
X111907772Y-103242857D02*
X111955392Y-103290476D01*
X111955392Y-103290476D02*
X112003011Y-103433333D01*
X112003011Y-103433333D02*
X112003011Y-103528571D01*
X112003011Y-103528571D02*
X111955392Y-103671428D01*
X111955392Y-103671428D02*
X111860153Y-103766666D01*
X111860153Y-103766666D02*
X111764915Y-103814285D01*
X111764915Y-103814285D02*
X111574439Y-103861904D01*
X111574439Y-103861904D02*
X111431582Y-103861904D01*
X111431582Y-103861904D02*
X111241106Y-103814285D01*
X111241106Y-103814285D02*
X111145868Y-103766666D01*
X111145868Y-103766666D02*
X111050630Y-103671428D01*
X111050630Y-103671428D02*
X111003011Y-103528571D01*
X111003011Y-103528571D02*
X111003011Y-103433333D01*
X111003011Y-103433333D02*
X111050630Y-103290476D01*
X111050630Y-103290476D02*
X111098249Y-103242857D01*
X111098249Y-102861904D02*
X111050630Y-102814285D01*
X111050630Y-102814285D02*
X111003011Y-102719047D01*
X111003011Y-102719047D02*
X111003011Y-102480952D01*
X111003011Y-102480952D02*
X111050630Y-102385714D01*
X111050630Y-102385714D02*
X111098249Y-102338095D01*
X111098249Y-102338095D02*
X111193487Y-102290476D01*
X111193487Y-102290476D02*
X111288725Y-102290476D01*
X111288725Y-102290476D02*
X111431582Y-102338095D01*
X111431582Y-102338095D02*
X112003011Y-102909523D01*
X112003011Y-102909523D02*
X112003011Y-102290476D01*
X112003011Y-101338095D02*
X112003011Y-101909523D01*
X112003011Y-101623809D02*
X111003011Y-101623809D01*
X111003011Y-101623809D02*
X111145868Y-101719047D01*
X111145868Y-101719047D02*
X111241106Y-101814285D01*
X111241106Y-101814285D02*
X111288725Y-101909523D01*
X94633333Y-94719580D02*
X94585714Y-94767200D01*
X94585714Y-94767200D02*
X94442857Y-94814819D01*
X94442857Y-94814819D02*
X94347619Y-94814819D01*
X94347619Y-94814819D02*
X94204762Y-94767200D01*
X94204762Y-94767200D02*
X94109524Y-94671961D01*
X94109524Y-94671961D02*
X94061905Y-94576723D01*
X94061905Y-94576723D02*
X94014286Y-94386247D01*
X94014286Y-94386247D02*
X94014286Y-94243390D01*
X94014286Y-94243390D02*
X94061905Y-94052914D01*
X94061905Y-94052914D02*
X94109524Y-93957676D01*
X94109524Y-93957676D02*
X94204762Y-93862438D01*
X94204762Y-93862438D02*
X94347619Y-93814819D01*
X94347619Y-93814819D02*
X94442857Y-93814819D01*
X94442857Y-93814819D02*
X94585714Y-93862438D01*
X94585714Y-93862438D02*
X94633333Y-93910057D01*
X94966667Y-93814819D02*
X95633333Y-93814819D01*
X95633333Y-93814819D02*
X95204762Y-94814819D01*
X115119580Y-105092857D02*
X115167200Y-105140476D01*
X115167200Y-105140476D02*
X115214819Y-105283333D01*
X115214819Y-105283333D02*
X115214819Y-105378571D01*
X115214819Y-105378571D02*
X115167200Y-105521428D01*
X115167200Y-105521428D02*
X115071961Y-105616666D01*
X115071961Y-105616666D02*
X114976723Y-105664285D01*
X114976723Y-105664285D02*
X114786247Y-105711904D01*
X114786247Y-105711904D02*
X114643390Y-105711904D01*
X114643390Y-105711904D02*
X114452914Y-105664285D01*
X114452914Y-105664285D02*
X114357676Y-105616666D01*
X114357676Y-105616666D02*
X114262438Y-105521428D01*
X114262438Y-105521428D02*
X114214819Y-105378571D01*
X114214819Y-105378571D02*
X114214819Y-105283333D01*
X114214819Y-105283333D02*
X114262438Y-105140476D01*
X114262438Y-105140476D02*
X114310057Y-105092857D01*
X115214819Y-104140476D02*
X115214819Y-104711904D01*
X115214819Y-104426190D02*
X114214819Y-104426190D01*
X114214819Y-104426190D02*
X114357676Y-104521428D01*
X114357676Y-104521428D02*
X114452914Y-104616666D01*
X114452914Y-104616666D02*
X114500533Y-104711904D01*
X114214819Y-103807142D02*
X114214819Y-103188095D01*
X114214819Y-103188095D02*
X114595771Y-103521428D01*
X114595771Y-103521428D02*
X114595771Y-103378571D01*
X114595771Y-103378571D02*
X114643390Y-103283333D01*
X114643390Y-103283333D02*
X114691009Y-103235714D01*
X114691009Y-103235714D02*
X114786247Y-103188095D01*
X114786247Y-103188095D02*
X115024342Y-103188095D01*
X115024342Y-103188095D02*
X115119580Y-103235714D01*
X115119580Y-103235714D02*
X115167200Y-103283333D01*
X115167200Y-103283333D02*
X115214819Y-103378571D01*
X115214819Y-103378571D02*
X115214819Y-103664285D01*
X115214819Y-103664285D02*
X115167200Y-103759523D01*
X115167200Y-103759523D02*
X115119580Y-103807142D01*
X99636342Y-98106380D02*
X99588723Y-98154000D01*
X99588723Y-98154000D02*
X99445866Y-98201619D01*
X99445866Y-98201619D02*
X99350628Y-98201619D01*
X99350628Y-98201619D02*
X99207771Y-98154000D01*
X99207771Y-98154000D02*
X99112533Y-98058761D01*
X99112533Y-98058761D02*
X99064914Y-97963523D01*
X99064914Y-97963523D02*
X99017295Y-97773047D01*
X99017295Y-97773047D02*
X99017295Y-97630190D01*
X99017295Y-97630190D02*
X99064914Y-97439714D01*
X99064914Y-97439714D02*
X99112533Y-97344476D01*
X99112533Y-97344476D02*
X99207771Y-97249238D01*
X99207771Y-97249238D02*
X99350628Y-97201619D01*
X99350628Y-97201619D02*
X99445866Y-97201619D01*
X99445866Y-97201619D02*
X99588723Y-97249238D01*
X99588723Y-97249238D02*
X99636342Y-97296857D01*
X100588723Y-98201619D02*
X100017295Y-98201619D01*
X100303009Y-98201619D02*
X100303009Y-97201619D01*
X100303009Y-97201619D02*
X100207771Y-97344476D01*
X100207771Y-97344476D02*
X100112533Y-97439714D01*
X100112533Y-97439714D02*
X100017295Y-97487333D01*
X101207771Y-97201619D02*
X101303009Y-97201619D01*
X101303009Y-97201619D02*
X101398247Y-97249238D01*
X101398247Y-97249238D02*
X101445866Y-97296857D01*
X101445866Y-97296857D02*
X101493485Y-97392095D01*
X101493485Y-97392095D02*
X101541104Y-97582571D01*
X101541104Y-97582571D02*
X101541104Y-97820666D01*
X101541104Y-97820666D02*
X101493485Y-98011142D01*
X101493485Y-98011142D02*
X101445866Y-98106380D01*
X101445866Y-98106380D02*
X101398247Y-98154000D01*
X101398247Y-98154000D02*
X101303009Y-98201619D01*
X101303009Y-98201619D02*
X101207771Y-98201619D01*
X101207771Y-98201619D02*
X101112533Y-98154000D01*
X101112533Y-98154000D02*
X101064914Y-98106380D01*
X101064914Y-98106380D02*
X101017295Y-98011142D01*
X101017295Y-98011142D02*
X100969676Y-97820666D01*
X100969676Y-97820666D02*
X100969676Y-97582571D01*
X100969676Y-97582571D02*
X101017295Y-97392095D01*
X101017295Y-97392095D02*
X101064914Y-97296857D01*
X101064914Y-97296857D02*
X101112533Y-97249238D01*
X101112533Y-97249238D02*
X101207771Y-97201619D01*
X122923880Y-95131190D02*
X121923880Y-95797856D01*
X122923880Y-95797856D02*
X121923880Y-95131190D01*
X122923880Y-96035952D02*
X122923880Y-96607380D01*
X121923880Y-96321666D02*
X122923880Y-96321666D01*
X122209595Y-96893095D02*
X122209595Y-97369285D01*
X121923880Y-96797857D02*
X122923880Y-97131190D01*
X122923880Y-97131190D02*
X121923880Y-97464523D01*
X121923880Y-98274047D02*
X121923880Y-97797857D01*
X121923880Y-97797857D02*
X122923880Y-97797857D01*
X121923880Y-99131190D02*
X121923880Y-98559762D01*
X121923880Y-98845476D02*
X122923880Y-98845476D01*
X122923880Y-98845476D02*
X122781023Y-98750238D01*
X122781023Y-98750238D02*
X122685785Y-98655000D01*
X122685785Y-98655000D02*
X122638166Y-98559762D01*
D11*
X99524384Y-90777014D02*
X99336907Y-90777014D01*
X99336907Y-90777014D02*
X99336907Y-90383313D01*
X99861841Y-90777014D02*
X99636869Y-90777014D01*
X99749355Y-90777014D02*
X99749355Y-90383313D01*
X99749355Y-90383313D02*
X99711860Y-90439556D01*
X99711860Y-90439556D02*
X99674365Y-90477052D01*
X99674365Y-90477052D02*
X99636869Y-90495799D01*
D10*
X125123333Y-102273015D02*
X124647143Y-102273015D01*
X124647143Y-102273015D02*
X124647143Y-101273015D01*
X125932857Y-101273015D02*
X125456667Y-101273015D01*
X125456667Y-101273015D02*
X125409048Y-101749205D01*
X125409048Y-101749205D02*
X125456667Y-101701586D01*
X125456667Y-101701586D02*
X125551905Y-101653967D01*
X125551905Y-101653967D02*
X125790000Y-101653967D01*
X125790000Y-101653967D02*
X125885238Y-101701586D01*
X125885238Y-101701586D02*
X125932857Y-101749205D01*
X125932857Y-101749205D02*
X125980476Y-101844443D01*
X125980476Y-101844443D02*
X125980476Y-102082538D01*
X125980476Y-102082538D02*
X125932857Y-102177776D01*
X125932857Y-102177776D02*
X125885238Y-102225396D01*
X125885238Y-102225396D02*
X125790000Y-102273015D01*
X125790000Y-102273015D02*
X125551905Y-102273015D01*
X125551905Y-102273015D02*
X125456667Y-102225396D01*
X125456667Y-102225396D02*
X125409048Y-102177776D01*
X91397667Y-101949599D02*
X91397667Y-102949599D01*
X91397667Y-102949599D02*
X91159572Y-102949599D01*
X91159572Y-102949599D02*
X91016715Y-102901980D01*
X91016715Y-102901980D02*
X90921477Y-102806742D01*
X90921477Y-102806742D02*
X90873858Y-102711504D01*
X90873858Y-102711504D02*
X90826239Y-102521028D01*
X90826239Y-102521028D02*
X90826239Y-102378171D01*
X90826239Y-102378171D02*
X90873858Y-102187695D01*
X90873858Y-102187695D02*
X90921477Y-102092457D01*
X90921477Y-102092457D02*
X91016715Y-101997219D01*
X91016715Y-101997219D02*
X91159572Y-101949599D01*
X91159572Y-101949599D02*
X91397667Y-101949599D01*
X89873858Y-101949599D02*
X90445286Y-101949599D01*
X90159572Y-101949599D02*
X90159572Y-102949599D01*
X90159572Y-102949599D02*
X90254810Y-102806742D01*
X90254810Y-102806742D02*
X90350048Y-102711504D01*
X90350048Y-102711504D02*
X90445286Y-102663885D01*
D12*
X91789899Y-101143819D02*
X91027995Y-101143819D01*
X90289899Y-101143819D02*
X89527995Y-101143819D01*
X89908947Y-100686676D02*
X89908947Y-101600961D01*
D10*
X104379733Y-85390819D02*
X104046400Y-84914628D01*
X103808305Y-85390819D02*
X103808305Y-84390819D01*
X103808305Y-84390819D02*
X104189257Y-84390819D01*
X104189257Y-84390819D02*
X104284495Y-84438438D01*
X104284495Y-84438438D02*
X104332114Y-84486057D01*
X104332114Y-84486057D02*
X104379733Y-84581295D01*
X104379733Y-84581295D02*
X104379733Y-84724152D01*
X104379733Y-84724152D02*
X104332114Y-84819390D01*
X104332114Y-84819390D02*
X104284495Y-84867009D01*
X104284495Y-84867009D02*
X104189257Y-84914628D01*
X104189257Y-84914628D02*
X103808305Y-84914628D01*
X104855924Y-85390819D02*
X105046400Y-85390819D01*
X105046400Y-85390819D02*
X105141638Y-85343200D01*
X105141638Y-85343200D02*
X105189257Y-85295580D01*
X105189257Y-85295580D02*
X105284495Y-85152723D01*
X105284495Y-85152723D02*
X105332114Y-84962247D01*
X105332114Y-84962247D02*
X105332114Y-84581295D01*
X105332114Y-84581295D02*
X105284495Y-84486057D01*
X105284495Y-84486057D02*
X105236876Y-84438438D01*
X105236876Y-84438438D02*
X105141638Y-84390819D01*
X105141638Y-84390819D02*
X104951162Y-84390819D01*
X104951162Y-84390819D02*
X104855924Y-84438438D01*
X104855924Y-84438438D02*
X104808305Y-84486057D01*
X104808305Y-84486057D02*
X104760686Y-84581295D01*
X104760686Y-84581295D02*
X104760686Y-84819390D01*
X104760686Y-84819390D02*
X104808305Y-84914628D01*
X104808305Y-84914628D02*
X104855924Y-84962247D01*
X104855924Y-84962247D02*
X104951162Y-85009866D01*
X104951162Y-85009866D02*
X105141638Y-85009866D01*
X105141638Y-85009866D02*
X105236876Y-84962247D01*
X105236876Y-84962247D02*
X105284495Y-84914628D01*
X105284495Y-84914628D02*
X105332114Y-84819390D01*
X128759580Y-102434862D02*
X128807200Y-102482481D01*
X128807200Y-102482481D02*
X128854819Y-102625338D01*
X128854819Y-102625338D02*
X128854819Y-102720576D01*
X128854819Y-102720576D02*
X128807200Y-102863433D01*
X128807200Y-102863433D02*
X128711961Y-102958671D01*
X128711961Y-102958671D02*
X128616723Y-103006290D01*
X128616723Y-103006290D02*
X128426247Y-103053909D01*
X128426247Y-103053909D02*
X128283390Y-103053909D01*
X128283390Y-103053909D02*
X128092914Y-103006290D01*
X128092914Y-103006290D02*
X127997676Y-102958671D01*
X127997676Y-102958671D02*
X127902438Y-102863433D01*
X127902438Y-102863433D02*
X127854819Y-102720576D01*
X127854819Y-102720576D02*
X127854819Y-102625338D01*
X127854819Y-102625338D02*
X127902438Y-102482481D01*
X127902438Y-102482481D02*
X127950057Y-102434862D01*
X127854819Y-101530100D02*
X127854819Y-102006290D01*
X127854819Y-102006290D02*
X128331009Y-102053909D01*
X128331009Y-102053909D02*
X128283390Y-102006290D01*
X128283390Y-102006290D02*
X128235771Y-101911052D01*
X128235771Y-101911052D02*
X128235771Y-101672957D01*
X128235771Y-101672957D02*
X128283390Y-101577719D01*
X128283390Y-101577719D02*
X128331009Y-101530100D01*
X128331009Y-101530100D02*
X128426247Y-101482481D01*
X128426247Y-101482481D02*
X128664342Y-101482481D01*
X128664342Y-101482481D02*
X128759580Y-101530100D01*
X128759580Y-101530100D02*
X128807200Y-101577719D01*
X128807200Y-101577719D02*
X128854819Y-101672957D01*
X128854819Y-101672957D02*
X128854819Y-101911052D01*
X128854819Y-101911052D02*
X128807200Y-102006290D01*
X128807200Y-102006290D02*
X128759580Y-102053909D01*
X98615595Y-104229819D02*
X98615595Y-105039342D01*
X98615595Y-105039342D02*
X98663214Y-105134580D01*
X98663214Y-105134580D02*
X98710833Y-105182200D01*
X98710833Y-105182200D02*
X98806071Y-105229819D01*
X98806071Y-105229819D02*
X98996547Y-105229819D01*
X98996547Y-105229819D02*
X99091785Y-105182200D01*
X99091785Y-105182200D02*
X99139404Y-105134580D01*
X99139404Y-105134580D02*
X99187023Y-105039342D01*
X99187023Y-105039342D02*
X99187023Y-104229819D01*
X100187023Y-105229819D02*
X99615595Y-105229819D01*
X99901309Y-105229819D02*
X99901309Y-104229819D01*
X99901309Y-104229819D02*
X99806071Y-104372676D01*
X99806071Y-104372676D02*
X99710833Y-104467914D01*
X99710833Y-104467914D02*
X99615595Y-104515533D01*
X121273333Y-100573015D02*
X120797143Y-100573015D01*
X120797143Y-100573015D02*
X120797143Y-99573015D01*
X122035238Y-99906348D02*
X122035238Y-100573015D01*
X121797143Y-99525396D02*
X121559048Y-100239681D01*
X121559048Y-100239681D02*
X122178095Y-100239681D01*
X124178445Y-94000057D02*
X124083207Y-93952438D01*
X124083207Y-93952438D02*
X123987969Y-93857200D01*
X123987969Y-93857200D02*
X123845112Y-93714342D01*
X123845112Y-93714342D02*
X123749874Y-93666723D01*
X123749874Y-93666723D02*
X123654636Y-93666723D01*
X123702255Y-93904819D02*
X123607017Y-93857200D01*
X123607017Y-93857200D02*
X123511779Y-93761961D01*
X123511779Y-93761961D02*
X123464160Y-93571485D01*
X123464160Y-93571485D02*
X123464160Y-93238152D01*
X123464160Y-93238152D02*
X123511779Y-93047676D01*
X123511779Y-93047676D02*
X123607017Y-92952438D01*
X123607017Y-92952438D02*
X123702255Y-92904819D01*
X123702255Y-92904819D02*
X123892731Y-92904819D01*
X123892731Y-92904819D02*
X123987969Y-92952438D01*
X123987969Y-92952438D02*
X124083207Y-93047676D01*
X124083207Y-93047676D02*
X124130826Y-93238152D01*
X124130826Y-93238152D02*
X124130826Y-93571485D01*
X124130826Y-93571485D02*
X124083207Y-93761961D01*
X124083207Y-93761961D02*
X123987969Y-93857200D01*
X123987969Y-93857200D02*
X123892731Y-93904819D01*
X123892731Y-93904819D02*
X123702255Y-93904819D01*
X125083207Y-93904819D02*
X124511779Y-93904819D01*
X124797493Y-93904819D02*
X124797493Y-92904819D01*
X124797493Y-92904819D02*
X124702255Y-93047676D01*
X124702255Y-93047676D02*
X124607017Y-93142914D01*
X124607017Y-93142914D02*
X124511779Y-93190533D01*
X122122142Y-95554580D02*
X122074523Y-95602200D01*
X122074523Y-95602200D02*
X121931666Y-95649819D01*
X121931666Y-95649819D02*
X121836428Y-95649819D01*
X121836428Y-95649819D02*
X121693571Y-95602200D01*
X121693571Y-95602200D02*
X121598333Y-95506961D01*
X121598333Y-95506961D02*
X121550714Y-95411723D01*
X121550714Y-95411723D02*
X121503095Y-95221247D01*
X121503095Y-95221247D02*
X121503095Y-95078390D01*
X121503095Y-95078390D02*
X121550714Y-94887914D01*
X121550714Y-94887914D02*
X121598333Y-94792676D01*
X121598333Y-94792676D02*
X121693571Y-94697438D01*
X121693571Y-94697438D02*
X121836428Y-94649819D01*
X121836428Y-94649819D02*
X121931666Y-94649819D01*
X121931666Y-94649819D02*
X122074523Y-94697438D01*
X122074523Y-94697438D02*
X122122142Y-94745057D01*
X123074523Y-95649819D02*
X122503095Y-95649819D01*
X122788809Y-95649819D02*
X122788809Y-94649819D01*
X122788809Y-94649819D02*
X122693571Y-94792676D01*
X122693571Y-94792676D02*
X122598333Y-94887914D01*
X122598333Y-94887914D02*
X122503095Y-94935533D01*
X123979285Y-94649819D02*
X123503095Y-94649819D01*
X123503095Y-94649819D02*
X123455476Y-95126009D01*
X123455476Y-95126009D02*
X123503095Y-95078390D01*
X123503095Y-95078390D02*
X123598333Y-95030771D01*
X123598333Y-95030771D02*
X123836428Y-95030771D01*
X123836428Y-95030771D02*
X123931666Y-95078390D01*
X123931666Y-95078390D02*
X123979285Y-95126009D01*
X123979285Y-95126009D02*
X124026904Y-95221247D01*
X124026904Y-95221247D02*
X124026904Y-95459342D01*
X124026904Y-95459342D02*
X123979285Y-95554580D01*
X123979285Y-95554580D02*
X123931666Y-95602200D01*
X123931666Y-95602200D02*
X123836428Y-95649819D01*
X123836428Y-95649819D02*
X123598333Y-95649819D01*
X123598333Y-95649819D02*
X123503095Y-95602200D01*
X123503095Y-95602200D02*
X123455476Y-95554580D01*
X128823333Y-101037776D02*
X128775714Y-101085396D01*
X128775714Y-101085396D02*
X128632857Y-101133015D01*
X128632857Y-101133015D02*
X128537619Y-101133015D01*
X128537619Y-101133015D02*
X128394762Y-101085396D01*
X128394762Y-101085396D02*
X128299524Y-100990157D01*
X128299524Y-100990157D02*
X128251905Y-100894919D01*
X128251905Y-100894919D02*
X128204286Y-100704443D01*
X128204286Y-100704443D02*
X128204286Y-100561586D01*
X128204286Y-100561586D02*
X128251905Y-100371110D01*
X128251905Y-100371110D02*
X128299524Y-100275872D01*
X128299524Y-100275872D02*
X128394762Y-100180634D01*
X128394762Y-100180634D02*
X128537619Y-100133015D01*
X128537619Y-100133015D02*
X128632857Y-100133015D01*
X128632857Y-100133015D02*
X128775714Y-100180634D01*
X128775714Y-100180634D02*
X128823333Y-100228253D01*
X129680476Y-100133015D02*
X129490000Y-100133015D01*
X129490000Y-100133015D02*
X129394762Y-100180634D01*
X129394762Y-100180634D02*
X129347143Y-100228253D01*
X129347143Y-100228253D02*
X129251905Y-100371110D01*
X129251905Y-100371110D02*
X129204286Y-100561586D01*
X129204286Y-100561586D02*
X129204286Y-100942538D01*
X129204286Y-100942538D02*
X129251905Y-101037776D01*
X129251905Y-101037776D02*
X129299524Y-101085396D01*
X129299524Y-101085396D02*
X129394762Y-101133015D01*
X129394762Y-101133015D02*
X129585238Y-101133015D01*
X129585238Y-101133015D02*
X129680476Y-101085396D01*
X129680476Y-101085396D02*
X129728095Y-101037776D01*
X129728095Y-101037776D02*
X129775714Y-100942538D01*
X129775714Y-100942538D02*
X129775714Y-100704443D01*
X129775714Y-100704443D02*
X129728095Y-100609205D01*
X129728095Y-100609205D02*
X129680476Y-100561586D01*
X129680476Y-100561586D02*
X129585238Y-100513967D01*
X129585238Y-100513967D02*
X129394762Y-100513967D01*
X129394762Y-100513967D02*
X129299524Y-100561586D01*
X129299524Y-100561586D02*
X129251905Y-100609205D01*
X129251905Y-100609205D02*
X129204286Y-100704443D01*
X92504819Y-96611904D02*
X93314342Y-96611904D01*
X93314342Y-96611904D02*
X93409580Y-96564285D01*
X93409580Y-96564285D02*
X93457200Y-96516666D01*
X93457200Y-96516666D02*
X93504819Y-96421428D01*
X93504819Y-96421428D02*
X93504819Y-96230952D01*
X93504819Y-96230952D02*
X93457200Y-96135714D01*
X93457200Y-96135714D02*
X93409580Y-96088095D01*
X93409580Y-96088095D02*
X93314342Y-96040476D01*
X93314342Y-96040476D02*
X92504819Y-96040476D01*
X92838152Y-95135714D02*
X93504819Y-95135714D01*
X92457200Y-95373809D02*
X93171485Y-95611904D01*
X93171485Y-95611904D02*
X93171485Y-94992857D01*
X96613095Y-88442200D02*
X96755952Y-88489819D01*
X96755952Y-88489819D02*
X96994047Y-88489819D01*
X96994047Y-88489819D02*
X97089285Y-88442200D01*
X97089285Y-88442200D02*
X97136904Y-88394580D01*
X97136904Y-88394580D02*
X97184523Y-88299342D01*
X97184523Y-88299342D02*
X97184523Y-88204104D01*
X97184523Y-88204104D02*
X97136904Y-88108866D01*
X97136904Y-88108866D02*
X97089285Y-88061247D01*
X97089285Y-88061247D02*
X96994047Y-88013628D01*
X96994047Y-88013628D02*
X96803571Y-87966009D01*
X96803571Y-87966009D02*
X96708333Y-87918390D01*
X96708333Y-87918390D02*
X96660714Y-87870771D01*
X96660714Y-87870771D02*
X96613095Y-87775533D01*
X96613095Y-87775533D02*
X96613095Y-87680295D01*
X96613095Y-87680295D02*
X96660714Y-87585057D01*
X96660714Y-87585057D02*
X96708333Y-87537438D01*
X96708333Y-87537438D02*
X96803571Y-87489819D01*
X96803571Y-87489819D02*
X97041666Y-87489819D01*
X97041666Y-87489819D02*
X97184523Y-87537438D01*
X97517857Y-87489819D02*
X98136904Y-87489819D01*
X98136904Y-87489819D02*
X97803571Y-87870771D01*
X97803571Y-87870771D02*
X97946428Y-87870771D01*
X97946428Y-87870771D02*
X98041666Y-87918390D01*
X98041666Y-87918390D02*
X98089285Y-87966009D01*
X98089285Y-87966009D02*
X98136904Y-88061247D01*
X98136904Y-88061247D02*
X98136904Y-88299342D01*
X98136904Y-88299342D02*
X98089285Y-88394580D01*
X98089285Y-88394580D02*
X98041666Y-88442200D01*
X98041666Y-88442200D02*
X97946428Y-88489819D01*
X97946428Y-88489819D02*
X97660714Y-88489819D01*
X97660714Y-88489819D02*
X97565476Y-88442200D01*
X97565476Y-88442200D02*
X97517857Y-88394580D01*
X94583333Y-106039580D02*
X94535714Y-106087200D01*
X94535714Y-106087200D02*
X94392857Y-106134819D01*
X94392857Y-106134819D02*
X94297619Y-106134819D01*
X94297619Y-106134819D02*
X94154762Y-106087200D01*
X94154762Y-106087200D02*
X94059524Y-105991961D01*
X94059524Y-105991961D02*
X94011905Y-105896723D01*
X94011905Y-105896723D02*
X93964286Y-105706247D01*
X93964286Y-105706247D02*
X93964286Y-105563390D01*
X93964286Y-105563390D02*
X94011905Y-105372914D01*
X94011905Y-105372914D02*
X94059524Y-105277676D01*
X94059524Y-105277676D02*
X94154762Y-105182438D01*
X94154762Y-105182438D02*
X94297619Y-105134819D01*
X94297619Y-105134819D02*
X94392857Y-105134819D01*
X94392857Y-105134819D02*
X94535714Y-105182438D01*
X94535714Y-105182438D02*
X94583333Y-105230057D01*
X94964286Y-105230057D02*
X95011905Y-105182438D01*
X95011905Y-105182438D02*
X95107143Y-105134819D01*
X95107143Y-105134819D02*
X95345238Y-105134819D01*
X95345238Y-105134819D02*
X95440476Y-105182438D01*
X95440476Y-105182438D02*
X95488095Y-105230057D01*
X95488095Y-105230057D02*
X95535714Y-105325295D01*
X95535714Y-105325295D02*
X95535714Y-105420533D01*
X95535714Y-105420533D02*
X95488095Y-105563390D01*
X95488095Y-105563390D02*
X94916667Y-106134819D01*
X94916667Y-106134819D02*
X95535714Y-106134819D01*
X105357142Y-90319580D02*
X105309523Y-90367200D01*
X105309523Y-90367200D02*
X105166666Y-90414819D01*
X105166666Y-90414819D02*
X105071428Y-90414819D01*
X105071428Y-90414819D02*
X104928571Y-90367200D01*
X104928571Y-90367200D02*
X104833333Y-90271961D01*
X104833333Y-90271961D02*
X104785714Y-90176723D01*
X104785714Y-90176723D02*
X104738095Y-89986247D01*
X104738095Y-89986247D02*
X104738095Y-89843390D01*
X104738095Y-89843390D02*
X104785714Y-89652914D01*
X104785714Y-89652914D02*
X104833333Y-89557676D01*
X104833333Y-89557676D02*
X104928571Y-89462438D01*
X104928571Y-89462438D02*
X105071428Y-89414819D01*
X105071428Y-89414819D02*
X105166666Y-89414819D01*
X105166666Y-89414819D02*
X105309523Y-89462438D01*
X105309523Y-89462438D02*
X105357142Y-89510057D01*
X106309523Y-90414819D02*
X105738095Y-90414819D01*
X106023809Y-90414819D02*
X106023809Y-89414819D01*
X106023809Y-89414819D02*
X105928571Y-89557676D01*
X105928571Y-89557676D02*
X105833333Y-89652914D01*
X105833333Y-89652914D02*
X105738095Y-89700533D01*
X106785714Y-90414819D02*
X106976190Y-90414819D01*
X106976190Y-90414819D02*
X107071428Y-90367200D01*
X107071428Y-90367200D02*
X107119047Y-90319580D01*
X107119047Y-90319580D02*
X107214285Y-90176723D01*
X107214285Y-90176723D02*
X107261904Y-89986247D01*
X107261904Y-89986247D02*
X107261904Y-89605295D01*
X107261904Y-89605295D02*
X107214285Y-89510057D01*
X107214285Y-89510057D02*
X107166666Y-89462438D01*
X107166666Y-89462438D02*
X107071428Y-89414819D01*
X107071428Y-89414819D02*
X106880952Y-89414819D01*
X106880952Y-89414819D02*
X106785714Y-89462438D01*
X106785714Y-89462438D02*
X106738095Y-89510057D01*
X106738095Y-89510057D02*
X106690476Y-89605295D01*
X106690476Y-89605295D02*
X106690476Y-89843390D01*
X106690476Y-89843390D02*
X106738095Y-89938628D01*
X106738095Y-89938628D02*
X106785714Y-89986247D01*
X106785714Y-89986247D02*
X106880952Y-90033866D01*
X106880952Y-90033866D02*
X107071428Y-90033866D01*
X107071428Y-90033866D02*
X107166666Y-89986247D01*
X107166666Y-89986247D02*
X107214285Y-89938628D01*
X107214285Y-89938628D02*
X107261904Y-89843390D01*
X108024819Y-104566666D02*
X107548628Y-104899999D01*
X108024819Y-105138094D02*
X107024819Y-105138094D01*
X107024819Y-105138094D02*
X107024819Y-104757142D01*
X107024819Y-104757142D02*
X107072438Y-104661904D01*
X107072438Y-104661904D02*
X107120057Y-104614285D01*
X107120057Y-104614285D02*
X107215295Y-104566666D01*
X107215295Y-104566666D02*
X107358152Y-104566666D01*
X107358152Y-104566666D02*
X107453390Y-104614285D01*
X107453390Y-104614285D02*
X107501009Y-104661904D01*
X107501009Y-104661904D02*
X107548628Y-104757142D01*
X107548628Y-104757142D02*
X107548628Y-105138094D01*
X107024819Y-104233332D02*
X107024819Y-103566666D01*
X107024819Y-103566666D02*
X108024819Y-103995237D01*
X105833333Y-90284819D02*
X105500000Y-89808628D01*
X105261905Y-90284819D02*
X105261905Y-89284819D01*
X105261905Y-89284819D02*
X105642857Y-89284819D01*
X105642857Y-89284819D02*
X105738095Y-89332438D01*
X105738095Y-89332438D02*
X105785714Y-89380057D01*
X105785714Y-89380057D02*
X105833333Y-89475295D01*
X105833333Y-89475295D02*
X105833333Y-89618152D01*
X105833333Y-89618152D02*
X105785714Y-89713390D01*
X105785714Y-89713390D02*
X105738095Y-89761009D01*
X105738095Y-89761009D02*
X105642857Y-89808628D01*
X105642857Y-89808628D02*
X105261905Y-89808628D01*
X106690476Y-89618152D02*
X106690476Y-90284819D01*
X106452381Y-89237200D02*
X106214286Y-89951485D01*
X106214286Y-89951485D02*
X106833333Y-89951485D01*
X100749580Y-93892857D02*
X100797200Y-93940476D01*
X100797200Y-93940476D02*
X100844819Y-94083333D01*
X100844819Y-94083333D02*
X100844819Y-94178571D01*
X100844819Y-94178571D02*
X100797200Y-94321428D01*
X100797200Y-94321428D02*
X100701961Y-94416666D01*
X100701961Y-94416666D02*
X100606723Y-94464285D01*
X100606723Y-94464285D02*
X100416247Y-94511904D01*
X100416247Y-94511904D02*
X100273390Y-94511904D01*
X100273390Y-94511904D02*
X100082914Y-94464285D01*
X100082914Y-94464285D02*
X99987676Y-94416666D01*
X99987676Y-94416666D02*
X99892438Y-94321428D01*
X99892438Y-94321428D02*
X99844819Y-94178571D01*
X99844819Y-94178571D02*
X99844819Y-94083333D01*
X99844819Y-94083333D02*
X99892438Y-93940476D01*
X99892438Y-93940476D02*
X99940057Y-93892857D01*
X100844819Y-92940476D02*
X100844819Y-93511904D01*
X100844819Y-93226190D02*
X99844819Y-93226190D01*
X99844819Y-93226190D02*
X99987676Y-93321428D01*
X99987676Y-93321428D02*
X100082914Y-93416666D01*
X100082914Y-93416666D02*
X100130533Y-93511904D01*
X100844819Y-91988095D02*
X100844819Y-92559523D01*
X100844819Y-92273809D02*
X99844819Y-92273809D01*
X99844819Y-92273809D02*
X99987676Y-92369047D01*
X99987676Y-92369047D02*
X100082914Y-92464285D01*
X100082914Y-92464285D02*
X100130533Y-92559523D01*
X97794280Y-106934457D02*
X97841900Y-106982076D01*
X97841900Y-106982076D02*
X97889519Y-107124933D01*
X97889519Y-107124933D02*
X97889519Y-107220171D01*
X97889519Y-107220171D02*
X97841900Y-107363028D01*
X97841900Y-107363028D02*
X97746661Y-107458266D01*
X97746661Y-107458266D02*
X97651423Y-107505885D01*
X97651423Y-107505885D02*
X97460947Y-107553504D01*
X97460947Y-107553504D02*
X97318090Y-107553504D01*
X97318090Y-107553504D02*
X97127614Y-107505885D01*
X97127614Y-107505885D02*
X97032376Y-107458266D01*
X97032376Y-107458266D02*
X96937138Y-107363028D01*
X96937138Y-107363028D02*
X96889519Y-107220171D01*
X96889519Y-107220171D02*
X96889519Y-107124933D01*
X96889519Y-107124933D02*
X96937138Y-106982076D01*
X96937138Y-106982076D02*
X96984757Y-106934457D01*
X96984757Y-106553504D02*
X96937138Y-106505885D01*
X96937138Y-106505885D02*
X96889519Y-106410647D01*
X96889519Y-106410647D02*
X96889519Y-106172552D01*
X96889519Y-106172552D02*
X96937138Y-106077314D01*
X96937138Y-106077314D02*
X96984757Y-106029695D01*
X96984757Y-106029695D02*
X97079995Y-105982076D01*
X97079995Y-105982076D02*
X97175233Y-105982076D01*
X97175233Y-105982076D02*
X97318090Y-106029695D01*
X97318090Y-106029695D02*
X97889519Y-106601123D01*
X97889519Y-106601123D02*
X97889519Y-105982076D01*
X96889519Y-105363028D02*
X96889519Y-105267790D01*
X96889519Y-105267790D02*
X96937138Y-105172552D01*
X96937138Y-105172552D02*
X96984757Y-105124933D01*
X96984757Y-105124933D02*
X97079995Y-105077314D01*
X97079995Y-105077314D02*
X97270471Y-105029695D01*
X97270471Y-105029695D02*
X97508566Y-105029695D01*
X97508566Y-105029695D02*
X97699042Y-105077314D01*
X97699042Y-105077314D02*
X97794280Y-105124933D01*
X97794280Y-105124933D02*
X97841900Y-105172552D01*
X97841900Y-105172552D02*
X97889519Y-105267790D01*
X97889519Y-105267790D02*
X97889519Y-105363028D01*
X97889519Y-105363028D02*
X97841900Y-105458266D01*
X97841900Y-105458266D02*
X97794280Y-105505885D01*
X97794280Y-105505885D02*
X97699042Y-105553504D01*
X97699042Y-105553504D02*
X97508566Y-105601123D01*
X97508566Y-105601123D02*
X97270471Y-105601123D01*
X97270471Y-105601123D02*
X97079995Y-105553504D01*
X97079995Y-105553504D02*
X96984757Y-105505885D01*
X96984757Y-105505885D02*
X96937138Y-105458266D01*
X96937138Y-105458266D02*
X96889519Y-105363028D01*
X118145180Y-103149891D02*
X117145180Y-103816557D01*
X118145180Y-103816557D02*
X117145180Y-103149891D01*
X118145180Y-104054653D02*
X118145180Y-104626081D01*
X117145180Y-104340367D02*
X118145180Y-104340367D01*
X117430895Y-104911796D02*
X117430895Y-105387986D01*
X117145180Y-104816558D02*
X118145180Y-105149891D01*
X118145180Y-105149891D02*
X117145180Y-105483224D01*
X117145180Y-106292748D02*
X117145180Y-105816558D01*
X117145180Y-105816558D02*
X118145180Y-105816558D01*
X118049942Y-106578463D02*
X118097561Y-106626082D01*
X118097561Y-106626082D02*
X118145180Y-106721320D01*
X118145180Y-106721320D02*
X118145180Y-106959415D01*
X118145180Y-106959415D02*
X118097561Y-107054653D01*
X118097561Y-107054653D02*
X118049942Y-107102272D01*
X118049942Y-107102272D02*
X117954704Y-107149891D01*
X117954704Y-107149891D02*
X117859466Y-107149891D01*
X117859466Y-107149891D02*
X117716609Y-107102272D01*
X117716609Y-107102272D02*
X117145180Y-106530844D01*
X117145180Y-106530844D02*
X117145180Y-107149891D01*
X125144819Y-93160590D02*
X124144819Y-93160590D01*
X124144819Y-93160590D02*
X124144819Y-92922495D01*
X124144819Y-92922495D02*
X124192438Y-92779638D01*
X124192438Y-92779638D02*
X124287676Y-92684400D01*
X124287676Y-92684400D02*
X124382914Y-92636781D01*
X124382914Y-92636781D02*
X124573390Y-92589162D01*
X124573390Y-92589162D02*
X124716247Y-92589162D01*
X124716247Y-92589162D02*
X124906723Y-92636781D01*
X124906723Y-92636781D02*
X125001961Y-92684400D01*
X125001961Y-92684400D02*
X125097200Y-92779638D01*
X125097200Y-92779638D02*
X125144819Y-92922495D01*
X125144819Y-92922495D02*
X125144819Y-93160590D01*
X124240057Y-92208209D02*
X124192438Y-92160590D01*
X124192438Y-92160590D02*
X124144819Y-92065352D01*
X124144819Y-92065352D02*
X124144819Y-91827257D01*
X124144819Y-91827257D02*
X124192438Y-91732019D01*
X124192438Y-91732019D02*
X124240057Y-91684400D01*
X124240057Y-91684400D02*
X124335295Y-91636781D01*
X124335295Y-91636781D02*
X124430533Y-91636781D01*
X124430533Y-91636781D02*
X124573390Y-91684400D01*
X124573390Y-91684400D02*
X125144819Y-92255828D01*
X125144819Y-92255828D02*
X125144819Y-91636781D01*
D12*
X125950600Y-92052822D02*
X125950600Y-91290918D01*
X126407742Y-91671870D02*
X125493457Y-91671870D01*
X125950600Y-93552822D02*
X125950600Y-92790918D01*
D10*
X91757142Y-89129580D02*
X91709523Y-89177200D01*
X91709523Y-89177200D02*
X91566666Y-89224819D01*
X91566666Y-89224819D02*
X91471428Y-89224819D01*
X91471428Y-89224819D02*
X91328571Y-89177200D01*
X91328571Y-89177200D02*
X91233333Y-89081961D01*
X91233333Y-89081961D02*
X91185714Y-88986723D01*
X91185714Y-88986723D02*
X91138095Y-88796247D01*
X91138095Y-88796247D02*
X91138095Y-88653390D01*
X91138095Y-88653390D02*
X91185714Y-88462914D01*
X91185714Y-88462914D02*
X91233333Y-88367676D01*
X91233333Y-88367676D02*
X91328571Y-88272438D01*
X91328571Y-88272438D02*
X91471428Y-88224819D01*
X91471428Y-88224819D02*
X91566666Y-88224819D01*
X91566666Y-88224819D02*
X91709523Y-88272438D01*
X91709523Y-88272438D02*
X91757142Y-88320057D01*
X92709523Y-89224819D02*
X92138095Y-89224819D01*
X92423809Y-89224819D02*
X92423809Y-88224819D01*
X92423809Y-88224819D02*
X92328571Y-88367676D01*
X92328571Y-88367676D02*
X92233333Y-88462914D01*
X92233333Y-88462914D02*
X92138095Y-88510533D01*
X93280952Y-88653390D02*
X93185714Y-88605771D01*
X93185714Y-88605771D02*
X93138095Y-88558152D01*
X93138095Y-88558152D02*
X93090476Y-88462914D01*
X93090476Y-88462914D02*
X93090476Y-88415295D01*
X93090476Y-88415295D02*
X93138095Y-88320057D01*
X93138095Y-88320057D02*
X93185714Y-88272438D01*
X93185714Y-88272438D02*
X93280952Y-88224819D01*
X93280952Y-88224819D02*
X93471428Y-88224819D01*
X93471428Y-88224819D02*
X93566666Y-88272438D01*
X93566666Y-88272438D02*
X93614285Y-88320057D01*
X93614285Y-88320057D02*
X93661904Y-88415295D01*
X93661904Y-88415295D02*
X93661904Y-88462914D01*
X93661904Y-88462914D02*
X93614285Y-88558152D01*
X93614285Y-88558152D02*
X93566666Y-88605771D01*
X93566666Y-88605771D02*
X93471428Y-88653390D01*
X93471428Y-88653390D02*
X93280952Y-88653390D01*
X93280952Y-88653390D02*
X93185714Y-88701009D01*
X93185714Y-88701009D02*
X93138095Y-88748628D01*
X93138095Y-88748628D02*
X93090476Y-88843866D01*
X93090476Y-88843866D02*
X93090476Y-89034342D01*
X93090476Y-89034342D02*
X93138095Y-89129580D01*
X93138095Y-89129580D02*
X93185714Y-89177200D01*
X93185714Y-89177200D02*
X93280952Y-89224819D01*
X93280952Y-89224819D02*
X93471428Y-89224819D01*
X93471428Y-89224819D02*
X93566666Y-89177200D01*
X93566666Y-89177200D02*
X93614285Y-89129580D01*
X93614285Y-89129580D02*
X93661904Y-89034342D01*
X93661904Y-89034342D02*
X93661904Y-88843866D01*
X93661904Y-88843866D02*
X93614285Y-88748628D01*
X93614285Y-88748628D02*
X93566666Y-88701009D01*
X93566666Y-88701009D02*
X93471428Y-88653390D01*
X111126666Y-90129819D02*
X111126666Y-90844104D01*
X111126666Y-90844104D02*
X111079047Y-90986961D01*
X111079047Y-90986961D02*
X110983809Y-91082200D01*
X110983809Y-91082200D02*
X110840952Y-91129819D01*
X110840952Y-91129819D02*
X110745714Y-91129819D01*
X112126666Y-91129819D02*
X111555238Y-91129819D01*
X111840952Y-91129819D02*
X111840952Y-90129819D01*
X111840952Y-90129819D02*
X111745714Y-90272676D01*
X111745714Y-90272676D02*
X111650476Y-90367914D01*
X111650476Y-90367914D02*
X111555238Y-90415533D01*
X100245519Y-90990804D02*
X101055042Y-90990804D01*
X101055042Y-90990804D02*
X101150280Y-90943185D01*
X101150280Y-90943185D02*
X101197900Y-90895566D01*
X101197900Y-90895566D02*
X101245519Y-90800328D01*
X101245519Y-90800328D02*
X101245519Y-90609852D01*
X101245519Y-90609852D02*
X101197900Y-90514614D01*
X101197900Y-90514614D02*
X101150280Y-90466995D01*
X101150280Y-90466995D02*
X101055042Y-90419376D01*
X101055042Y-90419376D02*
X100245519Y-90419376D01*
X100245519Y-90038423D02*
X100245519Y-89419376D01*
X100245519Y-89419376D02*
X100626471Y-89752709D01*
X100626471Y-89752709D02*
X100626471Y-89609852D01*
X100626471Y-89609852D02*
X100674090Y-89514614D01*
X100674090Y-89514614D02*
X100721709Y-89466995D01*
X100721709Y-89466995D02*
X100816947Y-89419376D01*
X100816947Y-89419376D02*
X101055042Y-89419376D01*
X101055042Y-89419376D02*
X101150280Y-89466995D01*
X101150280Y-89466995D02*
X101197900Y-89514614D01*
X101197900Y-89514614D02*
X101245519Y-89609852D01*
X101245519Y-89609852D02*
X101245519Y-89895566D01*
X101245519Y-89895566D02*
X101197900Y-89990804D01*
X101197900Y-89990804D02*
X101150280Y-90038423D01*
X94713692Y-97946085D02*
X94237501Y-98279418D01*
X94713692Y-98517513D02*
X93713692Y-98517513D01*
X93713692Y-98517513D02*
X93713692Y-98136561D01*
X93713692Y-98136561D02*
X93761311Y-98041323D01*
X93761311Y-98041323D02*
X93808930Y-97993704D01*
X93808930Y-97993704D02*
X93904168Y-97946085D01*
X93904168Y-97946085D02*
X94047025Y-97946085D01*
X94047025Y-97946085D02*
X94142263Y-97993704D01*
X94142263Y-97993704D02*
X94189882Y-98041323D01*
X94189882Y-98041323D02*
X94237501Y-98136561D01*
X94237501Y-98136561D02*
X94237501Y-98517513D01*
X93713692Y-97088942D02*
X93713692Y-97279418D01*
X93713692Y-97279418D02*
X93761311Y-97374656D01*
X93761311Y-97374656D02*
X93808930Y-97422275D01*
X93808930Y-97422275D02*
X93951787Y-97517513D01*
X93951787Y-97517513D02*
X94142263Y-97565132D01*
X94142263Y-97565132D02*
X94523215Y-97565132D01*
X94523215Y-97565132D02*
X94618453Y-97517513D01*
X94618453Y-97517513D02*
X94666073Y-97469894D01*
X94666073Y-97469894D02*
X94713692Y-97374656D01*
X94713692Y-97374656D02*
X94713692Y-97184180D01*
X94713692Y-97184180D02*
X94666073Y-97088942D01*
X94666073Y-97088942D02*
X94618453Y-97041323D01*
X94618453Y-97041323D02*
X94523215Y-96993704D01*
X94523215Y-96993704D02*
X94285120Y-96993704D01*
X94285120Y-96993704D02*
X94189882Y-97041323D01*
X94189882Y-97041323D02*
X94142263Y-97088942D01*
X94142263Y-97088942D02*
X94094644Y-97184180D01*
X94094644Y-97184180D02*
X94094644Y-97374656D01*
X94094644Y-97374656D02*
X94142263Y-97469894D01*
X94142263Y-97469894D02*
X94189882Y-97517513D01*
X94189882Y-97517513D02*
X94285120Y-97565132D01*
X114839580Y-94384862D02*
X114887200Y-94432481D01*
X114887200Y-94432481D02*
X114934819Y-94575338D01*
X114934819Y-94575338D02*
X114934819Y-94670576D01*
X114934819Y-94670576D02*
X114887200Y-94813433D01*
X114887200Y-94813433D02*
X114791961Y-94908671D01*
X114791961Y-94908671D02*
X114696723Y-94956290D01*
X114696723Y-94956290D02*
X114506247Y-95003909D01*
X114506247Y-95003909D02*
X114363390Y-95003909D01*
X114363390Y-95003909D02*
X114172914Y-94956290D01*
X114172914Y-94956290D02*
X114077676Y-94908671D01*
X114077676Y-94908671D02*
X113982438Y-94813433D01*
X113982438Y-94813433D02*
X113934819Y-94670576D01*
X113934819Y-94670576D02*
X113934819Y-94575338D01*
X113934819Y-94575338D02*
X113982438Y-94432481D01*
X113982438Y-94432481D02*
X114030057Y-94384862D01*
X114363390Y-93813433D02*
X114315771Y-93908671D01*
X114315771Y-93908671D02*
X114268152Y-93956290D01*
X114268152Y-93956290D02*
X114172914Y-94003909D01*
X114172914Y-94003909D02*
X114125295Y-94003909D01*
X114125295Y-94003909D02*
X114030057Y-93956290D01*
X114030057Y-93956290D02*
X113982438Y-93908671D01*
X113982438Y-93908671D02*
X113934819Y-93813433D01*
X113934819Y-93813433D02*
X113934819Y-93622957D01*
X113934819Y-93622957D02*
X113982438Y-93527719D01*
X113982438Y-93527719D02*
X114030057Y-93480100D01*
X114030057Y-93480100D02*
X114125295Y-93432481D01*
X114125295Y-93432481D02*
X114172914Y-93432481D01*
X114172914Y-93432481D02*
X114268152Y-93480100D01*
X114268152Y-93480100D02*
X114315771Y-93527719D01*
X114315771Y-93527719D02*
X114363390Y-93622957D01*
X114363390Y-93622957D02*
X114363390Y-93813433D01*
X114363390Y-93813433D02*
X114411009Y-93908671D01*
X114411009Y-93908671D02*
X114458628Y-93956290D01*
X114458628Y-93956290D02*
X114553866Y-94003909D01*
X114553866Y-94003909D02*
X114744342Y-94003909D01*
X114744342Y-94003909D02*
X114839580Y-93956290D01*
X114839580Y-93956290D02*
X114887200Y-93908671D01*
X114887200Y-93908671D02*
X114934819Y-93813433D01*
X114934819Y-93813433D02*
X114934819Y-93622957D01*
X114934819Y-93622957D02*
X114887200Y-93527719D01*
X114887200Y-93527719D02*
X114839580Y-93480100D01*
X114839580Y-93480100D02*
X114744342Y-93432481D01*
X114744342Y-93432481D02*
X114553866Y-93432481D01*
X114553866Y-93432481D02*
X114458628Y-93480100D01*
X114458628Y-93480100D02*
X114411009Y-93527719D01*
X114411009Y-93527719D02*
X114363390Y-93622957D01*
X105764819Y-98591666D02*
X105288628Y-98924999D01*
X105764819Y-99163094D02*
X104764819Y-99163094D01*
X104764819Y-99163094D02*
X104764819Y-98782142D01*
X104764819Y-98782142D02*
X104812438Y-98686904D01*
X104812438Y-98686904D02*
X104860057Y-98639285D01*
X104860057Y-98639285D02*
X104955295Y-98591666D01*
X104955295Y-98591666D02*
X105098152Y-98591666D01*
X105098152Y-98591666D02*
X105193390Y-98639285D01*
X105193390Y-98639285D02*
X105241009Y-98686904D01*
X105241009Y-98686904D02*
X105288628Y-98782142D01*
X105288628Y-98782142D02*
X105288628Y-99163094D01*
X104860057Y-98210713D02*
X104812438Y-98163094D01*
X104812438Y-98163094D02*
X104764819Y-98067856D01*
X104764819Y-98067856D02*
X104764819Y-97829761D01*
X104764819Y-97829761D02*
X104812438Y-97734523D01*
X104812438Y-97734523D02*
X104860057Y-97686904D01*
X104860057Y-97686904D02*
X104955295Y-97639285D01*
X104955295Y-97639285D02*
X105050533Y-97639285D01*
X105050533Y-97639285D02*
X105193390Y-97686904D01*
X105193390Y-97686904D02*
X105764819Y-98258332D01*
X105764819Y-98258332D02*
X105764819Y-97639285D01*
X89007142Y-98579580D02*
X88959523Y-98627200D01*
X88959523Y-98627200D02*
X88816666Y-98674819D01*
X88816666Y-98674819D02*
X88721428Y-98674819D01*
X88721428Y-98674819D02*
X88578571Y-98627200D01*
X88578571Y-98627200D02*
X88483333Y-98531961D01*
X88483333Y-98531961D02*
X88435714Y-98436723D01*
X88435714Y-98436723D02*
X88388095Y-98246247D01*
X88388095Y-98246247D02*
X88388095Y-98103390D01*
X88388095Y-98103390D02*
X88435714Y-97912914D01*
X88435714Y-97912914D02*
X88483333Y-97817676D01*
X88483333Y-97817676D02*
X88578571Y-97722438D01*
X88578571Y-97722438D02*
X88721428Y-97674819D01*
X88721428Y-97674819D02*
X88816666Y-97674819D01*
X88816666Y-97674819D02*
X88959523Y-97722438D01*
X88959523Y-97722438D02*
X89007142Y-97770057D01*
X89959523Y-98674819D02*
X89388095Y-98674819D01*
X89673809Y-98674819D02*
X89673809Y-97674819D01*
X89673809Y-97674819D02*
X89578571Y-97817676D01*
X89578571Y-97817676D02*
X89483333Y-97912914D01*
X89483333Y-97912914D02*
X89388095Y-97960533D01*
X90340476Y-97770057D02*
X90388095Y-97722438D01*
X90388095Y-97722438D02*
X90483333Y-97674819D01*
X90483333Y-97674819D02*
X90721428Y-97674819D01*
X90721428Y-97674819D02*
X90816666Y-97722438D01*
X90816666Y-97722438D02*
X90864285Y-97770057D01*
X90864285Y-97770057D02*
X90911904Y-97865295D01*
X90911904Y-97865295D02*
X90911904Y-97960533D01*
X90911904Y-97960533D02*
X90864285Y-98103390D01*
X90864285Y-98103390D02*
X90292857Y-98674819D01*
X90292857Y-98674819D02*
X90911904Y-98674819D01*
X95374280Y-102378266D02*
X95421900Y-102425885D01*
X95421900Y-102425885D02*
X95469519Y-102568742D01*
X95469519Y-102568742D02*
X95469519Y-102663980D01*
X95469519Y-102663980D02*
X95421900Y-102806837D01*
X95421900Y-102806837D02*
X95326661Y-102902075D01*
X95326661Y-102902075D02*
X95231423Y-102949694D01*
X95231423Y-102949694D02*
X95040947Y-102997313D01*
X95040947Y-102997313D02*
X94898090Y-102997313D01*
X94898090Y-102997313D02*
X94707614Y-102949694D01*
X94707614Y-102949694D02*
X94612376Y-102902075D01*
X94612376Y-102902075D02*
X94517138Y-102806837D01*
X94517138Y-102806837D02*
X94469519Y-102663980D01*
X94469519Y-102663980D02*
X94469519Y-102568742D01*
X94469519Y-102568742D02*
X94517138Y-102425885D01*
X94517138Y-102425885D02*
X94564757Y-102378266D01*
X95469519Y-101425885D02*
X95469519Y-101997313D01*
X95469519Y-101711599D02*
X94469519Y-101711599D01*
X94469519Y-101711599D02*
X94612376Y-101806837D01*
X94612376Y-101806837D02*
X94707614Y-101902075D01*
X94707614Y-101902075D02*
X94755233Y-101997313D01*
X115301904Y-99813376D02*
X115301904Y-99003853D01*
X115301904Y-99003853D02*
X115254285Y-98908615D01*
X115254285Y-98908615D02*
X115206666Y-98860996D01*
X115206666Y-98860996D02*
X115111428Y-98813376D01*
X115111428Y-98813376D02*
X114920952Y-98813376D01*
X114920952Y-98813376D02*
X114825714Y-98860996D01*
X114825714Y-98860996D02*
X114778095Y-98908615D01*
X114778095Y-98908615D02*
X114730476Y-99003853D01*
X114730476Y-99003853D02*
X114730476Y-99813376D01*
X114301904Y-99718138D02*
X114254285Y-99765757D01*
X114254285Y-99765757D02*
X114159047Y-99813376D01*
X114159047Y-99813376D02*
X113920952Y-99813376D01*
X113920952Y-99813376D02*
X113825714Y-99765757D01*
X113825714Y-99765757D02*
X113778095Y-99718138D01*
X113778095Y-99718138D02*
X113730476Y-99622900D01*
X113730476Y-99622900D02*
X113730476Y-99527662D01*
X113730476Y-99527662D02*
X113778095Y-99384805D01*
X113778095Y-99384805D02*
X114349523Y-98813376D01*
X114349523Y-98813376D02*
X113730476Y-98813376D01*
X113584580Y-104584862D02*
X113632200Y-104632481D01*
X113632200Y-104632481D02*
X113679819Y-104775338D01*
X113679819Y-104775338D02*
X113679819Y-104870576D01*
X113679819Y-104870576D02*
X113632200Y-105013433D01*
X113632200Y-105013433D02*
X113536961Y-105108671D01*
X113536961Y-105108671D02*
X113441723Y-105156290D01*
X113441723Y-105156290D02*
X113251247Y-105203909D01*
X113251247Y-105203909D02*
X113108390Y-105203909D01*
X113108390Y-105203909D02*
X112917914Y-105156290D01*
X112917914Y-105156290D02*
X112822676Y-105108671D01*
X112822676Y-105108671D02*
X112727438Y-105013433D01*
X112727438Y-105013433D02*
X112679819Y-104870576D01*
X112679819Y-104870576D02*
X112679819Y-104775338D01*
X112679819Y-104775338D02*
X112727438Y-104632481D01*
X112727438Y-104632481D02*
X112775057Y-104584862D01*
X113679819Y-104108671D02*
X113679819Y-103918195D01*
X113679819Y-103918195D02*
X113632200Y-103822957D01*
X113632200Y-103822957D02*
X113584580Y-103775338D01*
X113584580Y-103775338D02*
X113441723Y-103680100D01*
X113441723Y-103680100D02*
X113251247Y-103632481D01*
X113251247Y-103632481D02*
X112870295Y-103632481D01*
X112870295Y-103632481D02*
X112775057Y-103680100D01*
X112775057Y-103680100D02*
X112727438Y-103727719D01*
X112727438Y-103727719D02*
X112679819Y-103822957D01*
X112679819Y-103822957D02*
X112679819Y-104013433D01*
X112679819Y-104013433D02*
X112727438Y-104108671D01*
X112727438Y-104108671D02*
X112775057Y-104156290D01*
X112775057Y-104156290D02*
X112870295Y-104203909D01*
X112870295Y-104203909D02*
X113108390Y-104203909D01*
X113108390Y-104203909D02*
X113203628Y-104156290D01*
X113203628Y-104156290D02*
X113251247Y-104108671D01*
X113251247Y-104108671D02*
X113298866Y-104013433D01*
X113298866Y-104013433D02*
X113298866Y-103822957D01*
X113298866Y-103822957D02*
X113251247Y-103727719D01*
X113251247Y-103727719D02*
X113203628Y-103680100D01*
X113203628Y-103680100D02*
X113108390Y-103632481D01*
X84070180Y-101241666D02*
X83355895Y-101241666D01*
X83355895Y-101241666D02*
X83213038Y-101194047D01*
X83213038Y-101194047D02*
X83117800Y-101098809D01*
X83117800Y-101098809D02*
X83070180Y-100955952D01*
X83070180Y-100955952D02*
X83070180Y-100860714D01*
X84070180Y-101622619D02*
X84070180Y-102241666D01*
X84070180Y-102241666D02*
X83689228Y-101908333D01*
X83689228Y-101908333D02*
X83689228Y-102051190D01*
X83689228Y-102051190D02*
X83641609Y-102146428D01*
X83641609Y-102146428D02*
X83593990Y-102194047D01*
X83593990Y-102194047D02*
X83498752Y-102241666D01*
X83498752Y-102241666D02*
X83260657Y-102241666D01*
X83260657Y-102241666D02*
X83165419Y-102194047D01*
X83165419Y-102194047D02*
X83117800Y-102146428D01*
X83117800Y-102146428D02*
X83070180Y-102051190D01*
X83070180Y-102051190D02*
X83070180Y-101765476D01*
X83070180Y-101765476D02*
X83117800Y-101670238D01*
X83117800Y-101670238D02*
X83165419Y-101622619D01*
X118722142Y-101117776D02*
X118674523Y-101165396D01*
X118674523Y-101165396D02*
X118531666Y-101213015D01*
X118531666Y-101213015D02*
X118436428Y-101213015D01*
X118436428Y-101213015D02*
X118293571Y-101165396D01*
X118293571Y-101165396D02*
X118198333Y-101070157D01*
X118198333Y-101070157D02*
X118150714Y-100974919D01*
X118150714Y-100974919D02*
X118103095Y-100784443D01*
X118103095Y-100784443D02*
X118103095Y-100641586D01*
X118103095Y-100641586D02*
X118150714Y-100451110D01*
X118150714Y-100451110D02*
X118198333Y-100355872D01*
X118198333Y-100355872D02*
X118293571Y-100260634D01*
X118293571Y-100260634D02*
X118436428Y-100213015D01*
X118436428Y-100213015D02*
X118531666Y-100213015D01*
X118531666Y-100213015D02*
X118674523Y-100260634D01*
X118674523Y-100260634D02*
X118722142Y-100308253D01*
X119674523Y-101213015D02*
X119103095Y-101213015D01*
X119388809Y-101213015D02*
X119388809Y-100213015D01*
X119388809Y-100213015D02*
X119293571Y-100355872D01*
X119293571Y-100355872D02*
X119198333Y-100451110D01*
X119198333Y-100451110D02*
X119103095Y-100498729D01*
X120531666Y-100546348D02*
X120531666Y-101213015D01*
X120293571Y-100165396D02*
X120055476Y-100879681D01*
X120055476Y-100879681D02*
X120674523Y-100879681D01*
X102233333Y-103399580D02*
X102185714Y-103447200D01*
X102185714Y-103447200D02*
X102042857Y-103494819D01*
X102042857Y-103494819D02*
X101947619Y-103494819D01*
X101947619Y-103494819D02*
X101804762Y-103447200D01*
X101804762Y-103447200D02*
X101709524Y-103351961D01*
X101709524Y-103351961D02*
X101661905Y-103256723D01*
X101661905Y-103256723D02*
X101614286Y-103066247D01*
X101614286Y-103066247D02*
X101614286Y-102923390D01*
X101614286Y-102923390D02*
X101661905Y-102732914D01*
X101661905Y-102732914D02*
X101709524Y-102637676D01*
X101709524Y-102637676D02*
X101804762Y-102542438D01*
X101804762Y-102542438D02*
X101947619Y-102494819D01*
X101947619Y-102494819D02*
X102042857Y-102494819D01*
X102042857Y-102494819D02*
X102185714Y-102542438D01*
X102185714Y-102542438D02*
X102233333Y-102590057D01*
X102566667Y-102494819D02*
X103185714Y-102494819D01*
X103185714Y-102494819D02*
X102852381Y-102875771D01*
X102852381Y-102875771D02*
X102995238Y-102875771D01*
X102995238Y-102875771D02*
X103090476Y-102923390D01*
X103090476Y-102923390D02*
X103138095Y-102971009D01*
X103138095Y-102971009D02*
X103185714Y-103066247D01*
X103185714Y-103066247D02*
X103185714Y-103304342D01*
X103185714Y-103304342D02*
X103138095Y-103399580D01*
X103138095Y-103399580D02*
X103090476Y-103447200D01*
X103090476Y-103447200D02*
X102995238Y-103494819D01*
X102995238Y-103494819D02*
X102709524Y-103494819D01*
X102709524Y-103494819D02*
X102614286Y-103447200D01*
X102614286Y-103447200D02*
X102566667Y-103399580D01*
X122122142Y-97154580D02*
X122074523Y-97202200D01*
X122074523Y-97202200D02*
X121931666Y-97249819D01*
X121931666Y-97249819D02*
X121836428Y-97249819D01*
X121836428Y-97249819D02*
X121693571Y-97202200D01*
X121693571Y-97202200D02*
X121598333Y-97106961D01*
X121598333Y-97106961D02*
X121550714Y-97011723D01*
X121550714Y-97011723D02*
X121503095Y-96821247D01*
X121503095Y-96821247D02*
X121503095Y-96678390D01*
X121503095Y-96678390D02*
X121550714Y-96487914D01*
X121550714Y-96487914D02*
X121598333Y-96392676D01*
X121598333Y-96392676D02*
X121693571Y-96297438D01*
X121693571Y-96297438D02*
X121836428Y-96249819D01*
X121836428Y-96249819D02*
X121931666Y-96249819D01*
X121931666Y-96249819D02*
X122074523Y-96297438D01*
X122074523Y-96297438D02*
X122122142Y-96345057D01*
X123074523Y-97249819D02*
X122503095Y-97249819D01*
X122788809Y-97249819D02*
X122788809Y-96249819D01*
X122788809Y-96249819D02*
X122693571Y-96392676D01*
X122693571Y-96392676D02*
X122598333Y-96487914D01*
X122598333Y-96487914D02*
X122503095Y-96535533D01*
X123931666Y-96249819D02*
X123741190Y-96249819D01*
X123741190Y-96249819D02*
X123645952Y-96297438D01*
X123645952Y-96297438D02*
X123598333Y-96345057D01*
X123598333Y-96345057D02*
X123503095Y-96487914D01*
X123503095Y-96487914D02*
X123455476Y-96678390D01*
X123455476Y-96678390D02*
X123455476Y-97059342D01*
X123455476Y-97059342D02*
X123503095Y-97154580D01*
X123503095Y-97154580D02*
X123550714Y-97202200D01*
X123550714Y-97202200D02*
X123645952Y-97249819D01*
X123645952Y-97249819D02*
X123836428Y-97249819D01*
X123836428Y-97249819D02*
X123931666Y-97202200D01*
X123931666Y-97202200D02*
X123979285Y-97154580D01*
X123979285Y-97154580D02*
X124026904Y-97059342D01*
X124026904Y-97059342D02*
X124026904Y-96821247D01*
X124026904Y-96821247D02*
X123979285Y-96726009D01*
X123979285Y-96726009D02*
X123931666Y-96678390D01*
X123931666Y-96678390D02*
X123836428Y-96630771D01*
X123836428Y-96630771D02*
X123645952Y-96630771D01*
X123645952Y-96630771D02*
X123550714Y-96678390D01*
X123550714Y-96678390D02*
X123503095Y-96726009D01*
X123503095Y-96726009D02*
X123455476Y-96821247D01*
X119284819Y-94101054D02*
X118808628Y-94434387D01*
X119284819Y-94672482D02*
X118284819Y-94672482D01*
X118284819Y-94672482D02*
X118284819Y-94291530D01*
X118284819Y-94291530D02*
X118332438Y-94196292D01*
X118332438Y-94196292D02*
X118380057Y-94148673D01*
X118380057Y-94148673D02*
X118475295Y-94101054D01*
X118475295Y-94101054D02*
X118618152Y-94101054D01*
X118618152Y-94101054D02*
X118713390Y-94148673D01*
X118713390Y-94148673D02*
X118761009Y-94196292D01*
X118761009Y-94196292D02*
X118808628Y-94291530D01*
X118808628Y-94291530D02*
X118808628Y-94672482D01*
X119284819Y-93148673D02*
X119284819Y-93720101D01*
X119284819Y-93434387D02*
X118284819Y-93434387D01*
X118284819Y-93434387D02*
X118427676Y-93529625D01*
X118427676Y-93529625D02*
X118522914Y-93624863D01*
X118522914Y-93624863D02*
X118570533Y-93720101D01*
X118284819Y-92529625D02*
X118284819Y-92434387D01*
X118284819Y-92434387D02*
X118332438Y-92339149D01*
X118332438Y-92339149D02*
X118380057Y-92291530D01*
X118380057Y-92291530D02*
X118475295Y-92243911D01*
X118475295Y-92243911D02*
X118665771Y-92196292D01*
X118665771Y-92196292D02*
X118903866Y-92196292D01*
X118903866Y-92196292D02*
X119094342Y-92243911D01*
X119094342Y-92243911D02*
X119189580Y-92291530D01*
X119189580Y-92291530D02*
X119237200Y-92339149D01*
X119237200Y-92339149D02*
X119284819Y-92434387D01*
X119284819Y-92434387D02*
X119284819Y-92529625D01*
X119284819Y-92529625D02*
X119237200Y-92624863D01*
X119237200Y-92624863D02*
X119189580Y-92672482D01*
X119189580Y-92672482D02*
X119094342Y-92720101D01*
X119094342Y-92720101D02*
X118903866Y-92767720D01*
X118903866Y-92767720D02*
X118665771Y-92767720D01*
X118665771Y-92767720D02*
X118475295Y-92720101D01*
X118475295Y-92720101D02*
X118380057Y-92672482D01*
X118380057Y-92672482D02*
X118332438Y-92624863D01*
X118332438Y-92624863D02*
X118284819Y-92529625D01*
X107692019Y-101207866D02*
X107215828Y-101541199D01*
X107692019Y-101779294D02*
X106692019Y-101779294D01*
X106692019Y-101779294D02*
X106692019Y-101398342D01*
X106692019Y-101398342D02*
X106739638Y-101303104D01*
X106739638Y-101303104D02*
X106787257Y-101255485D01*
X106787257Y-101255485D02*
X106882495Y-101207866D01*
X106882495Y-101207866D02*
X107025352Y-101207866D01*
X107025352Y-101207866D02*
X107120590Y-101255485D01*
X107120590Y-101255485D02*
X107168209Y-101303104D01*
X107168209Y-101303104D02*
X107215828Y-101398342D01*
X107215828Y-101398342D02*
X107215828Y-101779294D01*
X106692019Y-100874532D02*
X106692019Y-100255485D01*
X106692019Y-100255485D02*
X107072971Y-100588818D01*
X107072971Y-100588818D02*
X107072971Y-100445961D01*
X107072971Y-100445961D02*
X107120590Y-100350723D01*
X107120590Y-100350723D02*
X107168209Y-100303104D01*
X107168209Y-100303104D02*
X107263447Y-100255485D01*
X107263447Y-100255485D02*
X107501542Y-100255485D01*
X107501542Y-100255485D02*
X107596780Y-100303104D01*
X107596780Y-100303104D02*
X107644400Y-100350723D01*
X107644400Y-100350723D02*
X107692019Y-100445961D01*
X107692019Y-100445961D02*
X107692019Y-100731675D01*
X107692019Y-100731675D02*
X107644400Y-100826913D01*
X107644400Y-100826913D02*
X107596780Y-100874532D01*
X101382533Y-97481219D02*
X101049200Y-97005028D01*
X100811105Y-97481219D02*
X100811105Y-96481219D01*
X100811105Y-96481219D02*
X101192057Y-96481219D01*
X101192057Y-96481219D02*
X101287295Y-96528838D01*
X101287295Y-96528838D02*
X101334914Y-96576457D01*
X101334914Y-96576457D02*
X101382533Y-96671695D01*
X101382533Y-96671695D02*
X101382533Y-96814552D01*
X101382533Y-96814552D02*
X101334914Y-96909790D01*
X101334914Y-96909790D02*
X101287295Y-96957409D01*
X101287295Y-96957409D02*
X101192057Y-97005028D01*
X101192057Y-97005028D02*
X100811105Y-97005028D01*
X101953962Y-96909790D02*
X101858724Y-96862171D01*
X101858724Y-96862171D02*
X101811105Y-96814552D01*
X101811105Y-96814552D02*
X101763486Y-96719314D01*
X101763486Y-96719314D02*
X101763486Y-96671695D01*
X101763486Y-96671695D02*
X101811105Y-96576457D01*
X101811105Y-96576457D02*
X101858724Y-96528838D01*
X101858724Y-96528838D02*
X101953962Y-96481219D01*
X101953962Y-96481219D02*
X102144438Y-96481219D01*
X102144438Y-96481219D02*
X102239676Y-96528838D01*
X102239676Y-96528838D02*
X102287295Y-96576457D01*
X102287295Y-96576457D02*
X102334914Y-96671695D01*
X102334914Y-96671695D02*
X102334914Y-96719314D01*
X102334914Y-96719314D02*
X102287295Y-96814552D01*
X102287295Y-96814552D02*
X102239676Y-96862171D01*
X102239676Y-96862171D02*
X102144438Y-96909790D01*
X102144438Y-96909790D02*
X101953962Y-96909790D01*
X101953962Y-96909790D02*
X101858724Y-96957409D01*
X101858724Y-96957409D02*
X101811105Y-97005028D01*
X101811105Y-97005028D02*
X101763486Y-97100266D01*
X101763486Y-97100266D02*
X101763486Y-97290742D01*
X101763486Y-97290742D02*
X101811105Y-97385980D01*
X101811105Y-97385980D02*
X101858724Y-97433600D01*
X101858724Y-97433600D02*
X101953962Y-97481219D01*
X101953962Y-97481219D02*
X102144438Y-97481219D01*
X102144438Y-97481219D02*
X102239676Y-97433600D01*
X102239676Y-97433600D02*
X102287295Y-97385980D01*
X102287295Y-97385980D02*
X102334914Y-97290742D01*
X102334914Y-97290742D02*
X102334914Y-97100266D01*
X102334914Y-97100266D02*
X102287295Y-97005028D01*
X102287295Y-97005028D02*
X102239676Y-96957409D01*
X102239676Y-96957409D02*
X102144438Y-96909790D01*
X124909580Y-102484862D02*
X124957200Y-102532481D01*
X124957200Y-102532481D02*
X125004819Y-102675338D01*
X125004819Y-102675338D02*
X125004819Y-102770576D01*
X125004819Y-102770576D02*
X124957200Y-102913433D01*
X124957200Y-102913433D02*
X124861961Y-103008671D01*
X124861961Y-103008671D02*
X124766723Y-103056290D01*
X124766723Y-103056290D02*
X124576247Y-103103909D01*
X124576247Y-103103909D02*
X124433390Y-103103909D01*
X124433390Y-103103909D02*
X124242914Y-103056290D01*
X124242914Y-103056290D02*
X124147676Y-103008671D01*
X124147676Y-103008671D02*
X124052438Y-102913433D01*
X124052438Y-102913433D02*
X124004819Y-102770576D01*
X124004819Y-102770576D02*
X124004819Y-102675338D01*
X124004819Y-102675338D02*
X124052438Y-102532481D01*
X124052438Y-102532481D02*
X124100057Y-102484862D01*
X124338152Y-101627719D02*
X125004819Y-101627719D01*
X123957200Y-101865814D02*
X124671485Y-102103909D01*
X124671485Y-102103909D02*
X124671485Y-101484862D01*
X93297206Y-97004238D02*
X92963873Y-96528047D01*
X92725778Y-97004238D02*
X92725778Y-96004238D01*
X92725778Y-96004238D02*
X93106730Y-96004238D01*
X93106730Y-96004238D02*
X93201968Y-96051857D01*
X93201968Y-96051857D02*
X93249587Y-96099476D01*
X93249587Y-96099476D02*
X93297206Y-96194714D01*
X93297206Y-96194714D02*
X93297206Y-96337571D01*
X93297206Y-96337571D02*
X93249587Y-96432809D01*
X93249587Y-96432809D02*
X93201968Y-96480428D01*
X93201968Y-96480428D02*
X93106730Y-96528047D01*
X93106730Y-96528047D02*
X92725778Y-96528047D01*
X94201968Y-96004238D02*
X93725778Y-96004238D01*
X93725778Y-96004238D02*
X93678159Y-96480428D01*
X93678159Y-96480428D02*
X93725778Y-96432809D01*
X93725778Y-96432809D02*
X93821016Y-96385190D01*
X93821016Y-96385190D02*
X94059111Y-96385190D01*
X94059111Y-96385190D02*
X94154349Y-96432809D01*
X94154349Y-96432809D02*
X94201968Y-96480428D01*
X94201968Y-96480428D02*
X94249587Y-96575666D01*
X94249587Y-96575666D02*
X94249587Y-96813761D01*
X94249587Y-96813761D02*
X94201968Y-96908999D01*
X94201968Y-96908999D02*
X94154349Y-96956619D01*
X94154349Y-96956619D02*
X94059111Y-97004238D01*
X94059111Y-97004238D02*
X93821016Y-97004238D01*
X93821016Y-97004238D02*
X93725778Y-96956619D01*
X93725778Y-96956619D02*
X93678159Y-96908999D01*
X119838095Y-84507200D02*
X119980952Y-84554819D01*
X119980952Y-84554819D02*
X120219047Y-84554819D01*
X120219047Y-84554819D02*
X120314285Y-84507200D01*
X120314285Y-84507200D02*
X120361904Y-84459580D01*
X120361904Y-84459580D02*
X120409523Y-84364342D01*
X120409523Y-84364342D02*
X120409523Y-84269104D01*
X120409523Y-84269104D02*
X120361904Y-84173866D01*
X120361904Y-84173866D02*
X120314285Y-84126247D01*
X120314285Y-84126247D02*
X120219047Y-84078628D01*
X120219047Y-84078628D02*
X120028571Y-84031009D01*
X120028571Y-84031009D02*
X119933333Y-83983390D01*
X119933333Y-83983390D02*
X119885714Y-83935771D01*
X119885714Y-83935771D02*
X119838095Y-83840533D01*
X119838095Y-83840533D02*
X119838095Y-83745295D01*
X119838095Y-83745295D02*
X119885714Y-83650057D01*
X119885714Y-83650057D02*
X119933333Y-83602438D01*
X119933333Y-83602438D02*
X120028571Y-83554819D01*
X120028571Y-83554819D02*
X120266666Y-83554819D01*
X120266666Y-83554819D02*
X120409523Y-83602438D01*
X121361904Y-84554819D02*
X120790476Y-84554819D01*
X121076190Y-84554819D02*
X121076190Y-83554819D01*
X121076190Y-83554819D02*
X120980952Y-83697676D01*
X120980952Y-83697676D02*
X120885714Y-83792914D01*
X120885714Y-83792914D02*
X120790476Y-83840533D01*
D13*
X124660995Y-88796928D02*
X124160995Y-88082642D01*
X123803852Y-88796928D02*
X123803852Y-87296928D01*
X123803852Y-87296928D02*
X124375281Y-87296928D01*
X124375281Y-87296928D02*
X124518138Y-87368357D01*
X124518138Y-87368357D02*
X124589567Y-87439785D01*
X124589567Y-87439785D02*
X124660995Y-87582642D01*
X124660995Y-87582642D02*
X124660995Y-87796928D01*
X124660995Y-87796928D02*
X124589567Y-87939785D01*
X124589567Y-87939785D02*
X124518138Y-88011214D01*
X124518138Y-88011214D02*
X124375281Y-88082642D01*
X124375281Y-88082642D02*
X123803852Y-88082642D01*
X125232424Y-88725500D02*
X125446710Y-88796928D01*
X125446710Y-88796928D02*
X125803852Y-88796928D01*
X125803852Y-88796928D02*
X125946710Y-88725500D01*
X125946710Y-88725500D02*
X126018138Y-88654071D01*
X126018138Y-88654071D02*
X126089567Y-88511214D01*
X126089567Y-88511214D02*
X126089567Y-88368357D01*
X126089567Y-88368357D02*
X126018138Y-88225500D01*
X126018138Y-88225500D02*
X125946710Y-88154071D01*
X125946710Y-88154071D02*
X125803852Y-88082642D01*
X125803852Y-88082642D02*
X125518138Y-88011214D01*
X125518138Y-88011214D02*
X125375281Y-87939785D01*
X125375281Y-87939785D02*
X125303852Y-87868357D01*
X125303852Y-87868357D02*
X125232424Y-87725500D01*
X125232424Y-87725500D02*
X125232424Y-87582642D01*
X125232424Y-87582642D02*
X125303852Y-87439785D01*
X125303852Y-87439785D02*
X125375281Y-87368357D01*
X125375281Y-87368357D02*
X125518138Y-87296928D01*
X125518138Y-87296928D02*
X125875281Y-87296928D01*
X125875281Y-87296928D02*
X126089567Y-87368357D01*
X126518138Y-87296928D02*
X127375281Y-87296928D01*
X126946709Y-88796928D02*
X126946709Y-87296928D01*
D10*
X99383333Y-99168990D02*
X99716666Y-99168990D01*
X99716666Y-98645180D02*
X99716666Y-99645180D01*
X99716666Y-99645180D02*
X99240476Y-99645180D01*
X98526190Y-99168990D02*
X98383333Y-99121371D01*
X98383333Y-99121371D02*
X98335714Y-99073752D01*
X98335714Y-99073752D02*
X98288095Y-98978514D01*
X98288095Y-98978514D02*
X98288095Y-98835657D01*
X98288095Y-98835657D02*
X98335714Y-98740419D01*
X98335714Y-98740419D02*
X98383333Y-98692800D01*
X98383333Y-98692800D02*
X98478571Y-98645180D01*
X98478571Y-98645180D02*
X98859523Y-98645180D01*
X98859523Y-98645180D02*
X98859523Y-99645180D01*
X98859523Y-99645180D02*
X98526190Y-99645180D01*
X98526190Y-99645180D02*
X98430952Y-99597561D01*
X98430952Y-99597561D02*
X98383333Y-99549942D01*
X98383333Y-99549942D02*
X98335714Y-99454704D01*
X98335714Y-99454704D02*
X98335714Y-99359466D01*
X98335714Y-99359466D02*
X98383333Y-99264228D01*
X98383333Y-99264228D02*
X98430952Y-99216609D01*
X98430952Y-99216609D02*
X98526190Y-99168990D01*
X98526190Y-99168990D02*
X98859523Y-99168990D01*
X97907142Y-99549942D02*
X97859523Y-99597561D01*
X97859523Y-99597561D02*
X97764285Y-99645180D01*
X97764285Y-99645180D02*
X97526190Y-99645180D01*
X97526190Y-99645180D02*
X97430952Y-99597561D01*
X97430952Y-99597561D02*
X97383333Y-99549942D01*
X97383333Y-99549942D02*
X97335714Y-99454704D01*
X97335714Y-99454704D02*
X97335714Y-99359466D01*
X97335714Y-99359466D02*
X97383333Y-99216609D01*
X97383333Y-99216609D02*
X97954761Y-98645180D01*
X97954761Y-98645180D02*
X97335714Y-98645180D01*
X113539580Y-94861053D02*
X113587200Y-94908672D01*
X113587200Y-94908672D02*
X113634819Y-95051529D01*
X113634819Y-95051529D02*
X113634819Y-95146767D01*
X113634819Y-95146767D02*
X113587200Y-95289624D01*
X113587200Y-95289624D02*
X113491961Y-95384862D01*
X113491961Y-95384862D02*
X113396723Y-95432481D01*
X113396723Y-95432481D02*
X113206247Y-95480100D01*
X113206247Y-95480100D02*
X113063390Y-95480100D01*
X113063390Y-95480100D02*
X112872914Y-95432481D01*
X112872914Y-95432481D02*
X112777676Y-95384862D01*
X112777676Y-95384862D02*
X112682438Y-95289624D01*
X112682438Y-95289624D02*
X112634819Y-95146767D01*
X112634819Y-95146767D02*
X112634819Y-95051529D01*
X112634819Y-95051529D02*
X112682438Y-94908672D01*
X112682438Y-94908672D02*
X112730057Y-94861053D01*
X113634819Y-93908672D02*
X113634819Y-94480100D01*
X113634819Y-94194386D02*
X112634819Y-94194386D01*
X112634819Y-94194386D02*
X112777676Y-94289624D01*
X112777676Y-94289624D02*
X112872914Y-94384862D01*
X112872914Y-94384862D02*
X112920533Y-94480100D01*
X112634819Y-93575338D02*
X112634819Y-92908672D01*
X112634819Y-92908672D02*
X113634819Y-93337243D01*
D14*
%TO.C,J2*%
X87390001Y-82150000D02*
X87390001Y-82150000D01*
X87390001Y-82150000D01*
X87390001Y-82150000D01*
X87390001Y-82150000D01*
X87390001Y-82150000D01*
X87390001Y-82150001D01*
X87390001Y-82150001D01*
X87390001Y-82150001D01*
X87390001Y-82150001D01*
X87390001Y-82150001D01*
X87390001Y-82150001D01*
X87390001Y-82150001D01*
X87390000Y-82150001D01*
X87390000Y-82150001D01*
X87390000Y-82150001D01*
X87390000Y-82150001D01*
X87390000Y-82150001D01*
X87390000Y-82150001D01*
X87390000Y-82150001D01*
X87390000Y-82150001D01*
X87390000Y-82150001D01*
X87390000Y-82150001D01*
X87390000Y-82150001D01*
X87390000Y-82150001D01*
X87389999Y-82150001D01*
X87389999Y-82150001D01*
X87389999Y-82150001D01*
X87389999Y-82150001D01*
X87389999Y-82150001D01*
X87389999Y-82150001D01*
X87389999Y-82150000D01*
X87389999Y-82150000D01*
X87389999Y-82150000D01*
X87389999Y-82150000D01*
X87389999Y-82150000D01*
X87389999Y-82150000D01*
X87389999Y-82150000D02*
X87389999Y-82150000D01*
X87389999Y-82150000D01*
X87389999Y-82150000D01*
X87389999Y-82150000D01*
X87389999Y-82150000D01*
X87389999Y-82150000D01*
X87389999Y-82149999D01*
X87389999Y-82149999D01*
X87389999Y-82149999D01*
X87389999Y-82149999D01*
X87389999Y-82149999D01*
X87390000Y-82149999D01*
X87390000Y-82149999D01*
X87390000Y-82149999D01*
X87390000Y-82149999D01*
X87390000Y-82149999D01*
X87390000Y-82149999D01*
X87390000Y-82149999D01*
X87390000Y-82149999D01*
X87390000Y-82149999D01*
X87390000Y-82149999D01*
X87390000Y-82149999D01*
X87390000Y-82149999D01*
X87390001Y-82149999D01*
X87390001Y-82149999D01*
X87390001Y-82149999D01*
X87390001Y-82149999D01*
X87390001Y-82149999D01*
X87390001Y-82149999D01*
X87390001Y-82150000D01*
X87390001Y-82150000D01*
X87390001Y-82150000D01*
X87390001Y-82150000D01*
X87390001Y-82150000D01*
X87390001Y-82150000D01*
X87390001Y-82150000D01*
D15*
X88832300Y-92076700D02*
X88832300Y-89828041D01*
X88832300Y-88171961D02*
X88832300Y-87828039D01*
D10*
X88832300Y-86171959D02*
X88832300Y-83923300D01*
D15*
X88832300Y-83923300D02*
X83639839Y-83923300D01*
X83639839Y-92076700D02*
X88832300Y-92076700D01*
X79967700Y-85732039D02*
X79967700Y-90267961D01*
D16*
%TO.C,R1*%
X106255000Y-94700000D02*
X108335000Y-94700000D01*
X106255000Y-95900000D02*
X106255000Y-94700000D01*
X106265000Y-95900000D02*
X108335000Y-95900000D01*
X108365000Y-95900000D02*
X108365000Y-94700000D01*
%TO.C,FB1*%
D10*
X97590000Y-91895000D02*
X96240000Y-91895000D01*
X96240000Y-94755000D01*
X97590000Y-94755000D01*
X97590000Y-91895000D01*
D16*
%TO.C,C21*%
X109813192Y-101600000D02*
X110913192Y-101600000D01*
X109813192Y-101625000D02*
X109813192Y-103625000D01*
X109813192Y-103625000D02*
X110913192Y-103625000D01*
X110968192Y-101593582D02*
X110968192Y-103626418D01*
%TO.C,C7*%
X93775000Y-92625000D02*
X93775000Y-93725000D01*
X95775000Y-92625000D02*
X93775000Y-92625000D01*
X95800000Y-92625000D02*
X95800000Y-93725000D01*
X95806418Y-93780000D02*
X93773582Y-93780000D01*
%TO.C,C13*%
X113025000Y-103450000D02*
X114125000Y-103450000D01*
X113025000Y-103475000D02*
X113025000Y-105475000D01*
X113025000Y-105475000D02*
X114125000Y-105475000D01*
X114180000Y-103443582D02*
X114180000Y-105476418D01*
%TO.C,C10*%
X98739200Y-95556800D02*
X98739200Y-97086800D01*
X101811700Y-95556800D02*
X98746700Y-95556800D01*
X101819200Y-95556800D02*
X101819200Y-97076800D01*
X101819200Y-97086800D02*
X98739200Y-97086800D01*
D15*
%TO.C,XTAL1*%
X119115000Y-96055000D02*
X119115000Y-98255000D01*
X120915000Y-98255000D02*
X120915000Y-96055000D01*
D17*
X120564303Y-95555000D02*
G75*
G02*
X120265697Y-95555000I-149303J0D01*
G01*
X120265697Y-95555000D02*
G75*
G02*
X120564303Y-95555000I149303J0D01*
G01*
%TO.C,L1*%
D18*
X100900000Y-90300000D02*
X97400000Y-90300000D01*
X97400000Y-88270000D01*
X100900000Y-88270000D01*
X100900000Y-90300000D01*
%TO.C,L5*%
D10*
X124190000Y-101318196D02*
X126390000Y-101318196D01*
X126390000Y-102348196D01*
X124190000Y-102348196D01*
X124190000Y-101318196D01*
%TO.C,D1*%
X91809573Y-102979419D02*
X89509573Y-102979419D01*
X89509573Y-101829419D01*
X91809573Y-101829419D01*
X91809573Y-102979419D01*
D16*
%TO.C,R9*%
X103486400Y-85506000D02*
X105566400Y-85506000D01*
X103486400Y-86706000D02*
X103486400Y-85506000D01*
X103496400Y-86706000D02*
X105566400Y-86706000D01*
X105596400Y-86706000D02*
X105596400Y-85506000D01*
%TO.C,C5*%
X126665000Y-101268196D02*
X127765000Y-101268196D01*
X126665000Y-101293196D02*
X126665000Y-103293196D01*
X126665000Y-103293196D02*
X127765000Y-103293196D01*
X127820000Y-101261778D02*
X127820000Y-103294614D01*
D15*
%TO.C,U1*%
X97751900Y-102450900D02*
X97751900Y-107099100D01*
X98908154Y-107099100D02*
X99846846Y-107099100D01*
X99846846Y-102450900D02*
X98908154Y-102450900D01*
X101003100Y-107099100D02*
X101003100Y-102450900D01*
D19*
X97459800Y-102975000D02*
G75*
G02*
X97256600Y-102975000I-101600J0D01*
G01*
X97256600Y-102975000D02*
G75*
G02*
X97459800Y-102975000I101600J0D01*
G01*
%TO.C,L4*%
D10*
X120340000Y-99618196D02*
X122540000Y-99618196D01*
X122540000Y-100648196D01*
X120340000Y-100648196D01*
X120340000Y-99618196D01*
%TO.C,Q1*%
X122775000Y-93000000D02*
X121725000Y-93000000D01*
X122775000Y-94200000D02*
X121725000Y-94200000D01*
D20*
X121337500Y-93300000D02*
G75*
G02*
X121162500Y-93300000I-87500J0D01*
G01*
X121162500Y-93300000D02*
G75*
G02*
X121337500Y-93300000I87500J0D01*
G01*
D16*
%TO.C,C15*%
X121758582Y-95775000D02*
X123791418Y-95775000D01*
X121765000Y-96930000D02*
X121765000Y-95830000D01*
X121790000Y-96930000D02*
X123790000Y-96930000D01*
X123790000Y-96930000D02*
X123790000Y-95830000D01*
%TO.C,C6*%
X127983582Y-101258196D02*
X130016418Y-101258196D01*
X127990000Y-102413196D02*
X127990000Y-101313196D01*
X128015000Y-102413196D02*
X130015000Y-102413196D01*
X130015000Y-102413196D02*
X130015000Y-101313196D01*
D18*
%TO.C,U4*%
X88670000Y-95080000D02*
X88670000Y-96580000D01*
X89715000Y-96630000D02*
X90545000Y-96630000D01*
X91580000Y-95100000D02*
X91580000Y-96600000D01*
D21*
X92305000Y-94470000D02*
G75*
G02*
X91855000Y-94470000I-225000J0D01*
G01*
X91855000Y-94470000D02*
G75*
G02*
X92305000Y-94470000I225000J0D01*
G01*
D22*
%TO.C,S3*%
X91700000Y-83050000D02*
X92500000Y-83050000D01*
X91700000Y-86550000D02*
X91700000Y-83050000D01*
X92500000Y-86550000D02*
X91700000Y-86550000D01*
X99850000Y-86550000D02*
X100700000Y-86550000D01*
X100700000Y-83050000D02*
X99900000Y-83050000D01*
X100700000Y-86550000D02*
X100700000Y-83050000D01*
D23*
X102256751Y-86275000D02*
G75*
G02*
X101495743Y-86275000I-380504J0D01*
G01*
X101495743Y-86275000D02*
G75*
G02*
X102256751Y-86275000I380504J0D01*
G01*
D16*
%TO.C,C2*%
X93210000Y-103490000D02*
X93210000Y-105020000D01*
X96282500Y-103490000D02*
X93217500Y-103490000D01*
X96290000Y-103490000D02*
X96290000Y-105010000D01*
X96290000Y-105020000D02*
X93210000Y-105020000D01*
%TO.C,C19*%
X104975000Y-88225000D02*
X104975000Y-89325000D01*
X106975000Y-88225000D02*
X104975000Y-88225000D01*
X107000000Y-88225000D02*
X107000000Y-89325000D01*
X107006418Y-89380000D02*
X104973582Y-89380000D01*
%TO.C,R7*%
X105800000Y-103340000D02*
X107000000Y-103340000D01*
X105800000Y-103350000D02*
X105800000Y-105420000D01*
X105800000Y-105450000D02*
X107000000Y-105450000D01*
X107000000Y-103340000D02*
X107000000Y-105420000D01*
%TO.C,R4*%
X104940000Y-90400000D02*
X107020000Y-90400000D01*
X104940000Y-91600000D02*
X104940000Y-90400000D01*
X104950000Y-91600000D02*
X107020000Y-91600000D01*
X107050000Y-91600000D02*
X107050000Y-90400000D01*
%TO.C,C11*%
X98200000Y-91710000D02*
X99720000Y-91710000D01*
X98200000Y-91717500D02*
X98200000Y-94782500D01*
X98200000Y-94790000D02*
X99730000Y-94790000D01*
X99730000Y-91710000D02*
X99730000Y-94790000D01*
%TO.C,C20*%
X95699700Y-105291600D02*
X96799700Y-105291600D01*
X95699700Y-105316600D02*
X95699700Y-107316600D01*
X95699700Y-107316600D02*
X96799700Y-107316600D01*
X96854700Y-105285182D02*
X96854700Y-107318018D01*
D15*
%TO.C,XTAL2*%
X116075000Y-104198701D02*
X116075000Y-106098701D01*
X117463739Y-106354801D02*
X117736261Y-106354801D01*
X117736261Y-103992601D02*
X117463739Y-103992601D01*
X119200200Y-106173701D02*
X119200200Y-104173701D01*
D24*
X119013100Y-103148701D02*
G75*
G02*
X118736900Y-103148701I-138100J0D01*
G01*
X118736900Y-103148701D02*
G75*
G02*
X119013100Y-103148701I138100J0D01*
G01*
%TO.C,D2*%
D10*
X124115000Y-93572496D02*
X125265000Y-93572496D01*
X125265000Y-91272496D01*
X124115000Y-91272496D01*
X124115000Y-93572496D01*
D16*
%TO.C,C18*%
X90860000Y-89430000D02*
X93940000Y-89430000D01*
X90860000Y-90960000D02*
X90860000Y-89440000D01*
X90867500Y-90960000D02*
X93932500Y-90960000D01*
X93940000Y-90960000D02*
X93940000Y-89430000D01*
%TO.C,J1*%
X109635000Y-85530000D02*
X110270000Y-85530000D01*
X110270000Y-85530000D02*
X113365000Y-85530000D01*
X113337500Y-88100000D02*
X109682500Y-88100000D01*
D25*
X114061441Y-85700000D02*
G75*
G02*
X113798559Y-85700000I-131441J0D01*
G01*
X113798559Y-85700000D02*
G75*
G02*
X114061441Y-85700000I131441J0D01*
G01*
D16*
%TO.C,U3*%
X100595900Y-91850000D02*
X100595900Y-93450200D01*
X100595900Y-93450200D02*
X102704100Y-93450200D01*
D18*
X102704100Y-91850000D02*
X100595900Y-91850000D01*
X102704100Y-93450200D02*
X102704100Y-91850000D01*
D16*
X100595900Y-92345300D02*
G75*
G02*
X100595900Y-92954900I0J-304800D01*
G01*
D26*
X100863838Y-94300000D02*
G75*
G02*
X100536162Y-94300000I-163838J0D01*
G01*
X100536162Y-94300000D02*
G75*
G02*
X100863838Y-94300000I163838J0D01*
G01*
D16*
%TO.C,R6*%
X92488873Y-96719419D02*
X93688873Y-96719419D01*
X92488873Y-96729419D02*
X92488873Y-98799419D01*
X92488873Y-98829419D02*
X93688873Y-98829419D01*
X93688873Y-96719419D02*
X93688873Y-98799419D01*
%TO.C,C8*%
X115060000Y-95224614D02*
X115060000Y-93191778D01*
X116215000Y-93193196D02*
X115115000Y-93193196D01*
X116215000Y-95193196D02*
X116215000Y-93193196D01*
X116215000Y-95218196D02*
X115115000Y-95218196D01*
%TO.C,R2*%
X103540000Y-97365000D02*
X104740000Y-97365000D01*
X103540000Y-97375000D02*
X103540000Y-99445000D01*
X103540000Y-99475000D02*
X104740000Y-99475000D01*
X104740000Y-97365000D02*
X104740000Y-99445000D01*
%TO.C,C12*%
X88110000Y-98880000D02*
X91190000Y-98880000D01*
X88110000Y-100410000D02*
X88110000Y-98890000D01*
X88117500Y-100410000D02*
X91182500Y-100410000D01*
X91190000Y-100410000D02*
X91190000Y-98880000D01*
%TO.C,C1*%
X95594700Y-103218018D02*
X95594700Y-101185182D01*
X96749700Y-101186600D02*
X95649700Y-101186600D01*
X96749700Y-103186600D02*
X96749700Y-101186600D01*
X96749700Y-103211600D02*
X95649700Y-103211600D01*
D12*
%TO.C,U2*%
X112314998Y-97043194D02*
X112314998Y-97243196D01*
X112315000Y-101193196D02*
X112314998Y-101493198D01*
X112515000Y-97043194D02*
X112314998Y-97043194D01*
X112590000Y-101493196D02*
X112314998Y-101493198D01*
X116465000Y-101493196D02*
X116765002Y-101493198D01*
X116765000Y-101218196D02*
X116765002Y-101493198D01*
X116765002Y-97043194D02*
X116565000Y-97043194D01*
X116765002Y-97043194D02*
X116765002Y-97243196D01*
D27*
X117252500Y-101068196D02*
G75*
G02*
X117027500Y-101068196I-112500J0D01*
G01*
X117027500Y-101068196D02*
G75*
G02*
X117252500Y-101068196I112500J0D01*
G01*
D16*
%TO.C,C9*%
X111490000Y-103418196D02*
X112590000Y-103418196D01*
X111490000Y-103443196D02*
X111490000Y-105443196D01*
X111490000Y-105443196D02*
X112590000Y-105443196D01*
X112645000Y-103411778D02*
X112645000Y-105444614D01*
D15*
%TO.C,J3*%
X80743700Y-97307800D02*
X80743700Y-105842200D01*
X80743700Y-105842200D02*
X81491816Y-105842200D01*
X81491816Y-97307800D02*
X80743700Y-97307800D01*
X84166782Y-105842200D02*
X86306300Y-105842200D01*
X86306300Y-97307800D02*
X84166782Y-97307800D01*
X86306300Y-98093751D02*
X86306300Y-97307800D01*
X86306300Y-105842200D02*
X86306300Y-105056249D01*
D16*
%TO.C,C14*%
X118358582Y-101338196D02*
X120391418Y-101338196D01*
X118365000Y-102493196D02*
X118365000Y-101393196D01*
X118390000Y-102493196D02*
X120390000Y-102493196D01*
X120390000Y-102493196D02*
X120390000Y-101393196D01*
%TO.C,C3*%
X101393582Y-103620000D02*
X103426418Y-103620000D01*
X101400000Y-104775000D02*
X101400000Y-103675000D01*
X101425000Y-104775000D02*
X103425000Y-104775000D01*
X103425000Y-104775000D02*
X103425000Y-103675000D01*
%TO.C,C16*%
X121758582Y-97375000D02*
X123791418Y-97375000D01*
X121765000Y-98530000D02*
X121765000Y-97430000D01*
X121790000Y-98530000D02*
X123790000Y-98530000D01*
X123790000Y-98530000D02*
X123790000Y-97430000D01*
%TO.C,R10*%
X119400000Y-94518197D02*
X119400000Y-92438197D01*
X120600000Y-92408197D02*
X119400000Y-92408197D01*
X120600000Y-94508197D02*
X120600000Y-92438197D01*
X120600000Y-94518197D02*
X119400000Y-94518197D01*
%TO.C,R3*%
X107807200Y-102101200D02*
X107807200Y-100021200D01*
X109007200Y-99991200D02*
X107807200Y-99991200D01*
X109007200Y-102091200D02*
X109007200Y-100021200D01*
X109007200Y-102101200D02*
X107807200Y-102101200D01*
%TO.C,R8*%
X100489200Y-97596400D02*
X102569200Y-97596400D01*
X100489200Y-98796400D02*
X100489200Y-97596400D01*
X100499200Y-98796400D02*
X102569200Y-98796400D01*
X102599200Y-98796400D02*
X102599200Y-97596400D01*
%TO.C,C4*%
X122815000Y-101318196D02*
X123915000Y-101318196D01*
X122815000Y-101343196D02*
X122815000Y-103343196D01*
X122815000Y-103343196D02*
X123915000Y-103343196D01*
X123970000Y-101311778D02*
X123970000Y-103344614D01*
%TO.C,R5*%
X92413873Y-94779419D02*
X92413873Y-95979419D01*
X94513873Y-94779419D02*
X92443873Y-94779419D01*
X94523873Y-94779419D02*
X94523873Y-95979419D01*
X94523873Y-95979419D02*
X92443873Y-95979419D01*
D18*
%TO.C,S1*%
X119000000Y-85200000D02*
X119000000Y-85700000D01*
X119000000Y-85200000D02*
X119500000Y-85200000D01*
X119000000Y-88400000D02*
X119000000Y-87900000D01*
X119000000Y-88400000D02*
X119500000Y-88400000D01*
X122200000Y-85200000D02*
X121700000Y-85200000D01*
X122200000Y-85200000D02*
X122200000Y-85700000D01*
X122200000Y-88400000D02*
X121800000Y-88400000D01*
X122200000Y-88400000D02*
X122200000Y-87900000D01*
D28*
X118623263Y-88500000D02*
G75*
G02*
X118319791Y-88500000I-151736J0D01*
G01*
X118319791Y-88500000D02*
G75*
G02*
X118623263Y-88500000I151736J0D01*
G01*
%TO.C,FB2*%
D10*
X99980000Y-99780000D02*
X97120000Y-99780000D01*
X97120000Y-98430000D01*
X99980000Y-98430000D01*
X99980000Y-99780000D01*
D16*
%TO.C,C17*%
X113760000Y-95224614D02*
X113760000Y-93191778D01*
X114915000Y-93193196D02*
X113815000Y-93193196D01*
X114915000Y-95193196D02*
X114915000Y-93193196D01*
X114915000Y-95218196D02*
X113815000Y-95218196D01*
%TD*%
M02*
