%TF.GenerationSoftware,KiCad,Pcbnew,9.0.3*%
%TF.CreationDate,2025-09-07T14:42:41+02:00*%
%TF.ProjectId,LoTiBloxy,4c6f5469-426c-46f7-9879-2e6b69636164,rev?*%
%TF.SameCoordinates,Original*%
%TF.FileFunction,Soldermask,Top*%
%TF.FilePolarity,Negative*%
%FSLAX46Y46*%
G04 Gerber Fmt 4.6, Leading zero omitted, Abs format (unit mm)*
G04 Created by KiCad (PCBNEW 9.0.3) date 2025-09-07 14:42:41*
%MOMM*%
%LPD*%
G01*
G04 APERTURE LIST*
G04 Aperture macros list*
%AMRoundRect*
0 Rectangle with rounded corners*
0 $1 Rounding radius*
0 $2 $3 $4 $5 $6 $7 $8 $9 X,Y pos of 4 corners*
0 Add a 4 corners polygon primitive as box body*
4,1,4,$2,$3,$4,$5,$6,$7,$8,$9,$2,$3,0*
0 Add four circle primitives for the rounded corners*
1,1,$1+$1,$2,$3*
1,1,$1+$1,$4,$5*
1,1,$1+$1,$6,$7*
1,1,$1+$1,$8,$9*
0 Add four rect primitives between the rounded corners*
20,1,$1+$1,$2,$3,$4,$5,0*
20,1,$1+$1,$4,$5,$6,$7,0*
20,1,$1+$1,$6,$7,$8,$9,0*
20,1,$1+$1,$8,$9,$2,$3,0*%
G04 Aperture macros list end*
%ADD10RoundRect,0.030000X-1.701800X0.749300X-1.701800X-0.749300X1.701800X-0.749300X1.701800X0.749300X0*%
%ADD11RoundRect,0.030000X-1.752600X0.495300X-1.752600X-0.495300X1.752600X-0.495300X1.752600X0.495300X0*%
%ADD12R,0.500000X0.900000*%
%ADD13RoundRect,0.150000X-0.150000X-0.200000X0.150000X-0.200000X0.150000X0.200000X-0.150000X0.200000X0*%
%ADD14RoundRect,0.030000X-0.469900X0.482600X-0.469900X-0.482600X0.469900X-0.482600X0.469900X0.482600X0*%
%ADD15RoundRect,0.155000X-0.185000X0.155000X-0.185000X-0.155000X0.185000X-0.155000X0.185000X0.155000X0*%
%ADD16RoundRect,0.155000X0.155000X0.185000X-0.155000X0.185000X-0.155000X-0.185000X0.155000X-0.185000X0*%
%ADD17RoundRect,0.240000X0.240000X0.265000X-0.240000X0.265000X-0.240000X-0.265000X0.240000X-0.265000X0*%
%ADD18RoundRect,0.030000X-0.698500X0.349250X-0.698500X-0.349250X0.698500X-0.349250X0.698500X0.349250X0*%
%ADD19RoundRect,0.102000X0.550000X0.710000X-0.550000X0.710000X-0.550000X-0.710000X0.550000X-0.710000X0*%
%ADD20RoundRect,0.030000X-0.355600X-0.279400X0.355600X-0.279400X0.355600X0.279400X-0.355600X0.279400X0*%
%ADD21R,0.660400X0.609600*%
%ADD22RoundRect,0.030000X-0.330200X-0.199999X0.330200X-0.199999X0.330200X0.199999X-0.330200X0.199999X0*%
%ADD23RoundRect,0.030000X-0.330200X-0.200000X0.330200X-0.200000X0.330200X0.200000X-0.330200X0.200000X0*%
%ADD24RoundRect,0.030000X-0.328850X-0.200000X0.328850X-0.200000X0.328850X0.200000X-0.328850X0.200000X0*%
%ADD25RoundRect,0.030000X-0.200000X-0.125000X0.200000X-0.125000X0.200000X0.125000X-0.200000X0.125000X0*%
%ADD26RoundRect,0.030000X-0.200000X-0.350000X0.200000X-0.350000X0.200000X0.350000X-0.200000X0.350000X0*%
%ADD27RoundRect,0.155000X-0.155000X-0.185000X0.155000X-0.185000X0.155000X0.185000X-0.155000X0.185000X0*%
%ADD28RoundRect,0.165000X-0.165000X0.415000X-0.165000X-0.415000X0.165000X-0.415000X0.165000X0.415000X0*%
%ADD29C,0.900000*%
%ADD30RoundRect,0.102000X0.500000X0.800000X-0.500000X0.800000X-0.500000X-0.800000X0.500000X-0.800000X0*%
%ADD31RoundRect,0.150000X-0.200000X0.150000X-0.200000X-0.150000X0.200000X-0.150000X0.200000X0.150000X0*%
%ADD32RoundRect,0.240000X-0.265000X0.240000X-0.265000X-0.240000X0.265000X-0.240000X0.265000X0.240000X0*%
%ADD33RoundRect,0.030000X-0.381000X0.482600X-0.381000X-0.482600X0.381000X-0.482600X0.381000X0.482600X0*%
%ADD34R,0.609600X0.660400*%
%ADD35RoundRect,0.240000X-0.240000X-0.265000X0.240000X-0.265000X0.240000X0.265000X-0.240000X0.265000X0*%
%ADD36C,0.990600*%
%ADD37C,0.847400*%
%ADD38R,0.253996X0.604900*%
%ADD39R,0.254000X0.604900*%
%ADD40RoundRect,0.155000X0.185000X-0.155000X0.185000X0.155000X-0.185000X0.155000X-0.185000X-0.155000X0*%
%ADD41O,0.699999X0.300000*%
%ADD42O,0.300000X0.699999*%
%ADD43C,0.700000*%
%ADD44R,2.799999X2.799999*%
%ADD45RoundRect,0.030000X-0.685800X0.228600X-0.685800X-0.228600X0.685800X-0.228600X0.685800X0.228600X0*%
%ADD46RoundRect,0.030000X-0.685800X0.224300X-0.685800X-0.224300X0.685800X-0.224300X0.685800X0.224300X0*%
%ADD47RoundRect,0.030000X-0.685800X0.224300X-0.685800X-0.224300X0.685800X-0.224300X0.685800X0.224300X0*%
%ADD48RoundRect,0.030000X-0.685800X0.219999X-0.685800X-0.219999X0.685800X-0.219999X0.685800X0.219999X0*%
%ADD49O,2.308200X1.622400*%
%ADD50RoundRect,0.030000X-0.774700X-0.711200X0.774700X-0.711200X0.774700X0.711200X-0.774700X0.711200X0*%
%ADD51RoundRect,0.030000X-0.952500X0.444500X-0.952500X-0.444500X0.952500X-0.444500X0.952500X0.444500X0*%
%ADD52RoundRect,0.150000X0.200000X-0.150000X0.200000X0.150000X-0.200000X0.150000X-0.200000X-0.150000X0*%
%ADD53RoundRect,0.150000X0.150000X0.200000X-0.150000X0.200000X-0.150000X-0.200000X0.150000X-0.200000X0*%
%ADD54RoundRect,0.030000X-0.400000X-0.850000X0.400000X-0.850000X0.400000X0.850000X-0.400000X0.850000X0*%
%ADD55RoundRect,0.030000X0.482600X0.469900X-0.482600X0.469900X-0.482600X-0.469900X0.482600X-0.469900X0*%
G04 APERTURE END LIST*
D10*
%TO.C,J2*%
X81605299Y-91350001D03*
X81605299Y-84649999D03*
D11*
X87355300Y-89000001D03*
X87355300Y-86999999D03*
%TD*%
D12*
%TO.C,AE2*%
X132600000Y-103918196D03*
%TD*%
D13*
%TO.C,R1*%
X106805000Y-95300000D03*
X107825000Y-95300000D03*
%TD*%
D14*
%TO.C,FB1*%
X96910000Y-92575700D03*
X96910000Y-94074300D03*
%TD*%
D15*
%TO.C,C21*%
X110388192Y-102120000D03*
X110388192Y-103080000D03*
%TD*%
D16*
%TO.C,C7*%
X95280000Y-93200000D03*
X94320000Y-93200000D03*
%TD*%
D15*
%TO.C,C13*%
X113600000Y-103970000D03*
X113600000Y-104930000D03*
%TD*%
D17*
%TO.C,C10*%
X101054200Y-96316800D03*
X99504200Y-96316800D03*
%TD*%
D18*
%TO.C,XTAL1*%
X120015000Y-96399350D03*
X120015000Y-97910650D03*
%TD*%
D19*
%TO.C,L1*%
X100035000Y-89300000D03*
X98265000Y-89300000D03*
%TD*%
D20*
%TO.C,L5*%
X124769300Y-101818196D03*
X125810700Y-101818196D03*
%TD*%
D21*
%TO.C,D1*%
X91180273Y-102404419D03*
X90138873Y-102404419D03*
%TD*%
D13*
%TO.C,R9*%
X104036400Y-86106000D03*
X105056400Y-86106000D03*
%TD*%
D15*
%TO.C,C5*%
X127240000Y-101788196D03*
X127240000Y-102748196D03*
%TD*%
D22*
%TO.C,U1*%
X98425000Y-102975001D03*
D23*
X98425000Y-103575000D03*
D22*
X98425000Y-104175001D03*
D23*
X98425000Y-104775000D03*
X98425000Y-105375000D03*
X98425000Y-105975000D03*
X98425000Y-106575000D03*
X100330000Y-106575000D03*
X100330000Y-105975000D03*
X100330000Y-105375000D03*
D24*
X100331350Y-104775000D03*
D22*
X100330000Y-104175001D03*
D23*
X100330000Y-103575000D03*
D22*
X100330000Y-102975001D03*
%TD*%
D20*
%TO.C,L4*%
X120919300Y-100118196D03*
X121960700Y-100118196D03*
%TD*%
D25*
%TO.C,Q1*%
X121900000Y-93375001D03*
D26*
X122600000Y-93600000D03*
D25*
X121900000Y-93824999D03*
%TD*%
D27*
%TO.C,C15*%
X122285000Y-96355000D03*
X123245000Y-96355000D03*
%TD*%
%TO.C,C6*%
X128510000Y-101838196D03*
X129470000Y-101838196D03*
%TD*%
D28*
%TO.C,U4*%
X91075000Y-94450000D03*
X90125000Y-94450000D03*
X89175000Y-94450000D03*
X89175000Y-97250000D03*
X91075000Y-97250000D03*
%TD*%
D29*
%TO.C,S3*%
X92425000Y-84775000D03*
D30*
X98700000Y-86000000D03*
X98700000Y-83600000D03*
X96200000Y-86000000D03*
X96200000Y-83600000D03*
X93700000Y-86000000D03*
X93700000Y-83600000D03*
%TD*%
D17*
%TO.C,C2*%
X95525000Y-104250000D03*
X93975000Y-104250000D03*
%TD*%
D16*
%TO.C,C19*%
X106480000Y-88800000D03*
X105520000Y-88800000D03*
%TD*%
D31*
%TO.C,R7*%
X106400000Y-103890000D03*
X106400000Y-104910000D03*
%TD*%
D13*
%TO.C,R4*%
X105490000Y-91000000D03*
X106510000Y-91000000D03*
%TD*%
D32*
%TO.C,C11*%
X98960000Y-92475000D03*
X98960000Y-94025000D03*
%TD*%
D15*
%TO.C,C20*%
X96274700Y-105811600D03*
X96274700Y-106771600D03*
%TD*%
D33*
%TO.C,XTAL2*%
X118450001Y-104297401D03*
X116749999Y-104297401D03*
X116749999Y-106050001D03*
X118450001Y-106050001D03*
%TD*%
D34*
%TO.C,D2*%
X124690000Y-92943196D03*
X124690000Y-91901796D03*
%TD*%
D35*
%TO.C,C18*%
X91625000Y-90200000D03*
X93175000Y-90200000D03*
%TD*%
D36*
%TO.C,J1*%
X114000000Y-86800000D03*
X108920000Y-87816000D03*
X108920000Y-85784000D03*
D37*
X112730000Y-86165000D03*
X112730000Y-87435000D03*
X111460000Y-86165000D03*
X111460000Y-87435000D03*
X110190000Y-86165000D03*
X110190000Y-87435000D03*
%TD*%
D38*
%TO.C,U3*%
X100900001Y-93452450D03*
D39*
X101400000Y-93452450D03*
X101900000Y-93452450D03*
D38*
X102399999Y-93452450D03*
D39*
X102400001Y-91847550D03*
X101900000Y-91847550D03*
X101400000Y-91847550D03*
D38*
X100900001Y-91847550D03*
%TD*%
D31*
%TO.C,R6*%
X93088873Y-97269419D03*
X93088873Y-98289419D03*
%TD*%
D40*
%TO.C,C8*%
X115640000Y-94698196D03*
X115640000Y-93738196D03*
%TD*%
D31*
%TO.C,R2*%
X104140000Y-97915000D03*
X104140000Y-98935000D03*
%TD*%
D35*
%TO.C,C12*%
X88875000Y-99650000D03*
X90425000Y-99650000D03*
%TD*%
D40*
%TO.C,C1*%
X96174700Y-102691600D03*
X96174700Y-101731600D03*
%TD*%
D41*
%TO.C,U2*%
X116439999Y-100668198D03*
X116439999Y-100268197D03*
X116439999Y-99868197D03*
X116439999Y-99468198D03*
X116439999Y-99068196D03*
X116439999Y-98668197D03*
X116439999Y-98268198D03*
X116439999Y-97868196D03*
D42*
X115940000Y-97368197D03*
X115539998Y-97368197D03*
X115139999Y-97368197D03*
X114740000Y-97368197D03*
X114339998Y-97368197D03*
X113939999Y-97368197D03*
X113539999Y-97368197D03*
X113139998Y-97368197D03*
D41*
X112640001Y-97868196D03*
X112640001Y-98268198D03*
X112640001Y-98668197D03*
X112640001Y-99068196D03*
X112640001Y-99468198D03*
X112640001Y-99868197D03*
X112640001Y-100268197D03*
X112640001Y-100668198D03*
D42*
X113139998Y-101168195D03*
X113539999Y-101168195D03*
X113939999Y-101168195D03*
X114339998Y-101168195D03*
X114740000Y-101168195D03*
X115139999Y-101168195D03*
X115539998Y-101168195D03*
X115940000Y-101168195D03*
D43*
X115565000Y-99268196D03*
X114540000Y-100318196D03*
X114540000Y-98218196D03*
X114539997Y-99268196D03*
D44*
X114539997Y-99268196D03*
D43*
X113465000Y-99268196D03*
%TD*%
D15*
%TO.C,C9*%
X112065000Y-103938196D03*
X112065000Y-104898196D03*
%TD*%
D45*
%TO.C,J3*%
X85493500Y-102875000D03*
D46*
X85493500Y-102220699D03*
D47*
X85493500Y-101570700D03*
D48*
X85493500Y-100925001D03*
D45*
X85493500Y-100275000D03*
D49*
X82829299Y-97625000D03*
D50*
X85404600Y-99112501D03*
D51*
X82829299Y-100387500D03*
X82829299Y-102762500D03*
D50*
X85404600Y-104037499D03*
D49*
X82829299Y-105525000D03*
%TD*%
D27*
%TO.C,C14*%
X118885000Y-101918196D03*
X119845000Y-101918196D03*
%TD*%
%TO.C,C3*%
X101920000Y-104200000D03*
X102880000Y-104200000D03*
%TD*%
%TO.C,C16*%
X122285000Y-97955000D03*
X123245000Y-97955000D03*
%TD*%
D52*
%TO.C,R10*%
X120000000Y-93968197D03*
X120000000Y-92948197D03*
%TD*%
%TO.C,R3*%
X108407200Y-101551200D03*
X108407200Y-100531200D03*
%TD*%
D13*
%TO.C,R8*%
X101039200Y-98196400D03*
X102059200Y-98196400D03*
%TD*%
D15*
%TO.C,C4*%
X123390000Y-101838196D03*
X123390000Y-102798196D03*
%TD*%
D53*
%TO.C,R5*%
X93973873Y-95379419D03*
X92953873Y-95379419D03*
%TD*%
D54*
%TO.C,S1*%
X118900000Y-86800000D03*
X122300000Y-86800000D03*
%TD*%
D55*
%TO.C,FB2*%
X99299300Y-99100000D03*
X97800700Y-99100000D03*
%TD*%
D40*
%TO.C,C17*%
X114340000Y-94698196D03*
X114340000Y-93738196D03*
%TD*%
D43*
X96174700Y-100975300D03*
X95325000Y-101750000D03*
X92850000Y-104250000D03*
X84375000Y-105525000D03*
X124495000Y-97955000D03*
X85450000Y-97750000D03*
X87050000Y-99100000D03*
X120000000Y-91875000D03*
X91650000Y-93000000D03*
X96250000Y-107600000D03*
X95321600Y-106771600D03*
X113300000Y-93738196D03*
X106400000Y-105750000D03*
X126150000Y-102725000D03*
X114525000Y-104925000D03*
X120950000Y-101900000D03*
X131075000Y-103900000D03*
X111000000Y-105150000D03*
X98166800Y-96316800D03*
X103775000Y-104200000D03*
X115640000Y-92410000D03*
X82850000Y-95950000D03*
X123700000Y-86800000D03*
X124500000Y-96300000D03*
X100875000Y-94350000D03*
X93200000Y-91200000D03*
X90450000Y-100600000D03*
X116700000Y-93700000D03*
X102880000Y-103105000D03*
X93175000Y-88975000D03*
X123250000Y-95200000D03*
X94300000Y-94000000D03*
X114350000Y-92700000D03*
X99475000Y-97325000D03*
X119585000Y-106050001D03*
X119845000Y-102795000D03*
X124600000Y-102800000D03*
X90000000Y-88975000D03*
X93250000Y-93200000D03*
X98960000Y-95140000D03*
X81225000Y-100375000D03*
X112050000Y-105850000D03*
X82850000Y-103850000D03*
X128250000Y-102800000D03*
X93088873Y-99038873D03*
X87200000Y-100250000D03*
X93975000Y-105374400D03*
X82800000Y-106825000D03*
X82850000Y-99400000D03*
X105475000Y-87600000D03*
X123245000Y-98895000D03*
X110375000Y-103896400D03*
X81200000Y-102700000D03*
X86732618Y-104056948D03*
X94350000Y-92250000D03*
X110175000Y-84575000D03*
X127250000Y-103650000D03*
X122301804Y-102798196D03*
X121900000Y-94700000D03*
X91850000Y-99650000D03*
X103250000Y-91850000D03*
X123390000Y-103640000D03*
X101600000Y-106000000D03*
X85400000Y-105150000D03*
X93975000Y-102991294D03*
X94300000Y-90200000D03*
X103250000Y-93475000D03*
X113600000Y-105850000D03*
X109480000Y-103080000D03*
X81000000Y-97600000D03*
X95376600Y-100406600D03*
X96331902Y-99451298D03*
X117150000Y-101400000D03*
X114550000Y-102300000D03*
X116725000Y-102500000D03*
X107500000Y-104565000D03*
X115800000Y-96450000D03*
X107450000Y-103215000D03*
X104650000Y-101200000D03*
X101281475Y-100025000D03*
X106000000Y-99100000D03*
X107430000Y-99100000D03*
X105950000Y-97375000D03*
X108090000Y-97400000D03*
X106000000Y-100475000D03*
X107354000Y-100500000D03*
M02*
