%TF.GenerationSoftware,KiCad,Pcbnew,9.0.3*%
%TF.CreationDate,2025-09-07T06:19:25+02:00*%
%TF.ProjectId,LoTiBloxy,4c6f5469-426c-46f7-9879-2e6b69636164,rev?*%
%TF.SameCoordinates,Original*%
%TF.FileFunction,Paste,Top*%
%TF.FilePolarity,Positive*%
%FSLAX46Y46*%
G04 Gerber Fmt 4.6, Leading zero omitted, Abs format (unit mm)*
G04 Created by KiCad (PCBNEW 9.0.3) date 2025-09-07 06:19:25*
%MOMM*%
%LPD*%
G01*
G04 APERTURE LIST*
G04 Aperture macros list*
%AMRoundRect*
0 Rectangle with rounded corners*
0 $1 Rounding radius*
0 $2 $3 $4 $5 $6 $7 $8 $9 X,Y pos of 4 corners*
0 Add a 4 corners polygon primitive as box body*
4,1,4,$2,$3,$4,$5,$6,$7,$8,$9,$2,$3,0*
0 Add four circle primitives for the rounded corners*
1,1,$1+$1,$2,$3*
1,1,$1+$1,$4,$5*
1,1,$1+$1,$6,$7*
1,1,$1+$1,$8,$9*
0 Add four rect primitives between the rounded corners*
20,1,$1+$1,$2,$3,$4,$5,0*
20,1,$1+$1,$4,$5,$6,$7,0*
20,1,$1+$1,$6,$7,$8,$9,0*
20,1,$1+$1,$8,$9,$2,$3,0*%
G04 Aperture macros list end*
%ADD10C,0.100000*%
%ADD11C,0.000000*%
%ADD12R,0.500000X0.900000*%
%ADD13RoundRect,0.108000X-0.108000X-0.148000X0.108000X-0.148000X0.108000X0.148000X-0.108000X0.148000X0*%
%ADD14R,0.751840X0.772160*%
%ADD15RoundRect,0.112000X-0.136000X0.112000X-0.136000X-0.112000X0.136000X-0.112000X0.136000X0.112000X0*%
%ADD16RoundRect,0.112000X0.112000X0.136000X-0.112000X0.136000X-0.112000X-0.136000X0.112000X-0.136000X0*%
%ADD17RoundRect,0.180000X0.180000X0.200000X-0.180000X0.200000X-0.180000X-0.200000X0.180000X-0.200000X0*%
%ADD18R,1.117600X0.558800*%
%ADD19R,0.880000X1.136000*%
%ADD20R,0.568960X0.447040*%
%ADD21R,0.660400X0.609600*%
%ADD22R,0.610400X0.349998*%
%ADD23R,0.610400X0.350000*%
%ADD24R,0.607700X0.350000*%
%ADD25R,0.320000X0.200000*%
%ADD26R,0.320000X0.560000*%
%ADD27RoundRect,0.112000X-0.112000X-0.136000X0.112000X-0.136000X0.112000X0.136000X-0.112000X0.136000X0*%
%ADD28RoundRect,0.120000X-0.120000X0.320000X-0.120000X-0.320000X0.120000X-0.320000X0.120000X0.320000X0*%
%ADD29R,0.800000X1.280000*%
%ADD30RoundRect,0.108000X-0.148000X0.108000X-0.148000X-0.108000X0.148000X-0.108000X0.148000X0.108000X0*%
%ADD31RoundRect,0.180000X-0.200000X0.180000X-0.200000X-0.180000X0.200000X-0.180000X0.200000X0.180000X0*%
%ADD32R,0.609600X0.772160*%
%ADD33R,0.609600X0.660400*%
%ADD34RoundRect,0.180000X-0.180000X-0.200000X0.180000X-0.200000X0.180000X0.200000X-0.180000X0.200000X0*%
%ADD35R,0.203196X0.483920*%
%ADD36R,0.254000X0.604900*%
%ADD37R,0.253996X0.604900*%
%ADD38RoundRect,0.112000X0.136000X-0.112000X0.136000X0.112000X-0.136000X0.112000X-0.136000X-0.112000X0*%
%ADD39O,0.599999X0.200000*%
%ADD40O,0.200000X0.599999*%
%ADD41R,1.097280X0.365760*%
%ADD42R,1.097280X0.358881*%
%ADD43R,1.097280X0.358880*%
%ADD44R,1.097280X0.351998*%
%ADD45R,0.929640X0.853440*%
%ADD46R,1.143000X0.533400*%
%ADD47RoundRect,0.108000X0.148000X-0.108000X0.148000X0.108000X-0.148000X0.108000X-0.148000X-0.108000X0*%
%ADD48RoundRect,0.108000X0.108000X0.148000X-0.108000X0.148000X-0.108000X-0.148000X0.108000X-0.148000X0*%
%ADD49R,0.640000X1.360000*%
%ADD50R,0.772160X0.751840*%
%ADD51R,2.804160X0.792480*%
%ADD52R,2.722880X1.198880*%
G04 APERTURE END LIST*
%TO.C,U4*%
D10*
X91400000Y-95262500D02*
X88850000Y-95262500D01*
X88850000Y-96437500D01*
X91400000Y-96437500D01*
X91400000Y-95262500D01*
G36*
X91400000Y-95262500D02*
G01*
X88850000Y-95262500D01*
X88850000Y-96437500D01*
X91400000Y-96437500D01*
X91400000Y-95262500D01*
G37*
D11*
%TO.C,U2*%
G36*
X114439998Y-99168196D02*
G01*
X113210996Y-99168196D01*
X113210996Y-97939194D01*
X114439998Y-97939194D01*
X114439998Y-99168196D01*
G37*
G36*
X114439998Y-100597198D02*
G01*
X113210996Y-100597198D01*
X113210996Y-99368196D01*
X114439998Y-99368196D01*
X114439998Y-100597198D01*
G37*
G36*
X115868999Y-99168196D02*
G01*
X114639997Y-99168196D01*
X114639997Y-97939194D01*
X115868999Y-97939194D01*
X115868999Y-99168196D01*
G37*
G36*
X115868999Y-100597198D02*
G01*
X114639997Y-100597198D01*
X114639997Y-99368196D01*
X115868999Y-99368196D01*
X115868999Y-100597198D01*
G37*
%TD*%
D12*
%TO.C,AE2*%
X132600000Y-103918196D03*
%TD*%
D13*
%TO.C,R1*%
X106805000Y-95300000D03*
X107825000Y-95300000D03*
%TD*%
D14*
%TO.C,FB1*%
X96910000Y-92575700D03*
X96910000Y-94074300D03*
%TD*%
D15*
%TO.C,C21*%
X110388192Y-102120000D03*
X110388192Y-103080000D03*
%TD*%
D16*
%TO.C,C7*%
X95280000Y-93200000D03*
X94320000Y-93200000D03*
%TD*%
D15*
%TO.C,C13*%
X113600000Y-103970000D03*
X113600000Y-104930000D03*
%TD*%
D17*
%TO.C,C10*%
X101054200Y-96316800D03*
X99504200Y-96316800D03*
%TD*%
D18*
%TO.C,XTAL1*%
X120015000Y-96399350D03*
X120015000Y-97910650D03*
%TD*%
D19*
%TO.C,L1*%
X100035000Y-89300000D03*
X98265000Y-89300000D03*
%TD*%
D20*
%TO.C,L5*%
X124769300Y-101818196D03*
X125810700Y-101818196D03*
%TD*%
D21*
%TO.C,D1*%
X91180273Y-102404419D03*
X90138873Y-102404419D03*
%TD*%
D13*
%TO.C,R9*%
X104036400Y-86106000D03*
X105056400Y-86106000D03*
%TD*%
D15*
%TO.C,C5*%
X127240000Y-101788196D03*
X127240000Y-102748196D03*
%TD*%
D22*
%TO.C,U1*%
X98425000Y-102975001D03*
D23*
X98425000Y-103575000D03*
D22*
X98425000Y-104175001D03*
D23*
X98425000Y-104775000D03*
X98425000Y-105375000D03*
X98425000Y-105975000D03*
X98425000Y-106575000D03*
X100330000Y-106575000D03*
X100330000Y-105975000D03*
X100330000Y-105375000D03*
D24*
X100331350Y-104775000D03*
D22*
X100330000Y-104175001D03*
D23*
X100330000Y-103575000D03*
D22*
X100330000Y-102975001D03*
%TD*%
D20*
%TO.C,L4*%
X120919300Y-100118196D03*
X121960700Y-100118196D03*
%TD*%
D25*
%TO.C,Q1*%
X121900000Y-93375001D03*
D26*
X122600000Y-93600000D03*
D25*
X121900000Y-93824999D03*
%TD*%
D27*
%TO.C,C15*%
X122285000Y-96355000D03*
X123245000Y-96355000D03*
%TD*%
%TO.C,C6*%
X128510000Y-101838196D03*
X129470000Y-101838196D03*
%TD*%
D28*
%TO.C,U4*%
X91075000Y-94450000D03*
X90125000Y-94450000D03*
X89175000Y-94450000D03*
X89175000Y-97250000D03*
X91075000Y-97250000D03*
%TD*%
D29*
%TO.C,S3*%
X98700000Y-86000000D03*
X98700000Y-83600000D03*
X96200000Y-86000000D03*
X96200000Y-83600000D03*
X93700000Y-86000000D03*
X93700000Y-83600000D03*
%TD*%
D17*
%TO.C,C2*%
X95525000Y-104250000D03*
X93975000Y-104250000D03*
%TD*%
D16*
%TO.C,C19*%
X106480000Y-88800000D03*
X105520000Y-88800000D03*
%TD*%
D30*
%TO.C,R7*%
X106400000Y-103890000D03*
X106400000Y-104910000D03*
%TD*%
D13*
%TO.C,R4*%
X105490000Y-91000000D03*
X106510000Y-91000000D03*
%TD*%
D31*
%TO.C,C11*%
X98960000Y-92475000D03*
X98960000Y-94025000D03*
%TD*%
D15*
%TO.C,C20*%
X96274700Y-105811600D03*
X96274700Y-106771600D03*
%TD*%
D32*
%TO.C,XTAL2*%
X118450001Y-104297401D03*
X116749999Y-104297401D03*
X116749999Y-106050001D03*
X118450001Y-106050001D03*
%TD*%
D33*
%TO.C,D2*%
X124690000Y-92943196D03*
X124690000Y-91901796D03*
%TD*%
D34*
%TO.C,C18*%
X91625000Y-90200000D03*
X93175000Y-90200000D03*
%TD*%
D35*
%TO.C,U3*%
X100900001Y-93452450D03*
D36*
X101400000Y-93452450D03*
X101900000Y-93452450D03*
D37*
X102399999Y-93452450D03*
D36*
X102400001Y-91847550D03*
X101900000Y-91847550D03*
X101400000Y-91847550D03*
D37*
X100900001Y-91847550D03*
%TD*%
D30*
%TO.C,R6*%
X93088873Y-97269419D03*
X93088873Y-98289419D03*
%TD*%
D38*
%TO.C,C8*%
X115640000Y-94698196D03*
X115640000Y-93738196D03*
%TD*%
D30*
%TO.C,R2*%
X104140000Y-97915000D03*
X104140000Y-98935000D03*
%TD*%
D34*
%TO.C,C12*%
X88875000Y-99650000D03*
X90425000Y-99650000D03*
%TD*%
D38*
%TO.C,C1*%
X96174700Y-102691600D03*
X96174700Y-101731600D03*
%TD*%
D39*
%TO.C,U2*%
X116439999Y-100668198D03*
X116439999Y-100268197D03*
X116439999Y-99868197D03*
X116439999Y-99468198D03*
X116439999Y-99068196D03*
X116439999Y-98668197D03*
X116439999Y-98268198D03*
X116439999Y-97868196D03*
D40*
X115940000Y-97368197D03*
X115539998Y-97368197D03*
X115139999Y-97368197D03*
X114740000Y-97368197D03*
X114339998Y-97368197D03*
X113939999Y-97368197D03*
X113539999Y-97368197D03*
X113139998Y-97368197D03*
D39*
X112640001Y-97868196D03*
X112640001Y-98268198D03*
X112640001Y-98668197D03*
X112640001Y-99068196D03*
X112640001Y-99468198D03*
X112640001Y-99868197D03*
X112640001Y-100268197D03*
X112640001Y-100668198D03*
D40*
X113139998Y-101168195D03*
X113539999Y-101168195D03*
X113939999Y-101168195D03*
X114339998Y-101168195D03*
X114740000Y-101168195D03*
X115139999Y-101168195D03*
X115539998Y-101168195D03*
X115940000Y-101168195D03*
%TD*%
D15*
%TO.C,C9*%
X112065000Y-103938196D03*
X112065000Y-104898196D03*
%TD*%
D41*
%TO.C,J3*%
X85493500Y-102875000D03*
D42*
X85493500Y-102220699D03*
D43*
X85493500Y-101570700D03*
D44*
X85493500Y-100925001D03*
D41*
X85493500Y-100275000D03*
D45*
X85404600Y-99112501D03*
D46*
X82829299Y-100387500D03*
X82829299Y-102762500D03*
D45*
X85404600Y-104037499D03*
%TD*%
D27*
%TO.C,C14*%
X118885000Y-101918196D03*
X119845000Y-101918196D03*
%TD*%
%TO.C,C3*%
X101920000Y-104200000D03*
X102880000Y-104200000D03*
%TD*%
%TO.C,C16*%
X122285000Y-97955000D03*
X123245000Y-97955000D03*
%TD*%
D47*
%TO.C,R10*%
X120000000Y-93968197D03*
X120000000Y-92948197D03*
%TD*%
%TO.C,R3*%
X108407200Y-101551200D03*
X108407200Y-100531200D03*
%TD*%
D13*
%TO.C,R8*%
X101039200Y-98196400D03*
X102059200Y-98196400D03*
%TD*%
D15*
%TO.C,C4*%
X123390000Y-101838196D03*
X123390000Y-102798196D03*
%TD*%
D48*
%TO.C,R5*%
X93973873Y-95379419D03*
X92953873Y-95379419D03*
%TD*%
D49*
%TO.C,S1*%
X118900000Y-86800000D03*
X122300000Y-86800000D03*
%TD*%
D50*
%TO.C,FB2*%
X99299300Y-99100000D03*
X97800700Y-99100000D03*
%TD*%
D38*
%TO.C,C17*%
X114340000Y-94698196D03*
X114340000Y-93738196D03*
%TD*%
D51*
%TO.C,J2*%
X87355300Y-86999999D03*
X87355300Y-89000001D03*
D52*
X81605299Y-84649999D03*
X81605299Y-91350001D03*
%TD*%
M02*
