%TF.GenerationSoftware,KiCad,Pcbnew,9.0.3*%
%TF.CreationDate,2025-09-07T06:19:25+02:00*%
%TF.ProjectId,LoTiBloxy,4c6f5469-426c-46f7-9879-2e6b69636164,rev?*%
%TF.SameCoordinates,Original*%
%TF.FileFunction,Copper,L2,Bot*%
%TF.FilePolarity,Positive*%
%FSLAX46Y46*%
G04 Gerber Fmt 4.6, Leading zero omitted, Abs format (unit mm)*
G04 Created by KiCad (PCBNEW 9.0.3) date 2025-09-07 06:19:25*
%MOMM*%
%LPD*%
G01*
G04 APERTURE LIST*
%TA.AperFunction,ComponentPad*%
%ADD10C,0.650000*%
%TD*%
%TA.AperFunction,ComponentPad*%
%ADD11O,2.108200X1.422400*%
%TD*%
%TA.AperFunction,ViaPad*%
%ADD12C,0.600000*%
%TD*%
%TA.AperFunction,ViaPad*%
%ADD13C,0.650000*%
%TD*%
%TA.AperFunction,Conductor*%
%ADD14C,0.200000*%
%TD*%
G04 APERTURE END LIST*
D10*
%TO.P,U2,33,EGP*%
%TO.N,GND*%
X115565000Y-99268196D03*
X114540000Y-100318196D03*
X114540000Y-98218196D03*
X114539997Y-99268196D03*
X113465000Y-99268196D03*
%TD*%
D11*
%TO.P,J3,6,Shield*%
%TO.N,GND*%
X82829299Y-97625000D03*
X82829299Y-105525000D03*
%TD*%
D12*
%TO.N,GND*%
X96174700Y-100975300D03*
X95325000Y-101750000D03*
X92850000Y-104250000D03*
X84375000Y-105525000D03*
X124495000Y-97955000D03*
X85450000Y-97750000D03*
X87050000Y-99100000D03*
X120000000Y-91875000D03*
X91650000Y-93000000D03*
X96250000Y-107600000D03*
X95321600Y-106771600D03*
X113300000Y-93738196D03*
X106400000Y-105750000D03*
X126150000Y-102725000D03*
X114525000Y-104925000D03*
X120950000Y-101900000D03*
X131075000Y-103900000D03*
X111060735Y-104909137D03*
X98166800Y-96316800D03*
X103775000Y-104200000D03*
X115640000Y-92410000D03*
X82850000Y-95950000D03*
X123700000Y-86800000D03*
X124500000Y-96300000D03*
X100875000Y-94350000D03*
X93200000Y-91200000D03*
X90450000Y-100600000D03*
X116700000Y-93700000D03*
X102880000Y-103105000D03*
X93175000Y-88975000D03*
X123250000Y-95200000D03*
X94300000Y-94000000D03*
X114350000Y-92700000D03*
X99475000Y-97325000D03*
X119585000Y-106050001D03*
X119845000Y-102795000D03*
X124600000Y-102800000D03*
X90000000Y-88975000D03*
X93250000Y-93200000D03*
X98960000Y-95140000D03*
X81225000Y-100375000D03*
X112050000Y-105850000D03*
X82850000Y-103850000D03*
X128250000Y-102800000D03*
X93088873Y-99038873D03*
X87200000Y-100250000D03*
X93975000Y-105374400D03*
X82800000Y-106825000D03*
X82850000Y-99400000D03*
X105475000Y-87600000D03*
X123245000Y-98895000D03*
X110375000Y-103896400D03*
X81200000Y-102700000D03*
X86732618Y-104056948D03*
X94350000Y-92250000D03*
X110175000Y-84575000D03*
X127250000Y-103650000D03*
X122301804Y-102798196D03*
X121900000Y-94700000D03*
X91850000Y-99650000D03*
X103250000Y-91850000D03*
X123390000Y-103640000D03*
X101600000Y-106000000D03*
X85400000Y-105150000D03*
X93975000Y-102991294D03*
X94300000Y-90200000D03*
X103250000Y-93475000D03*
X113600000Y-105850000D03*
X109480000Y-103080000D03*
X81000000Y-97600000D03*
D13*
%TO.N,/VLED*%
X95376600Y-100406600D03*
X96331902Y-99451298D03*
%TO.N,/VDD_1V8*%
X117043200Y-101295200D03*
X114550000Y-102300000D03*
X116659018Y-102379509D03*
X107500000Y-104565000D03*
X115800000Y-96450000D03*
X107450000Y-103215000D03*
%TO.N,/MCU/batCheck*%
X104650000Y-101200000D03*
X101281475Y-100025000D03*
%TO.N,/SDA*%
X106100000Y-99100000D03*
X107430000Y-99100000D03*
%TO.N,/SCL*%
X106050000Y-97400000D03*
X107975000Y-97400000D03*
%TO.N,/INTB*%
X106104000Y-100500000D03*
X107354000Y-100500000D03*
%TD*%
D14*
%TO.N,/VDD_1V8*%
X114739998Y-102300000D02*
X114751198Y-102311200D01*
X114550000Y-102300000D02*
X114739998Y-102300000D01*
X116361200Y-102311200D02*
X116429509Y-102379509D01*
X116429509Y-102379509D02*
X116659018Y-102379509D01*
X114751198Y-102311200D02*
X116361200Y-102311200D01*
%TO.N,/VLED*%
X96331902Y-99451298D02*
X95376600Y-100406600D01*
%TO.N,/VDD_1V8*%
X115800000Y-96450000D02*
X116262000Y-96450000D01*
X116262000Y-96450000D02*
X117043200Y-97231200D01*
X107500000Y-103650000D02*
X107500000Y-104565000D01*
X107450000Y-103215000D02*
X107450000Y-103600000D01*
X117043200Y-97231200D02*
X117043200Y-101295200D01*
X107450000Y-103600000D02*
X107500000Y-103650000D01*
%TO.N,/MCU/batCheck*%
X103475000Y-100025000D02*
X101281475Y-100025000D01*
X104650000Y-101200000D02*
X103475000Y-100025000D01*
%TO.N,/SDA*%
X107430000Y-99100000D02*
X106100000Y-99100000D01*
%TO.N,/SCL*%
X107975000Y-97400000D02*
X106050000Y-97400000D01*
%TO.N,/INTB*%
X107354000Y-100500000D02*
X106104000Y-100500000D01*
%TD*%
%TA.AperFunction,Conductor*%
%TO.N,GND*%
G36*
X95015677Y-82644685D02*
G01*
X95036319Y-82661319D01*
X95175000Y-82800000D01*
X126000000Y-82800000D01*
X126013681Y-82786319D01*
X126075004Y-82752834D01*
X126101362Y-82750000D01*
X131826000Y-82750000D01*
X131893039Y-82769685D01*
X131938794Y-82822489D01*
X131950000Y-82874000D01*
X131950000Y-108026000D01*
X131930315Y-108093039D01*
X131877511Y-108138794D01*
X131826000Y-108150000D01*
X79674000Y-108150000D01*
X79606961Y-108130315D01*
X79561206Y-108077511D01*
X79550000Y-108026000D01*
X79550000Y-105275000D01*
X81299699Y-105275000D01*
X82309811Y-105275000D01*
X82299247Y-105281099D01*
X82242498Y-105337848D01*
X82202371Y-105407352D01*
X82181599Y-105484872D01*
X82181599Y-105565128D01*
X82202371Y-105642648D01*
X82242498Y-105712152D01*
X82299247Y-105768901D01*
X82309811Y-105775000D01*
X81299699Y-105775000D01*
X81305025Y-105808630D01*
X81363934Y-105989936D01*
X81450488Y-106159807D01*
X81562550Y-106314045D01*
X81562550Y-106314046D01*
X81697352Y-106448848D01*
X81851591Y-106560910D01*
X82021462Y-106647464D01*
X82202772Y-106706375D01*
X82391077Y-106736200D01*
X82579299Y-106736200D01*
X82579299Y-105829800D01*
X83079299Y-105829800D01*
X83079299Y-106736200D01*
X83267521Y-106736200D01*
X83455823Y-106706375D01*
X83455826Y-106706375D01*
X83637135Y-106647464D01*
X83807006Y-106560910D01*
X83961244Y-106448848D01*
X83961245Y-106448848D01*
X84096047Y-106314046D01*
X84096047Y-106314045D01*
X84208109Y-106159807D01*
X84294663Y-105989936D01*
X84353572Y-105808630D01*
X84358899Y-105775000D01*
X83348787Y-105775000D01*
X83359351Y-105768901D01*
X83416100Y-105712152D01*
X83456227Y-105642648D01*
X83476999Y-105565128D01*
X83476999Y-105484872D01*
X83456227Y-105407352D01*
X83416100Y-105337848D01*
X83359351Y-105281099D01*
X83348787Y-105275000D01*
X84358899Y-105275000D01*
X84353572Y-105241369D01*
X84294663Y-105060063D01*
X84208109Y-104890192D01*
X84096047Y-104735954D01*
X84096047Y-104735953D01*
X83961245Y-104601151D01*
X83807006Y-104489089D01*
X83637135Y-104402535D01*
X83455825Y-104343624D01*
X83267521Y-104313800D01*
X83079299Y-104313800D01*
X83079299Y-105220200D01*
X82579299Y-105220200D01*
X82579299Y-104313800D01*
X82391077Y-104313800D01*
X82202774Y-104343624D01*
X82202771Y-104343624D01*
X82021462Y-104402535D01*
X81851591Y-104489089D01*
X81697353Y-104601151D01*
X81697352Y-104601151D01*
X81562550Y-104735953D01*
X81562550Y-104735954D01*
X81450488Y-104890192D01*
X81363934Y-105060063D01*
X81305025Y-105241369D01*
X81299699Y-105275000D01*
X79550000Y-105275000D01*
X79550000Y-103145817D01*
X106924500Y-103145817D01*
X106924500Y-103284182D01*
X106960312Y-103417835D01*
X106960313Y-103417838D01*
X107029492Y-103537661D01*
X107029496Y-103537666D01*
X107132633Y-103640803D01*
X107136926Y-103647165D01*
X107140780Y-103649788D01*
X107147428Y-103662725D01*
X107159069Y-103679974D01*
X107162476Y-103687988D01*
X107169979Y-103715989D01*
X107186662Y-103744885D01*
X107189617Y-103751836D01*
X107192027Y-103772458D01*
X107199500Y-103800346D01*
X107199500Y-104070968D01*
X107179815Y-104138007D01*
X107163181Y-104158649D01*
X107079496Y-104242333D01*
X107079492Y-104242338D01*
X107010313Y-104362161D01*
X107010312Y-104362164D01*
X106974500Y-104495817D01*
X106974500Y-104634183D01*
X107001770Y-104735954D01*
X107010312Y-104767835D01*
X107010313Y-104767838D01*
X107079492Y-104887661D01*
X107079494Y-104887664D01*
X107079495Y-104887665D01*
X107177335Y-104985505D01*
X107297164Y-105054688D01*
X107430817Y-105090500D01*
X107430819Y-105090500D01*
X107569181Y-105090500D01*
X107569183Y-105090500D01*
X107702836Y-105054688D01*
X107822665Y-104985505D01*
X107920505Y-104887665D01*
X107989688Y-104767836D01*
X108025500Y-104634183D01*
X108025500Y-104495817D01*
X107989688Y-104362164D01*
X107920505Y-104242335D01*
X107836819Y-104158649D01*
X107803334Y-104097326D01*
X107800500Y-104070968D01*
X107800500Y-103659032D01*
X107820185Y-103591993D01*
X107836820Y-103571350D01*
X107870503Y-103537667D01*
X107870503Y-103537666D01*
X107870505Y-103537665D01*
X107939688Y-103417836D01*
X107975500Y-103284183D01*
X107975500Y-103145817D01*
X107939688Y-103012164D01*
X107905096Y-102952249D01*
X107870507Y-102892338D01*
X107870503Y-102892333D01*
X107772666Y-102794496D01*
X107772661Y-102794492D01*
X107652838Y-102725313D01*
X107652837Y-102725312D01*
X107652836Y-102725312D01*
X107519183Y-102689500D01*
X107380817Y-102689500D01*
X107247164Y-102725312D01*
X107247161Y-102725313D01*
X107127338Y-102794492D01*
X107127333Y-102794496D01*
X107029496Y-102892333D01*
X107029492Y-102892338D01*
X106960313Y-103012161D01*
X106960312Y-103012164D01*
X106924500Y-103145817D01*
X79550000Y-103145817D01*
X79550000Y-102230817D01*
X114024500Y-102230817D01*
X114024500Y-102369183D01*
X114045805Y-102448692D01*
X114060312Y-102502835D01*
X114060313Y-102502838D01*
X114129492Y-102622661D01*
X114129494Y-102622664D01*
X114129495Y-102622665D01*
X114227335Y-102720505D01*
X114227336Y-102720506D01*
X114227338Y-102720507D01*
X114287249Y-102755096D01*
X114347164Y-102789688D01*
X114480817Y-102825500D01*
X114480819Y-102825500D01*
X114619181Y-102825500D01*
X114619183Y-102825500D01*
X114752836Y-102789688D01*
X114872665Y-102720505D01*
X114945152Y-102648018D01*
X115006476Y-102614534D01*
X115032833Y-102611700D01*
X116114686Y-102611700D01*
X116181725Y-102631385D01*
X116222073Y-102673700D01*
X116238510Y-102702170D01*
X116238512Y-102702173D01*
X116238513Y-102702174D01*
X116336353Y-102800014D01*
X116336354Y-102800015D01*
X116336356Y-102800016D01*
X116380496Y-102825500D01*
X116456182Y-102869197D01*
X116589835Y-102905009D01*
X116589837Y-102905009D01*
X116728199Y-102905009D01*
X116728201Y-102905009D01*
X116861854Y-102869197D01*
X116981683Y-102800014D01*
X117079523Y-102702174D01*
X117148706Y-102582345D01*
X117184518Y-102448692D01*
X117184518Y-102310326D01*
X117148706Y-102176673D01*
X117079523Y-102056844D01*
X117052094Y-102029415D01*
X117018609Y-101968092D01*
X117023593Y-101898400D01*
X117065465Y-101842467D01*
X117107682Y-101821959D01*
X117112381Y-101820700D01*
X117112383Y-101820700D01*
X117246036Y-101784888D01*
X117365865Y-101715705D01*
X117463705Y-101617865D01*
X117532888Y-101498036D01*
X117568700Y-101364383D01*
X117568700Y-101226017D01*
X117532888Y-101092364D01*
X117494284Y-101025499D01*
X117463707Y-100972538D01*
X117463703Y-100972533D01*
X117380019Y-100888849D01*
X117346534Y-100827526D01*
X117343700Y-100801168D01*
X117343700Y-97191640D01*
X117343700Y-97191638D01*
X117324499Y-97119979D01*
X117323222Y-97115212D01*
X117283660Y-97046689D01*
X116446511Y-96209540D01*
X116446509Y-96209539D01*
X116446504Y-96209535D01*
X116377995Y-96169982D01*
X116377990Y-96169979D01*
X116352513Y-96163152D01*
X116301562Y-96149500D01*
X116301560Y-96149500D01*
X116294032Y-96149500D01*
X116226993Y-96129815D01*
X116206351Y-96113181D01*
X116122666Y-96029496D01*
X116122661Y-96029492D01*
X116002838Y-95960313D01*
X116002837Y-95960312D01*
X116002836Y-95960312D01*
X115869183Y-95924500D01*
X115730817Y-95924500D01*
X115597164Y-95960312D01*
X115597161Y-95960313D01*
X115477338Y-96029492D01*
X115477333Y-96029496D01*
X115379496Y-96127333D01*
X115379492Y-96127338D01*
X115310313Y-96247161D01*
X115310312Y-96247164D01*
X115274500Y-96380817D01*
X115274500Y-96519182D01*
X115310312Y-96652835D01*
X115310313Y-96652838D01*
X115379492Y-96772661D01*
X115379494Y-96772664D01*
X115379495Y-96772665D01*
X115477335Y-96870505D01*
X115477336Y-96870506D01*
X115477338Y-96870507D01*
X115485280Y-96875092D01*
X115597164Y-96939688D01*
X115730817Y-96975500D01*
X115730819Y-96975500D01*
X115869181Y-96975500D01*
X115869183Y-96975500D01*
X116002836Y-96939688D01*
X116122665Y-96870505D01*
X116122667Y-96870502D01*
X116125767Y-96868713D01*
X116193667Y-96852240D01*
X116259694Y-96875092D01*
X116275448Y-96888419D01*
X116706381Y-97319352D01*
X116739866Y-97380675D01*
X116742700Y-97407033D01*
X116742700Y-100801168D01*
X116723015Y-100868207D01*
X116706381Y-100888849D01*
X116622696Y-100972533D01*
X116622692Y-100972538D01*
X116553513Y-101092361D01*
X116553512Y-101092364D01*
X116517700Y-101226017D01*
X116517700Y-101364383D01*
X116528004Y-101402836D01*
X116553512Y-101498035D01*
X116553513Y-101498038D01*
X116622692Y-101617861D01*
X116622696Y-101617866D01*
X116650123Y-101645293D01*
X116683608Y-101706616D01*
X116678624Y-101776308D01*
X116636752Y-101832241D01*
X116594536Y-101852749D01*
X116456180Y-101889821D01*
X116456179Y-101889822D01*
X116336356Y-101959001D01*
X116336351Y-101959005D01*
X116320976Y-101974381D01*
X116259653Y-102007866D01*
X116233295Y-102010700D01*
X115055232Y-102010700D01*
X114988193Y-101991015D01*
X114967551Y-101974381D01*
X114872666Y-101879496D01*
X114872661Y-101879492D01*
X114752838Y-101810313D01*
X114752837Y-101810312D01*
X114752836Y-101810312D01*
X114619183Y-101774500D01*
X114480817Y-101774500D01*
X114347164Y-101810312D01*
X114347161Y-101810313D01*
X114227338Y-101879492D01*
X114227333Y-101879496D01*
X114129496Y-101977333D01*
X114129492Y-101977338D01*
X114060313Y-102097161D01*
X114060312Y-102097164D01*
X114024500Y-102230817D01*
X79550000Y-102230817D01*
X79550000Y-100337417D01*
X94851100Y-100337417D01*
X94851100Y-100475783D01*
X94876127Y-100569183D01*
X94886912Y-100609435D01*
X94886913Y-100609438D01*
X94956092Y-100729261D01*
X94956094Y-100729264D01*
X94956095Y-100729265D01*
X95053935Y-100827105D01*
X95173764Y-100896288D01*
X95307417Y-100932100D01*
X95307419Y-100932100D01*
X95445781Y-100932100D01*
X95445783Y-100932100D01*
X95579436Y-100896288D01*
X95699265Y-100827105D01*
X95797105Y-100729265D01*
X95866288Y-100609436D01*
X95902100Y-100475783D01*
X95902100Y-100357432D01*
X95921785Y-100290393D01*
X95938419Y-100269751D01*
X96195053Y-100013117D01*
X96256376Y-99979632D01*
X96282734Y-99976798D01*
X96401083Y-99976798D01*
X96401085Y-99976798D01*
X96479388Y-99955817D01*
X100755975Y-99955817D01*
X100755975Y-100094183D01*
X100789438Y-100219067D01*
X100791787Y-100227835D01*
X100791788Y-100227838D01*
X100860967Y-100347661D01*
X100860969Y-100347664D01*
X100860970Y-100347665D01*
X100958810Y-100445505D01*
X100958811Y-100445506D01*
X100958813Y-100445507D01*
X101011253Y-100475783D01*
X101078639Y-100514688D01*
X101212292Y-100550500D01*
X101212294Y-100550500D01*
X101350656Y-100550500D01*
X101350658Y-100550500D01*
X101484311Y-100514688D01*
X101604140Y-100445505D01*
X101687826Y-100361819D01*
X101749149Y-100328334D01*
X101775507Y-100325500D01*
X103299167Y-100325500D01*
X103366206Y-100345185D01*
X103386848Y-100361819D01*
X104088181Y-101063152D01*
X104121666Y-101124475D01*
X104124500Y-101150833D01*
X104124500Y-101269183D01*
X104150009Y-101364382D01*
X104160312Y-101402835D01*
X104160313Y-101402838D01*
X104229492Y-101522661D01*
X104229494Y-101522664D01*
X104229495Y-101522665D01*
X104327335Y-101620505D01*
X104447164Y-101689688D01*
X104580817Y-101725500D01*
X104580819Y-101725500D01*
X104719181Y-101725500D01*
X104719183Y-101725500D01*
X104852836Y-101689688D01*
X104972665Y-101620505D01*
X105070505Y-101522665D01*
X105139688Y-101402836D01*
X105175500Y-101269183D01*
X105175500Y-101130817D01*
X105154696Y-101053176D01*
X114158571Y-101053176D01*
X114299355Y-101111491D01*
X114299363Y-101111493D01*
X114458740Y-101143195D01*
X114458744Y-101143196D01*
X114621256Y-101143196D01*
X114621259Y-101143195D01*
X114780636Y-101111493D01*
X114780644Y-101111491D01*
X114921427Y-101053176D01*
X114540001Y-100671750D01*
X114540000Y-100671750D01*
X114158571Y-101053176D01*
X105154696Y-101053176D01*
X105139688Y-100997164D01*
X105095428Y-100920503D01*
X105070507Y-100877338D01*
X105070503Y-100877333D01*
X104972666Y-100779496D01*
X104972661Y-100779492D01*
X104852838Y-100710313D01*
X104852837Y-100710312D01*
X104852836Y-100710312D01*
X104719183Y-100674500D01*
X104600833Y-100674500D01*
X104571392Y-100665855D01*
X104541406Y-100659332D01*
X104536390Y-100655577D01*
X104533794Y-100654815D01*
X104513152Y-100638181D01*
X104305788Y-100430817D01*
X105578500Y-100430817D01*
X105578500Y-100569183D01*
X105608495Y-100681124D01*
X105614312Y-100702835D01*
X105614313Y-100702838D01*
X105683492Y-100822661D01*
X105683494Y-100822664D01*
X105683495Y-100822665D01*
X105781335Y-100920505D01*
X105901164Y-100989688D01*
X106034817Y-101025500D01*
X106034819Y-101025500D01*
X106173181Y-101025500D01*
X106173183Y-101025500D01*
X106306836Y-100989688D01*
X106426665Y-100920505D01*
X106510351Y-100836819D01*
X106571674Y-100803334D01*
X106598032Y-100800500D01*
X106859968Y-100800500D01*
X106927007Y-100820185D01*
X106947649Y-100836819D01*
X107031335Y-100920505D01*
X107151164Y-100989688D01*
X107284817Y-101025500D01*
X107284819Y-101025500D01*
X107423181Y-101025500D01*
X107423183Y-101025500D01*
X107556836Y-100989688D01*
X107676665Y-100920505D01*
X107774505Y-100822665D01*
X107843688Y-100702836D01*
X107879500Y-100569183D01*
X107879500Y-100430817D01*
X107843688Y-100297164D01*
X107774505Y-100177335D01*
X107676665Y-100079495D01*
X107676664Y-100079494D01*
X107676661Y-100079492D01*
X107659785Y-100069749D01*
X107556838Y-100010313D01*
X107556837Y-100010312D01*
X107556836Y-100010312D01*
X107530204Y-100003176D01*
X113083571Y-100003176D01*
X113224355Y-100061491D01*
X113224363Y-100061493D01*
X113383740Y-100093195D01*
X113383744Y-100093196D01*
X113546256Y-100093196D01*
X113546256Y-100093195D01*
X113569708Y-100088531D01*
X113639300Y-100094758D01*
X113694477Y-100137621D01*
X113717722Y-100203510D01*
X113715518Y-100234338D01*
X113715000Y-100236942D01*
X113715000Y-100399455D01*
X113746702Y-100558832D01*
X113746704Y-100558840D01*
X113805017Y-100699622D01*
X114186446Y-100318196D01*
X114151636Y-100283386D01*
X114365000Y-100283386D01*
X114365000Y-100353006D01*
X114391643Y-100417325D01*
X114440871Y-100466553D01*
X114505190Y-100493196D01*
X114574810Y-100493196D01*
X114639129Y-100466553D01*
X114688357Y-100417325D01*
X114715000Y-100353006D01*
X114715000Y-100318196D01*
X114893554Y-100318196D01*
X115274980Y-100699623D01*
X115333295Y-100558840D01*
X115333297Y-100558832D01*
X115364999Y-100399455D01*
X115365000Y-100399452D01*
X115365000Y-100236940D01*
X115364403Y-100230878D01*
X115366844Y-100230637D01*
X115372116Y-100171786D01*
X115414984Y-100116612D01*
X115480876Y-100093373D01*
X115487502Y-100093196D01*
X115646256Y-100093196D01*
X115646259Y-100093195D01*
X115805636Y-100061493D01*
X115805644Y-100061491D01*
X115946427Y-100003176D01*
X115565000Y-99621750D01*
X115368605Y-99818144D01*
X115359879Y-99847863D01*
X115343245Y-99868505D01*
X114893554Y-100318196D01*
X114715000Y-100318196D01*
X114715000Y-100283386D01*
X114688357Y-100219067D01*
X114639129Y-100169839D01*
X114574810Y-100143196D01*
X114505190Y-100143196D01*
X114440871Y-100169839D01*
X114391643Y-100219067D01*
X114365000Y-100283386D01*
X114151636Y-100283386D01*
X113965051Y-100096801D01*
X113935333Y-100088075D01*
X113914691Y-100071441D01*
X113672762Y-99829512D01*
X113636444Y-99793194D01*
X114368552Y-99793194D01*
X114539999Y-99964641D01*
X114711444Y-99793196D01*
X114539998Y-99621750D01*
X114368552Y-99793194D01*
X113636444Y-99793194D01*
X113465001Y-99621750D01*
X113465000Y-99621750D01*
X113083571Y-100003176D01*
X107530204Y-100003176D01*
X107423183Y-99974500D01*
X107284817Y-99974500D01*
X107151164Y-100010312D01*
X107151161Y-100010313D01*
X107031338Y-100079492D01*
X107031333Y-100079496D01*
X106947649Y-100163181D01*
X106886326Y-100196666D01*
X106859968Y-100199500D01*
X106598032Y-100199500D01*
X106530993Y-100179815D01*
X106510351Y-100163181D01*
X106426666Y-100079496D01*
X106426661Y-100079492D01*
X106306838Y-100010313D01*
X106306837Y-100010312D01*
X106306836Y-100010312D01*
X106173183Y-99974500D01*
X106034817Y-99974500D01*
X105901164Y-100010312D01*
X105901161Y-100010313D01*
X105781338Y-100079492D01*
X105781333Y-100079496D01*
X105683496Y-100177333D01*
X105683492Y-100177338D01*
X105614313Y-100297161D01*
X105614312Y-100297164D01*
X105578500Y-100430817D01*
X104305788Y-100430817D01*
X103659510Y-99784539D01*
X103650351Y-99779251D01*
X103641191Y-99773963D01*
X103590991Y-99744980D01*
X103590990Y-99744979D01*
X103565513Y-99738152D01*
X103514562Y-99724500D01*
X103514560Y-99724500D01*
X101775507Y-99724500D01*
X101708468Y-99704815D01*
X101687826Y-99688181D01*
X101604141Y-99604496D01*
X101604136Y-99604492D01*
X101484313Y-99535313D01*
X101484312Y-99535312D01*
X101484311Y-99535312D01*
X101350658Y-99499500D01*
X101212292Y-99499500D01*
X101078639Y-99535312D01*
X101078636Y-99535313D01*
X100958813Y-99604492D01*
X100958808Y-99604496D01*
X100860971Y-99702333D01*
X100860967Y-99702338D01*
X100791788Y-99822161D01*
X100791787Y-99822164D01*
X100755975Y-99955817D01*
X96479388Y-99955817D01*
X96534738Y-99940986D01*
X96654567Y-99871803D01*
X96752407Y-99773963D01*
X96821590Y-99654134D01*
X96857402Y-99520481D01*
X96857402Y-99382115D01*
X96821590Y-99248462D01*
X96786068Y-99186936D01*
X96752409Y-99128636D01*
X96752405Y-99128631D01*
X96654591Y-99030817D01*
X105574500Y-99030817D01*
X105574500Y-99169183D01*
X105601031Y-99268196D01*
X105610312Y-99302835D01*
X105610313Y-99302838D01*
X105679492Y-99422661D01*
X105679494Y-99422664D01*
X105679495Y-99422665D01*
X105777335Y-99520505D01*
X105777336Y-99520506D01*
X105777338Y-99520507D01*
X105802983Y-99535313D01*
X105897164Y-99589688D01*
X106030817Y-99625500D01*
X106030819Y-99625500D01*
X106169181Y-99625500D01*
X106169183Y-99625500D01*
X106302836Y-99589688D01*
X106422665Y-99520505D01*
X106506351Y-99436819D01*
X106567674Y-99403334D01*
X106594032Y-99400500D01*
X106935968Y-99400500D01*
X107003007Y-99420185D01*
X107023649Y-99436819D01*
X107107335Y-99520505D01*
X107107336Y-99520506D01*
X107107338Y-99520507D01*
X107132983Y-99535313D01*
X107227164Y-99589688D01*
X107360817Y-99625500D01*
X107360819Y-99625500D01*
X107499181Y-99625500D01*
X107499183Y-99625500D01*
X107632836Y-99589688D01*
X107752665Y-99520505D01*
X107850505Y-99422665D01*
X107919688Y-99302836D01*
X107950743Y-99186936D01*
X112640000Y-99186936D01*
X112640000Y-99349455D01*
X112671702Y-99508832D01*
X112671704Y-99508840D01*
X112730017Y-99649622D01*
X113111446Y-99268196D01*
X113111446Y-99268195D01*
X113076637Y-99233386D01*
X113290000Y-99233386D01*
X113290000Y-99303006D01*
X113316643Y-99367325D01*
X113365871Y-99416553D01*
X113430190Y-99443196D01*
X113499810Y-99443196D01*
X113564129Y-99416553D01*
X113613357Y-99367325D01*
X113640000Y-99303006D01*
X113640000Y-99268196D01*
X113818554Y-99268196D01*
X113818554Y-99268197D01*
X114002497Y-99452140D01*
X114186442Y-99268195D01*
X114151633Y-99233386D01*
X114364997Y-99233386D01*
X114364997Y-99303006D01*
X114391640Y-99367325D01*
X114440868Y-99416553D01*
X114505187Y-99443196D01*
X114574807Y-99443196D01*
X114639126Y-99416553D01*
X114688354Y-99367325D01*
X114714997Y-99303006D01*
X114714997Y-99268196D01*
X114893551Y-99268196D01*
X114893551Y-99268197D01*
X115052497Y-99427143D01*
X115211445Y-99268195D01*
X115176636Y-99233386D01*
X115390000Y-99233386D01*
X115390000Y-99303006D01*
X115416643Y-99367325D01*
X115465871Y-99416553D01*
X115530190Y-99443196D01*
X115599810Y-99443196D01*
X115664129Y-99416553D01*
X115713357Y-99367325D01*
X115740000Y-99303006D01*
X115740000Y-99268195D01*
X115918554Y-99268195D01*
X115918554Y-99268197D01*
X116299980Y-99649623D01*
X116358295Y-99508840D01*
X116358297Y-99508832D01*
X116389999Y-99349455D01*
X116390000Y-99349452D01*
X116390000Y-99186940D01*
X116389999Y-99186936D01*
X116358297Y-99027559D01*
X116358295Y-99027551D01*
X116299980Y-98886767D01*
X115918554Y-99268195D01*
X115740000Y-99268195D01*
X115740000Y-99233386D01*
X115713357Y-99169067D01*
X115664129Y-99119839D01*
X115599810Y-99093196D01*
X115530190Y-99093196D01*
X115465871Y-99119839D01*
X115416643Y-99169067D01*
X115390000Y-99233386D01*
X115176636Y-99233386D01*
X115052498Y-99109248D01*
X114893551Y-99268196D01*
X114714997Y-99268196D01*
X114714997Y-99233386D01*
X114688354Y-99169067D01*
X114639126Y-99119839D01*
X114574807Y-99093196D01*
X114505187Y-99093196D01*
X114440868Y-99119839D01*
X114391640Y-99169067D01*
X114364997Y-99233386D01*
X114151633Y-99233386D01*
X114002498Y-99084251D01*
X113818554Y-99268196D01*
X113640000Y-99268196D01*
X113640000Y-99233386D01*
X113613357Y-99169067D01*
X113564129Y-99119839D01*
X113499810Y-99093196D01*
X113430190Y-99093196D01*
X113365871Y-99119839D01*
X113316643Y-99169067D01*
X113290000Y-99233386D01*
X113076637Y-99233386D01*
X112730018Y-98886767D01*
X112671704Y-99027550D01*
X112671701Y-99027559D01*
X112640000Y-99186936D01*
X107950743Y-99186936D01*
X107955500Y-99169183D01*
X107955500Y-99030817D01*
X107919688Y-98897164D01*
X107850505Y-98777335D01*
X107752665Y-98679495D01*
X107752664Y-98679494D01*
X107752661Y-98679492D01*
X107632838Y-98610313D01*
X107632837Y-98610312D01*
X107632836Y-98610312D01*
X107499183Y-98574500D01*
X107360817Y-98574500D01*
X107227164Y-98610312D01*
X107227161Y-98610313D01*
X107107338Y-98679492D01*
X107107333Y-98679496D01*
X107023649Y-98763181D01*
X106962326Y-98796666D01*
X106935968Y-98799500D01*
X106594032Y-98799500D01*
X106526993Y-98779815D01*
X106506351Y-98763181D01*
X106422666Y-98679496D01*
X106422661Y-98679492D01*
X106302838Y-98610313D01*
X106302837Y-98610312D01*
X106302836Y-98610312D01*
X106169183Y-98574500D01*
X106030817Y-98574500D01*
X105897164Y-98610312D01*
X105897161Y-98610313D01*
X105777338Y-98679492D01*
X105777333Y-98679496D01*
X105679496Y-98777333D01*
X105679492Y-98777338D01*
X105610313Y-98897161D01*
X105610312Y-98897164D01*
X105574500Y-99030817D01*
X96654591Y-99030817D01*
X96654568Y-99030794D01*
X96654563Y-99030790D01*
X96534740Y-98961611D01*
X96534739Y-98961610D01*
X96534738Y-98961610D01*
X96401085Y-98925798D01*
X96262719Y-98925798D01*
X96129066Y-98961610D01*
X96129063Y-98961611D01*
X96009240Y-99030790D01*
X96009235Y-99030794D01*
X95911398Y-99128631D01*
X95911394Y-99128636D01*
X95842215Y-99248459D01*
X95842214Y-99248462D01*
X95806402Y-99382115D01*
X95806402Y-99500464D01*
X95786717Y-99567503D01*
X95770083Y-99588145D01*
X95513447Y-99844781D01*
X95452124Y-99878266D01*
X95425766Y-99881100D01*
X95307417Y-99881100D01*
X95173764Y-99916912D01*
X95173761Y-99916913D01*
X95053938Y-99986092D01*
X95053933Y-99986096D01*
X94956096Y-100083933D01*
X94956092Y-100083938D01*
X94886913Y-100203761D01*
X94886912Y-100203764D01*
X94851100Y-100337417D01*
X79550000Y-100337417D01*
X79550000Y-97375000D01*
X81299699Y-97375000D01*
X82309811Y-97375000D01*
X82299247Y-97381099D01*
X82242498Y-97437848D01*
X82202371Y-97507352D01*
X82181599Y-97584872D01*
X82181599Y-97665128D01*
X82202371Y-97742648D01*
X82242498Y-97812152D01*
X82299247Y-97868901D01*
X82309811Y-97875000D01*
X81299699Y-97875000D01*
X81305025Y-97908630D01*
X81363934Y-98089936D01*
X81450488Y-98259807D01*
X81562550Y-98414045D01*
X81562550Y-98414046D01*
X81697352Y-98548848D01*
X81851591Y-98660910D01*
X82021462Y-98747464D01*
X82202772Y-98806375D01*
X82391077Y-98836200D01*
X82579299Y-98836200D01*
X82579299Y-97929800D01*
X83079299Y-97929800D01*
X83079299Y-98836200D01*
X83267521Y-98836200D01*
X83455823Y-98806375D01*
X83455826Y-98806375D01*
X83637135Y-98747464D01*
X83807006Y-98660910D01*
X83961244Y-98548848D01*
X83961245Y-98548848D01*
X83976879Y-98533214D01*
X113083571Y-98533214D01*
X113464999Y-98914642D01*
X113636445Y-98743197D01*
X114368552Y-98743197D01*
X114539996Y-98914641D01*
X114711444Y-98743193D01*
X114540001Y-98571750D01*
X114368552Y-98743197D01*
X113636445Y-98743197D01*
X113775489Y-98604153D01*
X113914691Y-98464951D01*
X113969762Y-98434879D01*
X114186446Y-98218196D01*
X114186446Y-98218195D01*
X114151637Y-98183386D01*
X114365000Y-98183386D01*
X114365000Y-98253006D01*
X114391643Y-98317325D01*
X114440871Y-98366553D01*
X114505190Y-98393196D01*
X114574810Y-98393196D01*
X114639129Y-98366553D01*
X114688357Y-98317325D01*
X114715000Y-98253006D01*
X114715000Y-98218195D01*
X114893554Y-98218195D01*
X114893554Y-98218196D01*
X115343245Y-98667887D01*
X115373316Y-98722958D01*
X115565000Y-98914642D01*
X115565001Y-98914642D01*
X115946427Y-98533214D01*
X115805644Y-98474900D01*
X115805636Y-98474898D01*
X115646259Y-98443196D01*
X115487502Y-98443196D01*
X115420463Y-98423511D01*
X115374708Y-98370707D01*
X115365347Y-98305607D01*
X115364403Y-98305514D01*
X115364781Y-98301670D01*
X115364764Y-98301549D01*
X115364833Y-98301143D01*
X115365000Y-98299452D01*
X115365000Y-98136940D01*
X115364999Y-98136936D01*
X115333297Y-97977559D01*
X115333295Y-97977551D01*
X115274980Y-97836767D01*
X114893554Y-98218195D01*
X114715000Y-98218195D01*
X114715000Y-98183386D01*
X114688357Y-98119067D01*
X114639129Y-98069839D01*
X114574810Y-98043196D01*
X114505190Y-98043196D01*
X114440871Y-98069839D01*
X114391643Y-98119067D01*
X114365000Y-98183386D01*
X114151637Y-98183386D01*
X113805018Y-97836767D01*
X113746704Y-97977550D01*
X113746701Y-97977559D01*
X113715000Y-98136936D01*
X113715000Y-98299451D01*
X113715517Y-98302050D01*
X113715392Y-98303439D01*
X113715597Y-98305514D01*
X113715203Y-98305552D01*
X113709290Y-98371642D01*
X113666428Y-98426820D01*
X113600539Y-98450065D01*
X113569712Y-98447861D01*
X113546256Y-98443196D01*
X113383740Y-98443196D01*
X113224363Y-98474897D01*
X113224354Y-98474900D01*
X113083571Y-98533214D01*
X83976879Y-98533214D01*
X84096047Y-98414046D01*
X84096047Y-98414045D01*
X84208109Y-98259807D01*
X84294663Y-98089936D01*
X84353572Y-97908630D01*
X84358899Y-97875000D01*
X83348787Y-97875000D01*
X83359351Y-97868901D01*
X83416100Y-97812152D01*
X83456227Y-97742648D01*
X83476999Y-97665128D01*
X83476999Y-97584872D01*
X83456227Y-97507352D01*
X83416100Y-97437848D01*
X83359351Y-97381099D01*
X83348787Y-97375000D01*
X84358900Y-97375000D01*
X84358899Y-97374999D01*
X84353687Y-97342086D01*
X84353687Y-97342085D01*
X84353574Y-97341375D01*
X84353574Y-97341373D01*
X84350144Y-97330817D01*
X105524500Y-97330817D01*
X105524500Y-97469183D01*
X105534728Y-97507352D01*
X105560312Y-97602835D01*
X105560313Y-97602838D01*
X105629492Y-97722661D01*
X105629494Y-97722664D01*
X105629495Y-97722665D01*
X105727335Y-97820505D01*
X105727336Y-97820506D01*
X105727338Y-97820507D01*
X105787249Y-97855096D01*
X105847164Y-97889688D01*
X105980817Y-97925500D01*
X105980819Y-97925500D01*
X106119181Y-97925500D01*
X106119183Y-97925500D01*
X106252836Y-97889688D01*
X106372665Y-97820505D01*
X106456351Y-97736819D01*
X106517674Y-97703334D01*
X106544032Y-97700500D01*
X107480968Y-97700500D01*
X107548007Y-97720185D01*
X107568649Y-97736819D01*
X107652335Y-97820505D01*
X107652336Y-97820506D01*
X107652338Y-97820507D01*
X107712249Y-97855096D01*
X107772164Y-97889688D01*
X107905817Y-97925500D01*
X107905819Y-97925500D01*
X108044181Y-97925500D01*
X108044183Y-97925500D01*
X108177836Y-97889688D01*
X108297665Y-97820505D01*
X108395505Y-97722665D01*
X108464688Y-97602836D01*
X108496740Y-97483214D01*
X114158571Y-97483214D01*
X114540000Y-97864642D01*
X114540001Y-97864642D01*
X114921427Y-97483214D01*
X114780644Y-97424900D01*
X114780636Y-97424898D01*
X114621259Y-97393196D01*
X114458740Y-97393196D01*
X114299363Y-97424897D01*
X114299354Y-97424900D01*
X114158571Y-97483214D01*
X108496740Y-97483214D01*
X108500500Y-97469183D01*
X108500500Y-97330817D01*
X108464688Y-97197164D01*
X108395505Y-97077335D01*
X108297665Y-96979495D01*
X108297664Y-96979494D01*
X108297661Y-96979492D01*
X108177838Y-96910313D01*
X108177837Y-96910312D01*
X108177836Y-96910312D01*
X108044183Y-96874500D01*
X107905817Y-96874500D01*
X107772164Y-96910312D01*
X107772161Y-96910313D01*
X107652338Y-96979492D01*
X107652333Y-96979496D01*
X107568649Y-97063181D01*
X107507326Y-97096666D01*
X107480968Y-97099500D01*
X106544032Y-97099500D01*
X106476993Y-97079815D01*
X106456351Y-97063181D01*
X106372666Y-96979496D01*
X106372661Y-96979492D01*
X106252838Y-96910313D01*
X106252837Y-96910312D01*
X106252836Y-96910312D01*
X106119183Y-96874500D01*
X105980817Y-96874500D01*
X105847164Y-96910312D01*
X105847161Y-96910313D01*
X105727338Y-96979492D01*
X105727333Y-96979496D01*
X105629496Y-97077333D01*
X105629492Y-97077338D01*
X105560313Y-97197161D01*
X105560312Y-97197164D01*
X105524500Y-97330817D01*
X84350144Y-97330817D01*
X84294663Y-97160063D01*
X84208109Y-96990192D01*
X84096047Y-96835954D01*
X84096047Y-96835953D01*
X83961245Y-96701151D01*
X83807006Y-96589089D01*
X83637135Y-96502535D01*
X83455825Y-96443624D01*
X83267521Y-96413800D01*
X83079299Y-96413800D01*
X83079299Y-97320200D01*
X82579299Y-97320200D01*
X82579299Y-96413800D01*
X82391077Y-96413800D01*
X82202774Y-96443624D01*
X82202771Y-96443624D01*
X82021462Y-96502535D01*
X81851591Y-96589089D01*
X81697353Y-96701151D01*
X81697352Y-96701151D01*
X81562550Y-96835953D01*
X81562550Y-96835954D01*
X81450488Y-96990192D01*
X81363934Y-97160063D01*
X81305025Y-97341369D01*
X81299699Y-97375000D01*
X79550000Y-97375000D01*
X79550000Y-87742540D01*
X108174200Y-87742540D01*
X108174200Y-87889459D01*
X108202858Y-88033534D01*
X108202861Y-88033544D01*
X108259078Y-88169266D01*
X108259083Y-88169275D01*
X108340698Y-88291419D01*
X108340701Y-88291423D01*
X108444576Y-88395298D01*
X108444580Y-88395301D01*
X108566724Y-88476916D01*
X108566730Y-88476919D01*
X108566731Y-88476920D01*
X108702458Y-88533140D01*
X108846540Y-88561799D01*
X108846544Y-88561800D01*
X108846545Y-88561800D01*
X108993456Y-88561800D01*
X108993457Y-88561799D01*
X109137542Y-88533140D01*
X109273269Y-88476920D01*
X109395420Y-88395301D01*
X109499301Y-88291420D01*
X109580920Y-88169269D01*
X109637140Y-88033542D01*
X109665800Y-87889455D01*
X109665800Y-87742545D01*
X109637140Y-87598458D01*
X109580920Y-87462731D01*
X109580919Y-87462730D01*
X109580916Y-87462724D01*
X109499301Y-87340580D01*
X109499298Y-87340576D01*
X109395423Y-87236701D01*
X109395419Y-87236698D01*
X109273275Y-87155083D01*
X109273266Y-87155078D01*
X109137544Y-87098861D01*
X109137545Y-87098861D01*
X109137542Y-87098860D01*
X109137538Y-87098859D01*
X109137534Y-87098858D01*
X108993459Y-87070200D01*
X108993455Y-87070200D01*
X108846545Y-87070200D01*
X108846540Y-87070200D01*
X108702465Y-87098858D01*
X108702455Y-87098861D01*
X108566733Y-87155078D01*
X108566724Y-87155083D01*
X108444580Y-87236698D01*
X108444576Y-87236701D01*
X108340701Y-87340576D01*
X108340698Y-87340580D01*
X108259083Y-87462724D01*
X108259078Y-87462733D01*
X108202861Y-87598455D01*
X108202858Y-87598465D01*
X108174200Y-87742540D01*
X79550000Y-87742540D01*
X79550000Y-86726540D01*
X113254200Y-86726540D01*
X113254200Y-86873459D01*
X113282858Y-87017534D01*
X113282861Y-87017544D01*
X113339078Y-87153266D01*
X113339083Y-87153275D01*
X113420698Y-87275419D01*
X113420701Y-87275423D01*
X113524576Y-87379298D01*
X113524580Y-87379301D01*
X113646724Y-87460916D01*
X113646730Y-87460919D01*
X113646731Y-87460920D01*
X113782458Y-87517140D01*
X113926540Y-87545799D01*
X113926544Y-87545800D01*
X113926545Y-87545800D01*
X114073456Y-87545800D01*
X114073457Y-87545799D01*
X114217542Y-87517140D01*
X114353269Y-87460920D01*
X114475420Y-87379301D01*
X114579301Y-87275420D01*
X114660920Y-87153269D01*
X114717140Y-87017542D01*
X114745800Y-86873455D01*
X114745800Y-86726545D01*
X114717140Y-86582458D01*
X114660920Y-86446731D01*
X114660919Y-86446730D01*
X114660916Y-86446724D01*
X114579301Y-86324580D01*
X114579298Y-86324576D01*
X114475423Y-86220701D01*
X114475419Y-86220698D01*
X114353275Y-86139083D01*
X114353266Y-86139078D01*
X114217544Y-86082861D01*
X114217545Y-86082861D01*
X114217542Y-86082860D01*
X114217538Y-86082859D01*
X114217534Y-86082858D01*
X114073459Y-86054200D01*
X114073455Y-86054200D01*
X113926545Y-86054200D01*
X113926540Y-86054200D01*
X113782465Y-86082858D01*
X113782455Y-86082861D01*
X113646733Y-86139078D01*
X113646724Y-86139083D01*
X113524580Y-86220698D01*
X113524576Y-86220701D01*
X113420701Y-86324576D01*
X113420698Y-86324580D01*
X113339083Y-86446724D01*
X113339078Y-86446733D01*
X113282861Y-86582455D01*
X113282858Y-86582465D01*
X113254200Y-86726540D01*
X79550000Y-86726540D01*
X79550000Y-85710540D01*
X108174200Y-85710540D01*
X108174200Y-85857459D01*
X108202858Y-86001534D01*
X108202861Y-86001544D01*
X108259078Y-86137266D01*
X108259083Y-86137275D01*
X108340698Y-86259419D01*
X108340701Y-86259423D01*
X108444576Y-86363298D01*
X108444580Y-86363301D01*
X108566724Y-86444916D01*
X108566730Y-86444919D01*
X108566731Y-86444920D01*
X108702458Y-86501140D01*
X108846540Y-86529799D01*
X108846544Y-86529800D01*
X108846545Y-86529800D01*
X108993456Y-86529800D01*
X108993457Y-86529799D01*
X109137542Y-86501140D01*
X109273269Y-86444920D01*
X109395420Y-86363301D01*
X109499301Y-86259420D01*
X109580920Y-86137269D01*
X109637140Y-86001542D01*
X109665800Y-85857455D01*
X109665800Y-85710545D01*
X109637140Y-85566458D01*
X109588313Y-85448580D01*
X109580921Y-85430733D01*
X109580916Y-85430724D01*
X109499301Y-85308580D01*
X109499298Y-85308576D01*
X109395423Y-85204701D01*
X109395419Y-85204698D01*
X109273275Y-85123083D01*
X109273266Y-85123078D01*
X109137544Y-85066861D01*
X109137545Y-85066861D01*
X109137542Y-85066860D01*
X109137538Y-85066859D01*
X109137534Y-85066858D01*
X108993459Y-85038200D01*
X108993455Y-85038200D01*
X108846545Y-85038200D01*
X108846540Y-85038200D01*
X108702465Y-85066858D01*
X108702455Y-85066861D01*
X108566733Y-85123078D01*
X108566724Y-85123083D01*
X108444580Y-85204698D01*
X108444576Y-85204701D01*
X108340701Y-85308576D01*
X108340698Y-85308580D01*
X108259083Y-85430724D01*
X108259078Y-85430733D01*
X108202861Y-85566455D01*
X108202858Y-85566465D01*
X108174200Y-85710540D01*
X79550000Y-85710540D01*
X79550000Y-84843995D01*
X91724499Y-84843995D01*
X91751418Y-84979322D01*
X91751421Y-84979332D01*
X91804221Y-85106804D01*
X91804228Y-85106817D01*
X91880885Y-85221541D01*
X91880888Y-85221545D01*
X91978454Y-85319111D01*
X91978458Y-85319114D01*
X92093182Y-85395771D01*
X92093195Y-85395778D01*
X92177585Y-85430733D01*
X92220672Y-85448580D01*
X92220676Y-85448580D01*
X92220677Y-85448581D01*
X92356004Y-85475500D01*
X92356007Y-85475500D01*
X92493995Y-85475500D01*
X92585041Y-85457389D01*
X92629328Y-85448580D01*
X92756811Y-85395775D01*
X92871542Y-85319114D01*
X92969114Y-85221542D01*
X93045775Y-85106811D01*
X93098580Y-84979328D01*
X93120527Y-84868995D01*
X99274499Y-84868995D01*
X99301418Y-85004322D01*
X99301421Y-85004332D01*
X99354221Y-85131804D01*
X99354228Y-85131817D01*
X99430885Y-85246541D01*
X99430888Y-85246545D01*
X99528454Y-85344111D01*
X99528458Y-85344114D01*
X99643182Y-85420771D01*
X99643195Y-85420778D01*
X99770667Y-85473578D01*
X99770672Y-85473580D01*
X99770676Y-85473580D01*
X99770677Y-85473581D01*
X99906004Y-85500500D01*
X99906007Y-85500500D01*
X100043995Y-85500500D01*
X100135041Y-85482389D01*
X100179328Y-85473580D01*
X100306811Y-85420775D01*
X100421542Y-85344114D01*
X100519114Y-85246542D01*
X100595775Y-85131811D01*
X100599392Y-85123080D01*
X100648578Y-85004332D01*
X100648580Y-85004328D01*
X100675500Y-84868993D01*
X100675500Y-84731007D01*
X100675500Y-84731004D01*
X100648581Y-84595677D01*
X100648580Y-84595676D01*
X100648580Y-84595672D01*
X100638223Y-84570667D01*
X100595778Y-84468195D01*
X100595771Y-84468182D01*
X100519114Y-84353458D01*
X100519111Y-84353454D01*
X100421545Y-84255888D01*
X100421541Y-84255885D01*
X100306817Y-84179228D01*
X100306804Y-84179221D01*
X100179332Y-84126421D01*
X100179322Y-84126418D01*
X100043995Y-84099500D01*
X100043993Y-84099500D01*
X99906007Y-84099500D01*
X99906005Y-84099500D01*
X99770677Y-84126418D01*
X99770667Y-84126421D01*
X99643195Y-84179221D01*
X99643182Y-84179228D01*
X99528458Y-84255885D01*
X99528454Y-84255888D01*
X99430888Y-84353454D01*
X99430885Y-84353458D01*
X99354228Y-84468182D01*
X99354221Y-84468195D01*
X99301421Y-84595667D01*
X99301418Y-84595677D01*
X99274500Y-84731004D01*
X99274500Y-84731007D01*
X99274500Y-84868993D01*
X99274500Y-84868995D01*
X99274499Y-84868995D01*
X93120527Y-84868995D01*
X93125500Y-84843993D01*
X93125500Y-84706007D01*
X93125500Y-84706004D01*
X93098581Y-84570677D01*
X93098580Y-84570676D01*
X93098580Y-84570672D01*
X93056133Y-84468195D01*
X93045778Y-84443195D01*
X93045771Y-84443182D01*
X92969114Y-84328458D01*
X92969111Y-84328454D01*
X92871545Y-84230888D01*
X92871541Y-84230885D01*
X92756817Y-84154228D01*
X92756804Y-84154221D01*
X92629332Y-84101421D01*
X92629322Y-84101418D01*
X92493995Y-84074500D01*
X92493993Y-84074500D01*
X92356007Y-84074500D01*
X92356005Y-84074500D01*
X92220677Y-84101418D01*
X92220667Y-84101421D01*
X92093195Y-84154221D01*
X92093182Y-84154228D01*
X91978458Y-84230885D01*
X91978454Y-84230888D01*
X91880888Y-84328454D01*
X91880885Y-84328458D01*
X91804228Y-84443182D01*
X91804221Y-84443195D01*
X91751421Y-84570667D01*
X91751418Y-84570677D01*
X91724500Y-84706004D01*
X91724500Y-84706007D01*
X91724500Y-84843993D01*
X91724500Y-84843995D01*
X91724499Y-84843995D01*
X79550000Y-84843995D01*
X79550000Y-82749000D01*
X79569685Y-82681961D01*
X79622489Y-82636206D01*
X79674000Y-82625000D01*
X94948638Y-82625000D01*
X95015677Y-82644685D01*
G37*
%TD.AperFunction*%
%TD*%
M02*
